<?xml version="1.0" encoding="UTF-8" standalone="no"?>
<svg xmlns:ffdec="https://www.free-decompiler.com/flash" xmlns:xlink="http://www.w3.org/1999/xlink" ffdec:objectType="frame" height="249.6px" width="250.65px" xmlns="http://www.w3.org/2000/svg">
  <g transform="matrix(1.0, 0.0, 0.0, 1.0, 61.25, 48.1)">
    
    
    <use ffdec:characterId="132" height="176.2" id="mcColor" transform="matrix(1.0, 0.0, 0.0, 1.0, 4.5, 22.0)" width="184.8" xlink:href="#sprite2"/>
    
    
    
    
    
    
    
    
    
    
    
    
  </g>
  <defs>
    <g id="sprite0">
      <use ffdec:characterId="127" height="201.55" transform="matrix(1.0, 0.0, 0.0, 1.0, 0.0, 0.0)" width="189.45" xlink:href="#shape0"/>
    </g>
    <g id="shape0">
      <path d="M142.05 169.15 L131.0 189.15 125.7 189.15 123.8 192.6 108.05 192.6 116.6 170.65 135.95 170.65 135.65 169.15 142.05 169.15 M112.9 198.45 L110.4 201.45 104.45 201.45 106.95 198.45 112.9 198.45 M91.75 201.45 L84.85 201.45 92.35 189.15 93.95 189.15 102.8 169.15 113.45 169.15 104.6 189.15 99.25 189.15 91.75 201.45 M58.75 195.55 L57.7 195.55 52.45 185.6 52.45 182.0 57.65 182.0 57.65 185.6 62.15 194.05 61.8 195.55 58.75 195.55 M11.0 92.15 L4.55 90.25 4.55 72.55 11.65 66.95 11.65 81.95 18.2 87.1 Q22.15 87.15 20.65 84.0 L15.3 80.15 15.3 65.35 15.3 62.15 20.65 58.25 Q22.15 55.15 18.2 55.15 L13.65 58.75 13.65 49.75 13.65 45.2 19.3 39.55 28.95 29.9 36.6 22.25 Q61.25 27.2 80.2 38.95 84.4 41.55 88.35 44.5 96.8 50.8 103.95 58.7 123.55 80.3 133.25 113.45 L125.25 139.95 114.05 145.7 97.1 154.35 84.55 143.65 80.0 139.75 84.55 143.65 82.75 149.5 78.75 149.5 77.0 149.5 80.0 139.75 61.0 123.6 57.1 120.25 53.3 117.05 50.4 114.55 44.65 114.55 34.9 114.55 28.7 107.25 17.5 94.1 11.0 92.15 M80.2 38.95 L68.65 49.2 80.2 38.95 M37.4 65.35 L37.4 62.15 42.75 58.25 Q44.25 55.15 40.3 55.15 L33.75 60.3 33.75 65.35 33.75 81.95 40.3 87.1 Q44.25 87.15 42.75 84.0 L37.4 80.15 37.4 65.35 44.8 65.35 37.4 65.35 M48.45 65.35 L48.45 62.15 53.8 58.25 Q55.3 55.15 51.35 55.15 L44.8 60.3 44.8 65.35 44.8 81.95 51.35 87.1 Q55.3 87.15 53.8 84.0 L48.45 80.15 48.45 65.35 50.4 65.35 68.05 49.75 50.4 65.35 48.45 65.35 M26.35 65.35 L26.35 62.15 31.7 58.25 Q33.2 55.15 29.25 55.15 L22.7 60.3 22.7 65.35 22.7 81.95 29.25 87.1 Q33.2 87.15 31.7 84.0 L26.35 80.15 26.35 65.35 33.75 65.35 26.35 65.35 M22.7 65.35 L15.3 65.35 22.7 65.35 M50.4 65.35 Q62.05 69.3 73.4 77.55 L73.4 99.2 50.4 114.55 73.4 99.2 73.4 77.55 Q62.05 69.3 50.4 65.35 M73.4 99.2 Q97.55 118.6 114.05 145.7 97.55 118.6 73.4 99.2 M89.8 155.05 L93.4 182.15 86.5 182.15 86.5 182.05 85.25 178.65 83.95 175.25 82.7 171.9 81.45 168.5 80.2 165.1 78.9 161.7 89.8 155.05 M75.6 182.05 L77.8 189.15 81.55 189.15 80.0 195.55 75.9 195.55 70.65 185.6 70.65 182.05 71.3 182.05 75.6 182.05 M67.45 155.0 L67.9 158.5 62.6 161.7 70.2 182.05 66.8 182.05 64.15 182.05 64.15 182.0 64.15 182.05 66.8 182.05 66.8 185.6 71.25 194.05 70.9 195.55 66.8 195.55 61.55 185.6 61.55 182.0 64.15 182.0 62.85 178.6 61.6 175.2 60.35 171.8 59.05 168.4 57.8 165.0 56.55 161.65 67.45 155.0 M99.25 189.15 L93.95 189.15 99.25 189.15 M125.7 189.15 L135.95 170.65 125.7 189.15 M73.4 77.55 Q100.1 96.9 125.25 139.95 100.1 96.9 73.4 77.55" fill="#666666" fill-rule="evenodd" stroke="none"/>
      <path d="M181.3 139.95 L153.15 154.35 149.85 154.35 178.05 139.95 181.3 139.95 M123.8 192.6 L114.5 198.45 112.9 198.45 106.95 198.45 104.45 201.45 91.75 201.45 99.25 189.15 104.6 189.15 113.45 169.15 108.75 154.35 110.55 154.35 116.6 170.65 108.05 192.6 123.8 192.6 M84.85 201.45 L64.55 201.45 59.45 197.05 58.75 195.55 61.8 195.55 62.15 194.05 62.9 195.55 66.8 195.55 70.9 195.55 71.25 194.05 72.05 195.55 75.9 195.55 80.0 195.55 81.55 189.15 77.8 189.15 75.6 182.05 86.5 182.05 86.5 182.15 93.4 182.15 89.8 155.05 76.95 155.05 78.75 149.5 82.75 149.5 84.55 143.65 97.1 154.35 114.05 145.7 125.25 139.95 129.4 139.95 130.55 136.15 131.7 132.35 132.85 128.6 133.95 124.8 135.1 121.0 136.25 117.25 180.9 117.25 183.2 121.0 179.75 121.0 171.75 121.0 179.75 121.0 182.05 124.8 178.6 124.8 180.9 128.6 177.45 128.6 179.8 132.35 176.3 132.35 178.6 136.15 175.2 136.15 177.5 139.95 173.1 139.95 129.4 139.95 126.35 141.5 123.25 143.1 120.2 144.65 117.1 146.25 113.85 147.9 110.6 149.55 107.35 151.2 104.1 152.85 101.25 154.35 98.1 154.35 102.8 169.15 93.95 189.15 92.35 189.15 81.55 189.15 92.35 189.15 84.85 201.45 M11.65 66.95 L11.65 60.3 13.65 58.75 18.2 55.15 Q22.15 55.15 20.65 58.25 L15.3 62.15 15.3 65.35 15.3 80.15 20.65 84.0 Q22.15 87.15 18.2 87.1 L11.65 81.95 11.65 66.95 M13.65 49.75 L8.75 47.0 8.75 39.55 8.75 35.55 17.85 18.25 29.0 15.85 31.5 9.4 39.25 9.4 41.15 4.3 51.35 0.0 63.55 0.0 64.4 9.4 60.1 9.4 62.45 22.25 36.6 22.25 28.95 29.9 19.3 39.55 13.55 39.55 19.3 39.55 13.65 45.2 13.65 49.75 M67.7 0.0 L71.85 0.0 72.7 9.4 70.05 9.4 67.7 0.0 M76.0 0.0 L80.15 0.0 81.0 9.4 78.35 9.4 76.0 0.0 M84.3 0.0 L88.45 0.0 89.25 9.4 86.65 9.4 84.3 0.0 M171.3 121.0 L135.1 121.0 171.3 121.0 M171.75 128.6 L177.45 128.6 171.75 128.6 M171.75 124.8 L178.6 124.8 171.75 124.8 M171.75 136.15 L175.2 136.15 171.75 136.15 M171.75 132.35 L176.3 132.35 171.75 132.35 M29.0 15.85 L26.4 22.25 26.4 27.95 28.95 29.9 26.4 27.95 26.4 22.25 29.0 15.85 M12.85 39.55 L8.75 39.55 12.85 39.55 M37.4 65.35 L37.4 80.15 42.75 84.0 Q44.25 87.15 40.3 87.1 L33.75 81.95 33.75 65.35 33.75 60.3 40.3 55.15 Q44.25 55.15 42.75 58.25 L37.4 62.15 37.4 65.35 M44.8 65.35 L44.8 60.3 51.35 55.15 Q55.3 55.15 53.8 58.25 L48.45 62.15 48.45 65.35 48.45 80.15 53.8 84.0 Q55.3 87.15 51.35 87.1 L44.8 81.95 44.8 65.35 M26.35 65.35 L26.35 80.15 31.7 84.0 Q33.2 87.15 29.25 87.1 L22.7 81.95 22.7 65.35 22.7 60.3 29.25 55.15 Q33.2 55.15 31.7 58.25 L26.35 62.15 26.35 65.35 M60.1 9.4 L39.25 9.4 60.1 9.4 M61.0 123.6 L80.0 139.75 77.0 149.5 72.3 149.5 63.7 145.95 61.0 144.8 61.0 123.6 M97.1 154.35 L98.1 154.35 97.1 154.35 M62.6 161.7 L66.9 161.7 65.0 165.1 68.15 165.1 66.25 168.5 69.45 168.5 67.5 171.9 70.7 171.9 68.8 175.25 71.95 175.25 70.05 178.65 73.2 178.65 71.3 182.05 70.65 182.05 70.65 185.6 66.8 185.6 66.8 182.05 70.2 182.05 62.6 161.7 M44.5 161.65 L42.6 165.0 45.8 165.0 45.8 165.05 43.85 168.4 47.05 168.4 47.05 168.45 45.15 171.8 48.3 171.8 48.3 171.85 46.4 175.2 49.55 175.2 47.7 178.6 50.85 178.6 48.95 182.0 48.55 182.0 48.95 182.0 52.45 182.0 52.45 185.6 48.55 185.6 48.55 183.8 48.55 182.0 47.8 182.0 40.25 161.65 44.5 161.65 M57.65 182.0 L61.55 182.0 61.55 185.6 57.65 185.6 57.65 182.0 M70.2 182.05 L70.65 182.05 70.2 182.05 M93.95 198.45 L100.25 198.45 106.95 198.45 100.25 198.45 93.95 198.45 M171.3 124.8 L133.95 124.8 171.3 124.8 M171.3 136.15 L130.55 136.15 171.3 136.15 M171.3 132.35 L131.7 132.35 171.3 132.35 M171.3 128.6 L132.85 128.6 171.3 128.6 M100.25 198.45 L108.05 192.6 100.25 198.45" fill="#4c4c4c" fill-rule="evenodd" stroke="none"/>
      <path d="M149.85 154.35 L149.0 154.35 147.65 152.85 151.85 152.85 150.9 151.2 155.15 151.2 154.15 149.55 158.4 149.55 157.45 147.9 161.7 147.9 160.7 146.25 164.95 146.25 163.8 144.65 168.05 144.65 166.9 143.1 171.2 143.1 170.0 141.5 174.3 141.5 173.1 139.95 177.5 139.95 175.2 136.15 178.6 136.15 176.3 132.35 179.8 132.35 177.45 128.6 180.9 128.6 178.6 124.8 182.05 124.8 179.75 121.0 183.2 121.0 180.9 117.25 184.9 117.25 178.05 139.95 177.5 139.95 178.05 139.95 149.85 154.35 M51.4 190.95 L47.0 190.95 40.35 185.15 34.4 167.6 36.3 165.6 35.6 163.4 37.65 160.95 25.2 157.4 23.55 153.1 25.95 151.2 29.25 151.85 29.9 151.85 33.7 151.85 33.8 151.85 Q35.65 151.85 37.25 151.15 38.95 150.4 40.3 148.8 41.4 147.55 42.0 146.15 43.0 143.95 43.0 141.3 43.0 138.65 42.0 136.45 L41.6 135.65 40.3 133.8 Q37.65 130.75 33.85 130.7 L31.75 130.7 32.35 129.6 Q33.35 127.35 33.35 124.7 33.35 122.05 32.35 119.9 L31.95 119.05 30.65 117.25 Q28.55 114.85 25.85 114.3 L24.2 114.15 22.1 114.15 22.7 113.0 Q23.7 110.8 23.7 108.15 23.7 105.5 22.7 103.3 L22.25 102.45 20.95 100.65 Q18.3 97.6 14.55 97.55 L10.15 97.55 9.9 97.55 7.4 97.95 7.4 94.25 11.0 92.15 17.5 94.1 28.7 107.25 34.9 114.55 44.65 114.55 44.65 117.05 44.65 121.2 44.65 125.3 44.65 127.8 44.65 129.45 44.65 133.6 44.65 137.75 44.65 141.9 44.65 146.05 47.4 146.05 48.95 149.2 52.8 149.2 54.05 146.05 52.8 149.2 48.95 149.2 47.4 146.05 54.05 146.05 57.1 146.05 57.1 141.9 57.1 137.75 57.1 133.6 57.1 129.45 57.1 125.3 57.1 121.2 57.1 120.25 61.0 123.6 61.0 144.8 63.7 145.95 72.3 149.5 77.0 149.5 78.75 149.5 76.95 155.05 73.5 155.05 67.9 158.5 67.45 155.0 63.65 155.0 63.65 152.45 60.65 152.45 63.65 152.45 63.65 155.0 51.15 155.0 45.65 158.3 42.75 150.45 45.65 158.3 40.25 161.65 47.8 182.0 48.55 182.0 48.55 183.8 41.4 180.9 39.25 174.4 41.4 180.9 48.55 183.8 48.55 185.6 51.4 190.95 M22.85 148.9 L14.1 145.4 11.8 139.9 13.05 138.55 Q7.15 137.45 2.9 131.1 -2.25 122.65 1.75 113.15 2.4 114.45 3.4 115.6 L3.55 115.75 Q0.9 123.15 4.95 129.85 8.55 135.2 14.8 136.65 L16.5 134.7 Q17.95 135.3 19.6 135.3 L21.65 135.3 Q20.05 137.9 20.05 141.3 20.05 145.7 22.75 148.8 L22.85 148.9 M165.9 82.35 Q169.1 90.85 171.65 100.45 L151.8 100.45 Q149.3 92.45 146.3 85.25 L159.1 85.25 159.2 85.25 159.35 85.25 Q163.1 85.25 165.9 82.35 M132.65 60.4 L131.45 58.7 132.85 58.7 134.3 58.7 138.0 58.25 139.85 57.7 149.5 54.75 150.4 54.5 151.25 54.2 155.3 60.4 148.05 60.4 132.65 60.4 M34.15 119.2 L28.7 111.25 28.7 107.25 28.7 111.25 34.15 119.2 M34.45 119.6 L40.1 127.8 44.65 127.8 40.1 127.8 34.45 119.6 M14.8 136.65 L13.05 138.55 14.8 136.65 M36.3 165.6 L39.2 174.15 36.3 165.6 M37.35 152.05 L39.65 158.55 37.65 160.95 39.65 158.55 37.35 152.05 M86.5 182.05 L75.6 182.05 71.3 182.05 73.2 178.65 70.05 178.65 71.95 175.25 68.8 175.25 70.7 171.9 67.5 171.9 69.45 168.5 66.25 168.5 68.15 165.1 65.0 165.1 66.9 161.7 78.9 161.7 80.2 165.1 75.9 165.1 80.2 165.1 81.45 168.5 82.7 171.9 83.95 175.25 85.25 178.65 86.5 182.05 M56.55 161.65 L57.8 165.0 59.05 168.4 60.35 171.8 61.6 175.2 62.85 178.6 64.15 182.0 61.55 182.0 57.65 182.0 52.45 182.0 48.95 182.0 50.85 178.6 47.7 178.6 49.55 175.2 46.4 175.2 48.3 171.85 48.3 171.8 45.15 171.8 47.05 168.45 47.05 168.4 43.85 168.4 45.8 165.05 45.8 165.0 42.6 165.0 44.5 161.65 56.55 161.65 M63.7 150.55 L63.65 152.45 63.7 150.55 M60.25 152.45 L49.05 152.45 46.75 150.45 42.75 150.45 41.95 148.3 42.75 150.45 46.75 150.45 49.05 152.45 60.25 152.45 M75.45 165.1 L68.15 165.1 75.45 165.1 M75.45 171.9 L70.7 171.9 75.45 171.9 M75.45 168.5 L69.45 168.5 75.45 168.5 M53.05 168.4 L47.05 168.4 53.05 168.4 M53.05 171.8 L48.3 171.8 53.05 171.8 M57.8 165.0 L53.55 165.0 57.8 165.0 M59.05 168.4 L53.55 168.4 59.05 168.4 M60.35 171.8 L53.55 171.8 60.35 171.8 M53.05 165.0 L45.8 165.0 53.05 165.0 M53.05 178.6 L50.85 178.6 53.05 178.6 M75.45 175.25 L71.95 175.25 75.45 175.25 M53.05 175.2 L49.55 175.2 53.05 175.2 M75.45 178.65 L73.2 178.65 75.45 178.65 M62.85 178.6 L53.55 178.6 62.85 178.6 M61.6 175.2 L53.55 175.2 61.6 175.2 M63.7 145.95 L63.7 150.2 63.7 145.95 M75.9 168.5 L81.45 168.5 75.9 168.5 M75.9 175.25 L83.95 175.25 75.9 175.25 M75.9 178.65 L85.25 178.65 75.9 178.65 M75.9 171.9 L82.7 171.9 75.9 171.9" fill="#333333" fill-rule="evenodd" stroke="none"/>
      <path d="M189.35 113.45 L181.35 139.95 181.3 139.95 178.05 139.95 184.9 117.25 180.9 117.25 136.25 117.25 135.1 121.0 133.95 124.8 132.85 128.6 131.7 132.35 130.55 136.15 129.4 139.95 125.25 139.95 133.25 113.45 144.7 113.45 181.75 113.45 189.35 113.45" fill="#595959" fill-rule="evenodd" stroke="none"/>
      <path d="M149.0 154.35 L139.0 154.35 132.25 154.35 110.55 154.35 108.75 154.35 101.25 154.35 104.1 152.85 107.35 151.2 110.6 149.55 140.75 149.55 110.6 149.55 113.85 147.9 117.1 146.25 120.2 144.65 123.25 143.1 126.35 141.5 129.4 139.95 173.1 139.95 174.3 141.5 170.0 141.5 171.2 143.1 166.9 143.1 168.05 144.65 163.8 144.65 164.95 146.25 160.7 146.25 161.7 147.9 157.45 147.9 141.1 147.9 157.45 147.9 158.4 149.55 154.15 149.55 155.15 151.2 150.9 151.2 151.85 152.85 147.65 152.85 149.0 154.35 M57.7 195.55 L53.8 195.55 51.4 190.95 48.55 185.6 52.45 185.6 57.7 195.55 M141.1 143.1 L166.9 143.1 141.1 143.1 M141.1 141.5 L170.0 141.5 141.1 141.5 M141.1 144.65 L163.8 144.65 141.1 144.65 M140.75 141.5 L126.35 141.5 140.75 141.5 M66.8 185.6 L70.65 185.6 75.9 195.55 72.05 195.55 71.25 194.05 66.8 185.6 M66.8 195.55 L62.9 195.55 62.15 194.05 57.65 185.6 61.55 185.6 66.8 195.55 M140.75 143.1 L123.25 143.1 140.75 143.1 M141.1 146.25 L160.7 146.25 141.1 146.25 M140.75 147.9 L113.85 147.9 140.75 147.9 M140.75 146.25 L117.1 146.25 140.75 146.25 M140.75 152.85 L104.1 152.85 140.75 152.85 M140.75 151.2 L107.35 151.2 140.75 151.2 M154.15 149.55 L141.1 149.55 154.15 149.55 M150.9 151.2 L141.1 151.2 150.9 151.2 M147.65 152.85 L141.1 152.85 147.65 152.85 M140.75 144.65 L120.2 144.65 140.75 144.65" fill="#3f3f3f" fill-rule="evenodd" stroke="none"/>
      <path d="M139.0 154.35 L142.05 169.15 135.65 169.15 135.95 170.65 116.6 170.65 110.55 154.35 132.25 154.35 139.0 154.35 M63.55 0.0 L67.7 0.0 70.05 9.4 72.7 9.4 71.85 0.0 76.0 0.0 78.35 9.4 81.0 9.4 80.15 0.0 84.3 0.0 86.65 9.4 89.25 9.4 88.45 0.0 92.6 0.0 94.95 9.4 98.25 9.4 100.25 14.75 87.55 14.75 87.3 14.75 81.5 14.75 81.25 14.75 Q74.25 14.95 69.2 21.15 L68.4 22.25 62.45 22.25 60.1 9.4 64.4 9.4 63.55 0.0 M86.65 9.4 L81.0 9.4 86.65 9.4 M94.95 9.4 L89.25 9.4 94.95 9.4 M78.35 9.4 L72.7 9.4 78.35 9.4 M70.05 9.4 L64.4 9.4 70.05 9.4 M67.9 158.5 L73.5 155.05 76.95 155.05 89.8 155.05 78.9 161.7 66.9 161.7 62.6 161.7 67.9 158.5 M102.8 169.15 L98.1 154.35 101.25 154.35 108.75 154.35 113.45 169.15 102.8 169.15 M63.65 155.0 L67.45 155.0 56.55 161.65 44.5 161.65 40.25 161.65 45.65 158.3 51.15 155.0 63.65 155.0 M132.25 154.35 L135.65 169.15 132.25 154.35" fill="#7f7f7f" fill-rule="evenodd" stroke="none"/>
      <path d="M161.75 25.2 L162.55 25.7 Q163.95 26.55 165.1 28.0 168.05 31.6 168.05 36.7 168.05 41.15 165.85 44.5 L165.4 45.1 165.1 45.45 162.55 47.8 Q162.2 48.0 161.8 48.25 L159.95 48.85 158.8 49.05 158.1 49.05 157.8 49.05 157.45 49.05 155.7 48.75 155.65 48.75 154.8 48.45 153.6 47.8 151.55 46.05 151.05 45.45 150.75 45.1 150.35 44.5 Q149.6 43.4 149.15 42.2 148.15 39.8 148.15 36.95 L148.15 36.7 Q148.15 34.25 148.8 32.15 149.3 30.65 150.1 29.35 L150.75 28.45 150.75 28.35 151.05 28.0 Q152.15 26.65 153.4 25.8 154.1 25.35 154.8 25.05 L156.1 24.6 157.45 24.4 157.8 24.4 157.95 24.4 158.1 24.4 Q160.1 24.4 161.75 25.2 M155.25 43.95 L156.05 44.5 156.55 44.75 157.45 45.0 158.65 45.15 158.85 45.15 Q160.3 45.15 161.55 44.5 162.7 43.85 163.65 42.7 165.65 40.2 165.65 36.7 165.65 33.2 163.65 30.7 161.65 28.25 158.85 28.25 L158.65 28.25 Q157.55 28.3 156.55 28.7 L155.25 29.5 154.0 30.7 153.25 31.85 Q152.0 33.95 152.0 36.7 152.0 40.2 154.0 42.7 L155.25 43.95" fill="url(#gradient0)" fill-rule="evenodd" stroke="none"/>
      <path d="M155.25 29.5 L156.55 28.7 Q157.55 28.3 158.65 28.25 L158.85 28.25 Q161.65 28.25 163.65 30.7 165.65 33.2 165.65 36.7 165.65 40.2 163.65 42.7 162.7 43.85 161.55 44.5 160.3 45.15 158.85 45.15 L158.65 45.15 157.45 45.0 156.55 44.75 156.05 44.5 155.25 43.95 155.35 43.95 155.55 43.95 Q157.95 43.95 159.65 41.8 160.5 40.7 160.95 39.45 161.35 38.2 161.35 36.7 161.35 33.7 159.65 31.6 157.95 29.5 155.55 29.5 L155.45 29.5 155.35 29.5 155.25 29.5" fill="url(#gradient1)" fill-rule="evenodd" stroke="none"/>
      <path d="M165.4 45.1 Q182.25 68.7 189.35 113.45 L181.75 113.45 144.7 113.45 133.25 113.45 Q123.55 80.3 103.95 58.7 96.8 50.8 88.35 44.5 84.4 41.55 80.2 38.95 61.25 27.2 36.6 22.25 L62.45 22.25 68.4 22.25 74.45 22.25 76.35 22.25 Q85.55 24.55 93.85 28.25 95.15 28.8 96.5 29.5 L98.7 30.6 102.95 32.95 103.75 33.4 108.25 36.3 112.0 38.95 117.35 43.35 118.65 44.5 119.25 45.05 125.55 51.45 128.7 55.25 130.7 57.75 131.2 58.45 131.45 58.7 132.65 60.4 138.45 69.4 Q142.65 76.65 146.2 85.05 L146.3 85.25 Q149.3 92.45 151.8 100.45 L171.65 100.45 Q169.1 90.85 165.9 82.35 L166.55 81.6 Q169.55 77.95 169.55 72.85 169.55 67.7 166.55 64.05 163.55 60.4 159.35 60.4 L159.2 60.4 159.1 60.4 155.3 60.4 151.25 54.2 153.9 52.7 160.15 49.2 160.45 49.05 161.8 48.25 Q162.2 48.0 162.55 47.8 L165.1 45.45 165.4 45.1 M98.5 38.95 L112.0 38.95 98.5 38.95 M181.75 113.45 Q180.35 104.65 178.55 96.6 180.35 104.65 181.75 113.45 M97.4 38.95 L80.2 38.95 97.4 38.95 M144.7 113.45 Q134.05 65.3 99.4 39.25 134.05 65.3 144.7 113.45 M178.35 95.6 Q171.9 67.15 160.45 49.05 171.9 67.15 178.35 95.6" fill="url(#gradient2)" fill-rule="evenodd" stroke="none"/>
      <path d="M159.1 60.4 L159.2 60.4 159.35 60.4 Q163.55 60.4 166.55 64.05 169.55 67.7 169.55 72.85 169.55 77.95 166.55 81.6 L165.9 82.35 Q163.1 85.25 159.35 85.25 L159.2 85.25 159.1 85.25 Q155.0 85.15 152.1 81.6 149.1 77.95 149.1 72.85 149.1 67.7 152.1 64.05 153.75 62.05 155.75 61.15 157.3 60.45 159.1 60.4 M155.05 79.25 L155.25 79.5 Q157.45 82.15 160.5 82.2 L160.6 82.2 160.7 82.2 Q163.25 82.2 165.2 80.5 L166.15 79.5 Q168.45 76.7 168.45 72.85 168.45 68.95 166.15 66.2 163.9 63.45 160.7 63.45 L160.6 63.45 160.5 63.45 Q158.9 63.5 157.55 64.25 156.3 64.95 155.25 66.2 L155.2 66.3 155.1 66.35 Q153.0 69.05 153.0 72.85 153.0 76.55 155.05 79.25" fill="url(#gradient3)" fill-rule="evenodd" stroke="none"/>
      <path d="M155.2 66.3 L155.25 66.2 Q156.3 64.95 157.55 64.25 158.9 63.5 160.5 63.45 L160.6 63.45 160.7 63.45 Q163.9 63.45 166.15 66.2 168.45 68.95 168.45 72.85 168.45 76.7 166.15 79.5 L165.2 80.5 Q163.25 82.2 160.7 82.2 L160.6 82.2 160.5 82.2 Q157.45 82.15 155.25 79.5 L155.05 79.25 Q156.25 80.05 157.8 80.1 L157.85 80.1 157.95 80.1 Q160.45 80.1 162.2 78.0 L163.35 76.05 Q163.95 74.6 163.95 72.85 163.95 69.8 162.2 67.65 160.55 65.65 158.25 65.55 L157.95 65.5 157.85 65.5 157.8 65.5 Q156.35 65.55 155.2 66.3" fill="url(#gradient4)" fill-rule="evenodd" stroke="none"/>
      <path d="M155.05 79.25 Q153.0 76.55 153.0 72.85 153.0 69.05 155.1 66.35 L155.2 66.3 Q156.35 65.55 157.8 65.5 L157.85 65.5 157.95 65.5 158.25 65.55 Q160.55 65.65 162.2 67.65 163.95 69.8 163.95 72.85 163.95 74.6 163.35 76.05 L162.2 78.0 Q160.45 80.1 157.95 80.1 L157.85 80.1 157.8 80.1 Q156.25 80.05 155.05 79.25" fill="url(#gradient5)" fill-rule="evenodd" stroke="none"/>
      <path d="M133.8 14.75 L134.05 14.75 134.3 14.75 136.7 14.9 149.5 18.7 146.45 18.3 146.25 18.3 146.0 18.35 145.15 18.4 144.3 18.5 144.05 18.55 Q142.75 18.8 141.55 19.3 L139.6 20.35 Q138.3 21.2 137.15 22.4 L135.95 23.7 135.55 24.25 128.05 23.7 135.55 24.25 134.25 26.15 133.05 28.75 132.65 29.85 Q132.0 31.9 131.75 34.2 L131.6 36.65 128.05 36.65 131.6 36.65 131.6 36.7 131.75 38.95 Q132.0 41.9 132.95 44.5 L134.25 47.3 135.95 49.75 136.55 50.45 Q138.3 52.35 140.2 53.5 L141.55 54.2 143.8 54.85 144.3 54.95 146.0 55.1 146.45 55.1 147.85 55.05 149.5 54.75 139.85 57.7 138.0 58.25 134.3 58.7 132.85 58.7 131.45 58.7 131.2 58.45 130.7 57.75 128.7 55.25 125.55 51.45 119.25 45.05 118.65 44.5 117.35 43.35 Q116.85 41.2 116.65 38.95 L116.6 36.7 116.6 36.6 Q116.6 32.7 117.55 29.35 L117.7 28.75 118.6 26.45 Q119.35 24.7 120.4 23.05 L120.95 22.25 121.75 21.15 Q122.85 19.8 124.1 18.7 126.1 16.9 128.4 15.9 L128.45 15.9 Q130.95 14.85 133.8 14.75 M127.8 19.1 L124.1 18.7 127.8 19.1 M128.05 19.15 L139.6 20.35 128.05 19.15 M132.9 16.7 L144.05 18.55 132.9 16.7 M132.6 16.65 L128.4 15.9 132.6 16.65 M128.05 29.7 L132.65 29.85 128.05 29.7 M119.25 45.05 L132.95 44.5 119.25 45.05 M130.7 57.75 L143.8 54.85 130.7 57.75 M132.85 58.7 L146.45 55.1 132.85 58.7 M128.7 55.25 L140.2 53.5 128.7 55.25 M125.55 51.45 L136.55 50.45 125.55 51.45 M127.8 36.65 L116.6 36.6 127.8 36.65 M127.8 29.65 L117.55 29.35 127.8 29.65 M127.8 23.65 L120.4 23.05 127.8 23.65" fill="url(#gradient6)" fill-rule="evenodd" stroke="none"/>
      <path d="M149.5 18.7 L149.9 18.8 150.2 18.85 Q151.6 19.3 152.9 20.1 L153.2 20.3 161.75 25.2 Q160.1 24.4 158.1 24.4 L157.95 24.4 157.8 24.4 157.45 24.4 156.1 24.6 154.8 25.05 Q154.1 25.35 153.4 25.8 152.15 26.65 151.05 28.0 L150.75 28.35 150.75 28.45 150.1 29.35 Q149.3 30.65 148.8 32.15 148.15 34.25 148.15 36.7 L148.15 36.95 Q148.15 39.8 149.15 42.2 149.6 43.4 150.35 44.5 L150.75 45.1 151.05 45.45 151.55 46.05 153.6 47.8 154.8 48.45 155.65 48.75 155.7 48.75 157.45 49.05 157.8 49.05 158.1 49.05 158.8 49.05 159.95 48.85 161.8 48.25 160.45 49.05 160.15 49.2 159.95 48.85 160.15 49.2 153.9 52.7 151.25 54.2 150.4 54.5 149.5 54.75 147.85 55.05 146.45 55.1 146.0 55.1 144.3 54.95 143.8 54.85 141.55 54.2 140.2 53.5 Q138.3 52.35 136.55 50.45 L135.95 49.75 134.25 47.3 132.95 44.5 Q132.0 41.9 131.75 38.95 L131.6 36.7 131.6 36.65 131.75 34.2 Q132.0 31.9 132.65 29.85 L133.05 28.75 134.25 26.15 135.55 24.25 135.95 23.7 137.15 22.4 Q138.3 21.2 139.6 20.35 L141.55 19.3 Q142.75 18.8 144.05 18.55 L144.3 18.5 145.15 18.4 146.0 18.35 146.25 18.3 146.45 18.3 149.5 18.7 M156.1 24.6 L148.15 20.65 156.1 24.6 M147.8 20.45 L144.05 18.55 147.8 20.45 M141.85 26.0 L135.55 24.25 141.85 26.0 M141.85 36.85 L131.6 36.65 141.85 36.85 M150.75 28.45 L142.25 26.1 150.75 28.45 M148.8 32.15 L142.25 31.2 148.8 32.15 M148.15 36.95 L142.25 36.85 148.15 36.95 M153.4 25.8 L148.15 23.7 153.4 25.8 M149.15 42.2 L132.95 44.5 149.15 42.2 M141.85 31.15 L132.65 29.85 141.85 31.15 M147.8 23.55 L139.6 20.35 147.8 23.55 M152.1 52.7 L147.85 55.05 152.1 52.7 M158.8 49.05 L152.45 52.55 158.8 49.05 M155.65 48.75 L143.8 54.85 155.65 48.75 M151.55 46.05 L136.55 50.45 151.55 46.05 M153.6 47.8 L140.2 53.5 153.6 47.8" fill="url(#gradient7)" fill-rule="evenodd" stroke="none"/>
      <path d="M100.25 14.75 L112.7 14.75 120.75 14.75 120.95 14.75 133.8 14.75 Q130.95 14.85 128.45 15.9 L128.4 15.9 Q126.1 16.9 124.1 18.7 122.85 19.8 121.75 21.15 L120.95 22.25 120.4 23.05 Q119.35 24.7 118.6 26.45 L117.7 28.75 117.55 29.35 Q116.6 32.7 116.6 36.6 L116.6 36.7 116.65 38.95 Q116.85 41.2 117.35 43.35 L112.0 38.95 108.25 36.3 103.75 33.4 102.95 32.95 98.7 30.6 96.5 29.5 Q95.15 28.8 93.85 28.25 85.55 24.55 76.35 22.25 L74.45 22.25 68.4 22.25 69.2 21.15 Q74.25 14.95 81.25 14.75 L81.5 14.75 87.3 14.75 87.55 14.75 100.25 14.75 M120.75 14.75 Q115.25 14.9 111.0 18.75 115.25 14.9 120.75 14.75 M112.7 14.75 Q110.7 14.8 108.8 15.4 105.65 16.35 103.0 18.75 105.65 16.35 108.8 15.4 110.7 14.8 112.7 14.75 M110.7 19.0 L108.7 21.15 107.9 22.25 107.0 23.7 Q105.5 26.05 104.7 28.75 104.0 30.95 103.75 33.4 104.0 30.95 104.7 28.75 105.5 26.05 107.0 23.7 L107.9 22.25 108.7 21.15 110.7 19.0 M102.7 19.0 L100.7 21.15 99.9 22.25 98.95 23.7 Q97.5 26.05 96.65 28.75 L96.5 29.5 96.65 28.75 Q97.5 26.05 98.95 23.7 L99.9 22.25 100.7 21.15 102.7 19.0 M77.3 19.0 Q76.25 20.0 75.3 21.15 L74.45 22.25 75.3 21.15 Q76.25 20.0 77.3 19.0 M87.3 14.75 Q81.85 14.9 77.6 18.75 81.85 14.9 87.3 14.75" fill="url(#gradient8)" fill-rule="evenodd" stroke="none"/>
      <path d="M155.25 43.95 L154.0 42.7 Q152.0 40.2 152.0 36.7 152.0 33.95 153.25 31.85 L154.0 30.7 155.25 29.5 155.35 29.5 155.45 29.5 155.55 29.5 Q157.95 29.5 159.65 31.6 161.35 33.7 161.35 36.7 161.35 38.2 160.95 39.45 160.5 40.7 159.65 41.8 157.95 43.95 155.55 43.95 L155.35 43.95 155.25 43.95" fill="url(#gradient9)" fill-rule="evenodd" stroke="none"/>
      <path d="M146.3 85.25 L146.2 85.05 Q142.65 76.65 138.45 69.4 L132.65 60.4 148.05 60.4 155.3 60.4 159.1 60.4 Q157.3 60.45 155.75 61.15 153.75 62.05 152.1 64.05 149.1 67.7 149.1 72.85 149.1 77.95 152.1 81.6 155.0 85.15 159.1 85.25 L146.3 85.25 M148.05 60.4 Q146.25 60.45 144.7 61.15 142.8 62.0 141.2 63.85 142.8 62.0 144.7 61.15 146.25 60.45 148.05 60.4 M140.7 64.5 Q139.05 66.65 138.45 69.4 139.05 66.65 140.7 64.5" fill="url(#gradient10)" fill-rule="evenodd" stroke="none"/>
      <path d="M1.75 113.15 Q0.7 110.9 0.7 108.15 0.7 103.75 3.4 100.65 5.15 98.65 7.4 97.95 L9.9 97.55 10.15 97.55 12.2 97.85 Q14.55 98.5 16.4 100.65 L17.9 102.85 Q19.1 105.2 19.1 108.15 19.1 111.1 17.9 113.45 L17.3 114.45 Q14.9 115.1 13.05 117.25 L12.15 118.45 12.0 118.7 9.9 118.7 Q6.2 118.7 3.55 115.75 L3.4 115.6 Q2.4 114.45 1.75 113.15 M14.85 108.15 Q14.85 105.05 12.95 102.85 11.1 100.7 8.4 100.7 L7.95 100.7 Q5.55 100.85 3.8 102.85 1.95 105.05 1.95 108.15 1.95 111.25 3.8 113.4 5.55 115.4 7.9 115.55 L8.4 115.55 Q11.1 115.55 12.95 113.4 14.85 111.25 14.85 108.15" fill="url(#gradient11)" fill-rule="evenodd" stroke="none"/>
      <path d="M10.15 97.55 L14.55 97.55 Q18.3 97.6 20.95 100.65 L22.25 102.45 22.7 103.3 Q23.7 105.5 23.7 108.15 23.7 110.8 22.7 113.0 L22.1 114.15 20.25 114.15 19.6 114.15 17.3 114.45 17.9 113.45 Q19.1 111.1 19.1 108.15 19.1 105.2 17.9 102.85 L16.4 100.65 Q14.55 98.5 12.2 97.85 L10.15 97.55" fill="url(#gradient12)" fill-rule="evenodd" stroke="none"/>
      <path d="M46.6 117.05 L44.65 117.05 46.6 117.05 M46.6 121.2 L44.65 121.2 46.6 121.2 M44.65 125.3 L44.65 121.2 44.65 117.05 44.65 114.55 50.4 114.55 53.3 117.05 57.1 120.25 57.1 121.2 47.0 121.2 57.1 121.2 57.1 125.3 57.1 129.45 57.1 133.6 57.1 137.75 57.1 141.9 57.1 146.05 54.05 146.05 47.4 146.05 44.65 146.05 44.65 141.9 44.65 137.75 44.65 133.6 44.65 129.45 44.65 127.8 44.65 125.3 46.6 125.3 44.65 125.3 M47.0 117.05 L53.3 117.05 47.0 117.05 M57.1 141.9 L47.0 141.9 57.1 141.9 M46.6 137.75 L44.65 137.75 46.6 137.75 M46.6 141.9 L44.65 141.9 46.6 141.9 M46.6 129.45 L44.65 129.45 46.6 129.45 M46.6 133.6 L44.65 133.6 46.6 133.6 M57.1 125.3 L47.0 125.3 57.1 125.3 M57.1 129.45 L47.0 129.45 57.1 129.45 M57.1 133.6 L47.0 133.6 57.1 133.6 M57.1 137.75 L47.0 137.75 57.1 137.75" fill="url(#gradient13)" fill-rule="evenodd" stroke="none"/>
      <path d="M31.75 130.7 L33.85 130.7 Q37.65 130.75 40.3 133.8 L41.6 135.65 42.0 136.45 Q43.0 138.65 43.0 141.3 43.0 143.95 42.0 146.15 41.4 147.55 40.3 148.8 38.95 150.4 37.25 151.15 35.65 151.85 33.8 151.85 L33.7 151.85 29.9 151.85 31.55 151.55 Q33.9 150.9 35.75 148.8 L37.25 146.6 Q38.45 144.25 38.45 141.3 38.45 138.35 37.25 136.0 L35.75 133.8 Q33.9 131.7 31.55 131.0 L29.5 130.7 31.75 130.7" fill="url(#gradient14)" fill-rule="evenodd" stroke="none"/>
      <path d="M22.1 114.15 L24.2 114.15 25.85 114.3 Q28.55 114.85 30.65 117.25 L31.95 119.05 32.35 119.9 Q33.35 122.05 33.35 124.7 33.35 127.35 32.35 129.6 L31.75 130.7 29.5 130.7 29.25 130.7 27.0 131.0 27.55 130.0 Q28.8 127.65 28.8 124.7 28.8 121.75 27.55 119.4 L26.1 117.25 25.85 116.95 Q24.1 115.05 21.9 114.45 L20.25 114.15 22.1 114.15" fill="url(#gradient15)" fill-rule="evenodd" stroke="none"/>
      <path d="M17.3 114.45 L19.6 114.15 20.25 114.15 21.9 114.45 Q24.1 115.05 25.85 116.95 L26.1 117.25 27.55 119.4 Q28.8 121.75 28.8 124.7 28.8 127.65 27.55 130.0 L27.0 131.0 25.85 131.45 Q24.15 132.2 22.75 133.8 L21.85 135.0 21.65 135.3 19.6 135.3 Q17.95 135.3 16.5 134.7 14.6 133.95 13.05 132.2 10.4 129.1 10.4 124.7 10.4 121.35 12.0 118.7 L12.15 118.45 13.05 117.25 Q14.9 115.1 17.3 114.45 M24.55 124.7 Q24.55 121.6 22.65 119.45 21.1 117.65 19.1 117.35 L18.05 117.25 17.6 117.3 Q15.75 117.4 14.3 118.65 L14.2 118.7 13.5 119.45 Q11.6 121.6 11.6 124.7 11.6 127.8 13.5 130.0 15.2 131.95 17.55 132.15 L18.05 132.15 Q20.75 132.15 22.65 130.0 24.55 127.8 24.55 124.7" fill="url(#gradient16)" fill-rule="evenodd" stroke="none"/>
      <path d="M14.85 108.15 Q14.85 111.25 12.95 113.4 11.1 115.55 8.4 115.55 L7.9 115.55 Q5.55 115.4 3.8 113.4 1.95 111.25 1.95 108.15 1.95 105.05 3.8 102.85 5.55 100.85 7.95 100.7 L8.4 100.7 Q11.1 100.7 12.95 102.85 14.85 105.05 14.85 108.15" fill="url(#gradient17)" fill-rule="evenodd" stroke="none"/>
      <path d="M24.55 124.7 Q24.55 127.8 22.65 130.0 20.75 132.15 18.05 132.15 L17.55 132.15 Q15.2 131.95 13.5 130.0 11.6 127.8 11.6 124.7 11.6 121.6 13.5 119.45 L14.2 118.7 14.3 118.65 Q15.75 117.4 17.6 117.3 L18.05 117.25 19.1 117.35 Q21.1 117.65 22.65 119.45 24.55 121.6 24.55 124.7" fill="url(#gradient18)" fill-rule="evenodd" stroke="none"/>
      <path d="M25.95 151.2 L25.85 151.15 Q24.2 150.4 22.85 148.9 L22.75 148.8 Q20.05 145.7 20.05 141.3 20.05 137.9 21.65 135.3 L21.85 135.0 22.75 133.8 Q24.15 132.2 25.85 131.45 L27.0 131.0 29.25 130.7 29.5 130.7 31.55 131.0 Q33.9 131.7 35.75 133.8 L37.25 136.0 Q38.45 138.35 38.45 141.3 38.45 144.25 37.25 146.6 L35.75 148.8 Q33.9 150.9 31.55 151.55 L29.9 151.85 29.25 151.85 25.95 151.2 M34.2 141.3 Q34.2 138.2 32.3 136.0 30.8 134.25 28.75 133.9 L27.75 133.85 27.25 133.85 25.85 134.15 24.0 135.2 23.85 135.3 23.15 136.0 Q21.25 138.2 21.25 141.3 21.25 144.4 23.15 146.55 24.35 147.9 25.85 148.45 L27.25 148.7 27.75 148.7 Q30.4 148.7 32.3 146.55 34.2 144.4 34.2 141.3" fill="url(#gradient19)" fill-rule="evenodd" stroke="none"/>
      <path d="M34.2 141.3 Q34.2 144.4 32.3 146.55 30.4 148.7 27.75 148.7 L27.25 148.7 25.85 148.45 Q24.35 147.9 23.15 146.55 21.25 144.4 21.25 141.3 21.25 138.2 23.15 136.0 L23.85 135.3 24.0 135.2 25.85 134.15 27.25 133.85 27.75 133.85 28.75 133.9 Q30.8 134.25 32.3 136.0 34.2 138.2 34.2 141.3" fill="url(#gradient20)" fill-rule="evenodd" stroke="none"/>
      <path d="M161.75 25.2 L162.55 25.7 Q163.95 26.55 165.1 28.0 168.05 31.6 168.05 36.7 168.05 41.15 165.85 44.5 L165.4 45.1 Q182.25 68.7 189.35 113.45 L181.35 139.95 181.3 139.95 153.15 154.35 149.85 154.35 149.0 154.35 139.0 154.35 142.05 169.15 131.0 189.15 125.7 189.15 123.8 192.6 114.5 198.45 112.9 198.45 110.4 201.45 104.45 201.45 91.75 201.45 84.85 201.45 64.55 201.45 59.45 197.05 58.75 195.55 57.7 195.55 53.8 195.55 51.4 190.95 47.0 190.95 40.35 185.15 34.4 167.6 36.3 165.6 35.6 163.4 37.65 160.95 25.2 157.4 23.55 153.1 25.95 151.2 25.85 151.15 Q24.2 150.4 22.85 148.9 L14.1 145.4 11.8 139.9 13.05 138.55 Q7.15 137.45 2.9 131.1 -2.25 122.65 1.75 113.15 0.7 110.9 0.7 108.15 0.7 103.75 3.4 100.65 5.15 98.65 7.4 97.95 L7.4 94.25 11.0 92.15 4.55 90.25 4.55 72.55 11.65 66.95 11.65 60.3 13.65 58.75 13.65 49.75 8.75 47.0 8.75 39.55 8.75 35.55 17.85 18.25 29.0 15.85 31.5 9.4 39.25 9.4 41.15 4.3 51.35 0.0 63.55 0.0 67.7 0.0 71.85 0.0 76.0 0.0 80.15 0.0 84.3 0.0 88.45 0.0 92.6 0.0 94.95 9.4 98.25 9.4 100.25 14.75 112.7 14.75 120.75 14.75 120.95 14.75 133.8 14.75 134.05 14.75 134.3 14.75 136.7 14.9 149.5 18.7 149.9 18.8 150.2 18.85 Q151.6 19.3 152.9 20.1 L153.2 20.3 161.75 25.2 Q160.1 24.4 158.1 24.4 L157.95 24.4 157.8 24.4 157.45 24.4 156.1 24.6 154.8 25.05 Q154.1 25.35 153.4 25.8 152.15 26.65 151.05 28.0 L150.75 28.35 150.75 28.45 150.1 29.35 Q149.3 30.65 148.8 32.15 148.15 34.25 148.15 36.7 L148.15 36.95 Q148.15 39.8 149.15 42.2 149.6 43.4 150.35 44.5 L150.75 45.1 151.05 45.45 151.55 46.05 153.6 47.8 154.8 48.45 155.65 48.75 155.7 48.75 157.45 49.05 157.8 49.05 158.1 49.05 158.8 49.05 159.95 48.85 161.8 48.25 Q162.2 48.0 162.55 47.8 L165.1 45.45 165.4 45.1 M155.25 29.5 L156.55 28.7 Q157.55 28.3 158.65 28.25 L158.85 28.25 Q161.65 28.25 163.65 30.7 165.65 33.2 165.65 36.7 165.65 40.2 163.65 42.7 162.7 43.85 161.55 44.5 160.3 45.15 158.85 45.15 L158.65 45.15 157.45 45.0 156.55 44.75 156.05 44.5 155.25 43.95 154.0 42.7 Q152.0 40.2 152.0 36.7 152.0 33.95 153.25 31.85 L154.0 30.7 155.25 29.5 155.35 29.5 155.45 29.5 155.55 29.5 Q157.95 29.5 159.65 31.6 161.35 33.7 161.35 36.7 161.35 38.2 160.95 39.45 160.5 40.7 159.65 41.8 157.95 43.95 155.55 43.95 L155.35 43.95 155.25 43.95 M159.1 60.4 L159.2 60.4 159.35 60.4 Q163.55 60.4 166.55 64.05 169.55 67.7 169.55 72.85 169.55 77.95 166.55 81.6 L165.9 82.35 Q169.1 90.85 171.65 100.45 L151.8 100.45 Q149.3 92.45 146.3 85.25 L146.2 85.05 Q142.65 76.65 138.45 69.4 L132.65 60.4 131.45 58.7 131.2 58.45 130.7 57.75 128.7 55.25 125.55 51.45 119.25 45.05 118.65 44.5 117.35 43.35 112.0 38.95 98.5 38.95 M155.2 66.3 L155.25 66.2 Q156.3 64.95 157.55 64.25 158.9 63.5 160.5 63.45 L160.6 63.45 160.7 63.45 Q163.9 63.45 166.15 66.2 168.45 68.95 168.45 72.85 168.45 76.7 166.15 79.5 L165.2 80.5 Q163.25 82.2 160.7 82.2 L160.6 82.2 160.5 82.2 Q157.45 82.15 155.25 79.5 L155.05 79.25 Q153.0 76.55 153.0 72.85 153.0 69.05 155.1 66.35 L155.2 66.3 Q156.35 65.55 157.8 65.5 L157.85 65.5 157.95 65.5 158.25 65.55 Q160.55 65.65 162.2 67.65 163.95 69.8 163.95 72.85 163.95 74.6 163.35 76.05 L162.2 78.0 Q160.45 80.1 157.95 80.1 L157.85 80.1 157.8 80.1 Q156.25 80.05 155.05 79.25 M171.75 121.0 L179.75 121.0 183.2 121.0 180.9 117.25 136.25 117.25 135.1 121.0 171.3 121.0 M176.3 132.35 L179.8 132.35 177.45 128.6 171.75 128.6 M177.45 128.6 L180.9 128.6 178.6 124.8 171.75 124.8 M178.6 124.8 L182.05 124.8 179.75 121.0 M163.8 144.65 L168.05 144.65 166.9 143.1 141.1 143.1 M166.9 143.1 L171.2 143.1 170.0 141.5 141.1 141.5 M160.7 146.25 L164.95 146.25 163.8 144.65 141.1 144.65 M170.0 141.5 L174.3 141.5 173.1 139.95 129.4 139.95 126.35 141.5 140.75 141.5 M178.05 139.95 L181.3 139.95 M173.1 139.95 L177.5 139.95 175.2 136.15 171.75 136.15 M175.2 136.15 L178.6 136.15 176.3 132.35 171.75 132.35 M177.5 139.95 L178.05 139.95 184.9 117.25 180.9 117.25 M189.35 113.45 L181.75 113.45 144.7 113.45 133.25 113.45 125.25 139.95 129.4 139.95 130.55 136.15 131.7 132.35 132.85 128.6 133.95 124.8 135.1 121.0 M178.55 96.6 Q180.35 104.65 181.75 113.45 M144.05 18.55 L144.3 18.5 145.15 18.4 146.0 18.35 146.25 18.3 146.45 18.3 149.5 18.7 M144.05 18.55 L147.8 20.45 M148.15 20.65 L156.1 24.6 M117.35 43.35 Q116.85 41.2 116.65 38.95 L116.6 36.7 116.6 36.6 Q116.6 32.7 117.55 29.35 L117.7 28.75 118.6 26.45 Q119.35 24.7 120.4 23.05 L120.95 22.25 121.75 21.15 Q122.85 19.8 124.1 18.7 126.1 16.9 128.4 15.9 L128.45 15.9 Q130.95 14.85 133.8 14.75 M124.1 18.7 L127.8 19.1 M135.55 24.25 L135.95 23.7 137.15 22.4 Q138.3 21.2 139.6 20.35 L128.05 19.15 M139.6 20.35 L141.55 19.3 Q142.75 18.8 144.05 18.55 L132.9 16.7 M128.05 23.7 L135.55 24.25 141.85 26.0 M128.4 15.9 L132.6 16.65 M132.65 29.85 L133.05 28.75 134.25 26.15 135.55 24.25 M131.6 36.65 L131.75 34.2 Q132.0 31.9 132.65 29.85 L128.05 29.7 M128.05 36.65 L131.6 36.65 141.85 36.85 M132.95 44.5 Q132.0 41.9 131.75 38.95 L131.6 36.7 131.6 36.65 M136.55 50.45 L135.95 49.75 134.25 47.3 132.95 44.5 119.25 45.05 M142.25 36.85 L148.15 36.95 M142.25 31.2 L148.8 32.15 M142.25 26.1 L150.75 28.45 M160.15 49.2 L160.45 49.05 161.8 48.25 M159.95 48.85 L160.15 49.2 153.9 52.7 151.25 54.2 155.3 60.4 159.1 60.4 Q157.3 60.45 155.75 61.15 153.75 62.05 152.1 64.05 149.1 67.7 149.1 72.85 149.1 77.95 152.1 81.6 155.0 85.15 159.1 85.25 L159.2 85.25 159.35 85.25 Q163.1 85.25 165.9 82.35 M139.6 20.35 L147.8 23.55 M132.65 29.85 L141.85 31.15 M132.95 44.5 L149.15 42.2 M148.15 23.7 L153.4 25.8 M103.75 33.4 Q104.0 30.95 104.7 28.75 105.5 26.05 107.0 23.7 L107.9 22.25 108.7 21.15 110.7 19.0 M103.0 18.75 Q105.65 16.35 108.8 15.4 110.7 14.8 112.7 14.75 M111.0 18.75 Q115.25 14.9 120.75 14.75 M84.3 0.0 L86.65 9.4 89.25 9.4 88.45 0.0 M81.0 9.4 L86.65 9.4 M68.4 22.25 L69.2 21.15 Q74.25 14.95 81.25 14.75 L81.5 14.75 87.3 14.75 87.55 14.75 100.25 14.75 M96.5 29.5 L96.65 28.75 Q97.5 26.05 98.95 23.7 L99.9 22.25 100.7 21.15 102.7 19.0 M89.25 9.4 L94.95 9.4 M96.5 29.5 L98.7 30.6 102.95 32.95 103.75 33.4 108.25 36.3 112.0 38.95 M96.5 29.5 Q95.15 28.8 93.85 28.25 85.55 24.55 76.35 22.25 L74.45 22.25 68.4 22.25 62.45 22.25 36.6 22.25 Q61.25 27.2 80.2 38.95 L97.4 38.95 M151.25 54.2 L150.4 54.5 149.5 54.75 139.85 57.7 138.0 58.25 134.3 58.7 132.85 58.7 131.45 58.7 M146.45 55.1 L146.0 55.1 144.3 54.95 143.8 54.85 130.7 57.75 M149.5 54.75 L147.85 55.05 146.45 55.1 132.85 58.7 M141.2 63.85 Q142.8 62.0 144.7 61.15 146.25 60.45 148.05 60.4 L132.65 60.4 M147.85 55.05 L152.1 52.7 M155.3 60.4 L148.05 60.4 M143.8 54.85 L141.55 54.2 140.2 53.5 128.7 55.25 M140.2 53.5 Q138.3 52.35 136.55 50.45 L125.55 51.45 M138.45 69.4 Q139.05 66.65 140.7 64.5 M146.3 85.25 L159.1 85.25 M120.4 23.05 L127.8 23.65 M117.55 29.35 L127.8 29.65 M116.6 36.6 L127.8 36.65 M80.2 38.95 Q84.4 41.55 88.35 44.5 96.8 50.8 103.95 58.7 123.55 80.3 133.25 113.45 M140.2 53.5 L153.6 47.8 M136.55 50.45 L151.55 46.05 M143.8 54.85 L155.65 48.75 M152.45 52.55 L158.8 49.05 M76.0 0.0 L78.35 9.4 81.0 9.4 80.15 0.0 M67.7 0.0 L70.05 9.4 72.7 9.4 71.85 0.0 M72.7 9.4 L78.35 9.4 M60.1 9.4 L64.4 9.4 63.55 0.0 M64.4 9.4 L70.05 9.4 M74.45 22.25 L75.3 21.15 Q76.25 20.0 77.3 19.0 M68.65 49.2 L80.2 38.95 M60.1 9.4 L62.45 22.25 M28.95 29.9 L26.4 27.95 26.4 22.25 29.0 15.85 M13.55 39.55 L19.3 39.55 28.95 29.9 36.6 22.25 M8.75 39.55 L12.85 39.55 M13.65 49.75 L13.65 45.2 19.3 39.55 M37.4 65.35 L37.4 62.15 42.75 58.25 Q44.25 55.15 40.3 55.15 L33.75 60.3 33.75 65.35 33.75 81.95 40.3 87.1 Q44.25 87.15 42.75 84.0 L37.4 80.15 37.4 65.35 44.8 65.35 44.8 60.3 51.35 55.15 Q55.3 55.15 53.8 58.25 L48.45 62.15 48.45 65.35 50.4 65.35 68.05 49.75 M26.35 65.35 L26.35 62.15 31.7 58.25 Q33.2 55.15 29.25 55.15 L22.7 60.3 22.7 65.35 22.7 81.95 29.25 87.1 Q33.2 87.15 31.7 84.0 L26.35 80.15 26.35 65.35 33.75 65.35 M13.65 58.75 L18.2 55.15 Q22.15 55.15 20.65 58.25 L15.3 62.15 15.3 65.35 22.7 65.35 M7.4 97.95 L9.9 97.55 10.15 97.55 14.55 97.55 Q18.3 97.6 20.95 100.65 L22.25 102.45 22.7 103.3 Q23.7 105.5 23.7 108.15 23.7 110.8 22.7 113.0 L22.1 114.15 24.2 114.15 25.85 114.3 Q28.55 114.85 30.65 117.25 L31.95 119.05 32.35 119.9 Q33.35 122.05 33.35 124.7 33.35 127.35 32.35 129.6 L31.75 130.7 33.85 130.7 Q37.65 130.75 40.3 133.8 L41.6 135.65 42.0 136.45 Q43.0 138.65 43.0 141.3 43.0 143.95 42.0 146.15 41.4 147.55 40.3 148.8 38.95 150.4 37.25 151.15 35.65 151.85 33.8 151.85 L33.7 151.85 29.9 151.85 29.25 151.85 25.95 151.2 M28.7 107.25 L17.5 94.1 11.0 92.15 M10.15 97.55 L12.2 97.85 Q14.55 98.5 16.4 100.65 L17.9 102.85 Q19.1 105.2 19.1 108.15 19.1 111.1 17.9 113.45 L17.3 114.45 19.6 114.15 20.25 114.15 22.1 114.15 M11.65 66.95 L11.65 81.95 18.2 87.1 Q22.15 87.15 20.65 84.0 L15.3 80.15 15.3 65.35 M44.8 65.35 L44.8 81.95 51.35 87.1 Q55.3 87.15 53.8 84.0 L48.45 80.15 48.45 65.35 M50.4 114.55 L73.4 99.2 73.4 77.55 Q62.05 69.3 50.4 65.35 M39.25 9.4 L60.1 9.4 M44.65 121.2 L46.6 121.2 M44.65 117.05 L46.6 117.05 M44.65 117.05 L44.65 121.2 44.65 125.3 46.6 125.3 M44.65 114.55 L44.65 117.05 M53.3 117.05 L50.4 114.55 44.65 114.55 34.9 114.55 28.7 107.25 28.7 111.25 34.15 119.2 M57.1 120.25 L53.3 117.05 47.0 117.05 M57.1 121.2 L57.1 120.25 61.0 123.6 80.0 139.75 84.55 143.65 97.1 154.35 114.05 145.7 Q97.55 118.6 73.4 99.2 M47.0 121.2 L57.1 121.2 57.1 125.3 57.1 129.45 57.1 133.6 57.1 137.75 57.1 141.9 57.1 146.05 54.05 146.05 52.8 149.2 48.95 149.2 47.4 146.05 44.65 146.05 44.65 141.9 44.65 137.75 44.65 133.6 44.65 129.45 44.65 127.8 40.1 127.8 34.45 119.6 M44.65 125.3 L44.65 127.8 M44.65 133.6 L46.6 133.6 M44.65 129.45 L46.6 129.45 M44.65 141.9 L46.6 141.9 M44.65 137.75 L46.6 137.75 M47.0 141.9 L57.1 141.9 M47.4 146.05 L54.05 146.05 M47.0 137.75 L57.1 137.75 M47.0 133.6 L57.1 133.6 M47.0 129.45 L57.1 129.45 M47.0 125.3 L57.1 125.3 M61.0 123.6 L61.0 144.8 63.7 145.95 72.3 149.5 77.0 149.5 80.0 139.75 M20.25 114.15 L21.9 114.45 Q24.1 115.05 25.85 116.95 L26.1 117.25 27.55 119.4 Q28.8 121.75 28.8 124.7 28.8 127.65 27.55 130.0 L27.0 131.0 29.25 130.7 29.5 130.7 31.75 130.7 M14.85 108.15 Q14.85 111.25 12.95 113.4 11.1 115.55 8.4 115.55 L7.9 115.55 Q5.55 115.4 3.8 113.4 1.95 111.25 1.95 108.15 1.95 105.05 3.8 102.85 5.55 100.85 7.95 100.7 L8.4 100.7 Q11.1 100.7 12.95 102.85 14.85 105.05 14.85 108.15 M12.0 118.7 L9.9 118.7 Q6.2 118.7 3.55 115.75 0.9 123.15 4.95 129.85 8.55 135.2 14.8 136.65 L16.5 134.7 Q14.6 133.95 13.05 132.2 10.4 129.1 10.4 124.7 10.4 121.35 12.0 118.7 L12.15 118.45 13.05 117.25 Q14.9 115.1 17.3 114.45 M3.55 115.75 L3.4 115.6 Q2.4 114.45 1.75 113.15 M24.55 124.7 Q24.55 127.8 22.65 130.0 20.75 132.15 18.05 132.15 L17.55 132.15 Q15.2 131.95 13.5 130.0 11.6 127.8 11.6 124.7 11.6 121.6 13.5 119.45 L14.2 118.7 14.3 118.65 Q15.75 117.4 17.6 117.3 L18.05 117.25 19.1 117.35 Q21.1 117.65 22.65 119.45 24.55 121.6 24.55 124.7 M21.65 135.3 L19.6 135.3 Q17.95 135.3 16.5 134.7 M13.05 138.55 L14.8 136.65 M29.5 130.7 L31.55 131.0 Q33.9 131.7 35.75 133.8 L37.25 136.0 Q38.45 138.35 38.45 141.3 38.45 144.25 37.25 146.6 L35.75 148.8 Q33.9 150.9 31.55 151.55 L29.9 151.85 M21.65 135.3 L21.85 135.0 22.75 133.8 Q24.15 132.2 25.85 131.45 L27.0 131.0 M34.2 141.3 Q34.2 144.4 32.3 146.55 30.4 148.7 27.75 148.7 L27.25 148.7 25.85 148.45 Q24.35 147.9 23.15 146.55 21.25 144.4 21.25 141.3 21.25 138.2 23.15 136.0 L23.85 135.3 24.0 135.2 25.85 134.15 27.25 133.85 27.75 133.85 28.75 133.9 Q30.8 134.25 32.3 136.0 34.2 138.2 34.2 141.3 M22.85 148.9 L22.75 148.8 Q20.05 145.7 20.05 141.3 20.05 137.9 21.65 135.3 M37.65 160.95 L39.65 158.55 37.35 152.05 M39.2 174.15 L36.3 165.6 M76.95 155.05 L78.75 149.5 77.0 149.5 M67.9 158.5 L73.5 155.05 76.95 155.05 89.8 155.05 93.4 182.15 86.5 182.15 86.5 182.05 75.6 182.05 77.8 189.15 81.55 189.15 92.35 189.15 93.95 189.15 102.8 169.15 98.1 154.35 97.1 154.35 M63.65 155.0 L63.65 152.45 60.65 152.45 M67.45 155.0 L67.9 158.5 62.6 161.7 66.9 161.7 78.9 161.7 89.8 155.05 M63.65 155.0 L67.45 155.0 56.55 161.65 57.8 165.0 59.05 168.4 60.35 171.8 61.6 175.2 62.85 178.6 64.15 182.0 64.15 182.05 66.8 182.05 70.2 182.05 62.6 161.7 M63.65 152.45 L63.7 150.55 M71.3 182.05 L73.2 178.65 70.05 178.65 71.95 175.25 68.8 175.25 70.7 171.9 67.5 171.9 69.45 168.5 66.25 168.5 68.15 165.1 65.0 165.1 66.9 161.7 M75.9 165.1 L80.2 165.1 78.9 161.7 M69.45 168.5 L75.45 168.5 M70.7 171.9 L75.45 171.9 M68.15 165.1 L75.45 165.1 M41.95 148.3 L42.75 150.45 46.75 150.45 49.05 152.45 60.25 152.45 M45.65 158.3 L42.75 150.45 M48.95 182.0 L50.85 178.6 47.7 178.6 49.55 175.2 46.4 175.2 48.3 171.85 48.3 171.8 45.15 171.8 47.05 168.45 47.05 168.4 43.85 168.4 45.8 165.05 45.8 165.0 42.6 165.0 44.5 161.65 40.25 161.65 47.8 182.0 48.55 182.0 48.95 182.0 52.45 182.0 57.65 182.0 61.55 182.0 64.15 182.0 M53.55 171.8 L60.35 171.8 M53.55 168.4 L59.05 168.4 M53.55 165.0 L57.8 165.0 M48.3 171.8 L53.05 171.8 M47.05 168.4 L53.05 168.4 M45.65 158.3 L51.15 155.0 63.65 155.0 M44.5 161.65 L56.55 161.65 M45.8 165.0 L53.05 165.0 M52.45 185.6 L52.45 182.0 M57.65 185.6 L57.65 182.0 M50.85 178.6 L53.05 178.6 M48.55 183.8 L41.4 180.9 39.25 174.4 M48.55 183.8 L48.55 182.0 M48.55 185.6 L48.55 183.8 M57.7 195.55 L52.45 185.6 48.55 185.6 51.4 190.95 M49.55 175.2 L53.05 175.2 M71.95 175.25 L75.45 175.25 M71.3 182.05 L75.6 182.05 M73.2 178.65 L75.45 178.65 M61.55 185.6 L61.55 182.0 M66.8 185.6 L66.8 182.05 M66.8 185.6 L70.65 185.6 70.65 182.05 70.2 182.05 M66.8 195.55 L62.9 195.55 62.15 194.05 61.8 195.55 58.75 195.55 M71.25 194.05 L70.9 195.55 66.8 195.55 61.55 185.6 57.65 185.6 62.15 194.05 M75.9 195.55 L72.05 195.55 71.25 194.05 66.8 185.6 M81.55 189.15 L80.0 195.55 75.9 195.55 70.65 185.6 M70.65 182.05 L71.3 182.05 M53.55 175.2 L61.6 175.2 M53.55 178.6 L62.85 178.6 M40.25 161.65 L45.65 158.3 M63.7 150.2 L63.7 145.95 M126.35 141.5 L123.25 143.1 140.75 143.1 M157.45 147.9 L161.7 147.9 160.7 146.25 141.1 146.25 M141.1 147.9 L157.45 147.9 158.4 149.55 154.15 149.55 155.15 151.2 150.9 151.2 151.85 152.85 147.65 152.85 149.0 154.35 M117.1 146.25 L113.85 147.9 140.75 147.9 M120.2 144.65 L117.1 146.25 140.75 146.25 M110.55 154.35 L108.75 154.35 113.45 169.15 104.6 189.15 99.25 189.15 91.75 201.45 M108.75 154.35 L101.25 154.35 98.1 154.35 M104.1 152.85 L101.25 154.35 M107.35 151.2 L104.1 152.85 140.75 152.85 M110.6 149.55 L107.35 151.2 140.75 151.2 M113.45 169.15 L102.8 169.15 M110.55 154.35 L116.6 170.65 135.95 170.65 135.65 169.15 132.25 154.35 110.55 154.35 M82.7 171.9 L81.45 168.5 75.9 168.5 M85.25 178.65 L83.95 175.25 75.9 175.25 M93.95 189.15 L99.25 189.15 M86.5 182.05 L85.25 178.65 75.9 178.65 M116.6 170.65 L108.05 192.6 123.8 192.6 M83.95 175.25 L82.7 171.9 75.9 171.9 M139.0 154.35 L132.25 154.35 M142.05 169.15 L135.65 169.15 M135.95 170.65 L125.7 189.15 M141.1 152.85 L147.65 152.85 M141.1 151.2 L150.9 151.2 M141.1 149.55 L154.15 149.55 M125.25 139.95 L114.05 145.7 M123.25 143.1 L120.2 144.65 140.75 144.65 M110.6 149.55 L140.75 149.55 M113.85 147.9 L110.6 149.55 M78.75 149.5 L82.75 149.5 84.55 143.65 M125.25 139.95 Q100.1 96.9 73.4 77.55 M81.45 168.5 L80.2 165.1 M77.6 18.75 Q81.85 14.9 87.3 14.75 M99.4 39.25 Q134.05 65.3 144.7 113.45 M112.9 198.45 L106.95 198.45 104.45 201.45 M106.95 198.45 L100.25 198.45 93.95 198.45 M160.45 49.05 Q171.9 67.15 178.35 95.6 M132.85 128.6 L171.3 128.6 M131.7 132.35 L171.3 132.35 M130.55 136.15 L171.3 136.15 M133.95 124.8 L171.3 124.8 M178.05 139.95 L149.85 154.35 M108.05 192.6 L100.25 198.45 M92.35 189.15 L84.85 201.45" ffdec:has-small-stroke="true" ffdec:original-stroke-width="0.1" fill="none" stroke="#000000" stroke-linecap="round" stroke-linejoin="round" stroke-opacity="0.3019608" stroke-width="1.0"/>
    </g>
    <radialGradient cx="0" cy="0" gradientTransform="matrix(0.0259, 0.0, 0.0, 0.0259, 152.8, 29.0)" gradientUnits="userSpaceOnUse" id="gradient0" r="819.2" spreadMethod="pad">
      <stop offset="0.0" stop-color="#b2b2b2"/>
      <stop offset="1.0" stop-color="#333333"/>
    </radialGradient>
    <radialGradient cx="0" cy="0" gradientTransform="matrix(0.0183, 0.0, 0.0, 0.0183, 160.0, 42.8)" gradientUnits="userSpaceOnUse" id="gradient1" r="819.2" spreadMethod="pad">
      <stop offset="0.0" stop-color="#b2b2b2"/>
      <stop offset="1.0" stop-color="#333333"/>
    </radialGradient>
    <linearGradient gradientTransform="matrix(0.0, -0.0556, 0.0932, 0.0, 112.95, 67.85)" gradientUnits="userSpaceOnUse" id="gradient2" spreadMethod="pad" x1="-819.2" x2="819.2">
      <stop offset="0.0" stop-color="#666666"/>
      <stop offset="0.8313725490196079" stop-color="#bfbfbf"/>
      <stop offset="1.0" stop-color="#b2b2b2"/>
    </linearGradient>
    <radialGradient cx="0" cy="0" gradientTransform="matrix(0.0271, 0.0, 0.0, 0.0271, 153.9, 64.4)" gradientUnits="userSpaceOnUse" id="gradient3" r="819.2" spreadMethod="pad">
      <stop offset="0.0" stop-color="#b2b2b2"/>
      <stop offset="1.0" stop-color="#333333"/>
    </radialGradient>
    <radialGradient cx="0" cy="0" gradientTransform="matrix(0.0217, 0.0, 0.0, 0.0217, 162.75, 81.0)" gradientUnits="userSpaceOnUse" id="gradient4" r="819.2" spreadMethod="pad">
      <stop offset="0.0" stop-color="#b2b2b2"/>
      <stop offset="1.0" stop-color="#333333"/>
    </radialGradient>
    <radialGradient cx="0" cy="0" gradientTransform="matrix(0.0125, 0.0, 0.0, 0.0125, 156.15, 70.5)" gradientUnits="userSpaceOnUse" id="gradient5" r="819.2" spreadMethod="pad">
      <stop offset="0.0" stop-color="#cc3300"/>
      <stop offset="1.0" stop-color="#990000"/>
    </radialGradient>
    <linearGradient gradientTransform="matrix(0.0, -0.0268, 0.0202, 0.0, 133.15, 36.7)" gradientUnits="userSpaceOnUse" id="gradient6" spreadMethod="pad" x1="-819.2" x2="819.2">
      <stop offset="0.12549019607843137" stop-color="#333333"/>
      <stop offset="0.7843137254901961" stop-color="#b2b2b2"/>
      <stop offset="1.0" stop-color="#666666"/>
    </linearGradient>
    <linearGradient gradientTransform="matrix(0.0, -0.0225, 0.0184, 0.0, 146.7, 36.7)" gradientUnits="userSpaceOnUse" id="gradient7" spreadMethod="pad" x1="-819.2" x2="819.2">
      <stop offset="0.12941176470588237" stop-color="#333333"/>
      <stop offset="0.8" stop-color="#b2b2b2"/>
      <stop offset="1.0" stop-color="#666666"/>
    </linearGradient>
    <linearGradient gradientTransform="matrix(0.0, -0.0175, 0.0401, 0.0, 101.2, 29.05)" gradientUnits="userSpaceOnUse" id="gradient8" spreadMethod="pad" x1="-819.2" x2="819.2">
      <stop offset="0.0" stop-color="#333333"/>
      <stop offset="0.7411764705882353" stop-color="#b2b2b2"/>
      <stop offset="1.0" stop-color="#666666"/>
    </linearGradient>
    <radialGradient cx="0" cy="0" gradientTransform="matrix(0.0118, 0.0, 0.0, 0.0118, 153.9, 34.8)" gradientUnits="userSpaceOnUse" id="gradient9" r="819.2" spreadMethod="pad">
      <stop offset="0.0" stop-color="#cc3300"/>
      <stop offset="1.0" stop-color="#990000"/>
    </radialGradient>
    <linearGradient gradientTransform="matrix(0.0, -0.0152, 0.0161, 0.0, 145.85, 72.85)" gradientUnits="userSpaceOnUse" id="gradient10" spreadMethod="pad" x1="-819.2" x2="819.2">
      <stop offset="0.0" stop-color="#333333"/>
      <stop offset="0.7411764705882353" stop-color="#b2b2b2"/>
      <stop offset="1.0" stop-color="#666666"/>
    </linearGradient>
    <radialGradient cx="0" cy="0" gradientTransform="matrix(0.0235, 0.0, 0.0, 0.0235, 4.15, 101.15)" gradientUnits="userSpaceOnUse" id="gradient11" r="819.2" spreadMethod="pad">
      <stop offset="0.0" stop-color="#b2b2b2"/>
      <stop offset="1.0" stop-color="#333333"/>
    </radialGradient>
    <linearGradient gradientTransform="matrix(0.0, -0.0103, 0.0083, 0.0, 16.9, 106.0)" gradientUnits="userSpaceOnUse" id="gradient12" spreadMethod="pad" x1="-819.2" x2="819.2">
      <stop offset="0.0" stop-color="#333333"/>
      <stop offset="0.7411764705882353" stop-color="#b2b2b2"/>
      <stop offset="1.0" stop-color="#666666"/>
    </linearGradient>
    <linearGradient gradientTransform="matrix(0.0076, 0.0, 0.0, 0.0192, 50.85, 130.3)" gradientUnits="userSpaceOnUse" id="gradient13" spreadMethod="pad" x1="-819.2" x2="819.2">
      <stop offset="0.0" stop-color="#333333"/>
      <stop offset="0.7411764705882353" stop-color="#b2b2b2"/>
      <stop offset="1.0" stop-color="#666666"/>
    </linearGradient>
    <linearGradient gradientTransform="matrix(0.0, -0.0129, 0.0083, 0.0, 36.25, 141.3)" gradientUnits="userSpaceOnUse" id="gradient14" spreadMethod="pad" x1="-819.2" x2="819.2">
      <stop offset="0.0" stop-color="#333333"/>
      <stop offset="0.7411764705882353" stop-color="#b2b2b2"/>
      <stop offset="1.0" stop-color="#666666"/>
    </linearGradient>
    <linearGradient gradientTransform="matrix(0.0, -0.0103, 0.0083, 0.0, 26.6, 122.6)" gradientUnits="userSpaceOnUse" id="gradient15" spreadMethod="pad" x1="-819.2" x2="819.2">
      <stop offset="0.0" stop-color="#333333"/>
      <stop offset="0.7411764705882353" stop-color="#b2b2b2"/>
      <stop offset="1.0" stop-color="#666666"/>
    </linearGradient>
    <radialGradient cx="0" cy="0" gradientTransform="matrix(0.0232, 0.0, 0.0, 0.0232, 13.25, 118.3)" gradientUnits="userSpaceOnUse" id="gradient16" r="819.2" spreadMethod="pad">
      <stop offset="0.0" stop-color="#b2b2b2"/>
      <stop offset="1.0" stop-color="#333333"/>
    </radialGradient>
    <radialGradient cx="0" cy="0" gradientTransform="matrix(0.0156, 0.0, 0.0, 0.0156, 11.35, 112.75)" gradientUnits="userSpaceOnUse" id="gradient17" r="819.2" spreadMethod="pad">
      <stop offset="0.0" stop-color="#b2b2b2"/>
      <stop offset="1.0" stop-color="#333333"/>
    </radialGradient>
    <radialGradient cx="0" cy="0" gradientTransform="matrix(0.0156, 0.0, 0.0, 0.0156, 20.7, 129.35)" gradientUnits="userSpaceOnUse" id="gradient18" r="819.2" spreadMethod="pad">
      <stop offset="0.0" stop-color="#b2b2b2"/>
      <stop offset="1.0" stop-color="#333333"/>
    </radialGradient>
    <radialGradient cx="0" cy="0" gradientTransform="matrix(0.0232, 0.0, 0.0, 0.0232, 22.95, 135.15)" gradientUnits="userSpaceOnUse" id="gradient19" r="819.2" spreadMethod="pad">
      <stop offset="0.0" stop-color="#b2b2b2"/>
      <stop offset="1.0" stop-color="#333333"/>
    </radialGradient>
    <radialGradient cx="0" cy="0" gradientTransform="matrix(0.016, 0.0, 0.0, 0.016, 30.65, 145.9)" gradientUnits="userSpaceOnUse" id="gradient20" r="819.2" spreadMethod="pad">
      <stop offset="0.0" stop-color="#b2b2b2"/>
      <stop offset="1.0" stop-color="#333333"/>
    </radialGradient>
    <g id="sprite1">
      <use ffdec:characterId="129" height="50.7" transform="matrix(1.0, 0.0, 0.0, 1.0, 0.0, 0.0)" width="12.05" xlink:href="#shape1"/>
    </g>
    <g id="shape1">
      <path d="M3.25 0.0 L3.35 0.0 3.45 0.0 3.55 0.0 Q5.95 0.0 7.65 2.1 9.35 4.2 9.35 7.2 9.35 8.7 8.95 9.9 8.5 11.2 7.65 12.3 5.95 14.4 3.55 14.4 L3.35 14.4 3.25 14.4 2.0 13.2 Q0.0 10.7 0.0 7.2 0.0 4.45 1.25 2.3 L2.0 1.2 3.25 0.0" fill="url(#gradient21)" fill-rule="evenodd" stroke="none"/>
      <path d="M3.1 36.85 Q4.3 36.05 5.75 36.0 L5.85 36.0 5.95 36.0 6.25 36.05 Q8.55 36.15 10.15 38.15 11.95 40.3 11.95 43.3 11.95 45.1 11.35 46.55 L10.15 48.5 Q8.45 50.6 5.95 50.6 L5.85 50.6 5.75 50.6 Q4.25 50.55 3.05 49.75 0.95 47.0 0.95 43.3 0.95 39.55 3.1 36.85" fill="url(#gradient22)" fill-rule="evenodd" stroke="none"/>
      <path d="M3.25 0.0 L3.35 0.0 3.45 0.0 3.55 0.0 Q5.95 0.0 7.65 2.1 9.35 4.2 9.35 7.2 9.35 8.7 8.95 9.9 8.5 11.2 7.65 12.3 5.95 14.4 3.55 14.4 L3.35 14.4 3.25 14.4 2.0 13.2 Q0.0 10.7 0.0 7.2 0.0 4.45 1.25 2.3 L2.0 1.2 3.25 0.0 M3.1 36.85 Q4.3 36.05 5.75 36.0 L5.85 36.0 5.95 36.0 6.25 36.05 Q8.55 36.15 10.15 38.15 11.95 40.3 11.95 43.3 11.95 45.1 11.35 46.55 L10.15 48.5 Q8.45 50.6 5.95 50.6 L5.85 50.6 5.75 50.6 Q4.25 50.55 3.05 49.75 0.95 47.0 0.95 43.3 0.95 39.55 3.1 36.85 Z" ffdec:has-small-stroke="true" ffdec:original-stroke-width="0.1" fill="none" stroke="#000000" stroke-linecap="round" stroke-linejoin="round" stroke-opacity="0.0" stroke-width="1.0"/>
    </g>
    <radialGradient cx="0" cy="0" gradientTransform="matrix(0.0118, 0.0, 0.0, 0.0118, 1.9, 5.3)" gradientUnits="userSpaceOnUse" id="gradient21" r="819.2" spreadMethod="pad">
      <stop offset="0.0" stop-color="#751d00" stop-opacity="0.0"/>
      <stop offset="1.0" stop-color="#330000" stop-opacity="0.0"/>
    </radialGradient>
    <radialGradient cx="0" cy="0" gradientTransform="matrix(0.0125, 0.0, 0.0, 0.0125, 4.1, 40.95)" gradientUnits="userSpaceOnUse" id="gradient22" r="819.2" spreadMethod="pad">
      <stop offset="0.0" stop-color="#751d00" stop-opacity="0.0"/>
      <stop offset="1.0" stop-color="#330000" stop-opacity="0.0"/>
    </radialGradient>
    <g id="sprite2">
      <use ffdec:characterId="131" height="176.2" transform="matrix(1.0, 0.0, 0.0, 1.0, 0.0, 0.0)" width="184.8" xlink:href="#shape2"/>
    </g>
    <g id="shape2">
      <path d="M131.75 94.95 L124.9 117.65 96.7 132.05 92.55 132.05 45.85 92.3 30.4 92.3 13.0 71.85 0.0 67.95 0.0 50.3 7.1 44.7 7.1 59.7 13.65 64.85 Q17.65 64.85 16.1 61.75 L10.8 57.9 10.8 39.85 16.1 36.0 Q17.65 32.9 13.65 32.9 L9.1 36.45 9.1 22.95 32.05 0.0 71.8 0.0 Q81.05 2.25 89.3 5.95 L91.95 7.2 94.15 8.3 Q96.35 9.4 98.45 10.65 L99.2 11.1 103.7 14.0 107.45 16.7 112.85 21.1 114.1 22.2 114.7 22.75 Q117.95 25.8 121.0 29.2 L124.2 32.95 126.2 35.5 126.7 36.15 126.9 36.45 128.1 38.15 Q131.15 42.4 133.9 47.15 138.15 54.4 141.7 62.75 L141.75 63.0 Q144.75 70.2 147.25 78.2 L167.1 78.2 Q164.6 68.55 161.4 60.1 L162.0 59.35 Q165.0 55.7 165.0 50.55 165.0 45.4 162.0 41.75 159.05 38.15 154.8 38.15 L154.65 38.15 150.75 38.15 146.7 31.95 149.35 30.4 157.25 25.95 158.05 25.55 Q159.4 24.65 160.6 23.2 L160.9 22.8 Q177.7 46.45 184.8 91.15 L176.8 117.65 176.8 117.7 148.65 132.05 145.3 132.05 173.5 117.65 180.35 94.95 131.75 94.95 M43.95 57.9 L43.95 39.85 49.25 36.0 Q50.8 32.9 46.8 32.9 L40.25 38.05 40.25 59.7 46.8 64.85 Q50.8 64.85 49.25 61.75 L43.95 57.9 M32.9 57.9 L32.9 39.85 38.2 36.0 Q39.75 32.9 35.75 32.9 L29.2 38.05 29.2 59.7 35.75 64.85 Q39.75 64.85 38.2 61.75 L32.9 57.9 M21.85 57.9 L21.85 39.85 27.15 36.0 Q28.7 32.9 24.7 32.9 L18.15 38.05 18.15 59.7 24.7 64.85 Q28.7 64.85 27.15 61.75 L21.85 57.9 M59.6 159.75 L52.0 139.35 40.0 139.35 38.05 142.75 41.25 142.75 41.25 142.8 39.35 146.15 42.5 146.15 42.5 146.2 40.6 149.55 43.8 149.55 43.8 149.6 41.9 152.95 45.05 152.95 43.15 156.35 46.3 156.35 44.4 159.75 59.6 159.75 M35.7 139.35 L46.6 132.75 62.9 132.75 63.4 136.2 69.0 132.8 85.3 132.8 88.9 159.85 81.95 159.85 81.95 159.8 74.4 139.4 62.35 139.4 60.45 142.8 63.65 142.8 63.65 142.85 61.7 146.2 64.9 146.2 64.9 146.25 63.0 149.6 66.15 149.6 66.15 149.65 64.25 153.0 67.4 153.0 65.55 156.4 68.7 156.4 66.8 159.8 71.05 159.8 73.25 166.9 77.0 166.9 75.5 173.25 67.5 173.25 66.7 171.8 66.35 173.25 58.4 173.25 57.6 171.8 57.25 173.25 49.25 173.25 44.0 163.3 44.0 159.75 43.3 159.75 35.7 139.35 M127.7 132.05 L131.45 148.4 119.25 170.35 110.0 176.2 89.05 176.2 94.75 166.9 100.05 166.9 108.9 146.85 104.2 132.05 127.7 132.05" fill="#ffffff" fill-opacity="0.0" fill-rule="evenodd" stroke="none"/>
    </g>
  </defs>
</svg>
