<?xml version="1.0" encoding="UTF-8" standalone="no"?>
<svg xmlns:ffdec="https://www.free-decompiler.com/flash" xmlns:xlink="http://www.w3.org/1999/xlink" ffdec:objectType="frame" height="41.8px" width="110.25px" xmlns="http://www.w3.org/2000/svg">
  <g transform="matrix(1.0, 0.0, 0.0, 1.0, 0.0, 0.0)">
    <use ffdec:characterId="3109" height="41.8" id="itemGfx" transform="matrix(1.0, 0.0, 0.0, 1.0, 0.0, 0.0)" width="110.25" xlink:href="#sprite0"/>
    <use ffdec:characterId="3111" height="41.8" id="mcColor" transform="matrix(1.0, 0.0, 0.0, 1.0, 0.0, 0.0)" width="71.9" xlink:href="#sprite1"/>
    <use ffdec:characterId="3116" ffdec:characterName="itemsLibrary2_fla.grpMachineGun1BBarrels_551" height="33.4" id="mcBarrel" transform="matrix(1.0, 0.0, 0.0, 1.0, 51.3, 23.1)" width="58.95" xlink:href="#sprite2"/>
    <use ffdec:characterId="22" height="0.0" id="mcTorso" transform="matrix(1.0, 0.0, 0.0, 1.0, 31.5, 22.25)" width="0.0" xlink:href="#sprite3"/>
    <use ffdec:characterId="22" height="0.0" id="mcFire1" transform="matrix(1.0, 0.0, 0.0, 1.0, 99.1, 23.0)" width="0.0" xlink:href="#sprite3"/>
  </g>
  <defs>
    <g id="sprite0">
      <use ffdec:characterId="3108" height="41.8" transform="matrix(1.0, 0.0, 0.0, 1.0, 0.0, 0.0)" width="110.25" xlink:href="#shape0"/>
    </g>
    <g id="shape0">
      <path d="M105.55 14.45 L105.15 14.35 105.05 14.35 Q104.35 14.4 103.85 14.95 103.45 15.45 103.35 16.05 L103.35 16.15 103.35 16.95 103.85 17.85 Q104.35 18.45 105.05 18.45 L105.15 18.45 105.9 18.3 106.2 18.1 106.4 17.85 106.8 17.25 106.8 17.2 106.95 16.4 106.75 15.5 106.75 15.45 106.4 14.95 Q106.05 14.55 105.55 14.45 M98.9 8.85 L98.95 8.85 Q100.4 8.85 101.45 10.05 102.5 11.2 102.5 12.85 L102.45 13.5 102.4 13.7 102.6 13.5 Q103.6 12.35 105.05 12.35 106.1 12.35 106.9 12.9 L107.55 13.5 Q108.35 14.4 108.55 15.6 L108.6 16.3 Q108.6 17.95 107.55 19.15 L106.9 19.75 Q108.25 19.8 109.2 20.9 109.9 21.65 110.1 22.65 L110.25 23.7 110.05 25.0 Q109.8 25.85 109.2 26.5 108.3 27.55 107.1 27.65 L107.55 28.1 Q108.55 29.2 108.6 30.7 L108.6 30.9 Q108.6 32.55 107.55 33.75 106.8 34.6 105.8 34.85 L105.25 34.9 Q103.55 34.8 102.6 33.75 L102.5 33.6 102.5 33.7 Q102.4 35.2 101.45 36.3 100.45 37.45 99.0 37.45 L98.85 37.45 Q97.45 37.4 96.45 36.3 95.75 35.5 95.55 34.45 L95.45 33.8 95.5 33.75 Q96.5 32.65 96.55 31.1 L96.55 30.9 96.55 30.6 96.55 30.9 96.55 31.1 Q96.5 32.65 95.5 33.75 L95.45 33.8 94.1 34.7 92.85 34.9 91.8 34.65 Q91.1 34.4 90.55 33.75 89.65 32.75 89.55 31.4 L89.5 30.9 Q89.5 29.25 90.55 28.1 L90.95 27.7 Q89.6 27.65 88.6 26.5 87.9 25.75 87.7 24.7 L87.6 23.7 87.65 22.95 Q87.8 21.8 88.6 20.9 89.55 19.8 90.95 19.75 L91.0 19.75 90.35 19.15 Q89.3 17.95 89.3 16.3 L89.5 15.1 Q89.7 14.2 90.35 13.5 L90.65 13.2 Q91.5 12.4 92.7 12.35 L92.95 12.35 Q94.35 12.35 95.35 13.5 L95.4 13.6 95.5 13.7 95.5 13.5 95.45 12.85 95.55 11.85 Q95.75 10.85 96.45 10.05 97.45 8.9 98.9 8.85 M71.3 37.45 L67.0 41.8 51.45 41.8 45.95 36.3 45.95 29.55 47.85 29.55 47.85 25.8 45.95 25.8 47.85 25.8 47.85 29.55 45.95 29.55 44.5 29.55 44.5 25.8 45.95 25.8 45.95 23.15 47.85 23.15 47.85 19.4 45.95 19.4 47.85 19.4 47.85 23.15 45.95 23.15 44.5 23.15 44.5 19.4 45.95 19.4 45.95 16.75 47.85 16.75 47.85 13.0 45.95 13.0 47.85 13.0 47.85 16.75 45.95 16.75 44.5 16.75 44.5 13.0 45.95 13.0 45.95 9.05 51.05 3.95 67.0 3.95 71.9 8.85 70.8 8.85 68.15 8.85 67.0 8.05 Q64.5 6.45 61.5 6.45 56.3 6.45 52.55 11.3 L52.5 11.35 51.8 12.35 Q48.75 16.95 48.75 23.15 48.75 25.55 49.2 27.7 50.05 31.75 52.45 34.9 L52.5 34.95 52.55 35.05 Q53.65 36.45 54.85 37.45 57.8 39.85 61.5 39.85 64.5 39.85 67.0 38.3 L68.15 37.45 71.3 37.45 M27.05 0.0 L29.8 0.0 31.25 1.5 30.8 1.95 30.25 3.95 29.35 3.95 26.4 6.85 25.15 1.95 27.05 0.0 M34.8 0.0 L37.55 0.0 39.0 1.5 38.55 1.95 38.0 3.95 37.1 3.95 34.15 6.85 32.9 1.95 34.8 0.0 M42.6 0.0 L45.3 0.0 49.25 3.95 48.15 3.95 44.85 3.95 41.95 6.85 40.65 1.95 42.6 0.0 M96.3 15.45 Q96.1 14.5 95.5 13.7 96.1 14.5 96.3 15.45 L96.35 16.3 96.35 16.85 96.25 17.35 96.0 18.15 95.35 19.15 95.05 19.45 Q94.15 20.25 93.0 20.35 L91.95 19.85 91.1 19.75 91.0 19.75 91.1 19.75 91.95 19.85 93.0 20.35 93.6 20.9 94.25 21.85 94.25 21.9 Q94.65 22.7 94.65 23.7 L94.4 25.2 94.35 25.3 93.6 26.5 93.15 26.95 92.6 27.35 91.1 27.7 90.95 27.7 91.1 27.7 92.6 27.35 93.15 26.95 93.45 26.95 Q94.65 27.1 95.5 28.1 L96.05 28.9 96.35 29.5 96.55 30.6 96.95 30.2 Q97.4 29.85 97.95 29.65 L98.05 29.6 98.6 29.5 98.8 29.5 98.95 29.5 99.85 29.6 Q100.75 29.85 101.45 30.65 L101.55 30.8 Q101.6 29.2 102.6 28.1 103.45 27.1 104.65 26.95 L104.25 26.5 103.55 25.45 103.5 25.35 Q103.2 24.6 103.2 23.7 103.2 22.65 103.6 21.8 L103.65 21.7 104.25 20.9 104.9 20.3 Q103.7 20.2 102.85 19.4 L102.6 19.15 101.95 18.2 Q101.55 17.35 101.55 16.3 L101.65 15.45 101.45 15.65 Q100.5 16.75 99.15 16.85 L98.95 16.8 98.75 16.85 98.65 16.8 98.6 16.8 97.95 16.65 Q97.35 16.5 96.9 16.05 L96.45 15.65 96.3 15.45 M102.4 13.7 L101.65 15.45 102.4 13.7 M107.1 27.65 Q106.25 26.95 105.05 26.95 L104.7 26.95 104.65 26.95 104.7 26.95 105.05 26.95 Q106.25 26.95 107.1 27.65 M108.4 22.7 L108.4 22.65 108.05 22.2 Q107.7 21.75 107.2 21.65 L106.75 21.6 106.7 21.6 Q106.0 21.6 105.5 22.2 105.05 22.65 105.0 23.25 L105.0 23.35 105.0 24.15 105.5 25.1 Q106.0 25.65 106.7 25.7 L106.75 25.7 107.55 25.5 107.85 25.3 108.05 25.1 108.45 24.45 108.45 24.4 108.6 23.65 108.4 22.7 M104.9 20.3 Q106.15 20.25 106.9 19.75 106.15 20.25 104.9 20.3 M102.5 33.6 L102.5 33.5 Q102.5 31.9 101.55 30.8 102.5 31.9 102.5 33.5 L102.5 33.6 M99.55 10.85 L99.1 10.8 99.05 10.8 Q98.35 10.85 97.8 11.4 97.4 11.85 97.3 12.5 L97.3 12.6 97.35 13.4 97.8 14.3 Q98.3 14.9 99.0 14.9 L99.1 14.9 99.85 14.75 100.15 14.55 100.4 14.3 100.8 13.7 100.8 13.65 100.9 12.85 100.7 11.95 100.7 11.9 100.4 11.4 99.55 10.85 M91.1 16.05 L91.1 16.15 91.15 16.95 91.6 17.85 Q92.1 18.45 92.8 18.45 L92.9 18.45 93.65 18.3 93.95 18.1 94.2 17.85 94.55 17.25 94.6 17.2 94.7 16.4 94.5 15.5 94.5 15.45 94.2 14.95 93.35 14.45 92.9 14.35 92.85 14.35 Q92.15 14.4 91.6 14.95 91.2 15.45 91.1 16.05 M92.8 22.8 L92.75 22.75 92.45 22.25 Q92.1 21.85 91.6 21.75 L91.15 21.65 91.1 21.65 Q90.4 21.7 89.9 22.25 89.45 22.75 89.35 23.35 L89.35 23.45 89.4 24.25 89.9 25.15 Q90.4 25.75 91.1 25.75 L91.15 25.75 91.95 25.6 92.2 25.4 92.45 25.15 92.85 24.55 92.85 24.5 93.0 23.7 92.8 22.8 M94.25 29.55 L93.45 29.05 93.0 28.95 92.95 28.95 Q92.2 29.0 91.7 29.55 91.3 30.05 91.2 30.65 L91.2 30.75 91.25 31.55 91.7 32.45 Q92.2 33.05 92.9 33.1 L93.0 33.1 93.75 32.9 94.05 32.7 94.25 32.45 94.65 31.85 94.7 31.8 94.8 31.0 94.6 30.1 94.6 30.05 94.25 29.55 M100.7 32.55 L100.7 32.5 100.4 32.05 99.55 31.5 99.1 31.45 99.05 31.45 Q98.35 31.45 97.8 32.05 97.4 32.5 97.3 33.1 L97.3 33.25 97.35 34.0 97.8 34.95 Q98.3 35.5 99.0 35.55 L99.1 35.55 99.85 35.35 100.15 35.15 100.4 34.95 100.8 34.3 100.8 34.25 100.9 33.5 100.7 32.55 M105.15 28.95 L105.05 28.95 Q104.35 29.0 103.85 29.55 103.45 30.05 103.35 30.65 L103.35 30.75 103.35 31.55 103.85 32.45 Q104.35 33.05 105.05 33.1 L105.15 33.1 105.9 32.9 106.2 32.7 106.4 32.45 106.8 31.85 106.8 31.8 106.95 31.0 106.75 30.1 106.75 30.05 106.4 29.55 Q106.05 29.15 105.55 29.05 L105.15 28.95 M34.25 25.0 L34.25 19.1 34.25 15.7 38.8 14.35 38.8 26.25 34.25 25.0" fill="#cccccc" fill-rule="evenodd" stroke="none"/>
      <path d="M105.55 14.45 Q106.05 14.55 106.4 14.95 L106.75 15.45 106.75 15.5 106.95 16.4 106.8 17.2 106.8 17.25 106.4 17.85 106.2 18.1 105.9 18.3 105.15 18.45 105.05 18.45 Q104.35 18.45 103.85 17.85 L103.35 16.95 103.35 16.15 103.35 16.05 Q103.45 15.45 103.85 14.95 104.35 14.4 105.05 14.35 L105.15 14.35 105.55 14.45 M108.4 22.7 L108.6 23.65 108.45 24.4 108.45 24.45 108.05 25.1 107.85 25.3 107.55 25.5 106.75 25.7 106.7 25.7 Q106.0 25.65 105.5 25.1 L105.0 24.15 105.0 23.35 105.0 23.25 Q105.05 22.65 105.5 22.2 106.0 21.6 106.7 21.6 L106.75 21.6 107.2 21.65 Q107.7 21.75 108.05 22.2 L108.4 22.65 108.4 22.7 M99.55 20.3 Q100.1 21.55 100.1 23.1 100.1 25.35 98.95 26.95 L98.8 27.2 98.5 27.55 97.6 28.35 96.05 28.9 95.5 28.1 Q94.65 27.1 93.45 26.95 L93.15 26.95 93.6 26.5 94.35 25.3 94.4 25.2 94.65 23.7 Q94.65 22.7 94.25 21.9 L94.25 21.85 93.6 20.9 93.0 20.35 Q94.15 20.25 95.05 19.45 L95.35 19.15 96.0 18.15 96.25 17.35 97.5 17.8 98.45 18.6 98.8 19.0 99.55 20.3 M99.55 10.85 L100.4 11.4 100.7 11.9 100.7 11.95 100.9 12.85 100.8 13.65 100.8 13.7 100.4 14.3 100.15 14.55 99.85 14.75 99.1 14.9 99.0 14.9 Q98.3 14.9 97.8 14.3 L97.35 13.4 97.3 12.6 97.3 12.5 Q97.4 11.85 97.8 11.4 98.35 10.85 99.05 10.8 L99.1 10.8 99.55 10.85 M91.1 16.05 Q91.2 15.45 91.6 14.95 92.15 14.4 92.85 14.35 L92.9 14.35 93.35 14.45 94.2 14.95 94.5 15.45 94.5 15.5 94.7 16.4 94.6 17.2 94.55 17.25 94.2 17.85 93.95 18.1 93.65 18.3 92.9 18.45 92.8 18.45 Q92.1 18.45 91.6 17.85 L91.15 16.95 91.1 16.15 91.1 16.05 M92.8 22.8 L93.0 23.7 92.85 24.5 92.85 24.55 92.45 25.15 92.2 25.4 91.95 25.6 91.15 25.75 91.1 25.75 Q90.4 25.75 89.9 25.15 L89.4 24.25 89.35 23.45 89.35 23.35 Q89.45 22.75 89.9 22.25 90.4 21.7 91.1 21.65 L91.15 21.65 91.6 21.75 Q92.1 21.85 92.45 22.25 L92.75 22.75 92.8 22.8 M94.25 29.55 L94.6 30.05 94.6 30.1 94.8 31.0 94.7 31.8 94.65 31.85 94.25 32.45 94.05 32.7 93.75 32.9 93.0 33.1 92.9 33.1 Q92.2 33.05 91.7 32.45 L91.25 31.55 91.2 30.75 91.2 30.65 Q91.3 30.05 91.7 29.55 92.2 29.0 92.95 28.95 L93.0 28.95 93.45 29.05 94.25 29.55 M100.7 32.55 L100.9 33.5 100.8 34.25 100.8 34.3 100.4 34.95 100.15 35.15 99.85 35.35 99.1 35.55 99.0 35.55 Q98.3 35.5 97.8 34.95 L97.35 34.0 97.3 33.25 97.3 33.1 Q97.4 32.5 97.8 32.05 98.35 31.45 99.05 31.45 L99.1 31.45 99.55 31.5 100.4 32.05 100.7 32.5 100.7 32.55 M105.15 28.95 L105.55 29.05 Q106.05 29.15 106.4 29.55 L106.75 30.05 106.75 30.1 106.95 31.0 106.8 31.8 106.8 31.85 106.4 32.45 106.2 32.7 105.9 32.9 105.15 33.1 105.05 33.1 Q104.35 33.05 103.85 32.45 L103.35 31.55 103.35 30.75 103.35 30.65 Q103.45 30.05 103.85 29.55 104.35 29.0 105.05 28.95 L105.15 28.95 M65.5 37.45 L62.55 37.95 59.6 37.45 65.5 37.45 M59.95 8.85 L62.55 8.5 65.2 8.85 59.95 8.85" fill="#333333" fill-rule="evenodd" stroke="none"/>
      <path d="M98.6 16.8 L98.65 16.8 98.75 16.85 98.95 16.8 99.15 16.85 Q100.5 16.75 101.45 15.65 L101.65 15.45 101.55 16.3 Q101.55 17.35 101.95 18.2 L102.6 19.15 102.85 19.4 Q103.7 20.2 104.9 20.3 L99.55 20.3 98.8 19.0 98.45 18.6 97.5 17.8 96.25 17.35 96.35 16.85 98.0 16.8 98.6 16.8" fill="url(#gradient0)" fill-rule="evenodd" stroke="none"/>
      <path d="M104.9 20.3 L104.25 20.9 103.65 21.7 103.6 21.8 Q103.2 22.65 103.2 23.7 103.2 24.6 103.5 25.35 L103.55 25.45 104.25 26.5 104.65 26.95 98.95 26.95 Q100.1 25.35 100.1 23.1 100.1 21.55 99.55 20.3 L104.9 20.3" fill="url(#gradient1)" fill-rule="evenodd" stroke="none"/>
      <path d="M71.9 8.85 L73.5 8.85 Q72.25 9.9 71.15 11.35 L70.45 12.35 55.0 12.35 Q57.15 9.7 59.95 8.85 L65.2 8.85 68.15 8.85 70.8 8.85 71.9 8.85 M92.8 8.85 L98.9 8.85 Q97.45 8.9 96.45 10.05 95.75 10.85 95.55 11.85 L95.45 12.85 95.5 13.5 95.4 13.6 95.35 13.5 Q94.35 12.35 92.95 12.35 L92.7 12.35 79.45 12.35 Q81.65 9.7 84.4 8.85 L89.65 8.85 92.8 8.85 M71.1 9.15 L70.8 8.85 71.1 9.15" fill="url(#gradient2)" fill-rule="evenodd" stroke="none"/>
      <path d="M92.8 37.45 Q89.85 39.85 86.15 39.85 L85.25 39.8 84.05 39.65 82.25 39.1 79.5 37.45 Q78.25 36.45 77.15 34.95 L77.1 34.9 76.95 34.7 76.8 34.5 Q75.0 32.0 74.3 29.4 L74.1 28.65 74.0 28.4 73.9 27.85 73.85 27.65 Q73.4 25.5 73.4 23.15 73.4 21.4 73.65 19.75 L73.85 18.7 Q74.55 15.2 76.45 12.35 L77.15 11.35 Q78.25 9.9 79.5 8.85 L81.55 7.55 82.35 7.2 83.2 6.9 84.1 6.65 84.4 6.6 85.25 6.5 86.15 6.45 Q89.85 6.45 92.8 8.85 L89.65 8.85 87.0 8.5 85.25 8.65 84.4 8.85 Q81.65 9.7 79.45 12.35 L79.05 12.8 Q76.75 15.85 76.1 19.75 75.75 21.4 75.75 23.2 75.75 25.6 76.3 27.7 77.05 31.0 79.05 33.6 L80.15 34.9 Q81.95 36.75 84.05 37.45 L85.25 37.8 87.0 37.95 90.0 37.45 92.8 37.45 M73.9 27.85 L74.1 28.65 73.9 27.85" fill="url(#gradient3)" fill-rule="evenodd" stroke="none"/>
      <path d="M92.7 12.35 Q91.5 12.4 90.65 13.2 L90.35 13.5 Q89.7 14.2 89.5 15.1 L89.3 16.3 Q89.3 17.95 90.35 19.15 L91.0 19.75 90.95 19.75 76.1 19.75 Q76.75 15.85 79.05 12.8 L79.45 12.35 92.7 12.35 M51.6 19.75 Q51.9 18.0 52.55 16.45 53.35 14.5 54.6 12.8 L55.0 12.35 70.45 12.35 Q68.55 15.2 67.85 18.7 L67.65 19.75 51.6 19.75" fill="url(#gradient4)" fill-rule="evenodd" stroke="none"/>
      <path d="M90.95 19.75 Q89.55 19.8 88.6 20.9 87.8 21.8 87.65 22.95 L87.6 23.7 87.7 24.7 Q87.9 25.75 88.6 26.5 89.6 27.65 90.95 27.7 L76.3 27.7 Q75.75 25.6 75.75 23.2 75.75 21.4 76.1 19.75 L90.95 19.75" fill="url(#gradient5)" fill-rule="evenodd" stroke="none"/>
      <path d="M96.3 15.45 L96.45 15.65 96.9 16.05 Q97.35 16.5 97.95 16.65 L98.0 16.8 96.35 16.85 96.35 16.3 96.3 15.45" fill="url(#gradient6)" fill-rule="evenodd" stroke="none"/>
      <path d="M98.95 26.95 L104.65 26.95 Q103.45 27.1 102.6 28.1 101.6 29.2 101.55 30.8 L101.45 30.65 Q100.75 29.85 99.85 29.6 L98.95 29.5 98.8 29.5 98.6 29.5 98.0 29.5 96.35 29.5 96.05 28.9 97.6 28.35 98.5 27.55 98.8 27.2 98.95 26.95" fill="url(#gradient7)" fill-rule="evenodd" stroke="none"/>
      <path d="M96.35 29.5 L98.0 29.5 97.95 29.65 Q97.4 29.85 96.95 30.2 L96.55 30.6 96.35 29.5" fill="#828282" fill-rule="evenodd" stroke="none"/>
      <path d="M90.95 27.7 L90.55 28.1 Q89.5 29.25 89.5 30.9 L89.55 31.4 Q89.65 32.75 90.55 33.75 91.1 34.4 91.8 34.65 L92.85 34.9 80.15 34.9 79.05 33.6 Q77.05 31.0 76.3 27.7 L90.95 27.7" fill="url(#gradient8)" fill-rule="evenodd" stroke="none"/>
      <path d="M98.85 37.45 L92.8 37.45 90.0 37.45 84.05 37.45 Q81.95 36.75 80.15 34.9 L92.85 34.9 94.1 34.7 95.45 33.8 95.55 34.45 Q95.75 35.5 96.45 36.3 97.45 37.4 98.85 37.45 M73.5 37.45 L71.3 37.45 68.15 37.45 65.5 37.45 59.6 37.45 Q57.45 36.75 55.7 34.9 L71.1 34.9 71.15 34.95 Q72.25 36.45 73.5 37.45" fill="url(#gradient9)" fill-rule="evenodd" stroke="none"/>
      <path d="M68.15 37.45 L67.0 38.3 Q64.5 39.85 61.5 39.85 57.8 39.85 54.85 37.45 53.65 36.45 52.55 35.05 L52.5 34.95 52.45 34.9 Q50.05 31.75 49.2 27.7 48.75 25.55 48.75 23.15 48.75 16.95 51.8 12.35 L52.5 11.35 52.55 11.3 Q56.3 6.45 61.5 6.45 64.5 6.45 67.0 8.05 L68.15 8.85 65.2 8.85 62.55 8.5 59.95 8.85 Q57.15 9.7 55.0 12.35 L54.6 12.8 Q53.35 14.5 52.55 16.45 51.9 18.0 51.6 19.75 51.3 21.4 51.3 23.2 51.3 25.6 51.8 27.7 L52.55 30.05 Q53.35 31.95 54.6 33.6 L55.7 34.9 Q57.45 36.75 59.6 37.45 L62.55 37.95 65.5 37.45 68.15 37.45" fill="url(#gradient10)" fill-rule="evenodd" stroke="none"/>
      <path d="M51.8 27.7 Q51.3 25.6 51.3 23.2 51.3 21.4 51.6 19.75 L67.65 19.75 Q67.4 21.4 67.4 23.15 67.4 25.5 67.85 27.65 L67.85 27.7 51.8 27.7" fill="url(#gradient11)" fill-rule="evenodd" stroke="none"/>
      <path d="M49.25 3.95 L51.05 3.95 45.95 9.05 43.0 9.05 48.15 3.95 49.25 3.95" fill="#b6b6b6" fill-rule="evenodd" stroke="none"/>
      <path d="M0.0 15.0 L4.8 11.8 6.5 11.8 36.1 11.8 38.8 14.35 34.25 15.7 33.05 14.55 5.25 14.55 2.7 16.25 0.0 15.0 M6.5 9.05 L11.6 3.95 15.3 3.95 18.95 3.95 22.45 3.95 22.45 4.1 21.65 6.85 26.4 6.85 29.35 3.95 30.25 3.95 29.4 6.85 34.15 6.85 37.1 3.95 38.0 3.95 37.2 6.85 41.95 6.85 44.85 3.95 48.15 3.95 43.0 9.05 45.95 9.05 45.95 13.0 44.5 13.0 43.0 13.0 43.0 9.05 17.45 9.05 22.45 4.1 17.45 9.05 13.8 9.05 10.15 9.05 15.3 3.95 10.15 9.05 6.5 9.05 M23.05 1.95 L24.95 0.0 27.05 0.0 25.15 1.95 23.05 1.95 M31.25 1.5 L32.7 0.0 34.8 0.0 32.9 1.95 30.8 1.95 31.25 1.5 M39.0 1.5 L40.45 0.0 42.6 0.0 40.65 1.95 38.55 1.95 39.0 1.5 M45.95 16.75 L45.95 19.4 44.5 19.4 43.0 19.4 43.0 16.75 44.5 16.75 45.95 16.75 M45.95 23.15 L45.95 25.8 44.5 25.8 43.0 25.8 43.0 23.15 44.5 23.15 45.95 23.15 M45.95 29.55 L45.95 36.3 43.2 36.3 43.0 36.1 43.0 29.55 44.5 29.55 45.95 29.55 M30.5 29.35 L34.25 25.0 38.8 26.25 32.95 33.0 30.5 29.35 M33.05 14.55 L36.1 11.8 33.05 14.55 M18.95 3.95 L13.8 9.05 18.95 3.95 M5.25 14.55 L4.8 11.8 5.25 14.55" fill="#999999" fill-rule="evenodd" stroke="none"/>
      <path d="M48.7 41.8 L18.0 41.8 12.5 36.3 43.0 36.3 43.2 36.3 48.7 41.8 M12.5 33.0 L12.3 33.0 0.0 25.35 0.0 15.0 2.7 16.25 2.7 19.1 2.7 23.2 4.6 24.35 12.65 29.35 30.5 29.35 32.95 33.0 12.5 33.0 M22.5 3.95 L23.05 1.95 25.15 1.95 26.4 6.85 21.65 6.85 22.45 4.1 22.5 3.95 M41.95 6.85 L37.2 6.85 38.0 3.95 38.55 1.95 40.65 1.95 41.95 6.85 M34.15 6.85 L29.4 6.85 30.25 3.95 30.8 1.95 32.9 1.95 34.15 6.85 M43.0 13.0 L44.5 13.0 44.5 16.75 43.0 16.75 40.3 16.75 40.3 13.0 43.0 13.0 M43.0 19.4 L44.5 19.4 44.5 23.15 43.0 23.15 40.3 23.15 40.3 19.4 43.0 19.4 M44.5 25.8 L44.5 29.55 43.0 29.55 40.3 29.55 40.3 25.8 43.0 25.8 44.5 25.8 M12.3 33.0 L12.65 29.35 12.3 33.0 M2.7 23.2 L0.0 25.35 2.7 23.2" fill="#4f4f4f" fill-rule="evenodd" stroke="none"/>
      <path d="M51.45 41.8 L48.7 41.8 43.2 36.3 45.95 36.3 51.45 41.8 M12.5 36.3 L12.5 33.0 32.95 33.0 38.8 26.25 38.8 14.35 36.1 11.8 6.5 11.8 6.5 9.05 10.15 9.05 13.8 9.05 17.45 9.05 43.0 9.05 43.0 13.0 40.3 13.0 40.3 16.75 43.0 16.75 43.0 19.4 40.3 19.4 40.3 23.15 43.0 23.15 43.0 25.8 40.3 25.8 40.3 29.55 43.0 29.55 43.0 36.1 43.0 36.3 12.5 36.3 M4.6 24.35 L20.45 24.35 23.55 19.1 2.7 19.1 2.7 16.25 5.25 14.55 33.05 14.55 34.25 15.7 34.25 19.1 34.25 25.0 30.5 29.35 12.65 29.35 4.6 24.35 M23.55 19.1 L34.25 19.1 23.55 19.1" fill="#666666" fill-rule="evenodd" stroke="none"/>
      <path d="M55.7 34.9 L54.6 33.6 Q53.35 31.95 52.55 30.05 L51.8 27.7 67.85 27.7 Q68.7 31.75 71.1 34.9 L55.7 34.9 M74.1 28.65 L74.3 29.4 74.0 28.4 74.1 28.65" fill="url(#gradient12)" fill-rule="evenodd" stroke="none"/>
      <path d="M2.7 19.1 L23.55 19.1 20.45 24.35 4.6 24.35 2.7 23.2 2.7 19.1" fill="url(#gradient13)" fill-rule="evenodd" stroke="none"/>
      <path d="M85.25 39.8 L81.25 39.8 79.25 39.8 78.3 39.7 Q75.7 39.2 73.5 37.45 72.25 36.45 71.15 34.95 L71.1 34.9 Q68.7 31.75 67.85 27.7 L67.85 27.65 Q67.4 25.5 67.4 23.15 67.4 21.4 67.65 19.75 L67.85 18.7 Q68.55 15.2 70.45 12.35 L71.15 11.35 Q72.25 9.9 73.5 8.85 75.75 7.05 78.45 6.6 L84.4 6.6 84.1 6.65 83.2 6.9 82.35 7.2 81.55 7.55 79.5 8.85 Q78.25 9.9 77.15 11.35 L76.45 12.35 Q74.55 15.2 73.85 18.7 L73.65 19.75 Q73.4 21.4 73.4 23.15 73.4 25.5 73.85 27.65 L73.9 27.85 74.0 28.4 74.3 29.4 Q75.0 32.0 76.8 34.5 L76.95 34.7 77.1 34.9 77.15 34.95 Q78.25 36.45 79.5 37.45 L82.25 39.1 83.2 39.45 84.05 39.65 85.25 39.8" fill="url(#gradient14)" fill-rule="evenodd" stroke="none"/>
      <path d="M105.55 14.45 Q106.05 14.55 106.4 14.95 L106.75 15.45 106.75 15.5 106.95 16.4 106.8 17.2 106.8 17.25 106.4 17.85 106.2 18.1 105.9 18.3 105.15 18.45 105.05 18.45 Q104.35 18.45 103.85 17.85 L103.35 16.95 103.35 16.15 103.35 16.05 Q103.45 15.45 103.85 14.95 104.35 14.4 105.05 14.35 L105.15 14.35 105.55 14.45 M98.9 8.85 L98.95 8.85 Q100.4 8.85 101.45 10.05 102.5 11.2 102.5 12.85 L102.45 13.5 102.4 13.7 102.6 13.5 Q103.6 12.35 105.05 12.35 106.1 12.35 106.9 12.9 L107.55 13.5 Q108.35 14.4 108.55 15.6 L108.6 16.3 Q108.6 17.95 107.55 19.15 L106.9 19.75 Q108.25 19.8 109.2 20.9 109.9 21.65 110.1 22.65 L110.25 23.7 110.05 25.0 Q109.8 25.85 109.2 26.5 108.3 27.55 107.1 27.65 L107.55 28.1 Q108.55 29.2 108.6 30.7 L108.6 30.9 Q108.6 32.55 107.55 33.75 106.8 34.6 105.8 34.85 L105.25 34.9 Q103.55 34.8 102.6 33.75 L102.5 33.6 102.5 33.7 Q102.4 35.2 101.45 36.3 100.45 37.45 99.0 37.45 L98.85 37.45 92.8 37.45 Q89.85 39.85 86.15 39.85 L85.25 39.8 81.25 39.8 80.15 39.85 79.25 39.8 78.3 39.7 Q75.7 39.2 73.5 37.45 L71.3 37.45 67.0 41.8 51.45 41.8 48.7 41.8 18.0 41.8 12.5 36.3 12.5 33.0 12.3 33.0 0.0 25.35 0.0 15.0 4.8 11.8 6.5 11.8 6.5 9.05 11.6 3.95 15.3 3.95 18.95 3.95 22.45 3.95 22.5 3.95 23.05 1.95 24.95 0.0 27.05 0.0 29.8 0.0 31.25 1.5 32.7 0.0 34.8 0.0 37.55 0.0 39.0 1.5 40.45 0.0 42.6 0.0 45.3 0.0 49.25 3.95 51.05 3.95 67.0 3.95 71.9 8.85 73.5 8.85 Q75.75 7.05 78.45 6.6 L84.4 6.6 85.25 6.5 86.15 6.45 Q89.85 6.45 92.8 8.85 L98.9 8.85 Q97.45 8.9 96.45 10.05 95.75 10.85 95.55 11.85 L95.45 12.85 95.5 13.5 95.5 13.7 Q96.1 14.5 96.3 15.45 L96.45 15.65 96.9 16.05 Q97.35 16.5 97.95 16.65 L98.6 16.8 98.65 16.8 98.75 16.85 98.95 16.8 99.15 16.85 Q100.5 16.75 101.45 15.65 L101.65 15.45 102.4 13.7 M104.9 20.3 Q103.7 20.2 102.85 19.4 L102.6 19.15 101.95 18.2 Q101.55 17.35 101.55 16.3 L101.65 15.45 M104.9 20.3 L104.25 20.9 103.65 21.7 103.6 21.8 Q103.2 22.65 103.2 23.7 103.2 24.6 103.5 25.35 L103.55 25.45 104.25 26.5 104.65 26.95 104.7 26.95 105.05 26.95 Q106.25 26.95 107.1 27.65 M108.4 22.7 L108.6 23.65 108.45 24.4 108.45 24.45 108.05 25.1 107.85 25.3 107.55 25.5 106.75 25.7 106.7 25.7 Q106.0 25.65 105.5 25.1 L105.0 24.15 105.0 23.35 105.0 23.25 Q105.05 22.65 105.5 22.2 106.0 21.6 106.7 21.6 L106.75 21.6 107.2 21.65 Q107.7 21.75 108.05 22.2 L108.4 22.65 108.4 22.7 M106.9 19.75 Q106.15 20.25 104.9 20.3 L99.55 20.3 Q100.1 21.55 100.1 23.1 100.1 25.35 98.95 26.95 L104.65 26.95 Q103.45 27.1 102.6 28.1 101.6 29.2 101.55 30.8 102.5 31.9 102.5 33.5 L102.5 33.6 M95.4 13.6 L95.35 13.5 Q94.35 12.35 92.95 12.35 L92.7 12.35 Q91.5 12.4 90.65 13.2 L90.35 13.5 Q89.7 14.2 89.5 15.1 L89.3 16.3 Q89.3 17.95 90.35 19.15 L91.0 19.75 91.1 19.75 91.95 19.85 93.0 20.35 Q94.15 20.25 95.05 19.45 L95.35 19.15 96.0 18.15 96.25 17.35 96.35 16.85 96.35 16.3 96.3 15.45 M99.55 10.85 L100.4 11.4 100.7 11.9 100.7 11.95 100.9 12.85 100.8 13.65 100.8 13.7 100.4 14.3 100.15 14.55 99.85 14.75 99.1 14.9 99.0 14.9 Q98.3 14.9 97.8 14.3 L97.35 13.4 97.3 12.6 97.3 12.5 Q97.4 11.85 97.8 11.4 98.35 10.85 99.05 10.8 L99.1 10.8 99.55 10.85 M74.0 28.4 L73.9 27.85 73.85 27.65 Q73.4 25.5 73.4 23.15 73.4 21.4 73.65 19.75 L73.85 18.7 Q74.55 15.2 76.45 12.35 L77.15 11.35 Q78.25 9.9 79.5 8.85 L81.55 7.55 82.35 7.2 83.2 6.9 84.1 6.65 84.4 6.6 M84.4 8.85 L85.25 8.65 87.0 8.5 89.65 8.85 92.8 8.85 M84.4 8.85 L89.65 8.85 M91.1 16.05 Q91.2 15.45 91.6 14.95 92.15 14.4 92.85 14.35 L92.9 14.35 93.35 14.45 94.2 14.95 94.5 15.45 94.5 15.5 94.7 16.4 94.6 17.2 94.55 17.25 94.2 17.85 93.95 18.1 93.65 18.3 92.9 18.45 92.8 18.45 Q92.1 18.45 91.6 17.85 L91.15 16.95 91.1 16.15 91.1 16.05 M90.95 19.75 Q89.55 19.8 88.6 20.9 87.8 21.8 87.65 22.95 L87.6 23.7 87.7 24.7 Q87.9 25.75 88.6 26.5 89.6 27.65 90.95 27.7 L91.1 27.7 92.6 27.35 93.15 26.95 93.6 26.5 94.35 25.3 94.4 25.2 94.65 23.7 Q94.65 22.7 94.25 21.9 L94.25 21.85 93.6 20.9 93.0 20.35 M90.95 19.75 L91.0 19.75 M92.8 22.8 L93.0 23.7 92.85 24.5 92.85 24.55 92.45 25.15 92.2 25.4 91.95 25.6 91.15 25.75 91.1 25.75 Q90.4 25.75 89.9 25.15 L89.4 24.25 89.35 23.45 89.35 23.35 Q89.45 22.75 89.9 22.25 90.4 21.7 91.1 21.65 L91.15 21.65 91.6 21.75 Q92.1 21.85 92.45 22.25 L92.75 22.75 92.8 22.8 M98.0 16.8 L98.6 16.8 M98.0 16.8 L97.95 16.65 M96.35 16.85 L98.0 16.8 M96.25 17.35 L97.5 17.8 98.45 18.6 98.8 19.0 99.55 20.3 M95.4 13.6 L95.5 13.7 M98.95 26.95 L98.8 27.2 98.5 27.55 97.6 28.35 96.05 28.9 96.35 29.5 98.0 29.5 98.6 29.5 98.8 29.5 98.95 29.5 99.85 29.6 Q100.75 29.85 101.45 30.65 L101.55 30.8 M96.35 29.5 L96.55 30.6 96.95 30.2 Q97.4 29.85 97.95 29.65 L98.0 29.5 M96.55 30.6 L96.55 30.9 96.55 31.1 Q96.5 32.65 95.5 33.75 L95.45 33.8 95.55 34.45 Q95.75 35.5 96.45 36.3 97.45 37.4 98.85 37.45 M98.6 29.5 L98.05 29.6 97.95 29.65 M96.05 28.9 L95.5 28.1 Q94.65 27.1 93.45 26.95 L93.15 26.95 M94.25 29.55 L94.6 30.05 94.6 30.1 94.8 31.0 94.7 31.8 94.65 31.85 94.25 32.45 94.05 32.7 93.75 32.9 93.0 33.1 92.9 33.1 Q92.2 33.05 91.7 32.45 L91.25 31.55 91.2 30.75 91.2 30.65 Q91.3 30.05 91.7 29.55 92.2 29.0 92.95 28.95 L93.0 28.95 93.45 29.05 94.25 29.55 M92.85 34.9 L91.8 34.65 Q91.1 34.4 90.55 33.75 89.65 32.75 89.55 31.4 L89.5 30.9 Q89.5 29.25 90.55 28.1 L90.95 27.7 76.3 27.7 Q77.05 31.0 79.05 33.6 L80.15 34.9 92.85 34.9 94.1 34.7 95.45 33.8 M100.7 32.55 L100.9 33.5 100.8 34.25 100.8 34.3 100.4 34.95 100.15 35.15 99.85 35.35 99.1 35.55 99.0 35.55 Q98.3 35.5 97.8 34.95 L97.35 34.0 97.3 33.25 97.3 33.1 Q97.4 32.5 97.8 32.05 98.35 31.45 99.05 31.45 L99.1 31.45 99.55 31.5 100.4 32.05 100.7 32.5 100.7 32.55 M90.0 37.45 L87.0 37.95 85.25 37.8 84.05 37.45 Q81.95 36.75 80.15 34.9 M84.05 39.65 L82.25 39.1 83.2 39.45 84.05 39.65 85.25 39.8 M84.05 37.45 L90.0 37.45 92.8 37.45 M105.15 28.95 L105.55 29.05 Q106.05 29.15 106.4 29.55 L106.75 30.05 106.75 30.1 106.95 31.0 106.8 31.8 106.8 31.85 106.4 32.45 106.2 32.7 105.9 32.9 105.15 33.1 105.05 33.1 Q104.35 33.05 103.85 32.45 L103.35 31.55 103.35 30.75 103.35 30.65 Q103.45 30.05 103.85 29.55 104.35 29.0 105.05 28.95 L105.15 28.95 M70.45 12.35 L71.15 11.35 Q72.25 9.9 73.5 8.85 M68.15 8.85 L67.0 8.05 Q64.5 6.45 61.5 6.45 56.3 6.45 52.55 11.3 L52.5 11.35 51.8 12.35 Q48.75 16.95 48.75 23.15 48.75 25.55 49.2 27.7 50.05 31.75 52.45 34.9 L52.5 34.95 52.55 35.05 Q53.65 36.45 54.85 37.45 57.8 39.85 61.5 39.85 64.5 39.85 67.0 38.3 L68.15 37.45 65.5 37.45 62.55 37.95 59.6 37.45 Q57.45 36.75 55.7 34.9 L54.6 33.6 Q53.35 31.95 52.55 30.05 L51.8 27.7 Q51.3 25.6 51.3 23.2 51.3 21.4 51.6 19.75 51.9 18.0 52.55 16.45 53.35 14.5 54.6 12.8 L55.0 12.35 Q57.15 9.7 59.95 8.85 L62.55 8.5 65.2 8.85 68.15 8.85 70.8 8.85 71.9 8.85 M67.85 27.7 L67.85 27.65 Q67.4 25.5 67.4 23.15 67.4 21.4 67.65 19.75 L51.6 19.75 M67.65 19.75 L67.85 18.7 Q68.55 15.2 70.45 12.35 L55.0 12.35 M79.45 12.35 L79.05 12.8 Q76.75 15.85 76.1 19.75 L90.95 19.75 M76.1 19.75 Q75.75 21.4 75.75 23.2 75.75 25.6 76.3 27.7 M70.8 8.85 L71.1 9.15 M49.25 3.95 L48.15 3.95 43.0 9.05 45.95 9.05 51.05 3.95 M40.65 1.95 L42.6 0.0 M48.15 3.95 L44.85 3.95 41.95 6.85 37.2 6.85 38.0 3.95 37.1 3.95 34.15 6.85 29.4 6.85 30.25 3.95 29.35 3.95 26.4 6.85 21.65 6.85 22.45 4.1 17.45 9.05 43.0 9.05 43.0 13.0 44.5 13.0 45.95 13.0 45.95 9.05 M41.95 6.85 L40.65 1.95 38.55 1.95 38.0 3.95 M45.95 13.0 L47.85 13.0 47.85 16.75 45.95 16.75 45.95 19.4 47.85 19.4 47.85 23.15 45.95 23.15 45.95 25.8 47.85 25.8 47.85 29.55 45.95 29.55 45.95 36.3 51.45 41.8 M44.5 16.75 L43.0 16.75 43.0 19.4 44.5 19.4 45.95 19.4 M44.5 13.0 L44.5 16.75 45.95 16.75 M44.5 23.15 L44.5 19.4 M43.0 23.15 L44.5 23.15 45.95 23.15 M44.5 29.55 L44.5 25.8 43.0 25.8 40.3 25.8 40.3 29.55 43.0 29.55 44.5 29.55 45.95 29.55 M43.0 36.1 L43.0 29.55 M43.0 36.1 L43.2 36.3 45.95 36.3 M43.2 36.3 L43.0 36.3 12.5 36.3 M44.5 25.8 L45.95 25.8 M43.2 36.3 L48.7 41.8 M74.1 28.65 L73.9 27.85 M74.3 29.4 Q75.0 32.0 76.8 34.5 L76.95 34.7 77.1 34.9 77.15 34.95 Q78.25 36.45 79.5 37.45 L82.25 39.1 M74.3 29.4 L74.0 28.4 74.1 28.65 M73.5 37.45 Q72.25 36.45 71.15 34.95 L71.1 34.9 55.7 34.9 M71.1 34.9 Q68.7 31.75 67.85 27.7 L51.8 27.7 M68.15 37.45 L71.3 37.45 M65.5 37.45 L59.6 37.45 M59.95 8.85 L65.2 8.85 M43.0 23.15 L43.0 25.8 M39.0 1.5 L38.55 1.95 M32.9 1.95 L34.8 0.0 M31.25 1.5 L30.8 1.95 32.9 1.95 34.15 6.85 M22.5 3.95 L22.45 4.1 M23.05 1.95 L25.15 1.95 27.05 0.0 M25.15 1.95 L26.4 6.85 M4.6 24.35 L20.45 24.35 23.55 19.1 2.7 19.1 2.7 23.2 4.6 24.35 12.65 29.35 30.5 29.35 34.25 25.0 34.25 19.1 23.55 19.1 M38.8 14.35 L34.25 15.7 34.25 19.1 M34.25 15.7 L33.05 14.55 5.25 14.55 2.7 16.25 2.7 19.1 M43.0 19.4 L40.3 19.4 40.3 23.15 43.0 23.15 M43.0 16.75 L40.3 16.75 40.3 13.0 43.0 13.0 M36.1 11.8 L33.05 14.55 M38.8 14.35 L36.1 11.8 6.5 11.8 M30.8 1.95 L30.25 3.95 M10.15 9.05 L13.8 9.05 18.95 3.95 M10.15 9.05 L15.3 3.95 M13.8 9.05 L17.45 9.05 M0.0 15.0 L2.7 16.25 M6.5 9.05 L10.15 9.05 M4.8 11.8 L5.25 14.55 M12.65 29.35 L12.3 33.0 M34.25 25.0 L38.8 26.25 38.8 14.35 M38.8 26.25 L32.95 33.0 12.5 33.0 M30.5 29.35 L32.95 33.0 M0.0 25.35 L2.7 23.2 M81.25 39.8 L79.25 39.8 M92.7 12.35 L79.45 12.35 Q81.65 9.7 84.4 8.85" ffdec:has-small-stroke="true" ffdec:original-stroke-width="0.05" fill="none" stroke="#000000" stroke-linecap="round" stroke-linejoin="round" stroke-opacity="0.3019608" stroke-width="1.0"/>
    </g>
    <linearGradient gradientTransform="matrix(0.0, -0.003, 0.0052, 0.0, 100.55, 17.9)" gradientUnits="userSpaceOnUse" id="gradient0" spreadMethod="pad" x1="-819.2" x2="819.2">
      <stop offset="0.0" stop-color="#1b1b1b"/>
      <stop offset="0.6862745098039216" stop-color="#cbcbcb"/>
      <stop offset="1.0" stop-color="#707070"/>
    </linearGradient>
    <linearGradient gradientTransform="matrix(0.0, -0.0041, 0.0036, 0.0, 101.9, 23.65)" gradientUnits="userSpaceOnUse" id="gradient1" spreadMethod="pad" x1="-819.2" x2="819.2">
      <stop offset="0.0" stop-color="#1b1b1b"/>
      <stop offset="0.6862745098039216" stop-color="#cbcbcb"/>
      <stop offset="1.0" stop-color="#707070"/>
    </linearGradient>
    <linearGradient gradientTransform="matrix(0.0, -0.0023, 0.0268, 0.0, 76.95, 10.9)" gradientUnits="userSpaceOnUse" id="gradient2" spreadMethod="pad" x1="-819.2" x2="819.2">
      <stop offset="0.0" stop-color="#1b1b1b"/>
      <stop offset="0.6862745098039216" stop-color="#cbcbcb"/>
      <stop offset="1.0" stop-color="#707070"/>
    </linearGradient>
    <linearGradient gradientTransform="matrix(0.0, -0.0204, 0.0118, 0.0, 83.1, 23.15)" gradientUnits="userSpaceOnUse" id="gradient3" spreadMethod="pad" x1="-819.2" x2="819.2">
      <stop offset="0.0" stop-color="#1b1b1b"/>
      <stop offset="0.6862745098039216" stop-color="#cbcbcb"/>
      <stop offset="1.0" stop-color="#707070"/>
    </linearGradient>
    <linearGradient gradientTransform="matrix(0.0, -0.0042, 0.0251, 0.0, 72.2, 15.95)" gradientUnits="userSpaceOnUse" id="gradient4" spreadMethod="pad" x1="-819.2" x2="819.2">
      <stop offset="0.0" stop-color="#1b1b1b"/>
      <stop offset="0.6862745098039216" stop-color="#cbcbcb"/>
      <stop offset="1.0" stop-color="#707070"/>
    </linearGradient>
    <linearGradient gradientTransform="matrix(0.0, -0.0049, 0.0093, 0.0, 83.4, 23.7)" gradientUnits="userSpaceOnUse" id="gradient5" spreadMethod="pad" x1="-819.2" x2="819.2">
      <stop offset="0.0" stop-color="#1b1b1b"/>
      <stop offset="0.6862745098039216" stop-color="#cbcbcb"/>
      <stop offset="1.0" stop-color="#707070"/>
    </linearGradient>
    <linearGradient gradientTransform="matrix(0.0, -0.0037, 0.001, 0.0, 97.15, 13.45)" gradientUnits="userSpaceOnUse" id="gradient6" spreadMethod="pad" x1="-819.2" x2="819.2">
      <stop offset="0.0" stop-color="#1b1b1b"/>
      <stop offset="0.6862745098039216" stop-color="#cbcbcb"/>
      <stop offset="1.0" stop-color="#707070"/>
    </linearGradient>
    <linearGradient gradientTransform="matrix(0.0, -0.0023, 0.0052, 0.0, 100.35, 28.9)" gradientUnits="userSpaceOnUse" id="gradient7" spreadMethod="pad" x1="-819.2" x2="819.2">
      <stop offset="0.0" stop-color="#1b1b1b"/>
      <stop offset="0.6862745098039216" stop-color="#cbcbcb"/>
      <stop offset="1.0" stop-color="#707070"/>
    </linearGradient>
    <linearGradient gradientTransform="matrix(0.0, -0.0044, 0.0101, 0.0, 84.55, 31.3)" gradientUnits="userSpaceOnUse" id="gradient8" spreadMethod="pad" x1="-819.2" x2="819.2">
      <stop offset="0.0" stop-color="#1b1b1b"/>
      <stop offset="0.6862745098039216" stop-color="#cbcbcb"/>
      <stop offset="1.0" stop-color="#707070"/>
    </linearGradient>
    <linearGradient gradientTransform="matrix(0.0, -0.0027, 0.0264, 0.0, 77.3, 34.6)" gradientUnits="userSpaceOnUse" id="gradient9" spreadMethod="pad" x1="-819.2" x2="819.2">
      <stop offset="0.0" stop-color="#1b1b1b"/>
      <stop offset="0.6862745098039216" stop-color="#cbcbcb"/>
      <stop offset="1.0" stop-color="#707070"/>
    </linearGradient>
    <linearGradient gradientTransform="matrix(0.0, -0.0204, 0.0118, 0.0, 58.45, 23.15)" gradientUnits="userSpaceOnUse" id="gradient10" spreadMethod="pad" x1="-819.2" x2="819.2">
      <stop offset="0.0" stop-color="#1b1b1b"/>
      <stop offset="0.6862745098039216" stop-color="#cbcbcb"/>
      <stop offset="1.0" stop-color="#707070"/>
    </linearGradient>
    <linearGradient gradientTransform="matrix(0.0, -0.0049, 0.0137, 0.0, 62.55, 23.7)" gradientUnits="userSpaceOnUse" id="gradient11" spreadMethod="pad" x1="-819.2" x2="819.2">
      <stop offset="0.0" stop-color="#1b1b1b"/>
      <stop offset="0.6862745098039216" stop-color="#cbcbcb"/>
      <stop offset="1.0" stop-color="#707070"/>
    </linearGradient>
    <linearGradient gradientTransform="matrix(0.0, -0.0037, 0.0154, 0.0, 64.45, 31.25)" gradientUnits="userSpaceOnUse" id="gradient12" spreadMethod="pad" x1="-819.2" x2="819.2">
      <stop offset="0.0" stop-color="#1b1b1b"/>
      <stop offset="0.6862745098039216" stop-color="#cbcbcb"/>
      <stop offset="1.0" stop-color="#707070"/>
    </linearGradient>
    <radialGradient cx="0" cy="0" gradientTransform="matrix(0.017, 0.0, 0.0, 0.017, 16.4, 21.0)" gradientUnits="userSpaceOnUse" id="gradient13" r="819.2" spreadMethod="pad">
      <stop offset="0.0" stop-color="#ffcc00"/>
      <stop offset="1.0" stop-color="#ff6600"/>
    </radialGradient>
    <linearGradient gradientTransform="matrix(0.0018, 0.0205, -0.0112, 0.001, 76.65, 23.65)" gradientUnits="userSpaceOnUse" id="gradient14" spreadMethod="pad" x1="-819.2" x2="819.2">
      <stop offset="0.1803921568627451" stop-color="#494949"/>
      <stop offset="0.6862745098039216" stop-color="#cbcbcb"/>
      <stop offset="1.0" stop-color="#707070"/>
    </linearGradient>
    <g id="sprite1">
      <use ffdec:characterId="3110" height="41.8" transform="matrix(1.0, 0.0, 0.0, 1.0, 0.0, 0.0)" width="71.9" xlink:href="#shape1"/>
    </g>
    <g id="shape1">
      <path d="M49.25 3.95 L67.0 3.95 71.9 8.85 68.15 8.85 67.0 8.05 Q64.5 6.45 61.5 6.45 56.3 6.45 52.55 11.3 L52.5 11.35 51.8 12.35 Q48.75 16.95 48.75 23.15 48.75 25.55 49.2 27.7 50.05 31.75 52.45 34.9 L52.5 34.95 52.55 35.05 Q53.65 36.45 54.85 37.45 57.8 39.85 61.5 39.85 64.5 39.85 67.0 38.3 L68.15 37.45 71.3 37.45 67.0 41.8 18.0 41.8 12.5 36.3 12.5 33.0 12.3 33.0 0.0 25.35 0.0 15.0 4.8 11.8 6.5 11.8 6.5 9.05 11.6 3.95 22.45 3.95 22.45 4.1 23.05 1.95 24.95 0.0 29.8 0.0 31.25 1.5 32.7 0.0 37.55 0.0 39.0 1.5 40.45 0.0 45.3 0.0 49.25 3.95 M43.0 36.3 L43.2 36.3 43.0 36.1 43.0 36.3 M4.6 24.35 L20.45 24.35 23.55 19.1 2.7 19.1 2.7 23.2 4.6 24.35" fill="#ffffff" fill-opacity="0.0" fill-rule="evenodd" stroke="none"/>
    </g>
    <g id="sprite2">
      <use ffdec:characterId="3112" height="33.4" transform="matrix(1.0, 0.0, 0.0, 1.0, 0.0, 0.0)" width="58.95" xlink:href="#shape2"/>
    </g>
    <g id="shape2">
      <path d="M51.1 -9.45 L51.3 -9.65 Q52.1 -10.55 53.2 -10.75 L53.75 -10.8 Q54.8 -10.8 55.6 -10.25 L55.7 -10.15 56.25 -9.65 Q57.05 -8.75 57.25 -7.55 L57.3 -6.85 Q57.3 -5.2 56.25 -4.0 L55.6 -3.4 Q56.95 -3.35 57.9 -2.25 58.6 -1.5 58.8 -0.5 L58.95 0.55 58.75 1.85 57.9 3.35 Q57.0 4.4 55.8 4.5 L56.25 4.95 Q57.25 6.05 57.3 7.55 L57.3 7.75 Q57.3 9.4 56.25 10.6 L55.5 11.3 54.5 11.7 53.95 11.75 53.6 11.75 Q52.15 11.55 51.3 10.6 L51.2 10.45 51.2 10.55 Q51.1 11.75 50.55 12.7 L50.15 13.15 Q49.15 14.3 47.7 14.3 L41.5 14.3 Q38.55 16.7 34.85 16.7 L33.95 16.65 27.95 16.65 27.0 16.55 Q25.3 16.2 23.75 15.35 L22.2 14.3 8.3 14.3 Q6.15 13.6 4.4 11.75 L3.3 10.45 Q2.05 8.8 1.25 6.9 L0.5 4.55 Q0.0 2.45 0.0 0.05 0.0 -1.75 0.3 -3.4 0.6 -5.15 1.25 -6.7 2.05 -8.65 3.3 -10.35 L3.7 -10.8 Q5.85 -13.45 8.65 -14.3 L22.2 -14.3 23.75 -15.35 Q25.35 -16.25 27.15 -16.55 L33.1 -16.55 33.95 -16.65 34.85 -16.7 Q38.55 -16.7 41.5 -14.3 L47.65 -14.3 Q49.1 -14.3 50.15 -13.1 51.2 -11.95 51.2 -10.3 L51.15 -9.65 51.1 -9.45 M44.2 -9.45 L44.2 -9.65 44.1 -9.55 44.2 -9.45 M46.65 -6.5 L46.7 -6.35 47.3 -6.35 46.65 -6.5 M33.1 -14.3 L38.35 -14.3 35.7 -14.65 33.95 -14.5 33.1 -14.3 M46.7 6.35 L46.65 6.5 46.75 6.45 47.3 6.35 46.7 6.35 M31.9 16.3 L32.15 16.35 30.95 15.95 31.9 16.3 M38.7 14.3 L32.75 14.3 33.95 14.65 35.7 14.8 38.7 14.3 M22.8 5.5 L22.6 4.7 22.7 5.25 23.0 6.25 22.8 5.5" fill="#ffffff" fill-opacity="0.0" fill-rule="evenodd" stroke="none"/>
    </g>
  </defs>
</svg>
