<?xml version="1.0" encoding="UTF-8" standalone="no"?>
<svg xmlns:ffdec="https://www.free-decompiler.com/flash" xmlns:xlink="http://www.w3.org/1999/xlink" ffdec:objectType="frame" height="81.65px" width="144.4px" xmlns="http://www.w3.org/2000/svg">
  <g transform="matrix(1.0, 0.0, 0.0, 1.0, 0.05, 0.05)">
    <use ffdec:characterId="2374" height="81.65" id="itemGfx" transform="matrix(1.0, 0.0, 0.0, 1.0, 0.0, 0.0)" width="144.4" xlink:href="#sprite0"/>
    
    <use ffdec:characterId="22" height="0.0" id="mcTorso" transform="matrix(1.0, 0.0, 0.0, 1.0, 44.5, 43.7)" width="0.0" xlink:href="#sprite3"/>
    <use ffdec:characterId="22" height="0.0" id="mcFire1" transform="matrix(1.0, 0.0, 0.0, 1.0, 119.85, 40.1)" width="0.0" xlink:href="#sprite3"/>
    <use ffdec:characterId="22" height="0.0" id="mcFire2" transform="matrix(1.0, 0.0, 0.0, 1.0, 133.6, 40.1)" width="0.0" xlink:href="#sprite3"/>
  </g>
  <defs>
    <g id="sprite0">
      <use ffdec:characterId="2353" height="81.65" transform="matrix(1.0, 0.0, 0.0, 1.0, 0.0, 0.0)" width="144.4" xlink:href="#sprite1"/>
      <use ffdec:characterId="2373" height="32.35" transform="matrix(1.0, 0.0, 0.0, 1.0, 0.0, 0.0)" width="124.65" xlink:href="#shape1"/>
    </g>
    <g id="sprite1">
      <use ffdec:characterId="2352" height="81.65" transform="matrix(1.0, 0.0, 0.0, 1.0, 0.0, 0.0)" width="144.4" xlink:href="#shape0"/>
    </g>
    <g id="shape0">
      <path d="M127.85 18.1 L129.9 18.1 135.85 24.9 131.85 24.9 127.85 18.1 M15.7 1.7 L16.9 1.7 17.65 2.95 25.5 16.15 27.1 16.15 19.3 1.7 20.45 1.7 21.05 2.7 28.6 16.15 30.25 16.15 22.4 1.7 23.55 1.7 31.95 16.15 33.3 17.85 33.35 17.95 27.2 17.95 28.75 21.2 26.95 21.2 24.6 16.15 23.55 16.7 15.7 1.7 M29.35 1.7 L30.55 1.7 31.25 2.95 35.35 9.8 35.35 13.2 29.35 1.7 M32.95 1.7 L34.1 1.7 34.65 2.7 35.35 3.95 35.35 6.25 32.95 1.7 M36.05 1.7 L37.15 1.7 45.1 15.3 44.25 15.3 44.0 16.15 43.55 17.95 42.7 17.95 39.1 17.95 38.25 16.15 39.15 16.15 38.25 16.15 37.55 16.5 37.55 17.95 36.45 17.95 36.45 3.3 36.9 3.3 36.05 1.7 M68.6 0.0 L74.0 0.0 75.2 2.7 79.15 11.85 82.85 20.3 81.7 20.3 79.85 17.1 76.6 17.1 76.05 17.1 73.75 11.85 79.15 11.85 73.75 11.85 68.6 0.0 M82.25 0.0 L87.65 0.0 92.8 11.85 95.05 17.1 96.15 20.3 91.0 20.3 87.35 11.85 82.25 0.0 M114.25 18.1 L116.25 18.1 119.3 21.55 122.2 24.9 118.2 24.9 114.25 18.1 M87.35 11.85 L92.8 11.85 87.35 11.85 M42.3 16.15 L43.85 16.15 37.55 4.5 37.55 7.85 42.3 16.15 40.7 16.15 42.3 16.15 M39.15 16.15 L40.7 16.15 37.55 10.35 37.55 13.5 37.55 16.5 37.55 13.5 39.15 16.15 M43.85 16.15 L44.0 16.15 43.85 16.15 M37.55 4.5 L37.55 3.3 36.9 3.3 37.55 3.3 37.55 4.5 M37.55 7.85 L37.55 10.35 37.55 7.85 M25.5 16.15 L24.6 16.15 25.5 16.15 M28.6 16.15 L27.1 16.15 28.6 16.15 M31.95 16.15 L30.25 16.15 31.95 16.15 M21.3 55.5 L23.4 55.5 26.0 60.0 24.25 60.0 21.3 55.5 M15.15 52.9 L16.3 55.5 14.4 55.5 13.2 52.9 15.15 52.9" fill="#646464" fill-rule="evenodd" stroke="none"/>
      <path d="M117.5 64.8 L111.0 64.8 108.55 59.5 108.05 58.5 94.4 58.5 92.95 55.7 87.25 55.7 90.0 51.05 85.9 51.05 72.2 51.05 72.2 48.65 72.2 43.45 72.2 42.15 72.2 40.8 72.2 39.45 83.25 39.45 86.25 39.45 89.0 33.1 86.6 29.0 84.3 24.9 87.9 24.9 90.4 24.9 89.3 22.55 92.8 22.55 100.65 22.55 105.1 22.55 105.65 21.6 106.35 20.3 106.45 20.2 107.6 18.1 109.0 18.1 114.25 18.1 118.2 24.9 111.8 55.7 110.4 55.7 112.05 48.2 112.4 46.55 115.5 32.75 117.2 24.9 103.75 24.9 105.1 22.55 103.75 24.9 117.2 24.9 115.5 32.75 112.4 46.55 112.05 48.2 110.4 55.7 111.8 55.7 121.9 55.7 117.5 64.8 M17.4 57.05 L12.4 57.05 10.85 52.9 13.2 52.9 14.4 55.5 16.3 55.5 21.3 55.5 24.25 60.0 26.0 60.0 31.1 60.0 32.05 61.65 22.5 61.65 19.7 57.05 17.4 57.05 M18.0 21.2 L18.1 19.5 19.9 18.55 14.1 2.7 15.7 1.7 23.55 16.7 24.6 16.15 26.95 21.2 18.0 21.2 M17.65 2.95 L19.3 1.7 27.1 16.15 25.5 16.15 17.65 2.95 M21.05 2.7 L22.4 1.7 30.25 16.15 28.6 16.15 21.05 2.7 M33.3 17.85 L27.7 2.7 29.35 1.7 35.35 13.2 35.35 9.8 31.25 2.95 32.95 1.7 35.35 6.25 35.35 3.95 34.65 2.7 36.05 1.7 36.9 3.3 36.45 3.3 35.35 3.3 35.35 3.95 35.35 3.3 36.45 3.3 36.45 17.95 35.35 17.95 34.7 17.95 35.35 17.6 35.35 13.2 35.35 17.6 34.7 17.95 33.35 17.95 33.3 17.85 M45.4 15.3 L50.0 0.0 68.6 0.0 73.75 11.85 76.05 17.1 73.3 17.1 58.95 17.1 58.95 5.4 56.95 5.4 52.65 5.4 51.3 5.4 48.4 15.3 45.4 15.3 M74.0 0.0 L82.25 0.0 87.35 11.85 84.95 11.85 81.4 2.7 75.2 2.7 81.4 2.7 84.95 11.85 87.35 11.85 91.0 20.3 88.15 20.3 82.85 20.3 79.15 11.85 75.2 2.7 74.0 0.0 M119.3 21.55 L121.3 18.1 127.85 18.1 131.85 24.9 122.2 24.9 119.3 21.55 M127.05 53.05 L134.45 53.05 140.9 27.5 132.85 27.5 133.15 26.2 142.6 26.2 136.15 54.4 126.75 54.4 127.05 53.05 M88.15 20.3 L84.95 11.85 88.15 20.3 M90.75 40.8 L93.3 46.55 102.85 46.55 104.8 41.35 107.8 41.35 109.9 46.55 112.4 46.55 109.9 46.55 107.8 41.35 104.8 41.35 102.85 46.55 93.3 46.55 90.75 40.8 87.9 40.8 95.25 32.75 115.5 32.75 95.25 32.75 87.9 40.8 90.75 40.8 96.15 34.55 114.8 34.55 96.15 34.55 90.75 40.8 M112.05 48.2 L109.25 48.2 108.3 45.5 105.15 45.5 103.7 48.4 92.8 48.4 90.25 42.15 72.2 42.15 90.25 42.15 92.8 48.4 103.7 48.4 105.15 45.5 108.3 45.5 109.25 48.2 112.05 48.2 M119.2 27.5 L119.5 26.2 128.95 26.2 122.5 54.4 113.1 54.4 113.4 53.05 120.8 53.05 127.25 27.5 119.2 27.5 M103.75 24.9 L90.4 24.9 103.75 24.9 M92.95 55.7 L110.4 55.7 92.95 55.7 M73.75 11.85 L71.3 11.85 67.8 2.7 53.45 2.7 52.65 5.4 53.45 2.7 67.8 2.7 71.3 11.85 73.75 11.85 M57.4 19.1 L55.95 21.2 42.35 21.2 40.4 19.1 43.2 19.1 56.8 19.1 56.95 19.1 57.4 19.1 M73.3 17.1 L71.3 11.85 73.3 17.1 M42.3 16.15 L37.55 7.85 37.55 4.5 43.85 16.15 42.3 16.15 M40.7 16.15 L39.15 16.15 37.55 13.5 37.55 10.35 40.7 16.15 M38.25 16.15 L39.1 17.95 38.0 17.95 37.55 17.95 37.55 16.5 38.25 16.15 M17.35 36.45 L17.35 38.65 14.95 38.65 14.95 36.45 17.35 36.45 M35.35 6.25 L35.35 9.8 35.35 6.25 M19.9 18.55 L23.55 16.7 19.9 18.55 M35.35 17.6 L35.35 17.95 35.35 17.6 M87.9 40.8 L72.2 40.8 87.9 40.8" fill="#3f3f3f" fill-rule="evenodd" stroke="none"/>
      <path d="M135.85 24.9 L144.3 24.9 137.4 55.7 125.75 55.7 121.5 64.8 117.5 64.8 121.9 55.7 111.8 55.7 118.2 24.9 122.2 24.9 131.85 24.9 135.85 24.9 M132.85 27.5 L127.05 53.05 126.75 54.4 136.15 54.4 142.6 26.2 133.15 26.2 132.85 27.5 M113.4 53.05 L113.1 54.4 122.5 54.4 128.95 26.2 119.5 26.2 119.2 27.5 113.4 53.05 M121.9 55.7 L125.75 55.7 121.9 55.7" fill="#4f4f4f" fill-rule="evenodd" stroke="none"/>
      <path d="M104.7 17.1 L108.25 17.1 109.0 18.1 107.6 18.1 106.45 20.2 104.7 17.1 M106.35 20.3 L105.65 21.6 105.1 22.55 100.65 22.55 92.8 22.55 91.95 21.55 86.6 21.55 87.9 24.9 86.6 21.55 91.95 21.55 92.8 22.55 89.3 22.55 90.4 24.9 87.9 24.9 84.3 24.9 81.7 20.3 84.3 24.9 86.6 29.0 83.75 29.0 86.6 29.0 89.0 33.1 86.15 33.1 83.75 29.0 76.6 17.1 79.85 17.1 81.7 20.3 82.85 20.3 88.15 20.3 91.0 20.3 96.15 20.3 106.35 20.3 M105.65 21.6 L105.6 21.55 100.3 21.55 100.65 22.55 100.3 21.55 105.6 21.55 105.65 21.6 M42.35 21.2 L40.4 21.2 38.0 17.95 39.1 17.95 42.7 17.95 43.2 19.1 40.4 19.1 42.35 21.2 M53.55 38.65 L57.75 38.65 65.4 48.65 65.8 49.2 60.95 49.2 65.8 49.2 67.25 51.05 62.3 51.05 60.95 49.2 53.55 38.65 M14.0 45.0 L16.35 45.0 18.25 47.95 15.75 47.95 14.0 45.0 M31.75 47.95 L32.9 47.95 42.0 59.75 40.65 59.75 31.75 47.95" fill="#bcbcbc" fill-rule="evenodd" stroke="none"/>
      <path d="M19.6 65.05 L17.4 57.05 19.7 57.05 22.5 61.65 32.05 61.65 31.1 60.0 26.0 60.0 23.4 55.5 21.3 55.5 16.3 55.5 15.15 52.9 26.7 52.9 31.1 60.0 26.7 52.9 15.15 52.9 13.2 52.9 10.85 52.9 6.05 52.9 3.05 47.4 10.15 38.65 12.75 38.65 14.95 38.65 17.35 38.65 18.6 38.65 53.55 38.65 60.95 49.2 46.9 49.2 43.9 46.45 35.9 46.45 43.9 46.45 46.9 49.2 60.95 49.2 62.3 51.05 67.25 51.05 72.2 51.05 85.9 51.05 83.85 54.65 81.05 59.5 68.1 59.5 65.6 64.55 59.85 64.55 56.8 64.55 56.55 64.55 43.55 64.55 43.3 64.55 41.8 64.55 43.3 64.55 43.55 64.55 56.55 64.55 56.8 64.55 59.85 64.55 55.95 71.35 43.3 67.15 41.8 66.65 41.8 64.75 41.8 64.55 35.65 64.55 33.85 64.55 32.05 61.65 33.85 64.55 35.65 64.55 34.05 65.0 33.9 65.0 33.85 65.05 33.6 65.05 33.9 65.0 33.6 65.05 19.6 65.05 M10.25 29.05 L9.8 27.6 4.55 27.6 1.7 24.2 4.35 21.2 7.85 21.2 18.0 21.2 26.95 21.2 28.75 21.2 40.4 21.2 28.75 21.2 27.2 17.95 33.35 17.95 34.7 17.95 35.35 17.95 36.45 17.95 37.55 17.95 38.0 17.95 40.4 21.2 42.35 21.2 55.95 21.2 57.4 19.1 58.85 17.1 58.95 17.1 73.3 17.1 76.05 17.1 76.6 17.1 83.75 29.0 86.15 33.1 83.25 39.45 72.2 39.45 64.4 39.45 58.25 30.9 28.25 30.9 24.95 30.9 22.1 36.45 17.35 36.45 14.95 36.45 12.55 36.45 10.25 29.05 M45.1 15.3 L45.4 15.3 48.4 15.3 51.3 5.4 52.65 5.4 56.95 5.4 56.95 19.1 56.8 19.1 43.2 19.1 43.55 17.95 44.0 16.15 44.25 15.3 45.1 15.3 M95.05 17.1 L104.7 17.1 106.45 20.2 106.35 20.3 96.15 20.3 95.05 17.1 M7.85 21.2 L4.95 23.4 6.85 25.05 12.0 25.05 14.8 31.6 20.6 31.6 23.6 26.4 61.8 26.4 68.0 22.2 76.45 22.2 81.45 29.0 83.75 29.0 81.45 29.0 76.45 22.2 68.0 22.2 61.8 26.4 23.6 26.4 20.6 31.6 14.8 31.6 12.0 25.05 6.85 25.05 4.95 23.4 7.85 21.2 M42.7 17.95 L43.55 17.95 43.2 19.1 42.7 17.95 M45.0 59.75 L35.9 46.45 33.25 42.65 18.45 42.65 16.35 42.65 14.0 45.0 15.75 47.95 11.75 47.95 9.35 43.1 12.75 38.65 9.35 43.1 11.75 47.95 15.75 47.95 18.25 47.95 31.75 47.95 40.65 59.75 42.0 59.75 45.0 59.75 54.95 59.75 58.35 54.65 83.85 54.65 58.35 54.65 54.95 59.75 45.0 59.75 M70.15 37.35 L70.15 36.55 71.65 36.55 72.25 35.65 77.25 35.65 78.2 37.35 70.15 37.35 78.2 37.35 77.25 35.65 72.25 35.65 71.65 36.55 70.15 36.55 70.15 37.35 M73.75 32.95 L73.75 31.45 75.35 31.45 73.75 32.95 75.35 31.45 73.75 31.45 73.75 32.95 M73.1 32.75 L72.35 32.75 73.1 30.85 73.1 32.75 73.1 30.85 72.35 32.75 73.1 32.75 M76.95 30.45 L76.95 31.2 74.4 33.9 76.75 33.9 76.75 34.7 73.85 34.7 73.85 33.65 72.25 33.65 70.85 35.8 69.7 35.8 72.8 29.4 73.8 29.4 73.8 30.45 76.95 30.45 73.8 30.45 73.8 29.4 72.8 29.4 69.7 35.8 70.85 35.8 72.25 33.65 73.85 33.65 73.85 34.7 76.75 34.7 76.75 33.9 74.4 33.9 76.95 31.2 76.95 30.45 M69.55 71.35 L64.9 69.8 69.6 64.55 73.5 64.55 69.55 71.35" fill="#666666" fill-rule="evenodd" stroke="none"/>
      <path d="M108.55 59.5 L96.7 59.5 92.15 64.55 83.25 64.55 77.1 71.35 71.95 71.35 69.55 71.35 73.5 64.55 69.6 64.55 64.9 69.8 63.5 71.35 58.35 71.35 55.95 71.35 59.85 64.55 65.6 64.55 68.1 59.5 81.05 59.5 83.85 54.65 85.9 51.05 90.0 51.05 87.25 55.7 92.95 55.7 94.4 58.5 108.05 58.5 108.55 59.5 M86.15 33.1 L89.0 33.1 86.25 39.45 83.25 39.45 86.15 33.1 M96.7 59.5 L81.05 59.5 96.7 59.5 M28.25 30.9 L25.45 36.45 22.1 36.45 24.95 30.9 28.25 30.9 M14.0 45.0 L16.35 42.65 18.45 42.65 16.35 45.0 14.0 45.0 M65.6 64.55 L69.6 64.55 65.6 64.55 M83.25 64.55 L73.5 64.55 83.25 64.55" fill="#7c7c7c" fill-rule="evenodd" stroke="none"/>
      <path d="M58.95 17.1 L58.85 17.1 57.4 19.1 56.95 19.1 56.95 5.4 58.95 5.4 58.95 17.1" fill="#aaaaaa" fill-rule="evenodd" stroke="none"/>
      <path d="M65.4 48.65 L72.2 48.65 72.2 51.05 67.25 51.05 65.8 49.2 65.4 48.65 M72.2 43.45 L65.2 43.45 57.65 32.3 30.75 32.3 27.55 37.55 18.6 37.55 18.6 38.65 17.35 38.65 17.35 36.45 22.1 36.45 25.45 36.45 28.25 30.9 58.25 30.9 64.4 39.45 72.2 39.45 72.2 40.8 72.2 42.15 72.2 43.45" fill="#a39c71" fill-rule="evenodd" stroke="none"/>
      <path d="M10.15 38.65 L4.7 38.65 Q0.15 33.7 2.15 29.05 L10.25 29.05 12.55 36.45 14.95 36.45 14.95 38.65 12.75 38.65 10.15 38.65" fill="url(#gradient0)" fill-rule="evenodd" stroke="none"/>
      <path d="M4.7 38.65 L3.1 38.65 Q-1.4 33.7 0.65 29.05 L2.15 29.05 Q0.15 33.7 4.7 38.65" fill="url(#gradient1)" fill-rule="evenodd" stroke="none"/>
      <path d="M63.75 75.35 Q63.25 76.35 62.4 77.15 60.4 79.15 57.6 79.3 L57.2 79.3 56.8 79.3 52.9 79.3 Q51.6 80.55 50.1 81.15 L47.5 81.55 47.35 81.55 47.2 81.55 34.15 81.55 33.9 81.55 33.7 81.55 33.6 81.55 31.3 81.15 Q29.7 80.55 28.4 79.15 26.15 76.75 26.15 73.3 26.15 69.85 28.4 67.45 30.55 65.15 33.6 65.05 L33.85 65.05 33.9 65.0 33.9 65.05 Q32.6 65.55 31.5 66.6 L31.45 66.7 Q29.25 68.9 29.25 71.95 29.25 74.95 31.45 77.15 L33.1 78.4 Q34.65 79.3 36.65 79.3 L36.95 79.3 37.05 79.3 43.1 79.3 42.05 79.2 40.1 78.5 40.0 78.4 38.3 77.15 Q36.15 74.95 36.15 71.95 36.15 68.9 38.3 66.7 L38.45 66.6 Q39.5 65.55 40.8 65.05 L41.8 64.75 40.8 65.05 Q39.5 65.55 38.45 66.6 L38.3 66.7 Q36.15 68.9 36.15 71.95 36.15 74.95 38.3 77.15 L40.0 78.4 40.1 78.5 42.05 79.2 43.1 79.3 37.05 79.3 36.95 79.3 36.65 79.3 Q34.65 79.3 33.1 78.4 L31.45 77.15 Q29.25 74.95 29.25 71.95 29.25 68.9 31.45 66.7 L31.5 66.6 Q32.6 65.55 33.9 65.05 L33.9 65.0 34.05 65.0 35.65 64.55 41.8 64.55 41.8 64.75 41.8 66.65 43.3 67.15 Q42.55 67.5 41.9 68.15 41.2 68.85 40.9 69.65 40.45 70.55 40.45 71.6 40.45 73.35 41.55 74.65 L41.9 75.1 Q42.35 75.55 42.9 75.85 L44.45 76.4 45.4 76.55 45.75 76.5 47.4 76.1 50.1 75.35 50.55 75.2 54.6 73.75 55.2 74.65 55.55 75.1 56.55 75.85 Q57.65 76.55 59.0 76.55 L59.4 76.5 61.05 76.1 63.75 75.35 M43.1 79.3 L49.85 79.3 50.3 79.3 50.55 79.3 50.65 79.3 52.9 79.3 50.65 79.3 50.55 79.3 50.3 79.3 49.85 79.3 43.1 79.3" fill="url(#gradient2)" fill-rule="evenodd" stroke="none"/>
      <path d="M33.6 81.55 L19.75 81.55 19.45 81.55 19.15 81.55 16.9 81.15 Q15.3 80.55 14.0 79.15 11.75 76.75 11.75 73.3 11.75 69.85 14.0 67.45 16.15 65.15 19.2 65.05 L19.6 65.05 33.6 65.05 Q30.55 65.15 28.4 67.45 26.15 69.85 26.15 73.3 26.15 76.75 28.4 79.15 29.7 80.55 31.3 81.15 L33.6 81.55" fill="url(#gradient3)" fill-rule="evenodd" stroke="none"/>
      <path d="M71.95 71.35 Q69.9 73.5 63.75 75.35 L61.05 76.1 59.4 76.5 59.0 76.55 Q57.65 76.55 56.55 75.85 L55.55 75.1 55.2 74.65 54.6 73.75 Q57.15 72.6 58.35 71.35 L63.5 71.35 64.9 69.8 69.55 71.35 71.95 71.35" fill="url(#gradient4)" fill-rule="evenodd" stroke="none"/>
      <path d="M58.35 71.35 Q57.15 72.6 54.6 73.75 L50.55 75.2 50.1 75.35 47.4 76.1 45.75 76.5 45.4 76.55 44.45 76.4 42.9 75.85 Q42.35 75.55 41.9 75.1 L41.55 74.65 Q40.45 73.35 40.45 71.6 40.45 70.55 40.9 69.65 41.2 68.85 41.9 68.15 42.55 67.5 43.3 67.15 L55.95 71.35 58.35 71.35" fill="url(#gradient5)" fill-rule="evenodd" stroke="none"/>
      <path d="M132.85 27.5 L140.9 27.5 134.45 53.05 127.05 53.05 132.85 27.5" fill="url(#gradient6)" fill-rule="evenodd" stroke="none"/>
      <path d="M113.4 53.05 L119.2 27.5 127.25 27.5 120.8 53.05 113.4 53.05" fill="url(#gradient7)" fill-rule="evenodd" stroke="none"/>
      <path d="M35.9 46.45 L45.0 59.75 42.0 59.75 32.9 47.95 31.75 47.95 18.25 47.95 16.35 45.0 18.45 42.65 33.25 42.65 35.9 46.45 M65.4 48.65 L57.75 38.65 53.55 38.65 18.6 38.65 18.6 37.55 27.55 37.55 30.75 32.3 57.65 32.3 65.2 43.45 72.2 43.45 72.2 48.65 65.4 48.65" fill="url(#gradient8)" fill-rule="evenodd" stroke="none"/>
      <path d="M127.85 18.1 L129.9 18.1 135.85 24.9 144.3 24.9 137.4 55.7 125.75 55.7 121.5 64.8 117.5 64.8 111.0 64.8 108.55 59.5 96.7 59.5 92.15 64.55 83.25 64.55 77.1 71.35 71.95 71.35 Q69.9 73.5 63.75 75.35 63.25 76.35 62.4 77.15 60.4 79.15 57.6 79.3 L57.2 79.3 56.8 79.3 52.9 79.3 Q51.6 80.55 50.1 81.15 L47.5 81.55 47.35 81.55 47.2 81.55 34.15 81.55 33.9 81.55 33.7 81.55 33.6 81.55 19.75 81.55 19.45 81.55 19.15 81.55 16.9 81.15 Q15.3 80.55 14.0 79.15 11.75 76.75 11.75 73.3 11.75 69.85 14.0 67.45 16.15 65.15 19.2 65.05 L19.6 65.05 17.4 57.05 12.4 57.05 10.85 52.9 6.05 52.9 3.05 47.4 10.15 38.65 4.7 38.65 3.1 38.65 Q-1.4 33.7 0.65 29.05 L2.15 29.05 10.25 29.05 9.8 27.6 4.55 27.6 1.7 24.2 4.35 21.2 7.85 21.2 18.0 21.2 18.1 19.5 19.9 18.55 14.1 2.7 15.7 1.7 16.9 1.7 17.65 2.95 19.3 1.7 20.45 1.7 21.05 2.7 22.4 1.7 23.55 1.7 31.95 16.15 33.3 17.85 27.7 2.7 29.35 1.7 30.55 1.7 31.25 2.95 32.95 1.7 34.1 1.7 34.65 2.7 36.05 1.7 37.15 1.7 45.1 15.3 45.4 15.3 50.0 0.0 68.6 0.0 74.0 0.0 82.25 0.0 87.65 0.0 92.8 11.85 95.05 17.1 104.7 17.1 108.25 17.1 109.0 18.1 114.25 18.1 116.25 18.1 119.3 21.55 121.3 18.1 127.85 18.1 131.85 24.9 135.85 24.9 M122.2 24.9 L131.85 24.9 M127.05 53.05 L134.45 53.05 140.9 27.5 132.85 27.5 127.05 53.05 126.75 54.4 136.15 54.4 142.6 26.2 133.15 26.2 132.85 27.5 M109.0 18.1 L107.6 18.1 106.45 20.2 106.35 20.3 105.65 21.6 105.1 22.55 103.75 24.9 117.2 24.9 115.5 32.75 112.4 46.55 112.05 48.2 110.4 55.7 111.8 55.7 118.2 24.9 114.25 18.1 M100.65 22.55 L100.3 21.55 105.6 21.55 105.65 21.6 M104.7 17.1 L106.45 20.2 M75.2 2.7 L81.4 2.7 84.95 11.85 87.35 11.85 82.25 0.0 M82.85 20.3 L81.7 20.3 84.3 24.9 87.9 24.9 86.6 21.55 91.95 21.55 92.8 22.55 100.65 22.55 105.1 22.55 M91.0 20.3 L88.15 20.3 82.85 20.3 79.15 11.85 73.75 11.85 76.05 17.1 76.6 17.1 79.85 17.1 81.7 20.3 M96.15 20.3 L95.05 17.1 M87.9 24.9 L90.4 24.9 89.3 22.55 92.8 22.55 M92.8 11.85 L87.35 11.85 91.0 20.3 96.15 20.3 106.35 20.3 M84.95 11.85 L88.15 20.3 M83.75 29.0 L81.45 29.0 76.45 22.2 68.0 22.2 61.8 26.4 23.6 26.4 20.6 31.6 14.8 31.6 12.0 25.05 6.85 25.05 4.95 23.4 7.85 21.2 M83.75 29.0 L86.6 29.0 84.3 24.9 M89.0 33.1 L86.15 33.1 83.25 39.45 72.2 39.45 64.4 39.45 58.25 30.9 28.25 30.9 25.45 36.45 22.1 36.45 17.35 36.45 17.35 38.65 18.6 38.65 53.55 38.65 60.95 49.2 65.8 49.2 65.4 48.65 72.2 48.65 72.2 43.45 65.2 43.45 57.65 32.3 30.75 32.3 27.55 37.55 18.6 37.55 18.6 38.65 M86.25 39.45 L89.0 33.1 86.6 29.0 M86.15 33.1 L83.75 29.0 76.6 17.1 M115.5 32.75 L95.25 32.75 87.9 40.8 90.75 40.8 96.15 34.55 114.8 34.55 M72.2 42.15 L90.25 42.15 92.8 48.4 103.7 48.4 105.15 45.5 108.3 45.5 109.25 48.2 112.05 48.2 M112.4 46.55 L109.9 46.55 107.8 41.35 104.8 41.35 102.85 46.55 93.3 46.55 90.75 40.8 M119.2 27.5 L119.5 26.2 128.95 26.2 122.5 54.4 113.1 54.4 113.4 53.05 119.2 27.5 127.25 27.5 120.8 53.05 113.4 53.05 M90.4 24.9 L103.75 24.9 M92.95 55.7 L94.4 58.5 108.05 58.5 108.55 59.5 M92.95 55.7 L87.25 55.7 90.0 51.05 85.9 51.05 83.85 54.65 81.05 59.5 96.7 59.5 M110.4 55.7 L92.95 55.7 M125.75 55.7 L121.9 55.7 117.5 64.8 M121.9 55.7 L111.8 55.7 M122.2 24.9 L119.3 21.55 M118.2 24.9 L122.2 24.9 M52.65 5.4 L53.45 2.7 67.8 2.7 71.3 11.85 73.75 11.85 68.6 0.0 M75.2 2.7 L79.15 11.85 M74.0 0.0 L75.2 2.7 M76.05 17.1 L73.3 17.1 58.95 17.1 58.85 17.1 57.4 19.1 55.95 21.2 42.35 21.2 40.4 21.2 28.75 21.2 26.95 21.2 18.0 21.2 M71.3 11.85 L73.3 17.1 M52.65 5.4 L56.95 5.4 58.95 5.4 58.95 17.1 M45.4 15.3 L48.4 15.3 51.3 5.4 52.65 5.4 M42.3 16.15 L43.85 16.15 37.55 4.5 37.55 7.85 42.3 16.15 40.7 16.15 39.15 16.15 38.25 16.15 39.1 17.95 42.7 17.95 43.55 17.95 44.0 16.15 43.85 16.15 M44.0 16.15 L44.25 15.3 45.1 15.3 M43.2 19.1 L43.55 17.95 M42.7 17.95 L43.2 19.1 56.8 19.1 M56.95 19.1 L56.95 5.4 M60.95 49.2 L46.9 49.2 43.9 46.45 35.9 46.45 45.0 59.75 54.95 59.75 58.35 54.65 83.85 54.65 M53.55 38.65 L57.75 38.65 65.4 48.65 M76.95 30.45 L73.8 30.45 73.8 29.4 72.8 29.4 69.7 35.8 70.85 35.8 72.25 33.65 73.85 33.65 73.85 34.7 76.75 34.7 76.75 33.9 74.4 33.9 76.95 31.2 76.95 30.45 M73.1 32.75 L73.1 30.85 72.35 32.75 73.1 32.75 M73.75 32.95 L75.35 31.45 73.75 31.45 73.75 32.95 M70.15 37.35 L78.2 37.35 77.25 35.65 72.25 35.65 71.65 36.55 70.15 36.55 70.15 37.35 M72.2 43.45 L72.2 42.15 72.2 40.8 72.2 39.45 M36.45 3.3 L36.9 3.3 36.05 1.7 M36.9 3.3 L37.55 3.3 37.55 4.5 M32.95 1.7 L35.35 6.25 35.35 3.95 34.65 2.7 M35.35 3.95 L35.35 3.3 36.45 3.3 36.45 17.95 37.55 17.95 37.55 16.5 37.55 13.5 37.55 10.35 37.55 7.85 M35.35 9.8 L35.35 6.25 M29.35 1.7 L35.35 13.2 35.35 9.8 31.25 2.95 M21.05 2.7 L28.6 16.15 30.25 16.15 22.4 1.7 M33.35 17.95 L27.2 17.95 28.75 21.2 M26.95 21.2 L24.6 16.15 23.55 16.7 19.9 18.55 M17.65 2.95 L25.5 16.15 27.1 16.15 19.3 1.7 M27.1 16.15 L28.6 16.15 M24.6 16.15 L25.5 16.15 M38.0 17.95 L39.1 17.95 M37.55 13.5 L39.15 16.15 M38.25 16.15 L37.55 16.5 M37.55 17.95 L38.0 17.95 40.4 21.2 M34.7 17.95 L35.35 17.6 35.35 13.2 M34.7 17.95 L35.35 17.95 35.35 17.6 M33.3 17.85 L33.35 17.95 34.7 17.95 M35.35 17.95 L36.45 17.95 M30.25 16.15 L31.95 16.15 M17.35 36.45 L14.95 36.45 14.95 38.65 17.35 38.65 M14.95 36.45 L12.55 36.45 10.25 29.05 M18.45 42.65 L16.35 42.65 14.0 45.0 16.35 45.0 18.45 42.65 33.25 42.65 35.9 46.45 M12.75 38.65 L10.15 38.65 M14.95 38.65 L12.75 38.65 9.35 43.1 11.75 47.95 15.75 47.95 14.0 45.0 M16.35 45.0 L18.25 47.95 31.75 47.95 32.9 47.95 42.0 59.75 45.0 59.75 M18.25 47.95 L15.75 47.95 M2.15 29.05 Q0.15 33.7 4.7 38.65 M28.25 30.9 L24.95 30.9 22.1 36.45 M15.7 1.7 L23.55 16.7 M31.1 60.0 L32.05 61.65 33.85 64.55 35.65 64.55 41.8 64.55 43.3 64.55 43.55 64.55 56.55 64.55 56.8 64.55 59.85 64.55 65.6 64.55 68.1 59.5 81.05 59.5 M21.3 55.5 L23.4 55.5 26.0 60.0 31.1 60.0 26.7 52.9 15.15 52.9 16.3 55.5 21.3 55.5 24.25 60.0 26.0 60.0 M33.6 65.05 Q30.55 65.15 28.4 67.45 26.15 69.85 26.15 73.3 26.15 76.75 28.4 79.15 29.7 80.55 31.3 81.15 L33.6 81.55 M33.9 65.0 L33.9 65.05 Q32.6 65.55 31.5 66.6 L31.45 66.7 Q29.25 68.9 29.25 71.95 29.25 74.95 31.45 77.15 L33.1 78.4 Q34.65 79.3 36.65 79.3 L36.95 79.3 37.05 79.3 43.1 79.3 42.05 79.2 40.1 78.5 40.0 78.4 38.3 77.15 Q36.15 74.95 36.15 71.95 36.15 68.9 38.3 66.7 L38.45 66.6 Q39.5 65.55 40.8 65.05 L41.8 64.75 41.8 64.55 M33.6 65.05 L33.9 65.0 34.05 65.0 35.65 64.55 M33.9 65.0 L33.85 65.05 M17.4 57.05 L19.7 57.05 22.5 61.65 32.05 61.65 M10.85 52.9 L13.2 52.9 15.15 52.9 M13.2 52.9 L14.4 55.5 16.3 55.5 M19.6 65.05 L33.6 65.05 M67.25 51.05 L62.3 51.05 60.95 49.2 M69.6 64.55 L65.6 64.55 M64.9 69.8 L69.55 71.35 73.5 64.55 69.6 64.55 64.9 69.8 63.5 71.35 58.35 71.35 Q57.15 72.6 54.6 73.75 L55.2 74.65 55.55 75.1 56.55 75.85 Q57.65 76.55 59.0 76.55 L59.4 76.5 61.05 76.1 63.75 75.35 M69.55 71.35 L71.95 71.35 M67.25 51.05 L72.2 51.05 72.2 48.65 M42.0 59.75 L40.65 59.75 31.75 47.95 M54.6 73.75 L50.55 75.2 50.1 75.35 47.4 76.1 45.75 76.5 45.4 76.55 44.45 76.4 42.9 75.85 Q42.35 75.55 41.9 75.1 L41.55 74.65 Q40.45 73.35 40.45 71.6 40.45 70.55 40.9 69.65 41.2 68.85 41.9 68.15 42.55 67.5 43.3 67.15 L41.8 66.65 41.8 64.75 M55.95 71.35 L58.35 71.35 M55.95 71.35 L59.85 64.55 M43.3 67.15 L55.95 71.35 M52.9 79.3 L50.65 79.3 50.55 79.3 50.3 79.3 49.85 79.3 43.1 79.3 M65.8 49.2 L67.25 51.05 M40.7 16.15 L37.55 10.35 M43.2 19.1 L40.4 19.1 42.35 21.2 M73.5 64.55 L83.25 64.55 M85.9 51.05 L72.2 51.05 M72.2 40.8 L87.9 40.8" ffdec:has-small-stroke="true" ffdec:original-stroke-width="0.1" fill="none" stroke="#000000" stroke-linecap="round" stroke-linejoin="round" stroke-opacity="0.29803923" stroke-width="1.0"/>
    </g>
    <linearGradient gradientTransform="matrix(0.0, 0.0058, -0.0082, 0.0, 8.3, 33.8)" gradientUnits="userSpaceOnUse" id="gradient0" spreadMethod="pad" x1="-819.2" x2="819.2">
      <stop offset="0.0" stop-color="#333333"/>
      <stop offset="0.29411764705882354" stop-color="#999999"/>
      <stop offset="1.0" stop-color="#333333"/>
    </linearGradient>
    <linearGradient gradientTransform="matrix(0.0, 0.0058, -0.0029, 0.0, 2.35, 33.8)" gradientUnits="userSpaceOnUse" id="gradient1" spreadMethod="pad" x1="-819.2" x2="819.2">
      <stop offset="0.0" stop-color="#333333"/>
      <stop offset="0.29411764705882354" stop-color="#999999"/>
      <stop offset="1.0" stop-color="#333333"/>
    </linearGradient>
    <linearGradient gradientTransform="matrix(0.0, 0.0101, -0.008, 0.0, 32.65, 73.25)" gradientUnits="userSpaceOnUse" id="gradient2" spreadMethod="pad" x1="-819.2" x2="819.2">
      <stop offset="0.0" stop-color="#333333"/>
      <stop offset="0.29411764705882354" stop-color="#999999"/>
      <stop offset="1.0" stop-color="#333333"/>
    </linearGradient>
    <linearGradient gradientTransform="matrix(0.0, 0.0101, -0.0133, 0.0, 22.65, 73.25)" gradientUnits="userSpaceOnUse" id="gradient3" spreadMethod="pad" x1="-819.2" x2="819.2">
      <stop offset="0.0" stop-color="#333333"/>
      <stop offset="0.29411764705882354" stop-color="#999999"/>
      <stop offset="1.0" stop-color="#333333"/>
    </linearGradient>
    <linearGradient gradientTransform="matrix(0.0, 0.0057, -0.0109, 0.0, 63.05, 71.8)" gradientUnits="userSpaceOnUse" id="gradient4" spreadMethod="pad" x1="-819.2" x2="819.2">
      <stop offset="0.12941176470588237" stop-color="#858585"/>
      <stop offset="0.9098039215686274" stop-color="#000000"/>
    </linearGradient>
    <linearGradient gradientTransform="matrix(0.0, 0.0057, -0.0109, 0.0, 49.45, 71.8)" gradientUnits="userSpaceOnUse" id="gradient5" spreadMethod="pad" x1="-819.2" x2="819.2">
      <stop offset="0.12941176470588237" stop-color="#858585"/>
      <stop offset="0.9098039215686274" stop-color="#000000"/>
    </linearGradient>
    <linearGradient gradientTransform="matrix(0.0084, 0.0, 0.0, 0.0156, 133.95, 40.25)" gradientUnits="userSpaceOnUse" id="gradient6" spreadMethod="pad" x1="-819.2" x2="819.2">
      <stop offset="0.0" stop-color="#ffc800"/>
      <stop offset="0.5254901960784314" stop-color="#ff9900"/>
      <stop offset="1.0" stop-color="#ff6600"/>
    </linearGradient>
    <linearGradient gradientTransform="matrix(0.0084, 0.0, 0.0, 0.0156, 120.3, 40.25)" gradientUnits="userSpaceOnUse" id="gradient7" spreadMethod="pad" x1="-819.2" x2="819.2">
      <stop offset="0.0" stop-color="#ffc800"/>
      <stop offset="0.5254901960784314" stop-color="#ff9900"/>
      <stop offset="1.0" stop-color="#ff6600"/>
    </linearGradient>
    <linearGradient gradientTransform="matrix(0.0327, 0.0, 0.0, 0.01, 45.4, 40.45)" gradientUnits="userSpaceOnUse" id="gradient8" spreadMethod="pad" x1="-819.2" x2="819.2">
      <stop offset="0.0" stop-color="#ffc800"/>
      <stop offset="0.5254901960784314" stop-color="#ff9900"/>
      <stop offset="1.0" stop-color="#ff6600"/>
    </linearGradient>
    <g id="shape1">
      <path d="M127.05 53.05 L132.85 27.5 140.9 27.5 134.45 53.05 127.05 53.05" fill="url(#gradient9)" fill-rule="evenodd" stroke="none"/>
      <path d="M113.4 53.05 L119.2 27.5 127.25 27.5 120.8 53.05 113.4 53.05" fill="url(#gradient10)" fill-rule="evenodd" stroke="none"/>
      <path d="M18.6 38.65 L18.6 37.55 27.55 37.55 30.75 32.3 57.65 32.3 65.2 43.45 72.2 43.45 72.2 48.65 65.4 48.65 57.75 38.65 18.6 38.65 M16.35 45.0 L18.45 42.65 33.25 42.65 45.0 59.75 42.0 59.75 32.9 47.95 18.25 47.95 16.35 45.0" fill="url(#gradient11)" fill-rule="evenodd" stroke="none"/>
      <path d="M18.6 38.65 L17.35 38.65 17.35 36.45 25.45 36.45 28.25 30.9 58.25 30.9 64.4 39.45 72.2 39.45 72.2 43.45 65.2 43.45 57.65 32.3 30.75 32.3 27.55 37.55 18.6 37.55 18.6 38.65 M72.2 48.65 L72.2 51.05 67.25 51.05 65.4 48.65 72.2 48.65" fill="#994f4f" fill-rule="evenodd" stroke="none"/>
      <path d="M127.05 53.05 L134.45 53.05 140.9 27.5 132.85 27.5 127.05 53.05 M113.4 53.05 L120.8 53.05 127.25 27.5 119.2 27.5 113.4 53.05 M72.2 43.45 L72.2 39.45 64.4 39.45 58.25 30.9 28.25 30.9 25.45 36.45 17.35 36.45 17.35 38.65 18.6 38.65 18.6 37.55 27.55 37.55 30.75 32.3 57.65 32.3 65.2 43.45 72.2 43.45 72.2 48.65 72.2 51.05 67.25 51.05 65.4 48.65 57.75 38.65 18.6 38.65 M72.2 48.65 L65.4 48.65 M16.35 45.0 L18.25 47.95 32.9 47.95 42.0 59.75 45.0 59.75 33.25 42.65 18.45 42.65 16.35 45.0 Z" ffdec:has-small-stroke="true" ffdec:original-stroke-width="0.1" fill="none" stroke="#000000" stroke-linecap="round" stroke-linejoin="round" stroke-opacity="0.29803923" stroke-width="1.0"/>
    </g>
    <linearGradient gradientTransform="matrix(0.0084, 0.0, 0.0, 0.0156, 133.95, 40.25)" gradientUnits="userSpaceOnUse" id="gradient9" spreadMethod="pad" x1="-819.2" x2="819.2">
      <stop offset="0.0" stop-color="#ff3300"/>
      <stop offset="1.0" stop-color="#990000"/>
    </linearGradient>
    <linearGradient gradientTransform="matrix(0.0084, 0.0, 0.0, 0.0156, 120.3, 40.25)" gradientUnits="userSpaceOnUse" id="gradient10" spreadMethod="pad" x1="-819.2" x2="819.2">
      <stop offset="0.0" stop-color="#ff3300"/>
      <stop offset="1.0" stop-color="#990000"/>
    </linearGradient>
    <linearGradient gradientTransform="matrix(0.0327, 0.0, 0.0, 0.01, 45.4, 40.45)" gradientUnits="userSpaceOnUse" id="gradient11" spreadMethod="pad" x1="-819.2" x2="819.2">
      <stop offset="0.0" stop-color="#ff3300"/>
      <stop offset="1.0" stop-color="#990000"/>
    </linearGradient>
    <g id="sprite2">
      <use ffdec:characterId="2356" height="65.95" transform="matrix(1.0, 0.0, 0.0, 1.0, 0.0, 0.0)" width="107.3" xlink:href="#shape2"/>
    </g>
    <g id="shape2">
      <path d="M41.5 13.7 L42.55 9.9 46.7 9.9 49.6 0.0 57.25 0.0 57.25 11.7 78.15 11.7 80.0 14.9 94.45 14.9 93.35 11.7 106.55 11.7 107.3 12.7 105.9 12.7 104.75 14.8 104.65 14.9 103.4 17.15 87.6 17.15 88.7 19.5 82.6 19.5 87.3 27.7 84.55 34.05 62.7 34.05 56.55 25.5 26.55 25.5 23.75 31.05 10.85 31.05 8.1 22.2 2.85 22.2 0.0 18.8 2.65 15.8 27.05 15.8 25.5 12.55 41.0 12.55 41.5 13.7 38.7 13.7 40.65 15.8 54.25 15.8 55.7 13.7 41.5 13.7 M91.25 50.3 L92.7 53.1 106.35 53.1 106.85 54.1 95.0 54.1 90.45 59.15 81.55 59.15 75.4 65.95 67.85 65.95 63.2 64.4 61.8 65.95 54.25 65.95 40.1 61.25 40.1 59.15 32.15 59.15 29.4 54.6 22.55 54.6 19.6 50.1 12.7 50.1 11.5 47.5 4.35 47.5 1.35 42.0 8.45 33.25 56.05 33.25 65.55 45.65 88.3 45.65 85.55 50.3 91.25 50.3 M14.65 39.6 L16.55 42.55 31.2 42.55 40.3 54.35 43.3 54.35 31.55 37.25 16.75 37.25 14.65 39.6" fill="#ffffff" fill-opacity="0.0" fill-rule="evenodd" stroke="none"/>
    </g>
  </defs>
</svg>
