<?xml version="1.0" encoding="UTF-8" standalone="no"?>
<svg xmlns:ffdec="https://www.free-decompiler.com/flash" xmlns:xlink="http://www.w3.org/1999/xlink" ffdec:objectType="frame" height="178.75px" width="178.65px" xmlns="http://www.w3.org/2000/svg">
  <g transform="matrix(1.0, 0.0, 0.0, 1.0, 0.05, 0.05)">
    <use ffdec:characterId="538" height="178.75" id="itemGfx" transform="matrix(1.0, 0.0, 0.0, 1.0, 0.0, 0.0)" width="178.65" xlink:href="#sprite0"/>
    
    <use ffdec:characterId="542" height="130.7" id="mcShutdown" transform="matrix(1.0, 0.0, 0.0, 1.0, 20.45, 42.5)" width="148.25" xlink:href="#sprite3"/>
    <use ffdec:characterId="178" height="0.0" id="mcLeg1" transform="matrix(1.0, 0.0, 0.0, 1.0, 48.05, 158.55)" width="0.0" xlink:href="#sprite4"/>
    <use ffdec:characterId="178" height="0.0" id="mcSide1" transform="matrix(1.0, 0.0, 0.0, 1.0, 47.25, 114.25)" width="0.0" xlink:href="#sprite4"/>
    <use ffdec:characterId="178" height="0.0" id="mcCenter" transform="matrix(1.0, 0.0, 0.0, 1.0, 87.15, 82.05)" width="0.0" xlink:href="#sprite4"/>
    <use ffdec:characterId="178" height="0.0" id="mcChargeEngine" transform="matrix(1.0, 0.0, 0.0, 1.0, 17.0, 96.7)" width="0.0" xlink:href="#sprite4"/>
    <use ffdec:characterId="178" height="0.0" id="mcLeg2" transform="matrix(1.0, 0.0, 0.0, 1.0, 110.3, 158.55)" width="0.0" xlink:href="#sprite4"/>
    <use ffdec:characterId="178" height="0.0" id="mcSide2" transform="matrix(1.0, 0.0, 0.0, 1.0, 129.5, 114.25)" width="0.0" xlink:href="#sprite4"/>
    <use ffdec:characterId="178" height="0.0" id="mcSide3" transform="matrix(1.0, 0.0, 0.0, 1.0, 48.5, 70.0)" width="0.0" xlink:href="#sprite4"/>
    <use ffdec:characterId="178" height="0.0" id="mcSide4" transform="matrix(1.0, 0.0, 0.0, 1.0, 131.75, 70.0)" width="0.0" xlink:href="#sprite4"/>
    <use ffdec:characterId="178" height="0.0" id="mcTop1" transform="matrix(1.0, 0.0, 0.0, 1.0, 52.5, 9.25)" width="0.0" xlink:href="#sprite4"/>
    <use ffdec:characterId="178" height="0.0" id="mcTop2" transform="matrix(1.0, 0.0, 0.0, 1.0, 106.5, 9.25)" width="0.0" xlink:href="#sprite4"/>
    <use ffdec:characterId="178" height="0.0" id="mcHat" transform="matrix(0.959, 0.0, 0.0, 0.959, 101.4, 4.65)" width="0.0" xlink:href="#sprite4"/>
  </g>
  <defs>
    <g id="sprite0">
      <use ffdec:characterId="536" height="178.75" transform="matrix(1.0, 0.0, 0.0, 1.0, 0.0, 0.0)" width="178.65" xlink:href="#sprite1"/>
      <use ffdec:characterId="537" height="130.7" transform="matrix(1.0, 0.0, 0.0, 1.0, 0.0, 0.0)" width="148.25" xlink:href="#shape1"/>
    </g>
    <g id="sprite1">
      <use ffdec:characterId="535" height="178.75" transform="matrix(1.0, 0.0, 0.0, 1.0, 0.0, 0.0)" width="178.65" xlink:href="#shape0"/>
    </g>
    <g id="shape0">
      <path d="M159.05 60.2 L160.35 60.75 Q163.55 65.9 165.5 71.1 L166.2 73.5 163.7 73.3 160.05 72.95 161.95 79.8 165.7 80.4 165.75 80.5 167.25 80.75 168.3 81.05 168.65 82.75 168.9 84.1 169.2 86.25 169.2 86.6 169.7 90.55 164.45 89.75 158.5 89.35 154.9 89.3 158.5 89.35 158.05 89.35 154.9 89.3 151.65 89.35 151.55 89.35 145.2 89.4 143.65 89.45 138.75 65.7 Q147.7 65.0 154.1 66.1 L152.85 58.9 154.1 66.1 Q147.7 65.0 138.75 65.7 L143.65 89.45 141.0 89.6 Q132.25 90.25 122.2 92.25 L119.1 92.95 92.65 92.95 Q90.3 96.55 87.15 99.65 86.75 91.35 82.45 85.35 78.25 79.65 72.7 78.95 L76.5 76.5 Q82.0 72.9 87.2 70.1 96.6 65.0 104.65 62.55 L104.75 62.5 104.85 62.5 108.6 61.45 Q112.75 60.35 116.8 59.6 L118.7 59.25 119.65 59.1 120.3 58.95 129.3 57.95 143.45 57.75 149.6 58.4 151.8 58.7 152.85 58.9 153.35 58.95 158.9 60.2 159.05 60.2 M119.55 74.1 L119.55 73.85 117.8 73.85 115.5 74.0 114.65 74.05 Q112.7 74.5 110.7 75.1 106.1 76.5 101.0 78.7 99.0 79.55 96.95 80.55 L97.0 80.55 99.15 84.65 103.45 83.25 Q113.15 80.25 120.85 80.75 L119.55 74.1 M138.75 65.7 L124.8 67.5 119.65 59.1 124.8 67.5 138.75 65.7" fill="url(#gradient0)" fill-rule="evenodd" stroke="none"/>
      <path d="M165.7 80.4 L161.95 79.8 160.05 72.95 163.7 73.3 166.05 80.45 165.7 80.4" fill="url(#gradient1)" fill-rule="evenodd" stroke="none"/>
      <path d="M151.55 89.35 L151.65 89.35 154.9 89.3 158.05 89.35 158.5 89.35 164.45 89.75 169.7 90.55 173.45 91.4 Q176.1 92.05 178.5 92.95 L178.55 96.5 178.5 97.95 178.4 100.25 178.4 100.4 178.15 103.05 177.85 105.4 177.85 105.45 Q176.1 117.25 170.15 127.2 L169.15 128.75 167.75 130.75 164.0 135.5 162.85 136.75 161.1 138.6 Q153.95 146.0 145.6 150.25 143.0 151.6 140.35 152.6 135.75 154.3 130.8 155.2 L133.5 150.05 Q136.55 148.5 139.45 146.45 L139.95 146.05 135.5 146.05 113.0 146.05 112.45 146.45 109.55 148.35 106.8 149.9 101.75 152.2 97.6 153.75 Q90.9 155.75 83.4 156.1 L71.7 156.1 Q79.15 155.75 85.85 153.75 L90.0 152.2 Q95.65 149.95 100.75 146.45 L101.3 146.05 102.45 145.2 Q106.25 142.25 109.65 138.6 L111.6 136.6 116.2 130.75 117.55 128.75 Q120.75 123.7 122.85 118.25 L123.75 115.55 Q126.05 108.4 126.55 100.4 L126.55 100.25 126.55 100.05 126.65 96.5 126.65 93.8 126.6 92.95 Q138.75 89.95 150.0 89.45 L151.55 89.35 M178.4 100.25 Q176.0 99.35 173.45 98.75 L164.65 97.2 158.85 96.85 155.35 96.8 150.55 96.9 Q139.6 97.4 126.55 100.25 139.6 97.4 150.55 96.9 L155.35 96.8 158.85 96.85 164.65 97.2 173.45 98.75 Q176.0 99.35 178.4 100.25 M168.6 102.15 L163.4 102.0 163.0 104.95 Q161.95 110.55 160.05 115.75 L159.0 118.4 Q157.5 121.95 155.45 125.4 L153.3 128.75 151.75 130.95 149.45 133.9 146.85 136.75 152.1 136.75 156.95 130.95 158.55 128.75 Q161.95 123.8 164.25 118.4 L165.3 115.75 Q167.65 109.25 168.6 102.15 M169.15 128.75 L158.55 128.75 169.15 128.75 M145.5 128.75 L153.3 128.75 145.5 128.75 Q148.9 123.8 151.2 118.4 L152.25 115.75 Q154.65 109.25 155.55 102.15 L150.25 102.4 149.9 104.95 Q148.95 110.55 147.05 115.75 L146.0 118.4 142.45 125.4 140.3 128.75 138.7 130.95 136.4 133.9 133.85 136.75 139.05 136.75 143.95 130.95 145.5 128.75 M132.45 128.75 L140.3 128.75 132.45 128.75 Q135.85 123.8 138.15 118.4 L139.2 115.75 Q141.4 109.75 142.4 103.3 L142.4 103.25 137.1 103.9 136.65 106.1 Q135.7 111.05 133.95 115.75 L132.95 118.4 Q131.45 121.95 129.35 125.4 L127.25 128.75 125.65 130.95 123.35 133.9 120.8 136.75 126.0 136.75 Q128.65 133.95 130.9 130.95 L132.45 128.75 M117.55 128.75 L127.25 128.75 117.55 128.75" fill="url(#gradient2)" fill-rule="evenodd" stroke="none"/>
      <path d="M163.0 104.95 L163.4 102.0 168.6 102.15 163.0 104.95 M149.9 104.95 L150.25 102.4 155.55 102.15 149.9 104.95 M136.65 106.1 L137.1 103.9 142.4 103.25 142.4 103.3 136.65 106.1" fill="#37545d" fill-rule="evenodd" stroke="none"/>
      <path d="M168.6 102.15 Q167.65 109.25 165.3 115.75 L164.25 118.4 Q161.95 123.8 158.55 128.75 L155.45 125.4 158.55 128.75 156.95 130.95 152.1 136.75 149.45 133.9 151.75 130.95 153.3 128.75 155.45 125.4 Q157.5 121.95 159.0 118.4 L160.05 115.75 Q161.95 110.55 163.0 104.95 L168.6 102.15" fill="url(#gradient3)" fill-rule="evenodd" stroke="none"/>
      <path d="M138.65 6.8 L138.75 6.8 146.15 16.6 153.25 26.15 99.25 26.15 91.65 16.5 101.65 16.5 91.65 16.5 84.0 6.8 138.65 6.8 M138.85 13.25 L130.1 8.4 122.0 8.4 124.25 12.4 117.0 8.4 108.9 8.4 111.15 12.4 103.9 8.4 95.8 8.4 101.65 16.5 107.5 24.6 115.65 24.6 115.25 22.9 118.7 22.9 120.65 24.6 128.75 24.6 128.35 22.9 131.8 22.9 133.75 24.6 141.9 24.6 139.75 16.6 138.85 13.25 M146.15 16.6 L139.75 16.6 146.15 16.6 M103.45 83.25 L99.15 84.65 97.0 80.55 102.0 80.55 103.45 83.25 M86.75 54.35 L82.9 55.05 79.5 48.25 83.65 48.25 86.75 54.35" fill="#bbbbbb" fill-rule="evenodd" stroke="none"/>
      <path d="M159.05 60.2 L158.9 60.2 153.35 58.95 152.85 58.9 151.8 58.7 149.6 58.4 143.45 57.75 129.3 57.95 120.3 58.95 119.65 59.1 118.7 59.25 116.8 59.6 Q112.75 60.35 108.6 61.45 L104.85 62.5 104.75 62.5 104.65 62.55 104.15 55.4 104.1 54.3 103.95 51.3 154.5 51.3 158.7 51.3 158.85 54.3 158.9 55.4 159.05 60.0 159.05 60.2 M59.3 0.05 L112.65 0.0 114.5 0.1 115.5 0.1 119.3 0.45 125.05 1.45 126.7 1.85 Q130.8 3.0 134.75 4.8 L138.2 6.5 138.65 6.8 84.0 6.8 83.4 6.5 80.0 4.8 Q76.05 3.0 71.95 1.85 L70.3 1.45 64.55 0.45 62.3 0.25 60.75 0.1 59.75 0.1 59.3 0.05 M153.25 26.15 L154.15 29.25 156.05 37.35 156.8 41.7 102.05 41.7 99.9 29.25 99.25 26.15 153.25 26.15" fill="url(#gradient4)" fill-rule="evenodd" stroke="none"/>
      <path d="M130.65 155.6 L131.1 156.1 118.0 156.1 114.1 151.5 127.2 151.5 130.65 155.6 M122.0 8.4 L130.1 8.4 138.85 13.25 130.75 13.25 122.0 8.4 M126.5 16.15 L130.55 18.35 127.1 18.35 126.5 16.15 M124.25 12.4 L125.75 13.25 117.6 13.25 108.9 8.4 117.0 8.4 124.25 12.4 M114.0 18.35 L113.4 16.15 117.45 18.35 114.0 18.35 M112.65 13.25 L104.5 13.25 95.8 8.4 103.9 8.4 111.15 12.4 112.65 13.25" fill="#666666" fill-rule="evenodd" stroke="none"/>
      <path d="M156.8 41.7 L152.75 42.4 152.8 42.45 153.4 45.55 98.75 45.55 98.4 44.0 83.65 48.25 79.5 48.25 81.2 47.75 81.25 47.75 81.8 47.6 102.05 41.7 156.8 41.7 M154.15 49.3 L154.5 51.3 103.95 51.3 103.9 51.3 99.85 52.05 99.7 51.3 99.4 49.3 154.15 49.3 M138.85 13.25 L139.75 16.6 141.9 24.6 133.75 24.6 130.75 13.25 138.85 13.25 M130.55 18.35 L131.8 22.9 128.35 22.9 128.75 24.6 120.65 24.6 117.6 13.25 125.75 13.25 126.5 16.15 127.1 18.35 130.55 18.35 M127.1 18.35 L128.35 22.9 127.1 18.35 M118.7 22.9 L115.25 22.9 115.65 24.6 107.5 24.6 104.5 13.25 112.65 13.25 113.4 16.15 114.0 18.35 117.45 18.35 118.7 22.9 M115.25 22.9 L114.0 18.35 115.25 22.9 M152.8 42.45 L103.6 42.45 98.4 44.0 103.6 42.45 152.8 42.45 M97.0 80.55 L96.95 80.55 Q99.0 79.55 101.0 78.7 106.1 76.5 110.7 75.1 112.7 74.5 114.65 74.05 L115.5 74.0 117.8 73.85 119.55 73.85 119.55 74.1 115.75 75.1 Q111.15 76.5 106.1 78.7 L102.0 80.55 97.0 80.55 M23.2 65.5 Q24.65 70.3 27.7 74.2 L28.55 75.25 Q32.0 79.4 36.3 81.0 38.75 81.9 41.5 82.0 L42.5 82.0 44.0 81.9 44.0 96.7 44.0 103.05 23.2 103.05 23.2 98.75 31.8 98.75 36.7 98.75 36.7 96.7 44.0 96.7 36.7 96.7 36.7 88.0 34.65 86.95 Q30.0 84.4 26.0 79.5 L25.3 78.6 23.2 75.6 23.2 65.5 M38.8 91.55 L38.25 89.75 38.75 91.55 38.8 91.55 M44.0 126.75 L32.1 126.75 28.25 122.9 27.55 122.2 36.3 113.35 44.0 113.35 44.0 126.75" fill="#555555" fill-rule="evenodd" stroke="none"/>
      <path d="M90.7 178.65 L73.85 178.65 71.6 173.1 83.2 173.1 89.4 173.1 109.65 160.4 114.1 151.5 118.0 156.1 114.0 164.15 90.7 178.65 M43.2 168.25 L35.35 168.25 34.45 162.45 33.95 159.8 33.6 157.35 33.05 154.15 32.45 150.6 31.85 147.05 20.3 147.05 18.9 147.05 16.35 135.95 16.35 122.9 12.65 122.9 12.65 98.75 23.2 98.75 23.2 103.05 23.2 117.85 27.55 122.2 28.25 122.9 32.1 126.75 44.0 126.75 52.9 126.75 52.9 122.9 56.4 122.9 52.9 122.9 52.9 113.35 52.9 111.6 54.5 114.85 55.7 116.6 56.4 117.55 56.4 122.9 56.4 132.55 57.1 134.9 49.75 134.9 38.75 134.9 36.05 134.9 31.4 130.25 27.15 126.0 27.15 122.9 28.25 122.9 27.15 122.9 27.15 126.0 31.4 130.25 36.05 134.9 38.75 134.9 49.75 134.9 47.75 145.05 43.55 145.05 38.75 140.25 38.75 134.9 38.75 140.25 43.55 145.05 47.75 145.05 44.9 159.8 33.95 159.8 44.9 159.8 43.2 168.25 M10.8 56.6 L10.8 51.45 7.2 51.45 11.95 46.7 9.15 46.7 13.9 41.9 11.1 41.9 15.85 37.15 13.05 37.15 17.8 32.4 24.9 32.4 30.05 22.6 33.0 22.25 33.05 22.25 Q37.85 22.5 42.55 23.5 47.7 24.6 51.4 25.95 L52.95 26.5 53.15 26.6 56.5 28.25 59.8 35.15 63.15 42.1 67.1 68.0 69.05 79.05 67.0 78.85 63.9 79.25 61.8 80.0 Q58.4 81.55 55.7 85.35 L55.5 85.6 Q53.95 87.85 52.9 90.4 L52.9 77.9 52.95 77.85 54.1 76.75 55.5 75.25 56.35 74.2 57.0 73.3 Q59.55 69.7 60.9 65.3 L61.4 63.3 Q62.3 59.6 62.3 55.5 L62.3 54.45 Q61.95 44.1 56.35 36.75 L54.55 34.65 52.7 32.9 Q50.2 30.8 47.4 29.85 45.05 29.0 42.5 28.95 L41.7 28.95 38.9 29.25 Q35.2 29.95 31.95 32.4 L31.35 32.9 30.15 33.95 28.25 36.05 27.7 36.75 27.4 37.15 Q25.75 39.35 24.6 41.85 L24.55 41.9 24.55 41.95 24.35 42.4 24.15 42.85 Q23.35 44.7 22.8 46.7 L11.95 46.7 22.8 46.7 22.2 49.65 21.95 51.45 21.75 54.45 21.7 55.5 Q21.7 59.6 22.6 63.3 L23.15 65.25 23.2 65.5 23.2 75.6 22.55 74.55 21.55 72.7 Q19.5 68.8 18.35 64.4 L17.55 61.05 17.3 59.35 17.15 58.75 17.15 58.65 17.05 58.2 16.9 56.6 12.05 56.6 10.8 56.6 M135.5 146.05 L139.95 146.05 139.45 146.45 Q136.55 148.5 133.5 150.05 L135.5 146.05 M130.55 18.35 L126.5 16.15 125.75 13.25 124.25 12.4 122.0 8.4 130.75 13.25 133.75 24.6 131.8 22.9 130.55 18.35 M120.65 24.6 L118.7 22.9 117.45 18.35 113.4 16.15 112.65 13.25 111.15 12.4 108.9 8.4 117.6 13.25 120.65 24.6 M107.5 24.6 L101.65 16.5 95.8 8.4 104.5 13.25 107.5 24.6 M98.75 45.55 L88.85 48.6 89.7 51.3 99.4 49.3 99.7 51.3 99.85 52.05 86.75 54.35 83.65 48.25 98.4 44.0 98.75 45.55 M81.1 138.4 L80.05 139.1 74.85 142.3 72.4 135.25 71.3 132.0 68.15 123.0 69.05 122.95 71.2 123.05 72.4 123.0 75.25 122.4 76.75 126.5 77.9 129.7 72.4 135.25 77.9 129.7 81.1 138.4 M44.25 17.05 L44.45 15.9 44.85 14.95 45.9 13.2 46.0 13.05 46.15 12.85 47.0 11.85 Q48.4 10.3 50.2 9.15 L50.3 9.05 Q51.4 8.35 52.4 7.9 53.55 7.45 54.55 7.35 L54.75 7.35 54.85 7.35 Q54.85 8.95 53.2 11.25 L52.7 12.0 52.55 12.15 52.3 12.45 51.55 13.2 51.3 13.5 50.6 14.15 48.9 15.35 Q46.9 16.7 45.2 17.0 L44.35 17.05 44.25 17.05 M42.65 34.65 L43.4 34.9 Q45.65 35.7 47.6 37.3 L47.8 37.5 49.65 39.3 50.55 40.35 51.85 42.3 Q53.2 44.55 54.05 47.05 54.8 49.3 55.1 51.85 L55.3 54.45 55.3 55.45 55.3 56.6 Q55.2 59.1 54.7 61.4 L54.25 63.15 54.2 63.3 53.15 66.15 51.65 68.9 50.55 70.45 50.2 70.95 Q48.1 73.5 45.65 74.95 L45.1 75.25 44.2 75.7 43.35 76.0 42.65 76.25 40.25 75.25 39.7 74.95 38.0 73.85 36.15 72.2 36.35 72.2 36.95 72.25 37.65 72.25 38.0 72.2 38.0 72.25 42.5 72.25 44.2 71.95 Q45.2 71.65 46.05 70.95 L47.15 69.9 47.6 69.35 48.3 68.2 49.05 66.1 49.2 65.25 49.2 64.55 49.2 61.4 49.2 56.6 49.2 51.85 49.2 50.1 49.2 47.45 49.2 47.05 49.0 45.45 48.9 45.25 Q48.5 43.65 47.4 42.3 L47.15 42.0 45.75 40.7 45.45 40.5 Q44.05 39.6 42.45 39.6 L37.9 39.6 37.3 39.6 37.15 39.6 37.0 39.6 35.1 39.95 Q36.25 38.55 37.5 37.5 L37.65 37.4 38.65 36.6 Q40.55 35.3 42.65 34.65 M47.8 37.5 L37.5 37.5 47.8 37.5 M55.1 51.85 L49.2 51.85 55.1 51.85 M51.85 42.3 L47.4 42.3 51.85 42.3 M54.05 47.05 L49.2 47.05 54.05 47.05 M24.9 32.4 L31.95 32.4 24.9 32.4 M13.9 41.9 L24.55 41.9 13.9 41.9 M15.85 37.15 L27.4 37.15 15.85 37.15 M10.8 51.45 L21.95 51.45 10.8 51.45 M54.7 61.4 L49.2 61.4 54.7 61.4 M55.3 56.6 L49.2 56.6 55.3 56.6 M53.15 66.15 L49.05 66.1 53.15 66.15 M50.2 70.95 L46.05 70.95 50.2 70.95 M65.3 115.8 L62.6 114.05 61.8 113.25 60.7 111.9 60.2 111.1 Q59.25 109.65 58.6 108.05 58.1 106.65 57.85 105.15 57.5 103.55 57.5 101.85 L57.45 101.1 57.55 98.75 Q57.7 97.15 58.15 95.65 58.55 94.05 59.3 92.6 59.85 91.4 60.7 90.25 L61.4 89.35 62.6 89.35 59.3 92.6 61.2 92.6 58.15 95.65 60.65 95.65 57.55 98.75 60.55 98.75 57.5 101.85 61.15 101.85 57.85 105.15 61.5 105.15 58.65 108.05 63.25 108.05 60.2 111.1 65.5 111.1 62.6 114.05 67.05 114.05 65.3 115.8 M58.6 108.05 L58.65 108.05 58.6 108.05 M45.65 74.95 L39.7 74.95 45.65 74.95 M76.75 126.5 L71.3 132.0 76.75 126.5 M27.15 134.45 Q26.9 133.6 26.3 132.85 25.3 131.6 23.9 131.6 22.55 131.6 21.55 132.8 L21.5 132.85 21.1 133.5 Q20.45 134.55 20.45 135.95 20.45 137.35 21.1 138.45 L21.5 139.05 21.55 139.15 Q22.55 140.3 23.9 140.3 25.3 140.3 26.3 139.05 27.35 137.75 27.35 135.95 L27.15 134.45 31.4 130.25 27.15 134.45 M16.35 135.95 L20.45 135.95 16.35 135.95 M27.15 122.9 L16.35 122.9 27.15 122.9" fill="#333333" fill-rule="evenodd" stroke="none"/>
      <path d="M153.4 45.55 L153.65 46.55 154.15 49.3 99.4 49.3 99.15 47.35 98.75 45.55 153.4 45.55" fill="url(#gradient5)" fill-rule="evenodd" stroke="none"/>
      <path d="M33.0 22.25 L27.25 22.6 Q25.0 23.1 23.05 24.0 L27.65 15.5 32.2 6.95 35.0 5.45 38.05 3.9 Q43.15 1.55 48.85 0.7 L49.65 0.45 49.75 0.45 52.0 0.2 52.5 0.25 52.6 0.25 56.8 0.05 57.25 0.05 59.3 0.05 59.75 0.1 60.75 0.1 62.3 0.25 64.55 0.45 70.3 1.45 71.95 1.85 Q76.05 3.0 80.0 4.8 L83.4 6.5 84.0 6.8 70.6 17.3 56.5 28.25 53.15 26.6 52.95 26.5 51.4 25.95 Q47.7 24.6 42.55 23.5 37.85 22.5 33.05 22.25 L33.0 22.25 M70.6 17.3 L63.05 15.5 55.55 14.1 63.05 15.5 70.6 17.3 M41.2 18.45 L42.35 19.5 42.55 19.75 42.8 20.05 Q43.55 20.55 44.75 20.55 L45.25 20.55 47.25 20.1 48.15 19.75 49.55 19.05 50.8 18.35 Q53.3 16.65 55.25 14.45 L55.55 14.1 55.7 13.95 55.9 13.65 56.45 12.85 58.0 10.35 Q58.7 8.75 58.6 7.5 58.5 6.6 58.05 6.05 L57.75 5.75 57.7 5.65 56.5 4.5 Q56.3 4.15 55.95 4.0 L55.8 3.85 54.15 3.5 52.2 3.8 51.7 4.0 Q50.95 4.2 50.1 4.7 49.15 5.1 48.1 5.8 45.7 7.35 43.85 9.45 L42.45 11.2 41.4 12.85 41.3 13.05 Q40.75 14.0 40.5 14.8 L40.3 16.15 40.3 16.65 Q40.35 17.4 40.65 17.85 L40.7 18.0 41.2 18.45 M41.3 13.05 Q35.6 13.15 31.05 14.4 L27.65 15.5 31.05 14.4 Q35.6 13.15 41.3 13.05" fill="url(#gradient6)" fill-rule="evenodd" stroke="none"/>
      <path d="M91.65 16.5 L99.25 26.15 63.15 42.1 59.8 35.15 56.5 28.25 70.6 17.3 84.0 6.8 91.65 16.5 59.8 35.15 91.65 16.5" fill="#878787" fill-rule="evenodd" stroke="none"/>
      <path d="M12.65 98.75 L8.05 98.75 6.05 91.95 0.0 71.65 1.5 67.9 3.45 62.85 5.95 56.6 10.8 56.6 12.05 56.6 12.65 61.0 12.65 61.05 13.0 62.6 13.45 64.4 Q14.6 68.8 16.65 72.7 L16.65 72.75 Q18.3 75.8 20.45 78.6 L21.2 79.5 22.55 81.15 23.2 81.85 Q27.15 85.9 31.8 88.0 L31.8 98.75 23.2 98.75 12.65 98.75 M117.55 128.75 L116.2 130.75 111.6 136.6 109.65 138.6 Q106.25 142.25 102.45 145.2 L101.3 146.05 100.75 146.45 Q95.65 149.95 90.0 152.2 L85.85 153.75 Q79.15 155.75 71.7 156.1 L69.4 156.1 69.4 144.9 74.85 142.3 80.05 139.1 81.1 138.4 84.75 135.5 89.05 131.35 89.25 131.1 Q86.95 121.2 83.3 115.45 L83.9 114.5 102.4 126.65 107.35 122.2 117.55 128.75 107.35 122.2 102.4 126.65 83.9 114.5 85.05 112.15 85.7 110.6 85.8 110.2 Q86.85 106.8 87.1 103.0 L87.15 101.0 87.15 99.65 Q90.3 96.55 92.65 92.95 L119.1 92.95 126.6 92.95 126.65 93.8 126.65 96.5 126.55 100.05 126.55 100.25 126.55 100.4 Q126.05 108.4 123.75 115.55 L122.85 118.25 Q120.75 123.7 117.55 128.75 M99.25 26.15 L99.9 29.25 102.05 41.7 81.8 47.6 81.2 47.75 81.8 47.6 81.25 47.75 81.2 47.75 79.5 48.25 82.9 55.05 86.75 54.35 99.85 52.05 103.9 51.3 103.95 51.3 104.1 54.3 104.15 55.4 104.65 62.55 Q96.6 65.0 87.2 70.1 82.0 72.9 76.5 76.5 L72.7 78.95 71.2 78.85 71.15 78.85 69.05 79.05 67.1 68.0 82.95 61.6 87.2 70.1 82.95 61.6 67.1 68.0 63.15 42.1 99.25 26.15 M6.05 91.95 L12.1 91.95 8.6 80.15 16.65 72.75 8.6 80.15 12.1 91.95 6.05 91.95 M38.75 91.55 L38.25 89.75 38.8 91.55 38.75 91.55 M3.45 62.85 L8.6 80.15 3.45 62.85 M126.55 100.4 L99.35 100.4 Q95.85 105.8 91.65 110.2 L85.8 110.2 91.65 110.2 Q95.85 105.8 99.35 100.4 L126.55 100.4" fill="#777777" fill-rule="evenodd" stroke="none"/>
      <path d="M98.75 45.55 L99.15 47.35 99.4 49.3 89.7 51.3 88.85 48.6 98.75 45.55" fill="url(#gradient7)" fill-rule="evenodd" stroke="none"/>
      <path d="M119.55 74.1 L120.85 80.75 Q113.15 80.25 103.45 83.25 L102.0 80.55 106.1 78.7 Q111.15 76.5 115.75 75.1 L119.55 74.1" fill="url(#gradient8)" fill-rule="evenodd" stroke="none"/>
      <path d="M143.65 89.45 L145.2 89.4 151.55 89.35 150.0 89.45 Q138.75 89.95 126.6 92.95 L119.1 92.95 122.2 92.25 Q132.25 90.25 141.0 89.6 L143.65 89.45" fill="#cccccc" fill-rule="evenodd" stroke="none"/>
      <path d="M56.5 4.5 L56.8 5.25 56.9 5.6 56.9 5.8 Q57.0 6.85 56.55 8.1 L54.8 11.2 53.95 12.35 53.6 12.8 52.95 13.4 52.75 13.65 52.75 13.7 50.6 15.55 49.05 16.65 46.0 18.3 44.95 18.65 43.1 18.9 42.3 18.85 42.05 18.8 41.2 18.45 40.7 18.0 40.65 17.85 Q40.35 17.4 40.3 16.65 L40.3 16.15 40.5 14.8 Q40.75 14.0 41.3 13.05 L41.4 12.85 42.45 11.2 43.85 9.45 Q45.7 7.35 48.1 5.8 49.15 5.1 50.1 4.7 50.95 4.2 51.7 4.0 L52.2 3.8 54.15 3.5 55.8 3.85 55.95 4.0 Q56.3 4.15 56.5 4.5 M54.85 7.35 L54.85 7.2 54.75 6.8 Q54.45 5.45 52.75 5.45 L52.25 5.45 Q51.3 5.6 50.15 6.1 L48.2 7.2 Q46.35 8.4 44.95 9.9 L43.85 11.25 42.95 12.85 42.85 13.0 Q42.2 14.3 42.25 15.35 42.4 16.7 43.6 17.0 L44.25 17.05 44.35 17.05 45.2 17.0 Q46.9 16.7 48.9 15.35 L50.6 14.15 51.3 13.5 51.55 13.2 52.3 12.45 52.55 12.15 52.7 12.0 53.2 11.25 Q54.85 8.95 54.85 7.35" fill="#aaaaaa" fill-rule="evenodd" stroke="none"/>
      <path d="M41.2 18.45 L42.05 18.8 42.3 18.85 43.1 18.9 44.95 18.65 46.0 18.3 49.05 16.65 50.6 15.55 52.75 13.7 52.75 13.65 52.95 13.4 53.6 12.8 53.95 12.35 54.8 11.2 56.55 8.1 Q57.0 6.85 56.9 5.8 L56.9 5.6 56.8 5.25 56.5 4.5 57.7 5.65 57.75 5.75 58.05 6.05 Q58.5 6.6 58.6 7.5 58.7 8.75 58.0 10.35 L56.45 12.85 55.9 13.65 55.7 13.95 55.55 14.1 55.25 14.45 Q53.3 16.65 50.8 18.35 L49.55 19.05 48.15 19.75 47.25 20.1 45.25 20.55 44.75 20.55 Q43.55 20.55 42.8 20.05 L42.55 19.75 42.35 19.5 41.2 18.45" fill="url(#gradient9)" fill-rule="evenodd" stroke="none"/>
      <path d="M44.25 17.05 L43.6 17.0 Q42.4 16.7 42.25 15.35 42.2 14.3 42.85 13.0 L42.95 12.85 43.85 11.25 44.95 9.9 Q46.35 8.4 48.2 7.2 L50.15 6.1 Q51.3 5.6 52.25 5.45 L52.75 5.45 Q54.45 5.45 54.75 6.8 L54.85 7.2 54.85 7.35 54.75 7.35 54.55 7.35 Q53.55 7.45 52.4 7.9 51.4 8.35 50.3 9.05 L50.2 9.15 Q48.4 10.3 47.0 11.85 L46.15 12.85 46.0 13.05 45.9 13.2 44.85 14.95 44.45 15.9 44.25 17.05" fill="url(#gradient10)" fill-rule="evenodd" stroke="none"/>
      <path d="M31.95 32.4 Q35.2 29.95 38.9 29.25 L41.7 28.95 42.5 28.95 Q45.05 29.0 47.4 29.85 50.2 30.8 52.7 32.9 L54.55 34.65 56.35 36.75 Q61.95 44.1 62.3 54.45 L62.3 55.5 Q62.3 59.6 61.4 63.3 L60.9 65.3 Q59.55 69.7 57.0 73.3 L56.35 74.2 55.5 75.25 54.1 76.75 52.95 77.85 52.9 77.9 51.65 78.85 50.75 79.5 Q49.1 80.5 47.4 81.1 L44.2 81.85 44.0 81.9 42.5 82.0 41.5 82.0 Q38.75 81.9 36.3 81.0 32.0 79.4 28.55 75.25 L27.7 74.2 Q24.65 70.3 23.2 65.5 L23.15 65.25 22.6 63.3 Q21.7 59.6 21.7 55.5 L21.75 54.45 21.95 51.45 22.2 49.65 22.8 46.7 Q23.35 44.7 24.15 42.85 L24.35 42.4 24.55 41.95 24.55 41.9 24.6 41.85 Q25.75 39.35 27.4 37.15 L27.7 36.75 28.25 36.05 30.15 33.95 31.35 32.9 31.95 32.4 M42.65 76.25 L43.35 76.0 44.2 75.7 45.1 75.25 45.65 74.95 Q48.1 73.5 50.2 70.95 L50.55 70.45 51.65 68.9 53.15 66.15 54.2 63.3 54.25 63.15 54.7 61.4 Q55.2 59.1 55.3 56.6 L55.3 55.45 55.3 54.45 55.1 51.85 Q54.8 49.3 54.05 47.05 53.2 44.55 51.85 42.3 L50.55 40.35 49.65 39.3 47.8 37.5 47.6 37.3 Q45.65 35.7 43.4 34.9 L42.65 34.65 41.9 34.5 40.3 34.3 39.85 34.25 39.3 34.2 38.75 34.2 Q34.85 34.3 31.55 36.6 L30.55 37.3 27.55 40.35 26.5 41.95 26.2 42.4 Q23.05 47.6 22.85 54.45 L22.8 55.45 Q22.8 59.65 23.9 63.3 L24.6 65.25 Q25.75 68.05 27.55 70.45 30.05 73.7 33.05 75.25 35.65 76.65 38.65 76.7 L39.3 76.7 39.85 76.7 40.2 76.65 41.9 76.45 42.65 76.25" fill="url(#gradient11)" fill-rule="evenodd" stroke="none"/>
      <path d="M42.65 76.25 L41.9 76.45 40.2 76.65 39.85 76.7 39.3 76.7 38.65 76.7 Q35.65 76.65 33.05 75.25 30.05 73.7 27.55 70.45 25.75 68.05 24.6 65.25 L23.9 63.3 Q22.8 59.65 22.8 55.45 L22.85 54.45 Q23.05 47.6 26.2 42.4 L26.5 41.95 27.55 40.35 30.55 37.3 31.55 36.6 Q34.85 34.3 38.75 34.2 L39.3 34.2 39.85 34.25 40.3 34.3 41.9 34.5 42.65 34.65 Q40.55 35.3 38.65 36.6 L37.65 37.4 37.5 37.5 Q36.25 38.55 35.1 39.95 34.15 40.3 33.4 40.85 L32.3 41.95 32.25 42.0 Q30.95 43.5 30.5 45.45 L30.2 47.4 30.2 47.65 30.35 47.9 30.35 48.0 30.25 48.3 30.2 48.65 30.2 62.5 30.2 62.65 30.2 63.55 30.2 64.45 30.3 65.25 Q30.55 67.95 32.25 69.9 33.75 71.65 35.75 72.1 L36.15 72.2 38.0 73.85 39.7 74.95 40.25 75.25 42.65 76.25" fill="url(#gradient12)" fill-rule="evenodd" stroke="none"/>
      <path d="M37.9 39.6 L42.45 39.6 Q44.05 39.6 45.45 40.5 L45.75 40.7 47.15 42.0 47.4 42.3 Q48.5 43.65 48.9 45.25 L49.0 45.45 49.2 47.05 49.2 47.45 49.2 50.1 44.05 50.1 44.05 47.45 43.8 45.45 Q43.35 43.5 42.0 42.0 L41.95 41.95 41.25 41.2 39.7 40.2 38.45 39.8 37.9 39.6" fill="url(#gradient13)" fill-rule="evenodd" stroke="none"/>
      <path d="M37.9 39.6 L38.45 39.8 39.7 40.2 41.25 41.2 41.95 41.95 42.0 42.0 Q43.35 43.5 43.8 45.45 L44.05 47.45 44.05 50.1 41.05 50.1 41.05 49.05 Q41.05 47.85 40.7 46.8 40.3 45.5 39.55 44.45 L39.5 44.4 Q38.25 42.85 36.7 42.5 L35.65 42.4 35.55 42.4 Q34.45 42.4 33.45 42.95 32.55 43.45 31.8 44.4 L31.1 45.45 Q30.6 46.4 30.4 47.5 L30.35 47.9 30.2 47.65 30.2 47.4 30.5 45.45 Q30.95 43.5 32.25 42.0 L32.3 41.95 33.4 40.85 Q34.15 40.3 35.1 39.95 L37.0 39.6 37.15 39.6 37.3 39.6 37.9 39.6" fill="url(#gradient14)" fill-rule="evenodd" stroke="none"/>
      <path d="M36.7 42.5 Q38.25 42.85 39.5 44.4 L39.55 44.45 Q40.3 45.5 40.7 46.8 41.05 47.85 41.05 49.05 L41.05 50.1 41.05 51.35 32.3 51.35 32.3 49.15 32.3 49.05 32.3 48.95 Q32.35 47.8 32.65 46.8 L32.7 46.6 Q33.1 45.45 33.85 44.45 L33.9 44.4 34.5 43.7 Q35.5 42.75 36.7 42.5 M39.55 44.45 L33.85 44.45 39.55 44.45 M41.05 49.05 L32.3 49.05 41.05 49.05 M40.7 46.8 L32.65 46.8 40.7 46.8" fill="url(#gradient15)" fill-rule="evenodd" stroke="none"/>
      <path d="M30.2 63.55 L30.2 62.65 30.2 62.5 30.2 48.65 30.25 48.3 30.35 48.0 30.35 47.9 30.4 47.5 Q30.6 46.4 31.1 45.45 L31.8 44.4 Q32.55 43.45 33.45 42.95 34.45 42.4 35.55 42.4 L35.65 42.4 36.7 42.5 Q35.5 42.75 34.5 43.7 L33.9 44.4 33.85 44.45 Q33.1 45.45 32.7 46.6 L32.65 46.8 Q32.35 47.8 32.3 48.95 L32.3 49.05 32.3 49.15 32.3 51.35 32.3 53.7 32.3 56.05 32.3 58.3 32.3 60.6 32.3 62.9 32.35 63.3 Q32.35 64.25 32.7 65.2 L32.7 65.25 Q33.1 66.55 33.9 67.5 35.1 69.05 36.7 69.4 L35.65 69.5 35.3 69.5 Q34.0 69.4 32.95 68.65 L31.8 67.5 Q31.0 66.55 30.6 65.25 L30.35 64.1 30.2 63.55" fill="url(#gradient16)" fill-rule="evenodd" stroke="none"/>
      <path d="M36.7 69.4 Q35.1 69.05 33.9 67.5 33.1 66.55 32.7 65.25 L32.7 65.2 Q32.35 64.25 32.35 63.3 L32.3 62.9 32.3 60.6 32.3 58.3 32.3 56.05 32.3 53.7 32.3 51.35 41.05 51.35 41.05 53.7 41.05 56.05 41.05 58.3 41.05 60.6 41.05 62.9 41.05 63.3 40.7 65.2 40.7 65.25 40.2 66.45 39.5 67.5 Q38.25 69.05 36.7 69.4 M33.9 67.5 L39.5 67.5 33.9 67.5 M32.7 65.2 L40.7 65.2 32.7 65.2 M32.3 62.9 L41.05 62.9 32.3 62.9 M41.05 60.6 L32.3 60.6 41.05 60.6 M32.3 58.3 L41.05 58.3 32.3 58.3 M32.3 56.05 L41.05 56.05 32.3 56.05 M41.05 53.7 L32.3 53.7 41.05 53.7" fill="url(#gradient17)" fill-rule="evenodd" stroke="none"/>
      <path d="M36.15 72.2 L35.75 72.1 Q33.75 71.65 32.25 69.9 30.55 67.95 30.3 65.25 L30.2 64.45 30.2 63.55 30.35 64.1 30.6 65.25 Q31.0 66.55 31.8 67.5 L32.95 68.65 Q34.0 69.4 35.3 69.5 L35.65 69.5 36.7 69.4 Q38.25 69.05 39.5 67.5 L40.2 66.45 Q41.2 67.7 43.15 68.2 L42.0 69.9 Q41.0 71.1 39.7 71.7 L38.0 72.2 37.65 72.25 36.95 72.25 36.35 72.2 36.15 72.2" fill="url(#gradient18)" fill-rule="evenodd" stroke="none"/>
      <path d="M44.05 50.1 L49.2 50.1 49.2 51.85 49.2 56.6 49.2 61.4 49.2 64.55 49.2 65.25 49.05 66.1 48.3 68.2 43.15 68.2 48.3 68.2 47.6 69.35 47.15 69.9 46.05 70.95 Q45.2 71.65 44.2 71.95 L42.5 72.25 38.0 72.25 38.0 72.2 39.7 71.7 Q41.0 71.1 42.0 69.9 L43.15 68.2 44.0 65.25 44.05 64.5 44.05 50.1" fill="url(#gradient19)" fill-rule="evenodd" stroke="none"/>
      <path d="M12.05 56.6 L16.9 56.6 16.9 56.8 16.9 57.15 17.05 58.2 17.15 58.65 17.15 58.75 17.3 59.35 17.55 61.05 18.35 64.4 Q19.5 68.8 21.55 72.7 L22.55 74.55 23.2 75.6 25.3 78.6 26.0 79.5 Q30.0 84.4 34.65 86.95 L36.7 88.0 31.8 88.0 Q27.15 85.9 23.2 81.85 L22.55 81.15 21.2 79.5 20.45 78.6 Q18.3 75.8 16.65 72.75 L16.65 72.7 Q14.6 68.8 13.45 64.4 L13.0 62.6 12.65 61.05 12.65 61.0 12.05 56.6 M21.55 72.7 L16.65 72.7 21.55 72.7" fill="url(#gradient20)" fill-rule="evenodd" stroke="none"/>
      <path d="M31.8 88.0 L36.7 88.0 36.7 96.7 36.7 98.75 31.8 98.75 31.8 88.0 M51.1 103.05 L51.1 103.25 Q51.25 105.35 51.65 107.35 L52.35 109.9 52.75 111.2 52.9 111.6 52.9 113.35 44.0 113.35 44.0 103.05 51.1 103.05" fill="#999999" fill-rule="evenodd" stroke="none"/>
      <path d="M41.05 50.1 L44.05 50.1 44.05 64.5 44.0 65.25 43.15 68.2 Q41.2 67.7 40.2 66.45 L40.7 65.25 40.7 65.2 41.05 63.3 41.05 62.9 41.05 60.6 41.05 58.3 41.05 56.05 41.05 53.7 41.05 51.35 41.05 50.1" fill="url(#gradient21)" fill-rule="evenodd" stroke="none"/>
      <path d="M52.9 77.9 L52.9 90.4 Q51.75 93.35 51.3 96.7 L44.0 96.7 44.0 81.9 44.2 81.85 47.4 81.1 Q49.1 80.5 50.75 79.5 L51.65 78.85 52.9 77.9 M44.0 103.05 L44.0 96.7 51.3 96.7 51.0 100.25 51.0 101.0 51.1 103.05 44.0 103.05 M44.0 113.35 L52.9 113.35 52.9 122.9 52.9 126.75 44.0 126.75 44.0 113.35" fill="#888888" fill-rule="evenodd" stroke="none"/>
      <path d="M52.9 90.4 Q53.95 87.85 55.5 85.6 L55.7 85.35 Q58.4 81.55 61.8 80.0 L63.9 79.25 67.0 78.85 69.05 79.05 Q74.35 79.95 78.25 85.35 82.95 91.9 82.95 101.0 L82.9 103.0 Q82.65 106.8 81.6 110.2 L81.45 110.6 80.85 112.15 80.75 112.5 Q79.7 114.65 78.25 116.6 76.5 119.05 74.55 120.55 72.0 122.4 69.05 122.95 L68.15 123.0 67.0 123.05 Q62.95 123.05 59.65 120.65 58.2 119.6 56.95 118.15 L56.4 117.55 55.7 116.6 54.5 114.85 52.9 111.6 52.75 111.2 52.35 109.9 51.65 107.35 Q51.25 105.35 51.1 103.25 L51.1 103.05 51.0 101.0 51.0 100.25 51.3 96.7 Q51.75 93.35 52.9 90.4 M66.55 85.95 L64.6 85.7 Q60.7 85.7 57.75 89.05 L56.8 90.25 Q53.55 94.75 53.55 101.1 53.55 107.4 56.8 111.9 L57.9 113.25 Q60.8 116.4 64.6 116.4 L65.85 116.4 66.65 116.2 Q68.75 115.65 70.6 114.05 L71.7 112.9 72.45 111.9 73.0 111.1 Q73.95 109.65 74.55 108.0 L74.65 107.7 74.7 107.55 75.3 105.15 75.65 101.85 75.65 101.1 75.55 98.75 75.0 95.65 73.85 92.6 72.45 90.25 71.75 89.35 Q69.4 86.6 66.55 85.95" fill="url(#gradient22)" fill-rule="evenodd" stroke="none"/>
      <path d="M61.4 89.35 L60.7 90.25 Q59.85 91.4 59.3 92.6 58.55 94.05 58.15 95.65 57.7 97.15 57.55 98.75 L57.45 101.1 57.5 101.85 Q57.5 103.55 57.85 105.15 58.1 106.65 58.6 108.05 59.25 109.65 60.2 111.1 L60.7 111.9 61.8 113.25 62.6 114.05 65.3 115.8 66.65 116.2 65.85 116.4 64.6 116.4 Q60.8 116.4 57.9 113.25 L56.8 111.9 Q53.55 107.4 53.55 101.1 53.55 94.75 56.8 90.25 L57.75 89.05 Q60.7 85.7 64.6 85.7 L66.55 85.95 Q63.85 86.6 61.65 89.05 L61.4 89.35" fill="url(#gradient23)" fill-rule="evenodd" stroke="none"/>
      <path d="M75.0 95.65 L60.65 95.65 58.15 95.65 61.2 92.6 73.85 92.6 75.0 95.65" fill="url(#gradient24)" fill-rule="evenodd" stroke="none"/>
      <path d="M60.55 98.75 L57.55 98.75 60.65 95.65 75.0 95.65 75.55 98.75 60.55 98.75" fill="url(#gradient25)" fill-rule="evenodd" stroke="none"/>
      <path d="M72.7 78.95 Q78.25 79.65 82.45 85.35 86.75 91.35 87.15 99.65 L87.15 101.0 87.1 103.0 Q86.85 106.8 85.8 110.2 L85.7 110.6 85.05 112.15 83.9 114.5 83.3 115.45 82.45 116.6 Q81.0 118.65 79.4 120.05 L78.8 120.55 Q77.05 121.8 75.25 122.4 L72.4 123.0 71.2 123.05 69.05 122.95 Q72.0 122.4 74.55 120.55 76.5 119.05 78.25 116.6 79.7 114.65 80.75 112.5 L80.85 112.15 81.45 110.6 81.6 110.2 Q82.65 106.8 82.9 103.0 L82.95 101.0 Q82.95 91.9 78.25 85.35 74.35 79.95 69.05 79.05 L71.15 78.85 71.2 78.85 72.7 78.95" fill="url(#gradient26)" fill-rule="evenodd" stroke="none"/>
      <path d="M61.4 89.35 L61.65 89.05 Q63.85 86.6 66.55 85.95 69.4 86.6 71.75 89.35 L62.6 89.35 61.4 89.35" fill="url(#gradient27)" fill-rule="evenodd" stroke="none"/>
      <path d="M61.2 92.6 L59.3 92.6 62.6 89.35 71.75 89.35 72.45 90.25 73.85 92.6 61.2 92.6" fill="url(#gradient28)" fill-rule="evenodd" stroke="none"/>
      <path d="M60.55 98.75 L75.55 98.75 75.65 101.1 75.65 101.85 61.15 101.85 57.5 101.85 60.55 98.75" fill="url(#gradient29)" fill-rule="evenodd" stroke="none"/>
      <path d="M63.25 108.05 L58.65 108.05 61.5 105.15 75.3 105.15 74.7 107.55 74.65 107.7 74.55 108.0 63.25 108.05" fill="url(#gradient30)" fill-rule="evenodd" stroke="none"/>
      <path d="M65.5 111.1 L60.2 111.1 63.25 108.05 74.55 108.0 Q73.95 109.65 73.0 111.1 L65.5 111.1" fill="url(#gradient31)" fill-rule="evenodd" stroke="none"/>
      <path d="M75.65 101.85 L75.3 105.15 61.5 105.15 57.85 105.15 61.15 101.85 75.65 101.85" fill="url(#gradient32)" fill-rule="evenodd" stroke="none"/>
      <path d="M66.65 116.2 L65.3 115.8 67.05 114.05 70.6 114.05 Q68.75 115.65 66.65 116.2" fill="url(#gradient33)" fill-rule="evenodd" stroke="none"/>
      <path d="M67.05 114.05 L62.6 114.05 65.5 111.1 73.0 111.1 72.45 111.9 71.7 112.9 70.6 114.05 67.05 114.05" fill="url(#gradient34)" fill-rule="evenodd" stroke="none"/>
      <path d="M71.6 173.1 L68.55 173.1 67.1 168.25 65.4 162.65 59.5 142.9 57.1 134.9 56.4 132.55 56.4 122.9 56.4 117.55 56.95 118.15 Q58.2 119.6 59.65 120.65 62.95 123.05 67.0 123.05 L68.15 123.0 71.3 132.0 72.4 135.25 74.85 142.3 69.4 144.9 69.4 156.1 71.7 156.1 83.4 156.1 Q90.9 155.75 97.6 153.75 L101.75 152.2 106.8 149.9 109.55 148.35 103.55 160.4 83.2 173.1 71.6 173.1 M83.3 115.45 Q86.95 121.2 89.25 131.1 L89.05 131.35 84.75 135.5 82.75 129.7 81.65 126.5 79.4 120.05 Q81.0 118.65 82.45 116.6 L83.3 115.45" fill="url(#gradient35)" fill-rule="evenodd" stroke="none"/>
      <path d="M131.1 156.1 L126.95 164.15 120.15 164.15 114.0 164.15 118.0 156.1 131.1 156.1 M67.1 168.25 L43.2 168.25 44.9 159.8 47.75 145.05 57.05 145.05 47.75 145.05 49.75 134.9 57.1 134.9 59.5 142.9 Q58.6 143.5 57.7 144.4 L57.05 145.05 Q54.35 147.95 53.5 152.0 52.45 156.4 54.25 159.55 L54.4 159.8 44.9 159.8 54.4 159.8 Q55.95 162.45 59.0 162.65 L59.25 162.65 65.4 162.65 67.1 168.25 M84.75 135.5 L81.1 138.4 77.9 129.7 76.75 126.5 75.25 122.4 Q77.05 121.8 78.8 120.55 L79.4 120.05 81.65 126.5 82.75 129.7 77.9 129.7 82.75 129.7 84.75 135.5 M76.75 126.5 L81.65 126.5 76.75 126.5" fill="#505050" fill-rule="evenodd" stroke="none"/>
      <path d="M23.2 103.05 L44.0 103.05 44.0 113.35 36.3 113.35 27.55 122.2 23.2 117.85 23.2 103.05" fill="#606060" fill-rule="evenodd" stroke="none"/>
      <path d="M59.5 142.9 L65.4 162.65 59.25 162.65 59.0 162.65 Q55.95 162.45 54.4 159.8 L54.25 159.55 Q52.45 156.4 53.5 152.0 54.35 147.95 57.05 145.05 L57.7 144.4 Q58.6 143.5 59.5 142.9" fill="url(#gradient36)" fill-rule="evenodd" stroke="none"/>
      <path d="M20.45 135.95 Q20.45 134.55 21.1 133.5 L21.5 132.85 21.55 132.8 Q22.55 131.6 23.9 131.6 25.3 131.6 26.3 132.85 26.9 133.6 27.15 134.45 L27.35 135.95 Q27.35 137.75 26.3 139.05 25.3 140.3 23.9 140.3 22.55 140.3 21.55 139.15 L21.5 139.05 21.1 138.45 Q20.45 137.35 20.45 135.95" fill="url(#gradient37)" fill-rule="evenodd" stroke="none"/>
      <path d="M126.95 164.15 L103.55 178.65 90.7 178.65 114.0 164.15 120.15 164.15 126.95 164.15 M34.45 162.45 L26.9 162.45 24.7 157.35 23.35 154.15 21.85 150.6 20.3 147.05 31.85 147.05 32.45 150.6 33.05 154.15 33.6 157.35 33.95 159.8 34.45 162.45 M33.05 154.15 L23.35 154.15 33.05 154.15 M32.45 150.6 L21.85 150.6 32.45 150.6 M33.6 157.35 L24.7 157.35 33.6 157.35 M103.55 160.4 L109.65 160.4 89.4 173.1 83.2 173.1 103.55 160.4" fill="#222222" fill-rule="evenodd" stroke="none"/>
      <path d="M145.5 128.75 L143.95 130.95 139.05 136.75 136.4 133.9 138.7 130.95 140.3 128.75 142.45 125.4 146.0 118.4 147.05 115.75 Q148.95 110.55 149.9 104.95 L155.55 102.15 Q154.65 109.25 152.25 115.75 L151.2 118.4 Q148.9 123.8 145.5 128.75 L142.45 125.4 145.5 128.75" fill="url(#gradient38)" fill-rule="evenodd" stroke="none"/>
      <path d="M132.45 128.75 L130.9 130.95 Q128.65 133.95 126.0 136.75 L123.35 133.9 125.65 130.95 127.25 128.75 129.35 125.4 Q131.45 121.95 132.95 118.4 L133.95 115.75 Q135.7 111.05 136.65 106.1 L142.4 103.3 Q141.4 109.75 139.2 115.75 L138.15 118.4 Q135.85 123.8 132.45 128.75 L129.35 125.4 132.45 128.75" fill="url(#gradient39)" fill-rule="evenodd" stroke="none"/>
      <path d="M152.1 136.75 L146.85 136.75 149.45 133.9 152.1 136.75 M139.05 136.75 L133.85 136.75 136.4 133.9 139.05 136.75 M126.0 136.75 L120.8 136.75 123.35 133.9 126.0 136.75" fill="#7d9faa" fill-rule="evenodd" stroke="none"/>
      <path d="M130.8 155.2 L130.65 155.6 127.2 151.5 114.1 151.5 109.65 160.4 103.55 160.4 109.55 148.35 112.45 146.45 113.0 146.05 135.5 146.05 133.5 150.05 130.8 155.2" fill="url(#gradient40)" fill-rule="evenodd" stroke="none"/>
      <path d="M163.7 73.3 L166.2 73.5 165.5 71.1 Q163.55 65.9 160.35 60.75 L159.05 60.2 158.9 60.2 153.35 58.95 152.85 58.9 154.1 66.1 Q147.7 65.0 138.75 65.7 L143.65 89.45 145.2 89.4 151.55 89.35 151.65 89.35 154.9 89.3 158.5 89.35 164.45 89.75 169.7 90.55 169.2 86.6 169.2 86.25 168.9 84.1 168.65 82.75 168.3 81.05 167.25 80.75 166.05 80.45 165.7 80.4 161.95 79.8 160.05 72.95 163.7 73.3 166.05 80.45 M169.7 90.55 L173.45 91.4 Q176.1 92.05 178.5 92.95 L178.55 96.5 178.5 97.95 178.4 100.25 178.4 100.4 178.15 103.05 177.85 105.4 177.85 105.45 Q176.1 117.25 170.15 127.2 L169.15 128.75 167.75 130.75 164.0 135.5 162.85 136.75 161.1 138.6 Q153.95 146.0 145.6 150.25 143.0 151.6 140.35 152.6 135.75 154.3 130.8 155.2 L130.65 155.6 131.1 156.1 126.95 164.15 103.55 178.65 90.7 178.65 73.85 178.65 71.6 173.1 68.55 173.1 67.1 168.25 43.2 168.25 35.35 168.25 34.45 162.45 26.9 162.45 24.7 157.35 23.35 154.15 21.85 150.6 20.3 147.05 18.9 147.05 16.35 135.95 16.35 122.9 12.65 122.9 12.65 98.75 8.05 98.75 6.05 91.95 0.0 71.65 1.5 67.9 M3.45 62.85 L5.95 56.6 10.8 56.6 10.8 51.45 7.2 51.45 11.95 46.7 9.15 46.7 13.9 41.9 11.1 41.9 15.85 37.15 13.05 37.15 17.8 32.4 24.9 32.4 30.05 22.6 M33.0 22.25 L27.25 22.6 Q25.0 23.1 23.05 24.0 L27.65 15.5 32.2 6.95 35.0 5.45 38.05 3.9 Q43.15 1.55 48.85 0.7 L49.65 0.45 49.75 0.45 52.0 0.2 52.5 0.25 52.6 0.25 56.8 0.05 57.25 0.05 59.3 0.05 112.65 0.0 114.5 0.1 115.5 0.1 119.3 0.45 125.05 1.45 126.7 1.85 Q130.8 3.0 134.75 4.8 L138.2 6.5 138.65 6.8 138.75 6.8 146.15 16.6 153.25 26.15 154.15 29.25 156.05 37.35 156.8 41.7 152.75 42.4 152.8 42.45 153.4 45.55 153.65 46.55 154.15 49.3 154.5 51.3 158.7 51.3 158.85 54.3 158.9 55.4 159.05 60.0 159.05 60.2 M126.55 100.25 Q139.6 97.4 150.55 96.9 L155.35 96.8 158.85 96.85 164.65 97.2 173.45 98.75 Q176.0 99.35 178.4 100.25 M163.0 104.95 L163.4 102.0 168.6 102.15 Q167.65 109.25 165.3 115.75 L164.25 118.4 Q161.95 123.8 158.55 128.75 L169.15 128.75 M168.6 102.15 L163.0 104.95 Q161.95 110.55 160.05 115.75 L159.0 118.4 Q157.5 121.95 155.45 125.4 L158.55 128.75 156.95 130.95 152.1 136.75 146.85 136.75 149.45 133.9 151.75 130.95 153.3 128.75 145.5 128.75 143.95 130.95 139.05 136.75 133.85 136.75 136.4 133.9 138.7 130.95 140.3 128.75 132.45 128.75 130.9 130.95 Q128.65 133.95 126.0 136.75 L120.8 136.75 123.35 133.9 125.65 130.95 127.25 128.75 117.55 128.75 116.2 130.75 111.6 136.6 109.65 138.6 Q106.25 142.25 102.45 145.2 L101.3 146.05 100.75 146.45 Q95.65 149.95 90.0 152.2 L85.85 153.75 Q79.15 155.75 71.7 156.1 L83.4 156.1 Q90.9 155.75 97.6 153.75 L101.75 152.2 106.8 149.9 109.55 148.35 112.45 146.45 113.0 146.05 135.5 146.05 139.95 146.05 139.45 146.45 Q136.55 148.5 133.5 150.05 L130.8 155.2 M122.0 8.4 L130.1 8.4 138.85 13.25 139.75 16.6 146.15 16.6 M126.5 16.15 L130.55 18.35 131.8 22.9 133.75 24.6 130.75 13.25 122.0 8.4 124.25 12.4 125.75 13.25 126.5 16.15 127.1 18.35 130.55 18.35 M128.35 22.9 L127.1 18.35 M131.8 22.9 L128.35 22.9 128.75 24.6 120.65 24.6 118.7 22.9 115.25 22.9 115.65 24.6 107.5 24.6 101.65 16.5 91.65 16.5 99.25 26.15 153.25 26.15 M130.75 13.25 L138.85 13.25 M139.75 16.6 L141.9 24.6 133.75 24.6 M104.5 13.25 L107.5 24.6 M114.0 18.35 L113.4 16.15 112.65 13.25 104.5 13.25 95.8 8.4 101.65 16.5 M117.45 18.35 L114.0 18.35 115.25 22.9 M117.6 13.25 L120.65 24.6 M113.4 16.15 L117.45 18.35 118.7 22.9 M112.65 13.25 L111.15 12.4 103.9 8.4 95.8 8.4 M108.9 8.4 L117.6 13.25 125.75 13.25 M111.15 12.4 L108.9 8.4 117.0 8.4 124.25 12.4 M91.65 16.5 L84.0 6.8 70.6 17.3 56.5 28.25 59.8 35.15 91.65 16.5 M84.0 6.8 L83.4 6.5 80.0 4.8 Q76.05 3.0 71.95 1.85 L70.3 1.45 64.55 0.45 62.3 0.25 60.75 0.1 59.75 0.1 59.3 0.05 M99.25 26.15 L99.9 29.25 102.05 41.7 156.8 41.7 M81.8 47.6 L81.2 47.75 79.5 48.25 82.9 55.05 86.75 54.35 83.65 48.25 79.5 48.25 M81.8 47.6 L102.05 41.7 M99.4 49.3 L99.15 47.35 98.75 45.55 88.85 48.6 89.7 51.3 99.4 49.3 154.15 49.3 M98.4 44.0 L98.75 45.55 153.4 45.55 M83.65 48.25 L98.4 44.0 103.6 42.45 152.8 42.45 M104.65 62.55 L104.75 62.5 104.85 62.5 108.6 61.45 Q112.75 60.35 116.8 59.6 L118.7 59.25 119.65 59.1 120.3 58.95 129.3 57.95 143.45 57.75 149.6 58.4 151.8 58.7 152.85 58.9 M103.95 51.3 L104.1 54.3 104.15 55.4 104.65 62.55 Q96.6 65.0 87.2 70.1 82.0 72.9 76.5 76.5 L72.7 78.95 Q78.25 79.65 82.45 85.35 86.75 91.35 87.15 99.65 90.3 96.55 92.65 92.95 L119.1 92.95 122.2 92.25 Q132.25 90.25 141.0 89.6 L143.65 89.45 M99.85 52.05 L103.9 51.3 103.95 51.3 154.5 51.3 M97.0 80.55 L96.95 80.55 Q99.0 79.55 101.0 78.7 106.1 76.5 110.7 75.1 112.7 74.5 114.65 74.05 L115.5 74.0 117.8 73.85 119.55 73.85 119.55 74.1 120.85 80.75 Q113.15 80.25 103.45 83.25 L99.15 84.65 97.0 80.55 102.0 80.55 106.1 78.7 Q111.15 76.5 115.75 75.1 L119.55 74.1 M87.2 70.1 L82.95 61.6 67.1 68.0 69.05 79.05 71.15 78.85 71.2 78.85 72.7 78.95 M86.75 54.35 L99.85 52.05 99.7 51.3 99.4 49.3 M102.0 80.55 L103.45 83.25 M119.65 59.1 L124.8 67.5 138.75 65.7 M126.6 92.95 L126.65 93.8 126.65 96.5 126.55 100.05 126.55 100.25 126.55 100.4 Q126.05 108.4 123.75 115.55 L122.85 118.25 Q120.75 123.7 117.55 128.75 L107.35 122.2 102.4 126.65 83.9 114.5 83.3 115.45 Q86.95 121.2 89.25 131.1 L89.05 131.35 84.75 135.5 81.1 138.4 80.05 139.1 74.85 142.3 69.4 144.9 69.4 156.1 71.7 156.1 M151.55 89.35 L150.0 89.45 Q138.75 89.95 126.6 92.95 L119.1 92.95 M138.65 6.8 L84.0 6.8 M55.55 14.1 L63.05 15.5 70.6 17.3 M56.5 4.5 L56.8 5.25 56.9 5.6 56.9 5.8 Q57.0 6.85 56.55 8.1 L54.8 11.2 53.95 12.35 53.6 12.8 52.95 13.4 52.75 13.65 52.75 13.7 50.6 15.55 49.05 16.65 46.0 18.3 44.95 18.65 43.1 18.9 42.3 18.85 42.05 18.8 41.2 18.45 42.35 19.5 42.55 19.75 42.8 20.05 Q43.55 20.55 44.75 20.55 L45.25 20.55 47.25 20.1 48.15 19.75 49.55 19.05 50.8 18.35 Q53.3 16.65 55.25 14.45 L55.55 14.1 55.7 13.95 55.9 13.65 56.45 12.85 58.0 10.35 Q58.7 8.75 58.6 7.5 58.5 6.6 58.05 6.05 L57.75 5.75 57.7 5.65 56.5 4.5 Q56.3 4.15 55.95 4.0 L55.8 3.85 54.15 3.5 52.2 3.8 51.7 4.0 Q50.95 4.2 50.1 4.7 49.15 5.1 48.1 5.8 45.7 7.35 43.85 9.45 L42.45 11.2 41.4 12.85 41.3 13.05 Q40.75 14.0 40.5 14.8 L40.3 16.15 40.3 16.65 Q40.35 17.4 40.65 17.85 L40.7 18.0 41.2 18.45 M54.85 7.35 L54.85 7.2 54.75 6.8 Q54.45 5.45 52.75 5.45 L52.25 5.45 Q51.3 5.6 50.15 6.1 L48.2 7.2 Q46.35 8.4 44.95 9.9 L43.85 11.25 42.95 12.85 42.85 13.0 Q42.2 14.3 42.25 15.35 42.4 16.7 43.6 17.0 L44.25 17.05 44.45 15.9 44.85 14.95 45.9 13.2 46.0 13.05 46.15 12.85 47.0 11.85 Q48.4 10.3 50.2 9.15 L50.3 9.05 Q51.4 8.35 52.4 7.9 53.55 7.45 54.55 7.35 L54.75 7.35 54.85 7.35 Q54.85 8.95 53.2 11.25 L52.7 12.0 52.55 12.15 52.3 12.45 51.55 13.2 51.3 13.5 50.6 14.15 48.9 15.35 Q46.9 16.7 45.2 17.0 L44.35 17.05 44.25 17.05 M56.5 28.25 L53.15 26.6 52.95 26.5 51.4 25.95 Q47.7 24.6 42.55 23.5 37.85 22.5 33.05 22.25 L33.0 22.25 M31.95 32.4 Q35.2 29.95 38.9 29.25 L41.7 28.95 42.5 28.95 Q45.05 29.0 47.4 29.85 50.2 30.8 52.7 32.9 L54.55 34.65 56.35 36.75 Q61.95 44.1 62.3 54.45 L62.3 55.5 Q62.3 59.6 61.4 63.3 L60.9 65.3 Q59.55 69.7 57.0 73.3 L56.35 74.2 55.5 75.25 54.1 76.75 52.95 77.85 52.9 77.9 52.9 90.4 Q53.95 87.85 55.5 85.6 L55.7 85.35 Q58.4 81.55 61.8 80.0 L63.9 79.25 67.0 78.85 69.05 79.05 Q74.35 79.95 78.25 85.35 82.95 91.9 82.95 101.0 L82.9 103.0 Q82.65 106.8 81.6 110.2 L81.45 110.6 80.85 112.15 80.75 112.5 Q79.7 114.65 78.25 116.6 76.5 119.05 74.55 120.55 72.0 122.4 69.05 122.95 L71.2 123.05 72.4 123.0 75.25 122.4 Q77.05 121.8 78.8 120.55 L79.4 120.05 Q81.0 118.65 82.45 116.6 L83.3 115.45 M42.65 34.65 L43.4 34.9 Q45.65 35.7 47.6 37.3 L47.8 37.5 49.65 39.3 50.55 40.35 51.85 42.3 Q53.2 44.55 54.05 47.05 54.8 49.3 55.1 51.85 L55.3 54.45 55.3 55.45 55.3 56.6 Q55.2 59.1 54.7 61.4 L54.25 63.15 54.2 63.3 53.15 66.15 51.65 68.9 50.55 70.45 50.2 70.95 Q48.1 73.5 45.65 74.95 L45.1 75.25 44.2 75.7 43.35 76.0 42.65 76.25 41.9 76.45 40.2 76.65 39.85 76.7 39.3 76.7 38.65 76.7 Q35.65 76.65 33.05 75.25 30.05 73.7 27.55 70.45 25.75 68.05 24.6 65.25 L23.9 63.3 Q22.8 59.65 22.8 55.45 L22.85 54.45 Q23.05 47.6 26.2 42.4 L26.5 41.95 27.55 40.35 30.55 37.3 31.55 36.6 Q34.85 34.3 38.75 34.2 L39.3 34.2 39.85 34.25 40.3 34.3 41.9 34.5 42.65 34.65 Q40.55 35.3 38.65 36.6 L37.65 37.4 37.5 37.5 47.8 37.5 M49.2 50.1 L49.2 47.45 49.2 47.05 49.0 45.45 48.9 45.25 Q48.5 43.65 47.4 42.3 L47.15 42.0 45.75 40.7 45.45 40.5 Q44.05 39.6 42.45 39.6 L37.9 39.6 38.45 39.8 39.7 40.2 41.25 41.2 41.95 41.95 42.0 42.0 Q43.35 43.5 43.8 45.45 L44.05 47.45 44.05 50.1 49.2 50.1 49.2 51.85 55.1 51.85 M36.7 42.5 Q38.25 42.85 39.5 44.4 L39.55 44.45 Q40.3 45.5 40.7 46.8 41.05 47.85 41.05 49.05 L41.05 50.1 44.05 50.1 44.05 64.5 44.0 65.25 43.15 68.2 48.3 68.2 49.05 66.1 49.2 65.25 49.2 64.55 M49.2 61.4 L49.2 56.6 49.2 51.85 M49.2 47.05 L54.05 47.05 M47.4 42.3 L51.85 42.3 M63.15 42.1 L59.8 35.15 M27.65 15.5 L31.05 14.4 Q35.6 13.15 41.3 13.05 M27.4 37.15 L27.7 36.75 28.25 36.05 30.15 33.95 31.35 32.9 31.95 32.4 24.9 32.4 M22.8 46.7 Q23.35 44.7 24.15 42.85 L24.35 42.4 24.55 41.95 24.55 41.9 13.9 41.9 M24.55 41.9 L24.6 41.85 Q25.75 39.35 27.4 37.15 L15.85 37.15 M30.2 63.55 L30.2 62.65 30.2 62.5 30.2 48.65 30.25 48.3 30.35 48.0 30.35 47.9 30.2 47.65 30.2 47.4 30.5 45.45 Q30.95 43.5 32.25 42.0 L32.3 41.95 33.4 40.85 Q34.15 40.3 35.1 39.95 36.25 38.55 37.5 37.5 M35.1 39.95 L37.0 39.6 37.15 39.6 37.3 39.6 37.9 39.6 M30.35 47.9 L30.4 47.5 Q30.6 46.4 31.1 45.45 L31.8 44.4 Q32.55 43.45 33.45 42.95 34.45 42.4 35.55 42.4 L35.65 42.4 36.7 42.5 Q35.5 42.75 34.5 43.7 L33.9 44.4 33.85 44.45 39.55 44.45 M32.3 49.05 L32.3 48.95 Q32.35 47.8 32.65 46.8 L32.7 46.6 Q33.1 45.45 33.85 44.45 M32.3 49.05 L41.05 49.05 M11.95 46.7 L22.8 46.7 22.2 49.65 21.95 51.45 21.75 54.45 21.7 55.5 Q21.7 59.6 22.6 63.3 L23.15 65.25 23.2 65.5 Q24.65 70.3 27.7 74.2 L28.55 75.25 Q32.0 79.4 36.3 81.0 38.75 81.9 41.5 82.0 L42.5 82.0 44.0 81.9 44.2 81.85 47.4 81.1 Q49.1 80.5 50.75 79.5 L51.65 78.85 52.9 77.9 M36.7 69.4 Q35.1 69.05 33.9 67.5 33.1 66.55 32.7 65.25 L32.7 65.2 Q32.35 64.25 32.35 63.3 L32.3 62.9 32.3 60.6 32.3 58.3 32.3 56.05 32.3 53.7 32.3 51.35 32.3 49.15 M36.15 72.2 L35.75 72.1 Q33.75 71.65 32.25 69.9 30.55 67.95 30.3 65.25 L30.2 64.45 30.2 63.55 30.35 64.1 30.6 65.25 Q31.0 66.55 31.8 67.5 L32.95 68.65 Q34.0 69.4 35.3 69.5 L35.65 69.5 36.7 69.4 Q38.25 69.05 39.5 67.5 L33.9 67.5 M40.2 66.45 L39.5 67.5 M36.15 72.2 L36.35 72.2 36.95 72.25 37.65 72.25 38.0 72.2 39.7 71.7 Q41.0 71.1 42.0 69.9 L43.15 68.2 Q41.2 67.7 40.2 66.45 L40.7 65.25 40.7 65.2 32.7 65.2 M38.0 72.2 L38.0 72.25 42.5 72.25 44.2 71.95 Q45.2 71.65 46.05 70.95 L47.15 69.9 47.6 69.35 48.3 68.2 M42.65 76.25 L40.25 75.25 39.7 74.95 38.0 73.85 36.15 72.2 M10.8 56.6 L12.05 56.6 16.9 56.6 17.05 58.2 17.15 58.65 17.15 58.75 17.3 59.35 17.55 61.05 18.35 64.4 Q19.5 68.8 21.55 72.7 L22.55 74.55 23.2 75.6 23.2 65.5 M12.05 56.6 L12.65 61.0 12.65 61.05 13.0 62.6 13.45 64.4 Q14.6 68.8 16.65 72.7 L21.55 72.7 M16.9 56.8 L16.9 56.6 M16.65 72.7 L16.65 72.75 Q18.3 75.8 20.45 78.6 L21.2 79.5 22.55 81.15 23.2 81.85 Q27.15 85.9 31.8 88.0 L36.7 88.0 34.65 86.95 Q30.0 84.4 26.0 79.5 L25.3 78.6 23.2 75.6 M16.65 72.75 L8.6 80.15 12.1 91.95 6.05 91.95 M38.8 91.55 L38.75 91.55 M36.7 96.7 L36.7 98.75 31.8 98.75 23.2 98.75 23.2 103.05 44.0 103.05 44.0 96.7 36.7 96.7 36.7 88.0 M31.8 88.0 L31.8 98.75 M23.2 98.75 L12.65 98.75 M21.95 51.45 L10.8 51.45 M8.6 80.15 L3.45 62.85 M41.05 50.1 L41.05 51.35 41.05 53.7 41.05 56.05 41.05 58.3 41.05 60.6 41.05 62.9 41.05 63.3 40.7 65.2 M46.05 70.95 L50.2 70.95 M49.05 66.1 L53.15 66.15 M49.2 56.6 L55.3 56.6 M49.2 61.4 L54.7 61.4 M65.3 115.8 L62.6 114.05 61.8 113.25 60.7 111.9 60.2 111.1 Q59.25 109.65 58.6 108.05 58.1 106.65 57.85 105.15 57.5 103.55 57.5 101.85 L57.45 101.1 57.55 98.75 Q57.7 97.15 58.15 95.65 58.55 94.05 59.3 92.6 59.85 91.4 60.7 90.25 L61.4 89.35 61.65 89.05 Q63.85 86.6 66.55 85.95 L64.6 85.7 Q60.7 85.7 57.75 89.05 L56.8 90.25 Q53.55 94.75 53.55 101.1 53.55 107.4 56.8 111.9 L57.9 113.25 Q60.8 116.4 64.6 116.4 L65.85 116.4 66.65 116.2 65.3 115.8 67.05 114.05 62.6 114.05 65.5 111.1 60.2 111.1 63.25 108.05 58.65 108.05 58.6 108.05 M60.65 95.65 L57.55 98.75 60.55 98.75 75.55 98.75 75.0 95.65 60.65 95.65 58.15 95.65 61.2 92.6 59.3 92.6 62.6 89.35 61.4 89.35 M51.3 96.7 Q51.75 93.35 52.9 90.4 M51.3 96.7 L44.0 96.7 44.0 81.9 M71.75 89.35 L72.45 90.25 73.85 92.6 75.0 95.65 M62.6 89.35 L71.75 89.35 Q69.4 86.6 66.55 85.95 M61.2 92.6 L73.85 92.6 M39.7 74.95 L45.65 74.95 M32.3 60.6 L41.05 60.6 M41.05 62.9 L32.3 62.9 M41.05 51.35 L32.3 51.35 M32.3 53.7 L41.05 53.7 M41.05 56.05 L32.3 56.05 M41.05 58.3 L32.3 58.3 M32.65 46.8 L40.7 46.8 M67.1 68.0 L63.15 42.1 99.25 26.15 M75.65 101.85 L75.3 105.15 74.7 107.55 74.65 107.7 74.55 108.0 Q73.95 109.65 73.0 111.1 L72.45 111.9 71.7 112.9 70.6 114.05 Q68.75 115.65 66.65 116.2 M75.55 98.75 L75.65 101.1 75.65 101.85 61.15 101.85 57.85 105.15 61.5 105.15 75.3 105.15 M67.05 114.05 L70.6 114.05 M69.05 122.95 L68.15 123.0 71.3 132.0 76.75 126.5 75.25 122.4 M68.15 123.0 L67.0 123.05 Q62.95 123.05 59.65 120.65 58.2 119.6 56.95 118.15 L56.4 117.55 56.4 122.9 56.4 132.55 57.1 134.9 59.5 142.9 65.4 162.65 67.1 168.25 M65.5 111.1 L73.0 111.1 M63.25 108.05 L74.55 108.0 M51.1 103.05 L51.0 101.0 51.0 100.25 51.3 96.7 M52.9 111.6 L52.75 111.2 52.35 109.9 51.65 107.35 Q51.25 105.35 51.1 103.25 L51.1 103.05 44.0 103.05 44.0 113.35 52.9 113.35 52.9 111.6 54.5 114.85 55.7 116.6 56.4 117.55 M56.4 122.9 L52.9 122.9 52.9 126.75 44.0 126.75 32.1 126.75 28.25 122.9 27.15 122.9 27.15 126.0 31.4 130.25 36.05 134.9 38.75 134.9 49.75 134.9 57.1 134.9 M52.9 122.9 L52.9 113.35 M47.75 145.05 L43.55 145.05 38.75 140.25 38.75 134.9 M57.05 145.05 L57.7 144.4 Q58.6 143.5 59.5 142.9 M57.05 145.05 L47.75 145.05 44.9 159.8 54.4 159.8 54.25 159.55 Q52.45 156.4 53.5 152.0 54.35 147.95 57.05 145.05 M47.75 145.05 L49.75 134.9 M74.85 142.3 L72.4 135.25 71.3 132.0 M76.75 126.5 L77.9 129.7 82.75 129.7 81.65 126.5 76.75 126.5 M72.4 135.25 L77.9 129.7 81.1 138.4 M61.15 101.85 L57.5 101.85 60.55 98.75 M58.65 108.05 L61.5 105.15 M44.0 113.35 L44.0 126.75 M28.25 122.9 L27.55 122.2 23.2 117.85 23.2 103.05 M27.55 122.2 L36.3 113.35 44.0 113.35 M20.45 135.95 Q20.45 134.55 21.1 133.5 L21.5 132.85 21.55 132.8 Q22.55 131.6 23.9 131.6 25.3 131.6 26.3 132.85 26.9 133.6 27.15 134.45 L31.4 130.25 M27.15 134.45 L27.35 135.95 Q27.35 137.75 26.3 139.05 25.3 140.3 23.9 140.3 22.55 140.3 21.55 139.15 L21.5 139.05 21.1 138.45 Q20.45 137.35 20.45 135.95 L16.35 135.95 M20.3 147.05 L31.85 147.05 32.45 150.6 33.05 154.15 33.6 157.35 33.95 159.8 44.9 159.8 43.2 168.25 M16.35 122.9 L27.15 122.9 M33.95 159.8 L34.45 162.45 M24.7 157.35 L33.6 157.35 M21.85 150.6 L32.45 150.6 M23.35 154.15 L33.05 154.15 M65.4 162.65 L59.25 162.65 59.0 162.65 Q55.95 162.45 54.4 159.8 M149.9 104.95 L150.25 102.4 155.55 102.15 Q154.65 109.25 152.25 115.75 L151.2 118.4 Q148.9 123.8 145.5 128.75 L142.45 125.4 140.3 128.75 M136.65 106.1 L137.1 103.9 142.4 103.25 142.4 103.3 Q141.4 109.75 139.2 115.75 L138.15 118.4 Q135.85 123.8 132.45 128.75 L129.35 125.4 127.25 128.75 M149.9 104.95 Q148.95 110.55 147.05 115.75 L146.0 118.4 142.45 125.4 M155.55 102.15 L149.9 104.95 M129.35 125.4 Q131.45 121.95 132.95 118.4 L133.95 115.75 Q135.7 111.05 136.65 106.1 L142.4 103.3 M126.0 136.75 L123.35 133.9 M136.4 133.9 L139.05 136.75 M153.3 128.75 L155.45 125.4 M149.45 133.9 L152.1 136.75 M85.8 110.2 L91.65 110.2 Q95.85 105.8 99.35 100.4 L126.55 100.4 M83.9 114.5 L85.05 112.15 85.7 110.6 85.8 110.2 Q86.85 106.8 87.1 103.0 L87.15 101.0 87.15 99.65 M84.75 135.5 L82.75 129.7 M114.1 151.5 L118.0 156.1 131.1 156.1 M109.65 160.4 L114.1 151.5 127.2 151.5 130.65 155.6 M114.0 164.15 L118.0 156.1 M120.15 164.15 L126.95 164.15 M103.55 160.4 L109.65 160.4 89.4 173.1 83.2 173.1 71.6 173.1 M83.2 173.1 L103.55 160.4 109.55 148.35 M90.7 178.65 L114.0 164.15 M133.5 150.05 L135.5 146.05 M81.65 126.5 L79.4 120.05" ffdec:has-small-stroke="true" ffdec:original-stroke-width="0.1" fill="none" stroke="#000000" stroke-linecap="round" stroke-linejoin="round" stroke-opacity="0.29803923" stroke-width="1.0"/>
    </g>
    <radialGradient cx="0" cy="0" gradientTransform="matrix(0.1017, 0.0, 0.0, 0.1017, 139.8, 58.85)" gradientUnits="userSpaceOnUse" id="gradient0" r="819.2" spreadMethod="pad">
      <stop offset="0.0" stop-color="#bbbbbb"/>
      <stop offset="0.9882352941176471" stop-color="#666666"/>
    </radialGradient>
    <linearGradient gradientTransform="matrix(0.0037, -1.0E-4, 0.0, 0.0047, 163.05, 76.55)" gradientUnits="userSpaceOnUse" id="gradient1" spreadMethod="pad" x1="-819.2" x2="819.2">
      <stop offset="0.0" stop-color="#4487ad"/>
      <stop offset="1.0" stop-color="#333333"/>
    </linearGradient>
    <linearGradient gradientTransform="matrix(0.0, 0.0407, -0.0115, 0.0, 224.25, 122.65)" gradientUnits="userSpaceOnUse" id="gradient2" spreadMethod="pad" x1="-819.2" x2="819.2">
      <stop offset="0.0" stop-color="#aaaaaa"/>
      <stop offset="1.0" stop-color="#444444"/>
    </linearGradient>
    <linearGradient gradientTransform="matrix(0.0047, 0.0022, -0.0067, 0.0147, 162.5, 115.4)" gradientUnits="userSpaceOnUse" id="gradient3" spreadMethod="pad" x1="-819.2" x2="819.2">
      <stop offset="0.0" stop-color="#4487ad"/>
      <stop offset="1.0" stop-color="#333333"/>
    </linearGradient>
    <linearGradient gradientTransform="matrix(0.0023, 0.0475, -0.0115, 0.0, 116.3, 20.65)" gradientUnits="userSpaceOnUse" id="gradient4" spreadMethod="pad" x1="-819.2" x2="819.2">
      <stop offset="0.0" stop-color="#cccccc"/>
      <stop offset="1.0" stop-color="#aaaaaa"/>
    </linearGradient>
    <radialGradient cx="0" cy="0" gradientTransform="matrix(0.0341, 0.0, 0.0017, 0.0341, 126.5, 48.6)" gradientUnits="userSpaceOnUse" id="gradient5" r="819.2" spreadMethod="pad">
      <stop offset="0.0" stop-color="#cff5ff"/>
      <stop offset="0.6196078431372549" stop-color="#00c9ff"/>
      <stop offset="0.7019607843137254" stop-color="#1bcfff"/>
      <stop offset="1.0" stop-color="#0055ff"/>
    </radialGradient>
    <linearGradient gradientTransform="matrix(-0.0028, 0.0323, -0.0172, -0.0023, 54.6, 7.3)" gradientUnits="userSpaceOnUse" id="gradient6" spreadMethod="pad" x1="-819.2" x2="819.2">
      <stop offset="0.0" stop-color="#dddddd"/>
      <stop offset="1.0" stop-color="#999999"/>
    </linearGradient>
    <linearGradient gradientTransform="matrix(0.0064, 0.0, 2.0E-4, 0.0035, 94.1, 48.35)" gradientUnits="userSpaceOnUse" id="gradient7" spreadMethod="pad" x1="-819.2" x2="819.2">
      <stop offset="0.0" stop-color="#00ddff"/>
      <stop offset="1.0" stop-color="#0055ff"/>
    </linearGradient>
    <linearGradient gradientTransform="matrix(0.0126, 0.0, 0.0, 0.0056, 110.45, 78.6)" gradientUnits="userSpaceOnUse" id="gradient8" spreadMethod="pad" x1="-819.2" x2="819.2">
      <stop offset="0.0" stop-color="#4487ad"/>
      <stop offset="1.0" stop-color="#333333"/>
    </linearGradient>
    <radialGradient cx="0" cy="0" gradientTransform="matrix(0.0137, 0.0, 7.0E-4, 0.0137, 49.9, 12.55)" gradientUnits="userSpaceOnUse" id="gradient9" r="819.2" spreadMethod="pad">
      <stop offset="0.0" stop-color="#bbbbbb"/>
      <stop offset="0.9882352941176471" stop-color="#666666"/>
    </radialGradient>
    <radialGradient cx="0" cy="0" gradientTransform="matrix(0.0139, 0.0, 7.0E-4, 0.0139, 45.1, 11.85)" gradientUnits="userSpaceOnUse" id="gradient10" r="819.2" spreadMethod="pad">
      <stop offset="0.0" stop-color="#bbbbbb"/>
      <stop offset="0.9882352941176471" stop-color="#666666"/>
    </radialGradient>
    <radialGradient cx="0" cy="0" gradientTransform="matrix(0.0546, 0.0, 0.0, 0.0546, 56.6, 41.5)" gradientUnits="userSpaceOnUse" id="gradient11" r="819.2" spreadMethod="pad">
      <stop offset="0.0" stop-color="#bbbbbb"/>
      <stop offset="1.0" stop-color="#444444"/>
    </radialGradient>
    <linearGradient gradientTransform="matrix(0.0, -0.0259, 0.0122, 0.0, 29.2, 55.45)" gradientUnits="userSpaceOnUse" id="gradient12" spreadMethod="pad" x1="-819.2" x2="819.2">
      <stop offset="0.0" stop-color="#888888"/>
      <stop offset="0.2196078431372549" stop-color="#bbbbbb"/>
      <stop offset="1.0" stop-color="#444444"/>
    </linearGradient>
    <linearGradient gradientTransform="matrix(0.0, 0.0227, -0.0138, 0.0, 43.45, 58.3)" gradientUnits="userSpaceOnUse" id="gradient13" spreadMethod="pad" x1="-819.2" x2="819.2">
      <stop offset="0.0" stop-color="#aaaaaa"/>
      <stop offset="0.1411764705882353" stop-color="#cccccc"/>
      <stop offset="0.27450980392156865" stop-color="#acacac"/>
      <stop offset="0.7372549019607844" stop-color="#aaaaaa"/>
      <stop offset="1.0" stop-color="#444444"/>
    </linearGradient>
    <radialGradient cx="0" cy="0" gradientTransform="matrix(0.0157, 0.0, 0.0, 0.0157, 41.95, 43.5)" gradientUnits="userSpaceOnUse" id="gradient14" r="819.2" spreadMethod="pad">
      <stop offset="0.0" stop-color="#bbbbbb"/>
      <stop offset="1.0" stop-color="#444444"/>
    </radialGradient>
    <linearGradient gradientTransform="matrix(0.0053, 0.0, 0.0, 0.0014, 36.65, 59.4)" gradientUnits="userSpaceOnUse" id="gradient15" spreadMethod="pad" x1="-819.2" x2="819.2">
      <stop offset="0.0" stop-color="#00ddff"/>
      <stop offset="1.0" stop-color="#0055ff"/>
    </linearGradient>
    <linearGradient gradientTransform="matrix(0.0, -0.0156, 0.0194, 0.0, 33.6, 55.65)" gradientUnits="userSpaceOnUse" id="gradient16" spreadMethod="pad" x1="-819.2" x2="819.2">
      <stop offset="0.0" stop-color="#aaaaaa"/>
      <stop offset="0.1411764705882353" stop-color="#cccccc"/>
      <stop offset="0.27450980392156865" stop-color="#acacac"/>
      <stop offset="0.7372549019607844" stop-color="#aaaaaa"/>
      <stop offset="1.0" stop-color="#444444"/>
    </linearGradient>
    <linearGradient gradientTransform="matrix(0.0053, 0.0, 0.0, 0.0014, 36.65, 54.85)" gradientUnits="userSpaceOnUse" id="gradient17" spreadMethod="pad" x1="-819.2" x2="819.2">
      <stop offset="0.0" stop-color="#00ddff"/>
      <stop offset="1.0" stop-color="#0055ff"/>
    </linearGradient>
    <radialGradient cx="0" cy="0" gradientTransform="matrix(0.0143, 0.0, 0.0, 0.0143, 36.65, 60.6)" gradientUnits="userSpaceOnUse" id="gradient18" r="819.2" spreadMethod="pad">
      <stop offset="0.0" stop-color="#bbbbbb"/>
      <stop offset="1.0" stop-color="#444444"/>
    </radialGradient>
    <linearGradient gradientTransform="matrix(0.0, 0.0227, -0.0138, 0.0, 43.45, 53.7)" gradientUnits="userSpaceOnUse" id="gradient19" spreadMethod="pad" x1="-819.2" x2="819.2">
      <stop offset="0.0" stop-color="#aaaaaa"/>
      <stop offset="0.1411764705882353" stop-color="#cccccc"/>
      <stop offset="0.27450980392156865" stop-color="#acacac"/>
      <stop offset="0.7372549019607844" stop-color="#aaaaaa"/>
      <stop offset="1.0" stop-color="#444444"/>
    </linearGradient>
    <linearGradient gradientTransform="matrix(0.0, 0.024, -0.0134, 0.0, 49.45, 70.35)" gradientUnits="userSpaceOnUse" id="gradient20" spreadMethod="pad" x1="-819.2" x2="819.2">
      <stop offset="0.0" stop-color="#aaaaaa"/>
      <stop offset="1.0" stop-color="#cccccc"/>
    </linearGradient>
    <linearGradient gradientTransform="matrix(0.0, 0.014, -0.0139, 0.0, 42.1, 56.8)" gradientUnits="userSpaceOnUse" id="gradient21" spreadMethod="pad" x1="-819.2" x2="819.2">
      <stop offset="0.0" stop-color="#888888"/>
      <stop offset="0.8156862745098039" stop-color="#6a6a6a"/>
      <stop offset="1.0" stop-color="#565656"/>
    </linearGradient>
    <radialGradient cx="0" cy="0" gradientTransform="matrix(0.0439, 0.0, 0.0, 0.0439, 76.4, 88.55)" gradientUnits="userSpaceOnUse" id="gradient22" r="819.2" spreadMethod="pad">
      <stop offset="0.0" stop-color="#bbbbbb"/>
      <stop offset="1.0" stop-color="#444444"/>
    </radialGradient>
    <linearGradient gradientTransform="matrix(0.0, -0.0189, 0.0187, 0.0, 60.05, 101.05)" gradientUnits="userSpaceOnUse" id="gradient23" spreadMethod="pad" x1="-819.2" x2="819.2">
      <stop offset="0.0" stop-color="#888888"/>
      <stop offset="0.2196078431372549" stop-color="#bbbbbb"/>
      <stop offset="1.0" stop-color="#444444"/>
    </linearGradient>
    <linearGradient gradientTransform="matrix(0.0, 0.002, -0.0018, 0.0, 66.55, 94.1)" gradientUnits="userSpaceOnUse" id="gradient24" spreadMethod="pad" x1="-819.2" x2="819.2">
      <stop offset="0.0" stop-color="#435864"/>
      <stop offset="1.0" stop-color="#333333"/>
    </linearGradient>
    <linearGradient gradientTransform="matrix(0.0, 0.0019, -0.0019, 0.0, 66.5, 97.15)" gradientUnits="userSpaceOnUse" id="gradient25" spreadMethod="pad" x1="-819.2" x2="819.2">
      <stop offset="0.0" stop-color="#435864"/>
      <stop offset="1.0" stop-color="#333333"/>
    </linearGradient>
    <linearGradient gradientTransform="matrix(0.0, 0.0269, -0.027, 0.0, 78.1, 100.9)" gradientUnits="userSpaceOnUse" id="gradient26" spreadMethod="pad" x1="-819.2" x2="819.2">
      <stop offset="0.0" stop-color="#888888"/>
      <stop offset="0.20392156862745098" stop-color="#cccccc"/>
      <stop offset="1.0" stop-color="#444444"/>
    </linearGradient>
    <linearGradient gradientTransform="matrix(0.0, 0.0021, -0.0021, 0.0, 66.6, 87.65)" gradientUnits="userSpaceOnUse" id="gradient27" spreadMethod="pad" x1="-819.2" x2="819.2">
      <stop offset="0.0" stop-color="#435864"/>
      <stop offset="1.0" stop-color="#333333"/>
    </linearGradient>
    <linearGradient gradientTransform="matrix(0.0, 0.0021, -0.002, 0.0, 66.55, 90.95)" gradientUnits="userSpaceOnUse" id="gradient28" spreadMethod="pad" x1="-819.2" x2="819.2">
      <stop offset="0.0" stop-color="#435864"/>
      <stop offset="1.0" stop-color="#333333"/>
    </linearGradient>
    <linearGradient gradientTransform="matrix(0.0, 0.0018, -0.0019, 0.0, 66.55, 100.25)" gradientUnits="userSpaceOnUse" id="gradient29" spreadMethod="pad" x1="-819.2" x2="819.2">
      <stop offset="0.0" stop-color="#435864"/>
      <stop offset="1.0" stop-color="#333333"/>
    </linearGradient>
    <linearGradient gradientTransform="matrix(0.0, 0.0018, -0.0018, 0.0, 66.95, 106.55)" gradientUnits="userSpaceOnUse" id="gradient30" spreadMethod="pad" x1="-819.2" x2="819.2">
      <stop offset="0.0" stop-color="#435864"/>
      <stop offset="1.0" stop-color="#333333"/>
    </linearGradient>
    <linearGradient gradientTransform="matrix(0.0, 0.002, -0.0019, 0.0, 67.35, 109.55)" gradientUnits="userSpaceOnUse" id="gradient31" spreadMethod="pad" x1="-819.2" x2="819.2">
      <stop offset="0.0" stop-color="#435864"/>
      <stop offset="1.0" stop-color="#333333"/>
    </linearGradient>
    <linearGradient gradientTransform="matrix(0.0, 0.0017, -0.002, 0.0, 66.7, 103.45)" gradientUnits="userSpaceOnUse" id="gradient32" spreadMethod="pad" x1="-819.2" x2="819.2">
      <stop offset="0.0" stop-color="#435864"/>
      <stop offset="1.0" stop-color="#333333"/>
    </linearGradient>
    <linearGradient gradientTransform="matrix(0.0, 0.0014, -0.0013, 0.0, 67.9, 115.1)" gradientUnits="userSpaceOnUse" id="gradient33" spreadMethod="pad" x1="-819.2" x2="819.2">
      <stop offset="0.0" stop-color="#435864"/>
      <stop offset="1.0" stop-color="#333333"/>
    </linearGradient>
    <linearGradient gradientTransform="matrix(0.0, 0.0017, -0.0018, 0.0, 67.8, 112.55)" gradientUnits="userSpaceOnUse" id="gradient34" spreadMethod="pad" x1="-819.2" x2="819.2">
      <stop offset="0.0" stop-color="#435864"/>
      <stop offset="1.0" stop-color="#333333"/>
    </linearGradient>
    <radialGradient cx="0" cy="0" gradientTransform="matrix(0.0594, 0.0, 0.0, 0.0594, 93.1, 120.55)" gradientUnits="userSpaceOnUse" id="gradient35" r="819.2" spreadMethod="pad">
      <stop offset="0.0" stop-color="#4e646b"/>
      <stop offset="1.0" stop-color="#444444"/>
    </radialGradient>
    <linearGradient gradientTransform="matrix(0.0, 0.0126, -0.0127, 0.0, 58.05, 152.2)" gradientUnits="userSpaceOnUse" id="gradient36" spreadMethod="pad" x1="-819.2" x2="819.2">
      <stop offset="0.0" stop-color="#585858"/>
      <stop offset="0.2196078431372549" stop-color="#666666"/>
      <stop offset="1.0" stop-color="#111111"/>
    </linearGradient>
    <radialGradient cx="0" cy="0" gradientTransform="matrix(0.0055, 0.0, 0.0, 0.0055, 23.9, 135.95)" gradientUnits="userSpaceOnUse" id="gradient37" r="819.2" spreadMethod="pad">
      <stop offset="0.0" stop-color="#00ddff"/>
      <stop offset="1.0" stop-color="#0055ff"/>
    </radialGradient>
    <linearGradient gradientTransform="matrix(0.0044, 0.0022, -0.0072, 0.0145, 149.65, 114.65)" gradientUnits="userSpaceOnUse" id="gradient38" spreadMethod="pad" x1="-819.2" x2="819.2">
      <stop offset="0.0" stop-color="#4487ad"/>
      <stop offset="1.0" stop-color="#333333"/>
    </linearGradient>
    <linearGradient gradientTransform="matrix(0.0044, 0.0021, -0.0067, 0.0139, 136.1, 116.15)" gradientUnits="userSpaceOnUse" id="gradient39" spreadMethod="pad" x1="-819.2" x2="819.2">
      <stop offset="0.0" stop-color="#4487ad"/>
      <stop offset="1.0" stop-color="#333333"/>
    </linearGradient>
    <linearGradient gradientTransform="matrix(0.0, 0.0195, -0.0088, 0.0, 119.1, 150.7)" gradientUnits="userSpaceOnUse" id="gradient40" spreadMethod="pad" x1="-819.2" x2="819.2">
      <stop offset="0.0" stop-color="#4e646b"/>
      <stop offset="1.0" stop-color="#444444"/>
    </linearGradient>
    <g id="shape1">
      <path d="M166.05 80.45 L165.7 80.4 161.95 79.8 160.05 72.95 163.7 73.3 166.05 80.45" fill="url(#gradient41)" fill-rule="evenodd" stroke="none"/>
      <path d="M168.6 102.15 Q167.65 109.25 165.3 115.75 L164.25 118.4 Q161.95 123.8 158.55 128.75 L156.95 130.95 152.1 136.75 149.45 133.9 151.75 130.95 153.3 128.75 155.45 125.4 Q157.5 121.95 159.0 118.4 L160.05 115.75 Q161.95 110.55 163.0 104.95 L168.6 102.15 M155.45 125.4 L158.55 128.75 155.45 125.4" fill="url(#gradient42)" fill-rule="evenodd" stroke="none"/>
      <path d="M163.0 104.95 L163.4 102.0 168.6 102.15 163.0 104.95 M136.65 106.1 L137.1 103.9 142.4 103.25 142.4 103.3 136.65 106.1 M149.9 104.95 L150.25 102.4 155.55 102.15 149.9 104.95" fill="#4d2525" fill-rule="evenodd" stroke="none"/>
      <path d="M98.75 45.55 L153.4 45.55 153.65 46.55 154.15 49.3 99.4 49.3 99.15 47.35 98.75 45.55" fill="url(#gradient43)" fill-rule="evenodd" stroke="none"/>
      <path d="M99.4 49.3 L89.7 51.3 88.85 48.6 98.75 45.55 99.15 47.35 99.4 49.3" fill="url(#gradient44)" fill-rule="evenodd" stroke="none"/>
      <path d="M119.55 74.1 L120.85 80.75 Q113.15 80.25 103.45 83.25 L102.0 80.55 106.1 78.7 Q111.15 76.5 115.75 75.1 L119.55 74.1" fill="url(#gradient45)" fill-rule="evenodd" stroke="none"/>
      <path d="M154.9 89.3 L158.5 89.35 158.05 89.35 154.9 89.3" fill="url(#gradient46)" fill-rule="evenodd" stroke="none"/>
      <path d="M32.3 49.05 L32.3 48.95 Q32.35 47.8 32.65 46.8 L32.7 46.6 Q33.1 45.45 33.85 44.45 L33.9 44.4 34.5 43.7 Q35.5 42.75 36.7 42.5 38.25 42.85 39.5 44.4 L39.55 44.45 Q40.3 45.5 40.7 46.8 41.05 47.85 41.05 49.05 L41.05 51.35 32.3 51.35 32.3 49.15 32.3 49.05 41.05 49.05 32.3 49.05 M39.55 44.45 L33.85 44.45 39.55 44.45 M40.7 46.8 L32.65 46.8 40.7 46.8" fill="url(#gradient47)" fill-rule="evenodd" stroke="none"/>
      <path d="M41.05 51.35 L41.05 53.7 32.3 53.7 32.3 51.35 41.05 51.35" fill="url(#gradient48)" fill-rule="evenodd" stroke="none"/>
      <path d="M41.05 53.7 L41.05 56.05 41.05 58.3 41.05 60.6 41.05 62.9 41.05 63.3 40.7 65.2 40.7 65.25 40.2 66.45 39.5 67.5 Q38.25 69.05 36.7 69.4 35.1 69.05 33.9 67.5 33.1 66.55 32.7 65.25 L32.7 65.2 Q32.35 64.25 32.35 63.3 L32.3 62.9 32.3 60.6 32.3 58.3 32.3 56.05 32.3 53.7 41.05 53.7 M39.5 67.5 L33.9 67.5 39.5 67.5 M32.3 56.05 L41.05 56.05 32.3 56.05 M32.3 58.3 L41.05 58.3 32.3 58.3 M41.05 60.6 L32.3 60.6 41.05 60.6 M32.7 65.2 L40.7 65.2 32.7 65.2 M32.3 62.9 L41.05 62.9 32.3 62.9" fill="url(#gradient49)" fill-rule="evenodd" stroke="none"/>
      <path d="M38.75 91.55 L38.25 89.75 38.8 91.55 38.75 91.55" fill="#777777" fill-rule="evenodd" stroke="none"/>
      <path d="M60.65 95.65 L75.0 95.65 75.55 98.75 60.55 98.75 57.55 98.75 60.65 95.65" fill="url(#gradient50)" fill-rule="evenodd" stroke="none"/>
      <path d="M60.65 95.65 L58.15 95.65 61.2 92.6 73.85 92.6 75.0 95.65 60.65 95.65" fill="url(#gradient51)" fill-rule="evenodd" stroke="none"/>
      <path d="M62.6 89.35 L61.4 89.35 61.65 89.05 Q63.85 86.6 66.55 85.95 69.4 86.6 71.75 89.35 L62.6 89.35" fill="url(#gradient52)" fill-rule="evenodd" stroke="none"/>
      <path d="M73.85 92.6 L61.2 92.6 59.3 92.6 62.6 89.35 71.75 89.35 72.45 90.25 73.2 91.4 73.85 92.6" fill="url(#gradient53)" fill-rule="evenodd" stroke="none"/>
      <path d="M60.55 98.75 L75.55 98.75 75.65 101.1 75.65 101.85 61.15 101.85 57.5 101.85 60.55 98.75" fill="url(#gradient54)" fill-rule="evenodd" stroke="none"/>
      <path d="M61.5 105.15 L57.85 105.15 61.15 101.85 75.65 101.85 75.3 105.15 61.5 105.15" fill="url(#gradient55)" fill-rule="evenodd" stroke="none"/>
      <path d="M74.55 108.0 Q73.95 109.65 73.0 111.1 L65.5 111.1 60.2 111.1 63.25 108.05 74.55 108.0" fill="url(#gradient56)" fill-rule="evenodd" stroke="none"/>
      <path d="M75.3 105.15 L74.7 107.55 74.65 107.7 74.55 108.0 63.25 108.05 58.65 108.05 61.5 105.15 75.3 105.15" fill="url(#gradient57)" fill-rule="evenodd" stroke="none"/>
      <path d="M73.0 111.1 L72.45 111.9 71.7 112.9 70.6 114.05 67.05 114.05 62.6 114.05 65.5 111.1 73.0 111.1" fill="url(#gradient58)" fill-rule="evenodd" stroke="none"/>
      <path d="M103.55 160.4 L83.2 173.1 68.55 173.1 56.4 132.55 56.4 117.55 56.95 118.15 Q58.2 119.6 59.65 120.65 62.95 123.05 67.0 123.05 L68.15 123.0 74.85 142.3 69.4 144.9 69.4 156.1 71.7 156.1 83.4 156.1 Q90.9 155.75 97.6 153.75 L101.75 152.2 106.8 149.9 109.55 148.35 103.55 160.4 M79.4 120.05 Q81.0 118.65 82.45 116.6 L83.3 115.45 Q86.95 121.2 89.25 131.1 L89.05 131.35 84.75 135.5 79.4 120.05" fill="url(#gradient59)" fill-rule="evenodd" stroke="none"/>
      <path d="M70.6 114.05 Q68.75 115.65 66.65 116.2 L65.3 115.8 67.05 114.05 70.6 114.05" fill="url(#gradient60)" fill-rule="evenodd" stroke="none"/>
      <path d="M20.45 135.95 Q20.45 134.55 21.1 133.5 L21.5 132.85 21.55 132.8 Q22.55 131.6 23.9 131.6 25.3 131.6 26.3 132.85 26.9 133.6 27.15 134.45 L27.35 135.95 Q27.35 137.75 26.3 139.05 25.3 140.3 23.9 140.3 22.55 140.3 21.55 139.15 L21.5 139.05 21.1 138.45 Q20.45 137.35 20.45 135.95" fill="url(#gradient61)" fill-rule="evenodd" stroke="none"/>
      <path d="M155.55 102.15 Q154.65 109.25 152.25 115.75 L151.2 118.4 Q148.9 123.8 145.5 128.75 L143.95 130.95 139.05 136.75 136.4 133.9 138.7 130.95 140.3 128.75 142.45 125.4 146.0 118.4 147.05 115.75 Q148.95 110.55 149.9 104.95 L155.55 102.15 M145.5 128.75 L142.45 125.4 145.5 128.75" fill="url(#gradient62)" fill-rule="evenodd" stroke="none"/>
      <path d="M142.4 103.3 Q141.4 109.75 139.2 115.75 L138.15 118.4 Q135.85 123.8 132.45 128.75 L130.9 130.95 Q128.65 133.95 126.0 136.75 L123.35 133.9 125.65 130.95 127.25 128.75 129.35 125.4 Q131.45 121.95 132.95 118.4 L133.95 115.75 Q135.7 111.05 136.65 106.1 L142.4 103.3 M129.35 125.4 L132.45 128.75 129.35 125.4" fill="url(#gradient63)" fill-rule="evenodd" stroke="none"/>
      <path d="M152.1 136.75 L146.85 136.75 149.45 133.9 152.1 136.75 M126.0 136.75 L120.8 136.75 123.35 133.9 126.0 136.75 M139.05 136.75 L133.85 136.75 136.4 133.9 139.05 136.75" fill="#754747" fill-rule="evenodd" stroke="none"/>
      <path d="M103.55 160.4 L109.55 148.35 112.45 146.45 113.0 146.05 135.5 146.05 130.8 155.2 130.65 155.6 127.2 151.5 114.1 151.5 109.65 160.4 103.55 160.4" fill="url(#gradient64)" fill-rule="evenodd" stroke="none"/>
      <path d="M166.05 80.45 L165.7 80.4 161.95 79.8 160.05 72.95 163.7 73.3 166.05 80.45 M163.0 104.95 L163.4 102.0 168.6 102.15 Q167.65 109.25 165.3 115.75 L164.25 118.4 Q161.95 123.8 158.55 128.75 L156.95 130.95 152.1 136.75 146.85 136.75 149.45 133.9 151.75 130.95 153.3 128.75 155.45 125.4 Q157.5 121.95 159.0 118.4 L160.05 115.75 Q161.95 110.55 163.0 104.95 L168.6 102.15 M98.75 45.55 L153.4 45.55 153.65 46.55 154.15 49.3 99.4 49.3 89.7 51.3 88.85 48.6 98.75 45.55 99.15 47.35 99.4 49.3 M119.55 73.85 L119.55 74.1 120.85 80.75 Q113.15 80.25 103.45 83.25 L102.0 80.55 106.1 78.7 Q111.15 76.5 115.75 75.1 L119.55 74.1 M32.3 49.05 L32.3 48.95 Q32.35 47.8 32.65 46.8 L32.7 46.6 Q33.1 45.45 33.85 44.45 L33.9 44.4 34.5 43.7 Q35.5 42.75 36.7 42.5 38.25 42.85 39.5 44.4 L39.55 44.45 Q40.3 45.5 40.7 46.8 41.05 47.85 41.05 49.05 L41.05 51.35 41.05 53.7 41.05 56.05 41.05 58.3 41.05 60.6 41.05 62.9 41.05 63.3 40.7 65.2 40.7 65.25 40.2 66.45 39.5 67.5 Q38.25 69.05 36.7 69.4 35.1 69.05 33.9 67.5 33.1 66.55 32.7 65.25 L32.7 65.2 Q32.35 64.25 32.35 63.3 L32.3 62.9 32.3 60.6 32.3 58.3 32.3 56.05 32.3 53.7 32.3 51.35 32.3 49.15 M32.3 49.05 L41.05 49.05 M33.85 44.45 L39.55 44.45 M33.9 67.5 L39.5 67.5 M38.8 91.55 L38.75 91.55 M61.2 92.6 L58.15 95.65 60.65 95.65 75.0 95.65 73.85 92.6 61.2 92.6 59.3 92.6 62.6 89.35 61.4 89.35 61.65 89.05 Q63.85 86.6 66.55 85.95 69.4 86.6 71.75 89.35 L72.45 90.25 73.2 91.4 73.85 92.6 M60.65 95.65 L57.55 98.75 60.55 98.75 75.55 98.75 75.0 95.65 M62.6 89.35 L71.75 89.35 M32.65 46.8 L40.7 46.8 M41.05 58.3 L32.3 58.3 M41.05 56.05 L32.3 56.05 M32.3 53.7 L41.05 53.7 M41.05 51.35 L32.3 51.35 M41.05 62.9 L32.3 62.9 M40.7 65.2 L32.7 65.2 M32.3 60.6 L41.05 60.6 M75.3 105.15 L74.7 107.55 74.65 107.7 74.55 108.0 Q73.95 109.65 73.0 111.1 L72.45 111.9 71.7 112.9 70.6 114.05 Q68.75 115.65 66.65 116.2 L65.3 115.8 67.05 114.05 62.6 114.05 65.5 111.1 60.2 111.1 63.25 108.05 58.65 108.05 61.5 105.15 57.85 105.15 61.15 101.85 57.5 101.85 60.55 98.75 M75.55 98.75 L75.65 101.1 75.65 101.85 75.3 105.15 61.5 105.15 M67.05 114.05 L70.6 114.05 M109.55 148.35 L106.8 149.9 101.75 152.2 97.6 153.75 Q90.9 155.75 83.4 156.1 L71.7 156.1 69.4 156.1 69.4 144.9 74.85 142.3 68.15 123.0 67.0 123.05 Q62.95 123.05 59.65 120.65 58.2 119.6 56.95 118.15 L56.4 117.55 56.4 132.55 68.55 173.1 83.2 173.1 103.55 160.4 109.55 148.35 112.45 146.45 113.0 146.05 135.5 146.05 130.8 155.2 130.65 155.6 127.2 151.5 114.1 151.5 109.65 160.4 103.55 160.4 M61.15 101.85 L75.65 101.85 M63.25 108.05 L74.55 108.0 M65.5 111.1 L73.0 111.1 M20.45 135.95 Q20.45 134.55 21.1 133.5 L21.5 132.85 21.55 132.8 Q22.55 131.6 23.9 131.6 25.3 131.6 26.3 132.85 26.9 133.6 27.15 134.45 L27.35 135.95 Q27.35 137.75 26.3 139.05 25.3 140.3 23.9 140.3 22.55 140.3 21.55 139.15 L21.5 139.05 21.1 138.45 Q20.45 137.35 20.45 135.95 M136.65 106.1 L137.1 103.9 142.4 103.25 142.4 103.3 Q141.4 109.75 139.2 115.75 L138.15 118.4 Q135.85 123.8 132.45 128.75 L130.9 130.95 Q128.65 133.95 126.0 136.75 L120.8 136.75 123.35 133.9 125.65 130.95 127.25 128.75 129.35 125.4 Q131.45 121.95 132.95 118.4 L133.95 115.75 Q135.7 111.05 136.65 106.1 L142.4 103.3 M149.9 104.95 L150.25 102.4 155.55 102.15 Q154.65 109.25 152.25 115.75 L151.2 118.4 Q148.9 123.8 145.5 128.75 L143.95 130.95 139.05 136.75 133.85 136.75 136.4 133.9 138.7 130.95 140.3 128.75 142.45 125.4 146.0 118.4 147.05 115.75 Q148.95 110.55 149.9 104.95 L155.55 102.15 M136.4 133.9 L139.05 136.75 M132.45 128.75 L129.35 125.4 M126.0 136.75 L123.35 133.9 M158.55 128.75 L155.45 125.4 M142.45 125.4 L145.5 128.75 M149.45 133.9 L152.1 136.75 M79.4 120.05 Q81.0 118.65 82.45 116.6 L83.3 115.45 Q86.95 121.2 89.25 131.1 L89.05 131.35 84.75 135.5 79.4 120.05 Z" ffdec:has-small-stroke="true" ffdec:original-stroke-width="0.1" fill="none" stroke="#000000" stroke-linecap="round" stroke-linejoin="round" stroke-opacity="0.29803923" stroke-width="1.0"/>
    </g>
    <linearGradient gradientTransform="matrix(0.0037, -1.0E-4, 0.0, 0.0047, 163.05, 76.55)" gradientUnits="userSpaceOnUse" id="gradient41" spreadMethod="pad" x1="-819.2" x2="819.2">
      <stop offset="0.0" stop-color="#840909"/>
      <stop offset="1.0" stop-color="#333333"/>
    </linearGradient>
    <linearGradient gradientTransform="matrix(0.0047, 0.0022, -0.0067, 0.0147, 162.5, 115.4)" gradientUnits="userSpaceOnUse" id="gradient42" spreadMethod="pad" x1="-819.2" x2="819.2">
      <stop offset="0.0" stop-color="#870707"/>
      <stop offset="1.0" stop-color="#333333"/>
    </linearGradient>
    <radialGradient cx="0" cy="0" gradientTransform="matrix(0.0365, 0.0, 0.0, 0.0365, 128.5, 47.25)" gradientUnits="userSpaceOnUse" id="gradient43" r="819.2" spreadMethod="pad">
      <stop offset="0.0" stop-color="#ff6600"/>
      <stop offset="0.6196078431372549" stop-color="#ff3300"/>
      <stop offset="1.0" stop-color="#990000"/>
    </radialGradient>
    <linearGradient gradientTransform="matrix(0.0064, 0.0, 2.0E-4, 0.0035, 94.1, 48.35)" gradientUnits="userSpaceOnUse" id="gradient44" spreadMethod="pad" x1="-819.2" x2="819.2">
      <stop offset="0.0" stop-color="#ff3300"/>
      <stop offset="1.0" stop-color="#990000"/>
    </linearGradient>
    <linearGradient gradientTransform="matrix(0.0126, 0.0, 0.0, 0.0056, 110.45, 78.6)" gradientUnits="userSpaceOnUse" id="gradient45" spreadMethod="pad" x1="-819.2" x2="819.2">
      <stop offset="0.0" stop-color="#840909"/>
      <stop offset="1.0" stop-color="#333333"/>
    </linearGradient>
    <radialGradient cx="0" cy="0" gradientTransform="matrix(0.1017, 0.0, 0.0, 0.1017, 139.8, 58.85)" gradientUnits="userSpaceOnUse" id="gradient46" r="819.2" spreadMethod="pad">
      <stop offset="0.0" stop-color="#bbbbbb"/>
      <stop offset="0.9882352941176471" stop-color="#666666"/>
    </radialGradient>
    <linearGradient gradientTransform="matrix(0.0053, 0.0, 0.0, 0.0014, 36.65, 59.4)" gradientUnits="userSpaceOnUse" id="gradient47" spreadMethod="pad" x1="-819.2" x2="819.2">
      <stop offset="0.0" stop-color="#ff3300"/>
      <stop offset="1.0" stop-color="#990000"/>
    </linearGradient>
    <linearGradient gradientTransform="matrix(0.0053, 0.0, 0.0, 0.0014, 36.65, 52.5)" gradientUnits="userSpaceOnUse" id="gradient48" spreadMethod="pad" x1="-819.2" x2="819.2">
      <stop offset="0.0" stop-color="#ff3300"/>
      <stop offset="1.0" stop-color="#990000"/>
    </linearGradient>
    <linearGradient gradientTransform="matrix(0.0053, 0.0, 0.0, 0.0014, 36.65, 54.85)" gradientUnits="userSpaceOnUse" id="gradient49" spreadMethod="pad" x1="-819.2" x2="819.2">
      <stop offset="0.0" stop-color="#ff3300"/>
      <stop offset="1.0" stop-color="#990000"/>
    </linearGradient>
    <linearGradient gradientTransform="matrix(0.0, 0.0019, -0.0019, 0.0, 66.5, 97.15)" gradientUnits="userSpaceOnUse" id="gradient50" spreadMethod="pad" x1="-819.2" x2="819.2">
      <stop offset="0.0" stop-color="#7f0000"/>
      <stop offset="1.0" stop-color="#333333"/>
    </linearGradient>
    <linearGradient gradientTransform="matrix(0.0, 0.002, -0.0018, 0.0, 66.55, 94.1)" gradientUnits="userSpaceOnUse" id="gradient51" spreadMethod="pad" x1="-819.2" x2="819.2">
      <stop offset="0.0" stop-color="#7f0000"/>
      <stop offset="1.0" stop-color="#333333"/>
    </linearGradient>
    <linearGradient gradientTransform="matrix(0.0, 0.0021, -0.0021, 0.0, 66.6, 87.65)" gradientUnits="userSpaceOnUse" id="gradient52" spreadMethod="pad" x1="-819.2" x2="819.2">
      <stop offset="0.0" stop-color="#7f0000"/>
      <stop offset="1.0" stop-color="#333333"/>
    </linearGradient>
    <linearGradient gradientTransform="matrix(0.0, 0.0021, -0.002, 0.0, 66.55, 90.95)" gradientUnits="userSpaceOnUse" id="gradient53" spreadMethod="pad" x1="-819.2" x2="819.2">
      <stop offset="0.0" stop-color="#7f0000"/>
      <stop offset="1.0" stop-color="#333333"/>
    </linearGradient>
    <linearGradient gradientTransform="matrix(0.0, 0.0018, -0.0019, 0.0, 66.55, 100.25)" gradientUnits="userSpaceOnUse" id="gradient54" spreadMethod="pad" x1="-819.2" x2="819.2">
      <stop offset="0.0" stop-color="#7f0000"/>
      <stop offset="1.0" stop-color="#333333"/>
    </linearGradient>
    <linearGradient gradientTransform="matrix(0.0, 0.0017, -0.002, 0.0, 66.7, 103.45)" gradientUnits="userSpaceOnUse" id="gradient55" spreadMethod="pad" x1="-819.2" x2="819.2">
      <stop offset="0.0" stop-color="#7f0000"/>
      <stop offset="1.0" stop-color="#333333"/>
    </linearGradient>
    <linearGradient gradientTransform="matrix(0.0, 0.002, -0.0019, 0.0, 67.35, 109.55)" gradientUnits="userSpaceOnUse" id="gradient56" spreadMethod="pad" x1="-819.2" x2="819.2">
      <stop offset="0.0" stop-color="#7f0000"/>
      <stop offset="1.0" stop-color="#333333"/>
    </linearGradient>
    <linearGradient gradientTransform="matrix(0.0, 0.0018, -0.0018, 0.0, 66.95, 106.55)" gradientUnits="userSpaceOnUse" id="gradient57" spreadMethod="pad" x1="-819.2" x2="819.2">
      <stop offset="0.0" stop-color="#7f0000"/>
      <stop offset="1.0" stop-color="#333333"/>
    </linearGradient>
    <linearGradient gradientTransform="matrix(0.0, 0.0017, -0.0018, 0.0, 67.8, 112.55)" gradientUnits="userSpaceOnUse" id="gradient58" spreadMethod="pad" x1="-819.2" x2="819.2">
      <stop offset="0.0" stop-color="#7f0000"/>
      <stop offset="1.0" stop-color="#333333"/>
    </linearGradient>
    <radialGradient cx="0" cy="0" gradientTransform="matrix(0.0594, 0.0, 0.0, 0.0594, 93.1, 120.55)" gradientUnits="userSpaceOnUse" id="gradient59" r="819.2" spreadMethod="pad">
      <stop offset="0.0" stop-color="#820909"/>
      <stop offset="1.0" stop-color="#333333"/>
    </radialGradient>
    <linearGradient gradientTransform="matrix(0.0, 0.0014, -0.0013, 0.0, 67.9, 115.1)" gradientUnits="userSpaceOnUse" id="gradient60" spreadMethod="pad" x1="-819.2" x2="819.2">
      <stop offset="0.0" stop-color="#7f0000"/>
      <stop offset="1.0" stop-color="#333333"/>
    </linearGradient>
    <radialGradient cx="0" cy="0" gradientTransform="matrix(0.0055, 0.0, 0.0, 0.0055, 23.9, 135.95)" gradientUnits="userSpaceOnUse" id="gradient61" r="819.2" spreadMethod="pad">
      <stop offset="0.0" stop-color="#ff3300"/>
      <stop offset="1.0" stop-color="#990000"/>
    </radialGradient>
    <linearGradient gradientTransform="matrix(0.0044, 0.0022, -0.0072, 0.0145, 149.65, 114.65)" gradientUnits="userSpaceOnUse" id="gradient62" spreadMethod="pad" x1="-819.2" x2="819.2">
      <stop offset="0.0" stop-color="#870707"/>
      <stop offset="1.0" stop-color="#333333"/>
    </linearGradient>
    <linearGradient gradientTransform="matrix(0.0044, 0.0021, -0.0067, 0.0139, 136.1, 116.15)" gradientUnits="userSpaceOnUse" id="gradient63" spreadMethod="pad" x1="-819.2" x2="819.2">
      <stop offset="0.0" stop-color="#870707"/>
      <stop offset="1.0" stop-color="#333333"/>
    </linearGradient>
    <linearGradient gradientTransform="matrix(0.0, 0.0195, -0.0088, 0.0, 119.1, 150.7)" gradientUnits="userSpaceOnUse" id="gradient64" spreadMethod="pad" x1="-819.2" x2="819.2">
      <stop offset="0.0" stop-color="#741111"/>
      <stop offset="1.0" stop-color="#444444"/>
    </linearGradient>
    <g id="sprite2">
      <use ffdec:characterId="539" height="156.1" transform="matrix(1.0, 0.0, 0.0, 1.0, 0.0, 0.0)" width="178.55" xlink:href="#shape2"/>
    </g>
    <g id="shape2">
      <path d="M122.0 8.4 L124.25 12.4 117.0 8.4 108.9 8.4 111.15 12.4 103.9 8.4 95.8 8.4 107.5 24.6 115.65 24.6 115.25 22.9 118.7 22.9 120.65 24.6 128.75 24.6 128.35 22.9 131.8 22.9 133.75 24.6 141.9 24.6 138.85 13.25 130.1 8.4 122.0 8.4 M163.0 104.95 Q161.95 110.55 160.05 115.75 L159.0 118.4 Q157.5 121.95 155.45 125.4 L153.3 128.75 151.75 130.95 149.45 133.9 146.85 136.75 152.1 136.75 156.95 130.95 158.55 128.75 Q161.95 123.8 164.25 118.4 L165.3 115.75 Q167.65 109.25 168.6 102.15 L163.4 102.0 163.0 104.95 M160.05 72.95 L161.95 79.8 165.7 80.4 165.75 80.5 167.25 80.75 168.3 81.05 168.65 82.75 168.9 84.1 169.2 86.25 169.2 86.6 169.7 90.55 173.45 91.4 Q176.1 92.05 178.5 92.95 L178.55 96.5 178.5 97.95 178.4 100.25 178.4 100.4 178.15 103.05 177.85 105.4 177.85 105.45 Q176.1 117.25 170.15 127.2 L169.15 128.75 167.75 130.75 164.0 135.5 162.85 136.75 161.1 138.6 Q153.95 146.0 145.6 150.25 143.0 151.6 140.35 152.6 135.75 154.3 130.8 155.2 L133.5 150.05 Q136.55 148.5 139.45 146.45 L139.95 146.05 113.0 146.05 112.45 146.45 109.55 148.35 106.8 149.9 101.75 152.2 97.6 153.75 Q90.9 155.75 83.4 156.1 L71.7 156.1 69.4 156.1 69.4 144.9 74.85 142.3 80.05 139.1 81.1 138.4 84.75 135.5 89.05 131.35 89.25 131.1 Q86.95 121.2 83.3 115.45 L82.45 116.6 Q81.0 118.65 79.4 120.05 L78.8 120.55 Q77.05 121.8 75.25 122.4 L72.4 123.0 71.2 123.05 69.05 122.95 68.15 123.0 67.0 123.05 Q62.95 123.05 59.65 120.65 58.2 119.6 56.95 118.15 L56.4 117.55 55.7 116.6 54.5 114.85 52.9 111.6 52.75 111.2 52.35 109.9 51.65 107.35 Q51.25 105.35 51.1 103.25 L51.1 103.05 51.0 101.0 51.0 100.25 51.3 96.7 Q51.75 93.35 52.9 90.4 53.95 87.85 55.5 85.6 L55.7 85.35 Q58.4 81.55 61.8 80.0 L63.9 79.25 67.0 78.85 69.05 79.05 63.15 42.1 56.5 28.25 53.15 26.6 52.95 26.5 51.4 25.95 Q47.7 24.6 42.55 23.5 37.85 22.5 33.05 22.25 L33.0 22.25 27.25 22.6 Q25.0 23.1 23.05 24.0 L32.2 6.95 35.0 5.45 38.05 3.9 Q43.15 1.55 48.85 0.7 L49.65 0.45 49.75 0.45 52.0 0.2 52.5 0.25 52.6 0.25 56.8 0.05 57.25 0.05 112.65 0.0 114.5 0.1 115.5 0.1 119.3 0.45 125.05 1.45 126.7 1.85 Q130.8 3.0 134.75 4.8 L138.2 6.5 138.65 6.8 138.75 6.8 153.25 26.15 154.15 29.25 156.05 37.35 156.8 41.7 152.75 42.4 152.8 42.45 103.6 42.45 83.65 48.25 86.75 54.35 103.9 51.3 158.7 51.3 158.85 54.3 158.9 55.4 159.05 60.0 159.05 60.2 160.35 60.75 Q163.55 65.9 165.5 71.1 L166.2 73.5 160.05 72.95 M81.8 47.6 L81.2 47.75 81.25 47.75 81.8 47.6 M44.25 17.05 L44.35 17.05 45.2 17.0 Q46.9 16.7 48.9 15.35 L50.6 14.15 51.3 13.5 51.55 13.2 52.3 12.45 52.55 12.15 52.7 12.0 53.2 11.25 Q54.85 8.95 54.85 7.35 L54.75 7.35 54.55 7.35 Q53.55 7.45 52.4 7.9 51.4 8.35 50.3 9.05 L50.2 9.15 Q48.4 10.3 47.0 11.85 L46.15 12.85 46.0 13.05 45.9 13.2 44.85 14.95 44.45 15.9 44.25 17.05 M154.9 89.3 L158.05 89.35 158.5 89.35 154.9 89.3 M119.55 74.1 L115.75 75.1 Q111.15 76.5 106.1 78.7 L102.0 80.55 103.45 83.25 Q113.15 80.25 120.85 80.75 L119.55 74.1 M31.95 32.4 Q35.2 29.95 38.9 29.25 L41.7 28.95 42.5 28.95 Q45.05 29.0 47.4 29.85 50.2 30.8 52.7 32.9 L54.55 34.65 56.35 36.75 Q61.95 44.1 62.3 54.45 L62.3 55.5 Q62.3 59.6 61.4 63.3 L60.9 65.3 Q59.55 69.7 57.0 73.3 L56.35 74.2 55.5 75.25 54.1 76.75 52.95 77.85 52.9 77.9 51.65 78.85 50.75 79.5 Q49.1 80.5 47.4 81.1 L44.2 81.85 44.0 81.9 42.5 82.0 41.5 82.0 Q38.75 81.9 36.3 81.0 32.0 79.4 28.55 75.25 L27.7 74.2 Q24.65 70.3 23.2 65.5 L23.15 65.25 22.6 63.3 Q21.7 59.6 21.7 55.5 L21.75 54.45 21.95 51.45 22.2 49.65 22.8 46.7 Q23.35 44.7 24.15 42.85 L24.35 42.4 24.55 41.95 24.55 41.9 24.6 41.85 Q25.75 39.35 27.4 37.15 L27.7 36.75 28.25 36.05 30.15 33.95 31.35 32.9 31.95 32.4 M149.9 104.95 Q148.95 110.55 147.05 115.75 L146.0 118.4 142.45 125.4 140.3 128.75 138.7 130.95 136.4 133.9 133.85 136.75 139.05 136.75 143.95 130.95 145.5 128.75 Q148.9 123.8 151.2 118.4 L152.25 115.75 Q154.65 109.25 155.55 102.15 L150.25 102.4 149.9 104.95 M136.65 106.1 Q135.7 111.05 133.95 115.75 L132.95 118.4 Q131.45 121.95 129.35 125.4 L127.25 128.75 125.65 130.95 123.35 133.9 120.8 136.75 126.0 136.75 Q128.65 133.95 130.9 130.95 L132.45 128.75 Q135.85 123.8 138.15 118.4 L139.2 115.75 Q141.4 109.75 142.4 103.3 L142.4 103.25 137.1 103.9 136.65 106.1 M57.55 98.75 L57.45 101.1 57.5 101.85 Q57.5 103.55 57.85 105.15 58.1 106.65 58.6 108.05 59.25 109.65 60.2 111.1 L60.7 111.9 61.8 113.25 62.6 114.05 65.3 115.8 66.65 116.2 Q68.75 115.65 70.6 114.05 L71.7 112.9 72.45 111.9 73.0 111.1 Q73.95 109.65 74.55 108.0 L74.65 107.7 74.7 107.55 75.3 105.15 75.65 101.85 75.65 101.1 75.55 98.75 75.0 95.65 73.85 92.6 72.45 90.25 71.75 89.35 Q69.4 86.6 66.55 85.95 63.85 86.6 61.65 89.05 L61.4 89.35 60.7 90.25 Q59.85 91.4 59.3 92.6 58.55 94.05 58.15 95.65 57.7 97.15 57.55 98.75 M16.9 56.6 L16.9 56.8 16.9 57.15 17.05 58.2 17.15 58.65 17.15 58.75 17.3 59.35 17.55 61.05 18.35 64.4 Q19.5 68.8 21.55 72.7 L22.55 74.55 23.2 75.6 25.3 78.6 26.0 79.5 Q30.0 84.4 34.65 86.95 L36.7 88.0 36.7 98.75 8.05 98.75 0.0 71.65 5.95 56.6 16.9 56.6 M40.7 46.8 Q40.3 45.5 39.55 44.45 L39.5 44.4 Q38.25 42.85 36.7 42.5 35.5 42.75 34.5 43.7 L33.9 44.4 33.85 44.45 Q33.1 45.45 32.7 46.6 L32.65 46.8 Q32.35 47.8 32.3 48.95 L32.3 62.9 32.35 63.3 Q32.35 64.25 32.7 65.2 L32.7 65.25 Q33.1 66.55 33.9 67.5 35.1 69.05 36.7 69.4 38.25 69.05 39.5 67.5 L40.2 66.45 40.7 65.25 40.7 65.2 41.05 63.3 41.05 62.9 41.05 49.05 Q41.05 47.85 40.7 46.8 M42.65 34.65 Q40.55 35.3 38.65 36.6 L37.65 37.4 37.5 37.5 Q36.25 38.55 35.1 39.95 L37.0 39.6 37.15 39.6 37.3 39.6 42.45 39.6 Q44.05 39.6 45.45 40.5 L45.75 40.7 47.15 42.0 47.4 42.3 Q48.5 43.65 48.9 45.25 L49.0 45.45 49.2 47.05 49.2 47.45 49.2 64.55 49.2 65.25 49.05 66.1 48.3 68.2 47.6 69.35 47.15 69.9 46.05 70.95 Q45.2 71.65 44.2 71.95 L42.5 72.25 38.0 72.25 38.0 72.2 37.65 72.25 36.95 72.25 36.35 72.2 36.15 72.2 38.0 73.85 39.7 74.95 40.25 75.25 42.65 76.25 43.35 76.0 44.2 75.7 45.1 75.25 45.65 74.95 Q48.1 73.5 50.2 70.95 L50.55 70.45 51.65 68.9 53.15 66.15 54.2 63.3 54.25 63.15 54.7 61.4 Q55.2 59.1 55.3 56.6 L55.3 55.45 55.3 54.45 55.1 51.85 Q54.8 49.3 54.05 47.05 53.2 44.55 51.85 42.3 L50.55 40.35 49.65 39.3 47.8 37.5 47.6 37.3 Q45.65 35.7 43.4 34.9 L42.65 34.65" fill="#ffffff" fill-opacity="0.0" fill-rule="evenodd" stroke="none"/>
    </g>
    <g id="sprite3">
      <use ffdec:characterId="541" height="130.7" transform="matrix(1.0, 0.0, 0.0, 1.0, 0.0, 0.0)" width="148.25" xlink:href="#shape3"/>
    </g>
    <g id="shape3">
      <path d="M105.55 94.25 L100.35 94.25 102.9 91.4 105.55 94.25 M115.95 91.4 L118.6 94.25 113.4 94.25 115.95 91.4 M131.65 94.25 L126.4 94.25 129.0 91.4 131.65 94.25" fill="#666666" fill-opacity="0.0" fill-rule="evenodd" stroke="none"/>
      <path d="M145.6 37.95 L145.25 37.9 141.5 37.3 139.6 30.45 143.25 30.8 145.6 37.95 M99.1 31.6 L100.4 38.25 Q92.7 37.75 83.0 40.75 L81.55 38.05 Q83.65 37.05 85.65 36.2 90.7 34.0 95.3 32.6 L99.1 31.6 M116.2 63.6 L116.65 61.4 121.95 60.75 121.95 60.8 116.2 63.6 M142.55 62.45 L142.95 59.5 148.15 59.65 142.55 62.45 M135.1 59.65 L129.45 62.45 129.8 59.9 135.1 59.65 M51.3 46.85 L42.15 46.85 51.3 46.85 52.0 47.75 53.4 50.1 40.75 50.1 53.4 50.1 54.55 53.15 40.2 53.15 54.55 53.15 55.1 56.25 40.1 56.25 55.1 56.25 55.2 58.6 55.2 59.35 54.85 62.65 54.8 62.9 54.35 64.8 54.25 65.05 54.2 65.2 54.1 65.5 42.8 65.55 54.1 65.5 Q53.5 67.15 52.55 68.6 L52.0 69.4 51.25 70.4 50.15 71.55 Q48.3 73.15 46.2 73.7 L44.85 73.3 46.6 71.55 42.15 71.55 45.05 68.6 39.75 68.6 42.8 65.55 38.3 65.55 38.3 65.45 41.05 62.65 37.4 62.65 40.7 59.35 37.05 59.35 40.1 56.25 37.1 56.25 40.2 53.15 37.7 53.15 40.75 50.1 38.85 50.1 42.15 46.85 40.95 46.85 41.2 46.55 Q43.4 44.1 46.1 43.45 48.95 44.1 51.3 46.85 M41.05 62.65 L54.85 62.65 41.05 62.65 M83.1 117.9 L62.75 130.6 48.1 130.6 35.95 90.05 35.95 75.05 36.5 75.65 Q37.75 77.1 39.2 78.15 42.5 80.55 46.55 80.55 L47.7 80.5 54.4 99.8 48.95 102.4 48.95 113.6 51.25 113.6 62.95 113.6 Q70.45 113.25 77.15 111.25 L81.3 109.7 86.35 107.4 89.1 105.85 83.1 117.9 M58.95 77.55 L62.0 74.1 62.85 72.95 Q66.5 78.7 68.8 88.6 L68.6 88.85 64.3 93.0 58.95 77.55 M55.2 59.35 L40.7 59.35 55.2 59.35 M52.55 68.6 L45.05 68.6 52.55 68.6 M50.15 71.55 L46.6 71.55 50.15 71.55" fill="#333333" fill-opacity="0.0" fill-rule="evenodd" stroke="none"/>
      <path d="M134.45 46.8 L138.05 46.85 137.6 46.85 134.45 46.8" fill="url(#gradient65)" fill-rule="evenodd" stroke="none"/>
      <path d="M38.3 65.55 L38.2 65.55 38.3 65.45 38.3 65.55" fill="url(#gradient66)" fill-rule="evenodd" stroke="none"/>
      <path d="M121.95 60.8 Q120.95 67.25 118.75 73.25 L117.7 75.9 Q115.4 81.3 112.0 86.25 L110.45 88.45 105.55 94.25 102.9 91.4 105.2 88.45 106.8 86.25 108.9 82.9 Q111.0 79.45 112.5 75.9 L113.5 73.25 Q115.25 68.55 116.2 63.6 L121.95 60.8 M118.6 94.25 L115.95 91.4 118.25 88.45 119.85 86.25 122.0 82.9 125.05 86.25 122.0 82.9 125.55 75.9 126.6 73.25 Q128.5 68.05 129.45 62.45 L135.1 59.65 Q134.2 66.75 131.8 73.25 L130.75 75.9 Q128.45 81.3 125.05 86.25 L123.5 88.45 Q121.25 91.45 118.6 94.25 M108.9 82.9 L112.0 86.25 108.9 82.9 M148.15 59.65 Q147.2 66.75 144.85 73.25 L143.8 75.9 Q141.5 81.3 138.1 86.25 L136.5 88.45 131.65 94.25 129.0 91.4 131.3 88.45 132.85 86.25 135.0 82.9 Q137.05 79.45 138.55 75.9 L139.6 73.25 Q141.5 68.05 142.55 62.45 L148.15 59.65 M135.0 82.9 L138.1 86.25 135.0 82.9 M83.1 117.9 L89.1 105.85 92.0 103.95 92.55 103.55 115.05 103.55 110.35 112.7 110.2 113.1 106.75 109.0 93.65 109.0 89.2 117.9 83.1 117.9" fill="#4c4c4c" fill-opacity="0.0" fill-rule="evenodd" stroke="none"/>
      <path d="M20.6 8.85 L20.6 11.2 11.85 11.2 11.85 8.85 20.6 8.85" fill="url(#gradient67)" fill-rule="evenodd" stroke="none"/>
      <path d="M11.85 6.55 L11.85 6.45 Q11.9 5.3 12.2 4.3 L12.25 4.1 Q12.65 2.95 13.4 1.95 L13.45 1.9 14.05 1.2 Q15.05 0.25 16.25 0.0 17.8 0.35 19.05 1.9 L19.1 1.95 Q19.85 3.0 20.25 4.3 20.6 5.35 20.6 6.55 L20.6 8.85 11.85 8.85 11.85 6.65 11.85 6.55 20.6 6.55 11.85 6.55 M19.1 1.95 L13.4 1.95 19.1 1.95 M20.25 4.3 L12.2 4.3 20.25 4.3" fill="url(#gradient68)" fill-rule="evenodd" stroke="none"/>
      <path d="M20.6 11.2 L20.6 13.55 20.6 15.8 20.6 18.1 20.6 20.4 20.6 20.8 20.25 22.7 20.25 22.75 19.75 23.95 19.05 25.0 Q17.8 26.55 16.25 26.9 14.65 26.55 13.45 25.0 12.65 24.05 12.25 22.75 L12.25 22.7 Q11.9 21.75 11.9 20.8 L11.85 20.4 11.85 18.1 11.85 15.8 11.85 13.55 11.85 11.2 20.6 11.2 M19.05 25.0 L13.45 25.0 19.05 25.0 M11.85 13.55 L20.6 13.55 11.85 13.55 M11.85 15.8 L20.6 15.8 11.85 15.8 M20.6 18.1 L11.85 18.1 20.6 18.1 M12.25 22.7 L20.25 22.7 12.25 22.7 M11.85 20.4 L20.6 20.4 11.85 20.4" fill="url(#gradient69)" fill-rule="evenodd" stroke="none"/>
      <path d="M78.3 3.05 L132.95 3.05 133.2 4.05 133.7 6.8 78.95 6.8 78.7 4.85 78.3 3.05" fill="url(#gradient70)" fill-rule="evenodd" stroke="none"/>
      <path d="M78.95 6.8 L69.25 8.8 68.4 6.1 78.3 3.05 78.7 4.85 78.95 6.8" fill="#390000" fill-opacity="0.0" fill-rule="evenodd" stroke="none"/>
      <path d="M0.0 93.45 Q0.0 92.05 0.65 91.0 L1.05 90.35 1.1 90.3 Q2.1 89.1 3.45 89.1 4.85 89.1 5.85 90.35 6.45 91.1 6.7 91.95 L6.9 93.45 Q6.9 95.25 5.85 96.55 4.85 97.8 3.45 97.8 2.1 97.8 1.1 96.65 L1.05 96.55 0.65 95.95 Q0.0 94.85 0.0 93.45" fill="url(#gradient71)" fill-rule="evenodd" stroke="none"/>
      <path d="M78.3 3.05 L132.95 3.05 133.2 4.05 133.7 6.8 78.95 6.8 69.25 8.8 68.4 6.1 78.3 3.05 78.7 4.85 78.95 6.8 M145.6 37.95 L145.25 37.9 141.5 37.3 139.6 30.45 143.25 30.8 145.6 37.95 M99.1 31.35 L99.1 31.6 100.4 38.25 Q92.7 37.75 83.0 40.75 L81.55 38.05 Q83.65 37.05 85.65 36.2 90.7 34.0 95.3 32.6 L99.1 31.6 M116.2 63.6 L116.65 61.4 121.95 60.75 121.95 60.8 Q120.95 67.25 118.75 73.25 L117.7 75.9 Q115.4 81.3 112.0 86.25 L110.45 88.45 105.55 94.25 100.35 94.25 102.9 91.4 105.2 88.45 106.8 86.25 108.9 82.9 Q111.0 79.45 112.5 75.9 L113.5 73.25 Q115.25 68.55 116.2 63.6 L121.95 60.8 M105.55 94.25 L102.9 91.4 M115.95 91.4 L118.6 94.25 Q121.25 91.45 123.5 88.45 L125.05 86.25 122.0 82.9 119.85 86.25 118.25 88.45 115.95 91.4 113.4 94.25 118.6 94.25 M112.0 86.25 L108.9 82.9 M148.15 59.65 Q147.2 66.75 144.85 73.25 L143.8 75.9 Q141.5 81.3 138.1 86.25 L136.5 88.45 131.65 94.25 126.4 94.25 129.0 91.4 131.3 88.45 132.85 86.25 135.0 82.9 Q137.05 79.45 138.55 75.9 L139.6 73.25 Q141.5 68.05 142.55 62.45 L142.95 59.5 148.15 59.65 142.55 62.45 M135.1 59.65 Q134.2 66.75 131.8 73.25 L130.75 75.9 Q128.45 81.3 125.05 86.25 M135.1 59.65 L129.45 62.45 Q128.5 68.05 126.6 73.25 L125.55 75.9 122.0 82.9 M129.45 62.45 L129.8 59.9 135.1 59.65 M138.1 86.25 L135.0 82.9 M129.0 91.4 L131.65 94.25 M42.15 46.85 L51.3 46.85 Q48.95 44.1 46.1 43.45 43.4 44.1 41.2 46.55 L40.95 46.85 42.15 46.85 38.85 50.1 40.75 50.1 53.4 50.1 52.0 47.75 51.3 46.85 M11.85 6.55 L11.85 6.45 Q11.9 5.3 12.2 4.3 L12.25 4.1 Q12.65 2.95 13.4 1.95 L13.45 1.9 14.05 1.2 Q15.05 0.25 16.25 0.0 17.8 0.35 19.05 1.9 L19.1 1.95 Q19.85 3.0 20.25 4.3 20.6 5.35 20.6 6.55 L20.6 8.85 20.6 11.2 20.6 13.55 20.6 15.8 20.6 18.1 20.6 20.4 20.6 20.8 20.25 22.7 20.25 22.75 19.75 23.95 19.05 25.0 Q17.8 26.55 16.25 26.9 14.65 26.55 13.45 25.0 12.65 24.05 12.25 22.75 L12.25 22.7 Q11.9 21.75 11.9 20.8 L11.85 20.4 11.85 18.1 11.85 15.8 11.85 13.55 11.85 11.2 11.85 8.85 11.85 6.65 M11.85 6.55 L20.6 6.55 M13.4 1.95 L19.1 1.95 M13.45 25.0 L19.05 25.0 M12.2 4.3 L20.25 4.3 M20.6 15.8 L11.85 15.8 M20.6 13.55 L11.85 13.55 M11.85 11.2 L20.6 11.2 M20.6 8.85 L11.85 8.85 M20.6 20.4 L11.85 20.4 M20.25 22.7 L12.25 22.7 M11.85 18.1 L20.6 18.1 M40.75 50.1 L37.7 53.15 40.2 53.15 54.55 53.15 53.4 50.1 M40.2 53.15 L37.1 56.25 40.1 56.25 55.1 56.25 54.55 53.15 M38.3 65.45 L41.05 62.65 37.4 62.65 40.7 59.35 37.05 59.35 40.1 56.25 M38.3 65.55 L38.2 65.55 38.3 65.45 M38.3 65.55 L42.8 65.55 54.1 65.5 54.2 65.2 54.25 65.05 54.35 64.8 54.8 62.9 54.85 62.65 41.05 62.65 M0.0 93.45 Q0.0 92.05 0.65 91.0 L1.05 90.35 1.1 90.3 Q2.1 89.1 3.45 89.1 4.85 89.1 5.85 90.35 6.45 91.1 6.7 91.95 L6.9 93.45 Q6.9 95.25 5.85 96.55 4.85 97.8 3.45 97.8 2.1 97.8 1.1 96.65 L1.05 96.55 0.65 95.95 Q0.0 94.85 0.0 93.45 M89.1 105.85 L86.35 107.4 81.3 109.7 77.15 111.25 Q70.45 113.25 62.95 113.6 L51.25 113.6 48.95 113.6 48.95 102.4 54.4 99.8 47.7 80.5 46.55 80.55 Q42.5 80.55 39.2 78.15 37.75 77.1 36.5 75.65 L35.95 75.05 35.95 90.05 48.1 130.6 62.75 130.6 83.1 117.9 89.1 105.85 92.0 103.95 92.55 103.55 115.05 103.55 110.35 112.7 110.2 113.1 106.75 109.0 93.65 109.0 89.2 117.9 83.1 117.9 M58.95 77.55 L62.0 74.1 62.85 72.95 Q66.5 78.7 68.8 88.6 L68.6 88.85 64.3 93.0 58.95 77.55 M55.1 56.25 L55.2 58.6 55.2 59.35 54.85 62.65 M54.1 65.5 Q53.5 67.15 52.55 68.6 L52.0 69.4 51.25 70.4 50.15 71.55 Q48.3 73.15 46.2 73.7 L44.85 73.3 46.6 71.55 42.15 71.55 45.05 68.6 39.75 68.6 42.8 65.55 M46.6 71.55 L50.15 71.55 M45.05 68.6 L52.55 68.6 M40.7 59.35 L55.2 59.35" ffdec:has-small-stroke="true" ffdec:original-stroke-width="0.1" fill="none" stroke="#000000" stroke-linecap="round" stroke-linejoin="round" stroke-opacity="0.0" stroke-width="1.0"/>
    </g>
    <radialGradient cx="0" cy="0" gradientTransform="matrix(0.1017, 0.0, 0.0, 0.1017, 119.35, 16.35)" gradientUnits="userSpaceOnUse" id="gradient65" r="819.2" spreadMethod="pad">
      <stop offset="0.0" stop-color="#bbbbbb" stop-opacity="0.0"/>
      <stop offset="0.9882352941176471" stop-color="#666666" stop-opacity="0.0"/>
    </radialGradient>
    <linearGradient gradientTransform="matrix(0.0, 0.0018, -0.0018, 0.0, 46.5, 64.05)" gradientUnits="userSpaceOnUse" id="gradient66" spreadMethod="pad" x1="-819.2" x2="819.2">
      <stop offset="0.0" stop-color="#9a4706" stop-opacity="0.0"/>
      <stop offset="1.0" stop-color="#333333" stop-opacity="0.0"/>
    </linearGradient>
    <linearGradient gradientTransform="matrix(0.0053, 0.0, 0.0, 0.0014, 16.2, 10.0)" gradientUnits="userSpaceOnUse" id="gradient67" spreadMethod="pad" x1="-819.2" x2="819.2">
      <stop offset="0.0" stop-color="#661400" stop-opacity="0.0"/>
      <stop offset="1.0" stop-color="#330000" stop-opacity="0.0"/>
    </linearGradient>
    <linearGradient gradientTransform="matrix(0.0053, 0.0, 0.0, 0.0014, 16.2, 16.9)" gradientUnits="userSpaceOnUse" id="gradient68" spreadMethod="pad" x1="-819.2" x2="819.2">
      <stop offset="0.0" stop-color="#661400" stop-opacity="0.0"/>
      <stop offset="1.0" stop-color="#330000" stop-opacity="0.0"/>
    </linearGradient>
    <linearGradient gradientTransform="matrix(0.0053, 0.0, 0.0, 0.0014, 16.2, 12.35)" gradientUnits="userSpaceOnUse" id="gradient69" spreadMethod="pad" x1="-819.2" x2="819.2">
      <stop offset="0.0" stop-color="#661400" stop-opacity="0.0"/>
      <stop offset="1.0" stop-color="#330000" stop-opacity="0.0"/>
    </linearGradient>
    <radialGradient cx="0" cy="0" gradientTransform="matrix(0.0365, 0.0, 0.0, 0.0365, 108.05, 4.75)" gradientUnits="userSpaceOnUse" id="gradient70" r="819.2" spreadMethod="pad">
      <stop offset="0.6196078431372549" stop-color="#660000" stop-opacity="0.0"/>
      <stop offset="1.0" stop-color="#330000" stop-opacity="0.0"/>
    </radialGradient>
    <radialGradient cx="0" cy="0" gradientTransform="matrix(0.0055, 0.0, 0.0, 0.0055, 3.45, 93.45)" gradientUnits="userSpaceOnUse" id="gradient71" r="819.2" spreadMethod="pad">
      <stop offset="0.0" stop-color="#660000" stop-opacity="0.0"/>
      <stop offset="1.0" stop-color="#330000" stop-opacity="0.0"/>
    </radialGradient>
  </defs>
</svg>
