<?xml version="1.0" encoding="UTF-8" standalone="no"?>
<svg xmlns:ffdec="https://www.free-decompiler.com/flash" xmlns:xlink="http://www.w3.org/1999/xlink" ffdec:objectType="frame" height="86.4px" width="161.15px" xmlns="http://www.w3.org/2000/svg">
  <g transform="matrix(1.0, 0.0, 0.0, 1.0, 0.05, 0.05)">
    
    <use ffdec:characterId="1767" height="58.35" id="mcColor" transform="matrix(1.0, 0.0, 0.0, 1.0, 0.0, 9.1)" width="161.05" xlink:href="#sprite2"/>
    
    
  </g>
  <defs>
    <g id="sprite0">
      <use ffdec:characterId="1763" height="86.4" transform="matrix(1.0, 0.0, 0.0, 1.0, 0.0, 0.0)" width="161.15" xlink:href="#sprite1"/>
      <use ffdec:characterId="1792" height="50.5" transform="matrix(1.0, 0.0, 0.0, 1.0, 0.0, 0.0)" width="112.55" xlink:href="#shape1"/>
    </g>
    <g id="sprite1">
      <use ffdec:characterId="1762" height="86.4" transform="matrix(1.0, 0.0, 0.0, 1.0, 0.0, 0.0)" width="161.15" xlink:href="#shape0"/>
    </g>
    <g id="shape0">
      <path d="M121.8 36.0 L124.95 43.4 Q119.6 44.4 116.15 48.6 L115.6 49.25 Q113.55 52.0 112.25 55.95 L108.0 55.95 103.65 55.95 99.25 55.95 94.9 55.95 90.6 55.95 90.5 55.85 Q88.35 53.5 85.85 51.5 L81.65 48.55 77.7 46.25 Q75.8 45.25 73.8 44.4 71.85 43.55 69.85 42.85 L66.7 41.8 64.0 37.2 66.7 41.8 65.0 41.3 61.15 40.25 60.8 40.2 60.15 40.05 55.3 39.05 55.2 39.05 55.1 39.05 52.2 38.6 49.75 38.25 49.6 38.2 46.25 37.85 44.45 37.7 44.2 37.65 42.95 35.55 44.2 37.65 39.3 37.3 38.95 37.3 34.25 37.1 33.8 37.1 29.25 37.05 28.75 37.05 27.4 37.05 24.6 37.1 24.35 37.15 23.8 37.15 19.5 37.3 16.65 32.5 16.5 32.3 16.5 29.95 16.5 29.0 19.0 26.05 21.8 22.8 23.55 22.8 26.15 22.8 31.2 22.8 36.25 22.8 41.25 22.8 46.3 22.8 51.35 22.8 56.35 22.8 61.4 22.8 62.7 22.8 66.35 22.8 72.6 22.8 76.95 22.8 77.75 22.8 78.45 22.8 79.2 22.85 Q104.65 23.8 121.8 36.0 M69.3 16.5 L66.85 19.8 61.25 19.8 22.4 19.8 20.15 19.8 14.85 26.05 12.15 26.05 10.65 26.05 9.3 22.75 7.9 19.5 Q9.5 15.9 13.3 13.45 15.15 12.3 17.45 11.4 L18.5 11.0 19.8 10.65 24.15 9.6 27.25 9.1 27.3 9.1 31.45 9.1 33.8 9.1 49.7 9.1 Q56.7 9.85 61.6 11.65 66.55 13.55 69.3 16.5 M108.45 49.25 L115.6 49.25 108.45 49.25 M63.8 36.9 L62.3 34.4 62.3 30.15 Q88.8 31.6 106.3 49.25 L107.95 49.25 106.3 49.25 Q88.8 31.6 62.3 30.15 L62.3 34.4 63.8 36.9 M75.65 71.55 L76.25 73.2 69.4 73.2 63.45 73.2 61.25 74.85 59.5 74.85 61.25 74.85 63.45 73.2 69.4 73.2 71.65 75.75 68.9 81.85 64.35 81.85 68.9 81.85 80.85 81.85 73.95 86.3 58.45 86.3 64.35 81.85 59.0 81.85 55.75 74.85 59.5 74.85 59.1 73.8 59.35 73.8 Q62.55 73.45 64.1 71.45 L64.75 71.55 65.85 71.6 68.55 71.25 70.55 71.55 71.25 71.6 73.3 71.4 73.95 71.25 75.65 71.55 M16.0 61.55 Q13.75 60.65 11.1 59.9 7.1 58.75 2.3 57.95 L0.0 46.7 8.25 36.95 10.15 36.95 12.05 36.95 16.2 43.9 21.05 43.75 24.35 43.75 24.45 43.9 27.45 43.8 Q48.4 44.45 59.05 51.8 62.5 54.2 64.85 57.25 L55.25 67.45 49.1 67.45 25.75 67.45 Q23.8 65.55 21.1 63.95 L19.8 63.25 Q18.05 62.35 16.0 61.55 M57.85 35.25 L57.2 34.15 57.2 27.7 61.4 22.8 57.2 27.7 57.2 34.15 57.85 35.25 M62.3 30.15 L62.3 27.55 66.35 22.8 62.3 27.55 62.3 30.15 M42.75 35.25 L41.7 33.45 41.7 28.2 46.3 22.8 41.7 28.2 41.7 33.45 42.75 35.25 M47.8 35.25 L46.85 33.7 46.85 28.05 51.35 22.8 46.85 28.05 46.85 33.7 47.8 35.25 M52.85 35.25 L52.05 33.9 52.05 27.9 56.35 22.8 52.05 27.9 52.05 33.9 52.85 35.25 M30.55 15.35 L44.65 15.35 47.55 11.65 61.6 11.65 47.55 11.65 44.65 15.35 30.55 15.35 M53.05 35.55 L55.1 39.05 53.05 35.55 M48.0 35.55 L49.6 38.2 48.0 35.55 M58.05 35.55 L60.8 40.2 58.05 35.55 M29.7 15.35 L19.5 15.35 13.05 22.75 9.3 22.75 13.05 22.75 19.5 15.35 29.7 15.35 M22.85 35.55 L23.8 37.15 22.85 35.55 M22.65 35.25 L21.0 32.5 21.0 28.85 26.15 22.8 21.0 28.85 21.0 32.5 22.65 35.25 M27.65 35.25 L26.2 32.75 26.2 28.7 31.2 22.8 26.2 28.7 26.2 32.75 27.65 35.25 M33.8 37.1 L32.9 35.55 33.8 37.1 M37.75 35.25 L36.55 33.2 36.55 28.4 41.25 22.8 36.55 28.4 36.55 33.2 37.75 35.25 M32.7 35.25 L31.35 33.0 31.35 28.55 36.25 22.8 31.35 28.55 31.35 33.0 32.7 35.25 M28.75 37.05 L27.85 35.55 28.75 37.05 M38.95 37.3 L37.95 35.55 38.95 37.3 M40.75 82.95 L41.6 82.85 Q42.5 82.65 42.55 82.05 42.6 80.8 41.45 80.55 L40.7 80.55 Q40.75 79.95 41.55 79.9 L41.7 79.9 Q42.3 80.8 43.25 81.45 L43.1 82.7 Q42.8 83.45 41.65 83.5 40.85 83.4 40.75 82.95 M46.4 51.8 L59.05 51.8 46.4 51.8 M45.7 51.8 L44.05 51.8 34.35 59.9 11.1 59.9 34.35 59.9 44.05 51.8 45.7 51.8 M53.9 80.55 Q53.95 79.95 54.75 79.9 55.75 79.85 56.3 80.9 56.7 81.8 56.3 82.7 56.0 83.45 54.85 83.5 54.05 83.4 53.95 82.95 L54.8 82.85 Q55.7 82.65 55.75 82.05 55.8 80.8 54.65 80.55 L53.9 80.55 M49.85 81.45 L49.7 82.7 Q49.4 83.45 48.25 83.5 47.45 83.4 47.35 82.95 L48.2 82.85 Q49.1 82.65 49.15 82.05 49.2 80.8 48.05 80.55 L47.3 80.55 Q47.35 79.95 48.15 79.9 L48.3 79.9 Q48.9 80.8 49.85 81.45" fill="#666666" fill-rule="evenodd" stroke="none"/>
      <path d="M130.15 40.15 L129.95 39.7 154.9 39.7 156.4 43.4 153.6 44.3 Q152.15 42.5 150.3 42.15 L149.7 42.1 138.5 40.15 137.35 40.15 137.2 40.15 130.15 40.15 M34.7 83.05 L32.2 83.05 28.4 79.25 26.85 79.25 21.3 73.45 21.3 71.15 22.3 70.45 16.5 67.75 16.5 66.2 17.3 66.4 17.3 65.2 15.05 64.55 15.05 62.7 16.0 62.85 16.0 61.55 Q18.05 62.35 19.8 63.25 L21.1 63.95 Q21.15 65.25 21.5 66.4 L21.9 67.45 Q22.4 68.65 23.3 69.75 L24.2 70.8 Q26.9 73.4 31.85 73.8 L33.75 73.8 31.85 77.25 31.85 79.8 34.7 83.05 M10.15 36.95 L11.65 32.5 14.1 32.5 14.1 29.95 12.95 29.95 12.15 26.05 14.85 26.05 19.0 26.05 16.5 29.0 16.5 29.95 16.5 32.3 16.65 32.5 19.5 37.3 23.8 37.15 24.35 37.15 24.6 37.1 27.4 37.05 28.75 37.05 29.25 37.05 33.8 37.1 34.25 37.1 38.95 37.3 39.3 37.3 44.2 37.65 44.45 37.7 46.25 37.85 49.6 38.2 49.75 38.25 52.2 38.6 55.1 39.05 55.2 39.05 55.3 39.05 Q53.55 42.15 52.85 45.85 L51.3 45.5 51.3 45.45 51.55 44.6 51.3 43.8 Q51.05 43.45 50.7 43.45 50.35 43.45 50.1 43.8 49.85 44.15 49.85 44.6 L50.0 45.25 49.0 45.1 49.1 44.6 48.85 43.8 Q48.6 43.45 48.25 43.45 47.9 43.45 47.65 43.8 47.4 44.15 47.4 44.6 L47.4 44.8 46.6 44.7 46.6 44.6 46.35 43.8 Q46.1 43.45 45.75 43.45 45.4 43.45 45.15 43.8 L44.95 44.5 29.05 43.75 27.45 43.8 25.75 43.75 24.35 43.75 21.05 43.75 19.0 40.35 17.0 36.95 12.05 36.95 10.15 36.95 M13.3 13.45 L7.1 2.45 7.1 0.35 8.3 0.0 17.45 11.4 Q15.15 12.3 13.3 13.45 M27.3 9.1 L25.15 2.45 25.5 0.35 26.65 0.0 31.45 9.1 27.3 9.1 M62.7 22.8 L61.4 22.8 56.35 22.8 51.35 22.8 46.3 22.8 41.25 22.8 36.25 22.8 31.2 22.8 26.15 22.8 23.55 22.8 22.4 19.8 61.25 19.8 62.7 22.8 M46.25 37.85 L44.75 40.1 41.0 40.1 44.75 40.1 46.25 37.85 M51.05 40.4 L49.85 42.35 46.95 42.35 28.4 42.35 26.4 40.35 19.0 40.35 26.4 40.35 28.4 42.35 46.95 42.35 49.2 39.0 46.95 42.35 49.85 42.35 51.05 40.4 M52.2 38.6 L51.25 40.1 52.2 38.6 M52.75 42.35 L49.85 42.35 52.75 42.35 M40.5 40.1 L29.95 40.1 27.4 37.05 29.95 40.1 40.5 40.1 M14.5 32.5 L14.1 32.5 14.5 32.5 M14.5 29.95 L14.1 29.95 14.5 29.95 M16.65 32.5 L14.85 32.5 16.65 32.5 M16.5 29.95 L14.85 29.95 16.5 29.95 M22.35 38.65 L22.1 37.85 21.5 37.5 Q21.15 37.5 20.9 37.85 20.65 38.2 20.65 38.65 20.65 39.15 20.9 39.5 21.15 39.85 21.5 39.85 L22.1 39.5 22.35 38.65 M24.85 38.65 L24.6 37.85 Q24.35 37.5 23.95 37.5 23.65 37.5 23.4 37.85 23.15 38.2 23.15 38.65 L23.4 39.5 Q23.65 39.85 23.95 39.85 24.35 39.85 24.6 39.5 L24.85 38.65 M27.3 38.65 L27.05 37.85 Q26.8 37.5 26.45 37.5 26.1 37.5 25.85 37.85 L25.6 38.65 Q25.6 39.15 25.85 39.5 26.1 39.85 26.45 39.85 26.8 39.85 27.05 39.5 L27.3 38.65 M22.3 70.45 L23.3 69.75 22.3 70.45 M17.3 65.2 L21.5 66.4 17.3 65.2 M17.3 66.4 L21.9 67.45 17.3 66.4 M34.65 73.8 L35.25 72.95 Q36.05 71.8 37.15 71.95 38.15 72.15 38.35 73.2 L38.15 73.8 37.8 74.1 Q36.25 74.95 36.2 76.4 36.15 78.85 38.45 80.0 L40.7 80.55 41.45 80.55 Q42.6 80.8 42.55 82.05 42.5 82.65 41.6 82.85 L40.75 82.95 Q39.2 82.95 37.15 81.75 34.5 80.2 34.1 77.3 33.9 75.8 34.3 74.6 L34.65 73.8 M41.25 73.8 L41.85 72.95 Q42.65 71.8 43.75 71.95 44.75 72.15 44.95 73.2 L44.75 73.8 44.4 74.1 Q42.85 74.95 42.8 76.4 42.75 78.85 45.05 80.0 L47.3 80.55 48.05 80.55 Q49.2 80.8 49.15 82.05 49.1 82.65 48.2 82.85 L47.35 82.95 Q45.8 82.95 43.75 81.75 L43.25 81.45 Q42.3 80.8 41.7 79.9 40.9 78.8 40.7 77.3 40.5 75.8 40.9 74.6 L41.25 73.8 M47.85 73.8 L48.45 72.95 Q49.25 71.8 50.35 71.95 51.35 72.15 51.55 73.2 L51.35 73.8 51.0 74.1 Q49.45 74.95 49.4 76.4 49.35 78.85 51.65 80.0 52.7 80.5 53.9 80.55 L54.65 80.55 Q55.8 80.8 55.75 82.05 55.7 82.65 54.8 82.85 L53.95 82.95 Q52.4 82.95 50.35 81.75 L49.85 81.45 Q48.9 80.8 48.3 79.9 47.5 78.8 47.3 77.3 47.1 75.8 47.5 74.6 L47.85 73.8 M19.8 63.25 L17.85 63.05 19.8 63.25 M17.6 63.0 L16.0 62.85 17.6 63.0" fill="#333333" fill-rule="evenodd" stroke="none"/>
      <path d="M156.4 43.4 L154.9 39.7 129.95 39.7 130.15 40.15 131.55 43.4 124.95 43.4 121.8 36.0 158.1 36.0 161.05 43.4 156.4 43.4" fill="#7c7c7c" fill-rule="evenodd" stroke="none"/>
      <path d="M58.45 86.3 L37.55 86.3 34.7 83.05 31.85 79.8 31.85 77.25 33.75 73.8 34.65 73.8 34.3 74.6 Q33.9 75.8 34.1 77.3 34.5 80.2 37.15 81.75 39.2 82.95 40.75 82.95 40.85 83.4 41.65 83.5 42.8 83.45 43.1 82.7 L43.25 81.45 43.75 81.75 Q45.8 82.95 47.35 82.95 47.45 83.4 48.25 83.5 49.4 83.45 49.7 82.7 L49.85 81.45 50.35 81.75 Q52.4 82.95 53.95 82.95 54.05 83.4 54.85 83.5 56.0 83.45 56.3 82.7 56.7 81.8 56.3 80.9 55.75 79.85 54.75 79.9 53.95 79.95 53.9 80.55 52.7 80.5 51.65 80.0 49.35 78.85 49.4 76.4 49.45 74.95 51.0 74.1 L51.35 73.8 59.1 73.8 59.5 74.85 55.75 74.85 59.0 81.85 64.35 81.85 58.45 86.3 M8.3 0.0 L9.95 0.0 19.8 10.65 18.5 11.0 17.45 11.4 8.3 0.0 M26.65 0.0 L28.05 0.0 33.8 9.1 31.45 9.1 26.65 0.0 M40.7 80.55 L38.45 80.0 Q36.15 78.85 36.2 76.4 36.25 74.95 37.8 74.1 L38.15 73.8 41.25 73.8 40.9 74.6 Q40.5 75.8 40.7 77.3 40.9 78.8 41.7 79.9 L41.55 79.9 Q40.75 79.95 40.7 80.55 M44.75 73.8 L47.85 73.8 47.5 74.6 Q47.1 75.8 47.3 77.3 47.5 78.8 48.3 79.9 L48.15 79.9 Q47.35 79.95 47.3 80.55 L45.05 80.0 Q42.75 78.85 42.8 76.4 42.85 74.95 44.4 74.1 L44.75 73.8" fill="#4c4c4c" fill-rule="evenodd" stroke="none"/>
      <path d="M44.95 44.5 L45.15 43.8 Q45.4 43.45 45.75 43.45 46.1 43.45 46.35 43.8 L46.6 44.6 46.6 44.7 44.95 44.5 M47.4 44.8 L47.4 44.6 Q47.4 44.15 47.65 43.8 47.9 43.45 48.25 43.45 48.6 43.45 48.85 43.8 L49.1 44.6 49.0 45.1 47.4 44.8 M50.0 45.25 L49.85 44.6 Q49.85 44.15 50.1 43.8 50.35 43.45 50.7 43.45 51.05 43.45 51.3 43.8 L51.55 44.6 51.3 45.45 51.3 45.5 50.0 45.25 M27.3 38.65 L27.05 39.5 Q26.8 39.85 26.45 39.85 26.1 39.85 25.85 39.5 25.6 39.15 25.6 38.65 L25.85 37.85 Q26.1 37.5 26.45 37.5 26.8 37.5 27.05 37.85 L27.3 38.65 M24.85 38.65 L24.6 39.5 Q24.35 39.85 23.95 39.85 23.65 39.85 23.4 39.5 L23.15 38.65 Q23.15 38.2 23.4 37.85 23.65 37.5 23.95 37.5 24.35 37.5 24.6 37.85 L24.85 38.65 M22.35 38.65 L22.1 39.5 21.5 39.85 Q21.15 39.85 20.9 39.5 20.65 39.15 20.65 38.65 20.65 38.2 20.9 37.85 21.15 37.5 21.5 37.5 L22.1 37.85 22.35 38.65" fill="#cc0000" fill-rule="evenodd" stroke="none"/>
      <path d="M12.05 36.95 L17.0 36.95 19.0 40.35 21.05 43.75 16.2 43.9 12.05 36.95" fill="#a1a1a1" fill-rule="evenodd" stroke="none"/>
      <path d="M80.85 22.8 L78.45 22.8 77.75 22.8 76.95 22.8 72.6 22.8 66.35 22.8 62.7 22.8 61.25 19.8 66.85 19.8 69.3 16.5 95.7 16.5 93.25 19.8 79.4 19.8 66.85 19.8 79.4 19.8 80.85 22.8 M22.4 19.8 L23.55 22.8 21.8 22.8 19.0 26.05 14.85 26.05 20.15 19.8 22.4 19.8 M55.25 67.45 L64.85 57.25 73.1 57.25 69.9 60.65 66.3 64.5 63.45 67.45 62.95 67.45 57.55 67.45 55.25 67.45" fill="#545454" fill-rule="evenodd" stroke="none"/>
      <path d="M76.25 73.2 L87.25 73.2 90.3 75.75 71.65 75.75 69.4 73.2 76.25 73.2" fill="#999999" fill-rule="evenodd" stroke="none"/>
      <path d="M90.3 75.75 L85.9 81.85 80.85 81.85 68.9 81.85 71.65 75.75 90.3 75.75" fill="#7f7f7f" fill-rule="evenodd" stroke="none"/>
      <path d="M107.15 22.8 L107.9 22.85 Q130.65 23.7 146.75 33.5 L142.6 33.5 Q126.5 23.7 103.8 22.85 L103.0 22.8 107.15 22.8 M70.3 9.1 Q77.3 9.85 82.2 11.65 84.9 12.65 86.95 14.0 L83.0 14.0 Q80.95 12.65 78.25 11.65 L78.2 11.65 Q73.3 9.85 66.35 9.1 L70.3 9.1" fill="#680000" fill-rule="evenodd" stroke="none"/>
      <path d="M153.6 44.3 L156.4 43.4 161.05 43.4 Q157.5 44.1 154.85 46.4 L153.75 44.5 153.6 44.3 M124.95 43.4 L131.55 43.4 Q125.75 44.5 122.2 49.25 L121.6 50.15 Q119.95 52.6 118.85 55.95 L117.4 55.95 112.35 55.95 112.25 55.95 Q113.55 52.0 115.6 49.25 L116.15 48.6 Q119.6 44.4 124.95 43.4 M115.6 49.25 L118.85 49.25 115.6 49.25 M119.3 49.25 L122.2 49.25 119.3 49.25" fill="url(#gradient0)" fill-rule="evenodd" stroke="none"/>
      <path d="M130.15 40.15 L137.2 40.15 137.35 40.15 138.5 40.15 149.7 42.1 136.0 42.1 135.65 42.1 133.55 42.5 Q132.15 43.1 131.05 44.5 129.15 46.85 129.15 50.25 129.15 53.2 130.6 55.35 L131.0 55.95 131.05 56.05 132.3 57.3 137.5 61.0 137.55 61.0 Q140.05 62.4 142.1 62.4 L143.7 62.4 144.75 62.3 134.25 64.95 131.35 64.95 Q128.25 64.8 125.75 63.1 L125.7 63.05 120.6 59.45 119.7 58.8 119.4 58.5 119.2 58.35 118.4 57.45 117.4 55.95 118.85 55.95 Q119.95 52.6 121.6 50.15 L122.2 49.25 Q125.75 44.5 131.55 43.4 L130.15 40.15" fill="url(#gradient1)" fill-rule="evenodd" stroke="none"/>
      <path d="M149.7 42.1 L150.3 42.15 Q152.15 42.5 153.6 44.3 L153.75 44.5 154.85 46.4 Q155.5 48.05 155.55 50.05 L155.55 50.45 Q155.5 53.7 153.75 56.05 L152.55 57.3 147.7 61.0 Q146.6 61.9 144.85 62.25 L144.75 62.3 143.7 62.4 142.1 62.4 Q140.05 62.4 137.55 61.0 L137.5 61.0 132.3 57.3 131.05 56.05 131.0 55.95 130.6 55.35 Q129.15 53.2 129.15 50.25 129.15 46.85 131.05 44.5 132.15 43.1 133.55 42.5 L135.65 42.1 136.0 42.1 149.7 42.1 M139.1 58.65 Q141.05 59.85 142.9 59.9 L143.65 59.9 Q145.1 59.75 146.55 58.55 L151.85 54.55 152.25 54.05 Q153.55 52.5 153.55 50.25 153.55 48.85 153.05 47.75 L152.25 46.45 151.05 45.35 Q150.2 44.9 149.25 44.9 L136.15 44.9 Q134.65 44.9 133.55 46.0 L133.15 46.45 132.9 46.8 Q131.9 48.25 131.9 50.25 L132.1 51.9 Q132.35 52.9 132.9 53.7 L133.15 54.05 133.55 54.5 133.8 54.75 139.1 58.65" fill="url(#gradient2)" fill-rule="evenodd" stroke="none"/>
      <path d="M132.9 46.8 L133.15 46.45 133.55 46.0 Q134.65 44.9 136.15 44.9 L149.25 44.9 Q150.2 44.9 151.05 45.35 L152.25 46.45 153.05 47.75 Q153.55 48.85 153.55 50.25 153.55 52.5 152.25 54.05 L151.85 54.55 146.55 58.55 Q145.1 59.75 143.65 59.9 L142.9 59.9 Q141.05 59.85 139.1 58.65 139.9 59.1 140.95 59.15 142.35 59.15 144.0 58.05 L150.3 53.25 Q151.3 52.0 151.3 50.25 L151.3 49.95 151.2 49.25 Q151.0 48.15 150.3 47.25 149.9 46.8 149.45 46.5 L149.25 46.35 Q148.65 46.05 147.9 46.05 L134.8 46.05 Q134.1 46.05 133.55 46.35 L132.9 46.8" fill="url(#gradient3)" fill-rule="evenodd" stroke="none"/>
      <path d="M139.1 58.65 L133.8 54.75 133.55 54.5 133.15 54.05 132.9 53.7 Q132.35 52.9 132.1 51.9 L131.9 50.25 Q131.9 48.25 132.9 46.8 L133.55 46.35 Q134.1 46.05 134.8 46.05 L147.9 46.05 Q148.65 46.05 149.25 46.35 L149.45 46.5 Q149.9 46.8 150.3 47.25 151.0 48.15 151.2 49.25 L151.3 49.95 151.3 50.25 Q151.3 52.0 150.3 53.25 L144.0 58.05 Q142.35 59.15 140.95 59.15 139.9 59.1 139.1 58.65" fill="url(#gradient4)" fill-rule="evenodd" stroke="none"/>
      <path d="M158.1 36.0 L121.8 36.0 Q104.65 23.8 79.2 22.85 L78.45 22.8 80.85 22.8 95.6 22.8 96.35 22.85 Q119.1 23.7 135.2 33.5 L142.6 33.5 146.75 33.5 Q130.65 23.7 107.9 22.85 L107.15 22.8 111.7 22.8 Q132.2 22.4 147.4 29.55 L151.55 31.7 154.8 33.65 Q156.5 34.75 158.1 36.0" fill="url(#gradient5)" fill-rule="evenodd" stroke="none"/>
      <path d="M142.6 33.5 L135.2 33.5 Q119.1 23.7 96.35 22.85 L95.6 22.8 103.0 22.8 103.8 22.85 Q126.5 23.7 142.6 33.5" fill="url(#gradient6)" fill-rule="evenodd" stroke="none"/>
      <path d="M87.95 11.65 L86.5 11.65 87.95 11.65 Q92.95 13.5 95.7 16.5 L69.3 16.5 Q66.55 13.55 61.6 11.65 L69.0 11.65 61.6 11.65 Q56.7 9.85 49.7 9.1 L61.25 9.1 Q68.2 9.85 73.1 11.65 L73.15 11.65 Q75.8 12.65 77.85 14.0 L83.0 14.0 86.95 14.0 Q84.9 12.65 82.2 11.65 77.3 9.85 70.3 9.1 L76.1 9.1 Q83.05 9.85 87.95 11.65 M85.85 11.65 L82.2 11.65 85.85 11.65 M69.65 11.65 L73.1 11.65 69.65 11.65" fill="url(#gradient7)" fill-rule="evenodd" stroke="none"/>
      <path d="M112.25 55.95 L112.35 55.95 Q112.6 57.05 113.6 58.05 115.15 59.25 116.85 58.95 L119.4 58.5 119.7 58.8 119.55 59.05 119.05 59.75 Q117.7 61.4 116.05 61.9 L114.5 62.1 114.25 62.1 113.25 62.0 112.45 61.7 110.75 60.55 110.25 60.05 109.45 59.05 109.05 58.3 108.0 55.95 112.25 55.95" fill="url(#gradient8)" fill-rule="evenodd" stroke="none"/>
      <path d="M112.35 55.95 L117.4 55.95 118.4 57.45 119.2 58.35 119.4 58.5 116.85 58.95 Q115.15 59.25 113.6 58.05 112.6 57.05 112.35 55.95" fill="url(#gradient9)" fill-rule="evenodd" stroke="none"/>
      <path d="M119.05 59.75 L119.05 59.8 119.25 60.05 119.55 60.5 120.95 61.85 Q121.8 62.55 122.7 62.85 L124.5 63.15 Q122.9 64.2 121.0 64.2 L119.25 64.0 117.5 63.15 Q116.7 62.65 116.05 61.9 117.7 61.4 119.05 59.75" fill="url(#gradient10)" fill-rule="evenodd" stroke="none"/>
      <path d="M119.05 59.75 L119.55 59.05 119.7 58.8 120.6 59.45 125.7 63.05 124.6 63.15 124.5 63.15 122.7 62.85 Q121.8 62.55 120.95 61.85 L119.55 60.5 119.25 60.05 119.05 59.8 119.05 59.75" fill="url(#gradient11)" fill-rule="evenodd" stroke="none"/>
      <path d="M103.65 55.95 L103.8 56.6 Q104.35 58.3 105.35 59.8 L105.55 60.05 Q106.35 61.15 107.25 61.85 L109.0 62.85 110.8 63.15 Q109.7 63.9 108.5 64.1 L107.35 64.2 107.3 64.2 105.55 64.0 103.8 63.15 Q102.85 62.55 102.05 61.6 L101.25 60.55 100.95 60.05 100.35 59.0 Q99.65 57.55 99.25 55.95 L103.65 55.95" fill="url(#gradient12)" fill-rule="evenodd" stroke="none"/>
      <path d="M110.8 63.15 L109.0 62.85 107.25 61.85 Q106.35 61.15 105.55 60.05 L105.35 59.8 Q104.35 58.3 103.8 56.6 L103.65 55.95 108.0 55.95 109.05 58.3 109.45 59.05 110.25 60.05 110.75 60.55 112.45 61.7 113.25 62.0 114.25 62.1 113.25 62.7 112.3 63.0 110.9 63.15 110.8 63.15" fill="url(#gradient13)" fill-rule="evenodd" stroke="none"/>
      <path d="M99.25 55.95 Q99.65 57.55 100.35 59.0 L100.95 60.05 101.25 60.55 102.05 61.6 Q102.85 62.55 103.8 63.15 L105.55 64.0 107.3 64.2 107.35 64.2 Q106.1 65.0 104.75 65.2 L103.95 65.25 103.7 65.25 102.1 65.1 100.3 64.35 98.6 63.05 97.15 61.3 96.9 60.9 96.4 60.05 Q95.65 58.6 95.15 56.95 L94.9 55.95 99.25 55.95" fill="url(#gradient14)" fill-rule="evenodd" stroke="none"/>
      <path d="M108.5 64.1 Q109.7 63.9 110.8 63.15 L110.9 63.15 112.3 63.0 112.3 63.05 114.0 64.35 115.8 65.1 117.4 65.25 117.6 65.25 Q116.0 66.25 114.15 66.35 L113.8 66.35 112.35 66.2 110.55 65.6 Q109.65 65.1 108.8 64.4 L108.65 64.25 108.5 64.1" fill="url(#gradient15)" fill-rule="evenodd" stroke="none"/>
      <path d="M107.35 64.2 L108.5 64.1 108.65 64.25 108.8 64.4 Q109.65 65.1 110.55 65.6 L112.35 66.2 113.8 66.35 114.15 66.35 Q112.55 67.25 110.7 67.35 L110.2 67.35 108.9 67.25 108.65 67.2 107.1 66.7 Q106.2 66.35 105.35 65.7 L104.75 65.2 Q106.1 65.0 107.35 64.2" fill="url(#gradient16)" fill-rule="evenodd" stroke="none"/>
      <path d="M104.75 65.2 L105.35 65.7 Q106.2 66.35 107.1 66.7 L108.65 67.2 108.9 67.25 110.2 67.35 110.7 67.35 108.65 68.2 107.25 68.4 106.6 68.4 105.45 68.35 103.6 67.9 Q102.2 67.35 100.95 66.3 102.5 66.1 103.95 65.25 L104.75 65.2" fill="url(#gradient17)" fill-rule="evenodd" stroke="none"/>
      <path d="M103.95 65.25 Q102.5 66.1 100.95 66.3 L100.45 66.35 100.1 66.35 98.65 66.2 96.85 65.6 95.1 64.4 94.95 64.25 93.4 62.55 93.0 62.0 92.05 60.4 91.9 60.05 Q91.0 58.15 90.55 55.95 L90.5 55.85 90.6 55.95 94.9 55.95 95.15 56.95 Q95.65 58.6 96.4 60.05 L96.9 60.9 97.15 61.3 98.6 63.05 100.3 64.35 102.1 65.1 103.7 65.25 103.95 65.25" fill="url(#gradient18)" fill-rule="evenodd" stroke="none"/>
      <path d="M97.2 67.35 Q98.7 68.55 100.4 69.1 L102.0 69.45 103.0 69.45 103.8 69.45 Q102.3 70.25 100.65 70.45 L100.3 70.5 99.4 70.5 Q96.1 70.5 93.45 68.45 L93.55 68.4 94.95 68.2 Q96.0 67.95 97.0 67.35 L97.2 67.35" fill="url(#gradient19)" fill-rule="evenodd" stroke="none"/>
      <path d="M100.95 66.3 Q102.2 67.35 103.6 67.9 L105.45 68.35 106.6 68.4 107.25 68.4 Q105.6 69.3 103.8 69.45 L103.0 69.45 102.0 69.45 100.4 69.1 Q98.7 68.55 97.2 67.35 98.9 67.2 100.45 66.35 L100.95 66.3" fill="url(#gradient20)" fill-rule="evenodd" stroke="none"/>
      <path d="M112.3 63.0 L113.25 62.7 114.25 62.1 114.5 62.1 116.05 61.9 Q116.7 62.65 117.5 63.15 L119.25 64.0 121.0 64.2 Q119.45 65.2 117.6 65.25 L117.4 65.25 115.8 65.1 114.0 64.35 112.3 63.05 112.3 63.0" fill="url(#gradient21)" fill-rule="evenodd" stroke="none"/>
      <path d="M90.5 55.85 L90.55 55.95 Q91.0 58.15 91.9 60.05 L92.05 60.4 93.0 62.0 93.4 62.55 94.95 64.25 95.1 64.4 96.85 65.6 98.65 66.2 100.1 66.35 100.45 66.35 Q98.9 67.2 97.2 67.35 L97.0 67.35 96.5 67.35 95.2 67.25 94.95 67.2 93.4 66.7 91.65 65.7 Q90.2 64.6 88.95 62.75 L87.6 60.4 87.45 60.05 Q85.8 56.35 85.8 51.6 L85.85 51.5 Q88.35 53.5 90.5 55.85" fill="url(#gradient22)" fill-rule="evenodd" stroke="none"/>
      <path d="M97.0 67.35 Q96.0 67.95 94.95 68.2 L93.55 68.4 93.4 68.4 92.9 68.4 91.75 68.35 89.9 67.9 Q88.2 67.25 86.7 65.8 L84.8 63.5 Q83.8 62.05 83.1 60.4 L82.35 58.1 Q81.5 55.1 81.5 51.6 81.5 50.0 81.65 48.55 L85.85 51.5 85.8 51.6 Q85.8 56.35 87.45 60.05 L87.6 60.4 88.95 62.75 Q90.2 64.6 91.65 65.7 L93.4 66.7 94.95 67.2 95.2 67.25 96.5 67.35 97.0 67.35" fill="url(#gradient23)" fill-rule="evenodd" stroke="none"/>
      <path d="M81.65 48.55 Q81.5 50.0 81.5 51.6 81.5 55.1 82.35 58.1 L83.1 60.4 Q83.8 62.05 84.8 63.5 L86.7 65.8 Q88.2 67.25 89.9 67.9 L91.75 68.35 92.9 68.4 93.4 68.4 93.45 68.45 Q91.85 69.3 90.1 69.45 L89.6 69.45 89.3 69.45 88.3 69.45 86.7 69.1 Q83.3 68.05 80.7 64.25 79.5 62.45 78.7 60.4 L78.0 58.1 Q77.2 55.1 77.2 51.6 77.2 48.75 77.7 46.25 L81.65 48.55" fill="url(#gradient24)" fill-rule="evenodd" stroke="none"/>
      <path d="M84.0 71.4 L83.9 71.45 82.05 71.6 79.35 71.25 Q76.0 70.25 73.3 66.9 L72.45 65.75 Q70.9 63.35 69.9 60.65 L73.1 57.25 Q71.2 54.75 68.55 52.7 L68.5 51.6 Q68.5 46.85 69.85 42.85 71.85 43.55 73.8 44.4 72.85 47.7 72.85 51.6 72.85 55.1 73.6 58.1 L74.3 60.4 Q75.15 62.85 76.6 65.0 80.35 70.5 85.7 70.5 L86.6 70.5 86.3 70.65 84.0 71.4" fill="url(#gradient25)" fill-rule="evenodd" stroke="none"/>
      <path d="M93.45 68.45 Q96.1 70.5 99.4 70.5 L100.3 70.5 Q98.2 71.6 95.75 71.6 L93.05 71.25 Q91.3 70.75 89.8 69.6 L90.1 69.45 Q91.85 69.3 93.45 68.45" fill="url(#gradient26)" fill-rule="evenodd" stroke="none"/>
      <path d="M90.1 69.45 L89.8 69.6 86.95 70.45 86.6 70.5 85.7 70.5 Q80.35 70.5 76.6 65.0 75.15 62.85 74.3 60.4 L73.6 58.1 Q72.85 55.1 72.85 51.6 72.85 47.7 73.8 44.4 75.8 45.25 77.7 46.25 77.2 48.75 77.2 51.6 77.2 55.1 78.0 58.1 L78.7 60.4 Q79.5 62.45 80.7 64.25 83.3 68.05 86.7 69.1 L88.3 69.45 89.3 69.45 89.6 69.45 90.1 69.45" fill="url(#gradient27)" fill-rule="evenodd" stroke="none"/>
      <path d="M86.3 70.65 L87.0 71.05 87.65 71.25 87.0 71.4 Q85.4 71.7 84.0 71.4 L86.3 70.65" fill="url(#gradient28)" fill-rule="evenodd" stroke="none"/>
      <path d="M89.8 69.6 Q91.3 70.75 93.05 71.25 L90.35 71.6 87.65 71.25 87.0 71.05 86.3 70.65 86.6 70.5 86.95 70.45 89.8 69.6" fill="url(#gradient29)" fill-rule="evenodd" stroke="none"/>
      <path d="M61.25 9.1 L66.35 9.1 Q73.3 9.85 78.2 11.65 L78.25 11.65 Q80.95 12.65 83.0 14.0 L77.85 14.0 Q75.8 12.65 73.15 11.65 L73.1 11.65 Q68.2 9.85 61.25 9.1" fill="url(#gradient30)" fill-rule="evenodd" stroke="none"/>
      <path d="M46.6 44.7 L47.4 44.8 49.0 45.1 50.0 45.25 51.3 45.5 52.85 45.85 58.0 47.3 Q60.8 48.25 63.2 49.4 65.4 50.5 67.3 51.8 L68.55 52.7 Q71.2 54.75 73.1 57.25 L64.85 57.25 Q62.5 54.2 59.05 51.8 48.4 44.45 27.45 43.8 L29.05 43.75 44.95 44.5 46.6 44.7 M62.55 51.8 L59.05 51.8 62.55 51.8 M67.3 51.8 L63.2 51.8 67.3 51.8" fill="url(#gradient31)" fill-rule="evenodd" stroke="none"/>
      <path d="M52.85 45.85 Q53.55 42.15 55.3 39.05 L60.15 40.05 Q58.55 43.35 58.0 47.3 L52.85 45.85 M62.95 67.45 Q65.45 70.35 68.55 71.25 L65.85 71.6 64.75 71.55 64.1 71.45 Q60.4 70.8 57.55 67.45 L62.95 67.45" fill="url(#gradient32)" fill-rule="evenodd" stroke="none"/>
      <path d="M60.15 40.05 L60.8 40.2 61.15 40.25 65.0 41.3 Q63.5 45.0 63.2 49.4 60.8 48.25 58.0 47.3 58.55 43.35 60.15 40.05 M66.3 64.5 L67.05 65.75 Q69.8 69.75 73.3 71.05 L73.95 71.25 73.3 71.4 71.25 71.6 70.55 71.55 68.55 71.25 Q65.45 70.35 62.95 67.45 L63.45 67.45 66.3 64.5" fill="url(#gradient33)" fill-rule="evenodd" stroke="none"/>
      <path d="M79.35 71.25 L76.65 71.6 75.65 71.55 73.95 71.25 73.3 71.05 Q69.8 69.75 67.05 65.75 L66.3 64.5 69.9 60.65 Q70.9 63.35 72.45 65.75 L73.3 66.9 Q76.0 70.25 79.35 71.25 M63.2 49.4 Q63.5 45.0 65.0 41.3 L66.7 41.8 69.85 42.85 Q68.5 46.85 68.5 51.6 L68.55 52.7 67.3 51.8 Q65.4 50.5 63.2 49.4" fill="url(#gradient34)" fill-rule="evenodd" stroke="none"/>
      <path d="M33.75 73.8 L31.85 73.8 Q26.9 73.4 24.2 70.8 L23.3 69.75 Q22.4 68.65 21.9 67.45 L21.5 66.4 Q21.15 65.25 21.1 63.95 23.8 65.55 25.75 67.45 L49.1 67.45 Q49.9 69.25 51.45 70.8 54.1 73.4 59.1 73.8 L51.35 73.8 51.55 73.2 Q51.35 72.15 50.35 71.95 49.25 71.8 48.45 72.95 L47.85 73.8 44.75 73.8 44.95 73.2 Q44.75 72.15 43.75 71.95 42.65 71.8 41.85 72.95 L41.25 73.8 38.15 73.8 38.35 73.2 Q38.15 72.15 37.15 71.95 36.05 71.8 35.25 72.95 L34.65 73.8 33.75 73.8" fill="url(#gradient35)" fill-rule="evenodd" stroke="none"/>
      <path d="M59.1 73.8 Q54.1 73.4 51.45 70.8 49.9 69.25 49.1 67.45 L55.25 67.45 57.55 67.45 Q60.4 70.8 64.1 71.45 62.55 73.45 59.35 73.8 L59.1 73.8" fill="url(#gradient36)" fill-rule="evenodd" stroke="none"/>
      <path d="M156.4 43.4 L154.9 39.7 129.95 39.7 130.15 40.15 137.2 40.15 137.35 40.15 138.5 40.15 149.7 42.1 150.3 42.15 Q152.15 42.5 153.6 44.3 L156.4 43.4 161.05 43.4 158.1 36.0 121.8 36.0 124.95 43.4 131.55 43.4 130.15 40.15 M122.2 49.25 Q125.75 44.5 131.55 43.4 M144.75 62.3 L143.7 62.4 142.1 62.4 Q140.05 62.4 137.55 61.0 L137.5 61.0 132.3 57.3 131.05 56.05 131.0 55.95 130.6 55.35 Q129.15 53.2 129.15 50.25 129.15 46.85 131.05 44.5 132.15 43.1 133.55 42.5 L135.65 42.1 136.0 42.1 149.7 42.1 M132.9 46.8 L133.15 46.45 133.55 46.0 Q134.65 44.9 136.15 44.9 L149.25 44.9 Q150.2 44.9 151.05 45.35 L152.25 46.45 153.05 47.75 Q153.55 48.85 153.55 50.25 153.55 52.5 152.25 54.05 L151.85 54.55 146.55 58.55 Q145.1 59.75 143.65 59.9 L142.9 59.9 Q141.05 59.85 139.1 58.65 L133.8 54.75 133.55 54.5 133.15 54.05 132.9 53.7 Q132.35 52.9 132.1 51.9 L131.9 50.25 Q131.9 48.25 132.9 46.8 L133.55 46.35 Q134.1 46.05 134.8 46.05 L147.9 46.05 Q148.65 46.05 149.25 46.35 L149.45 46.5 Q149.9 46.8 150.3 47.25 151.0 48.15 151.2 49.25 L151.3 49.95 151.3 50.25 Q151.3 52.0 150.3 53.25 L144.0 58.05 Q142.35 59.15 140.95 59.15 139.9 59.1 139.1 58.65 M158.1 36.0 Q156.5 34.75 154.8 33.65 L151.55 31.7 147.4 29.55 Q132.2 22.4 111.7 22.8 L107.15 22.8 107.9 22.85 Q130.65 23.7 146.75 33.5 L142.6 33.5 135.2 33.5 Q119.1 23.7 96.35 22.85 L95.6 22.8 80.85 22.8 78.45 22.8 79.2 22.85 Q104.65 23.8 121.8 36.0 M153.6 44.3 L153.75 44.5 154.85 46.4 Q157.5 44.1 161.05 43.4 M107.15 22.8 L103.0 22.8 103.8 22.85 Q126.5 23.7 142.6 33.5 M86.5 11.65 L87.95 11.65 Q83.05 9.85 76.1 9.1 L70.3 9.1 Q77.3 9.85 82.2 11.65 L85.85 11.65 M95.7 16.5 Q92.95 13.5 87.95 11.65 M83.0 14.0 L86.95 14.0 Q84.9 12.65 82.2 11.65 M79.4 19.8 L93.25 19.8 95.7 16.5 69.3 16.5 66.85 19.8 79.4 19.8 80.85 22.8 M115.6 49.25 L108.45 49.25 M115.6 49.25 L116.15 48.6 Q119.6 44.4 124.95 43.4 M118.85 49.25 L115.6 49.25 Q113.55 52.0 112.25 55.95 L112.35 55.95 117.4 55.95 118.85 55.95 Q119.95 52.6 121.6 50.15 L122.2 49.25 119.3 49.25 M107.95 49.25 L106.3 49.25 Q88.8 31.6 62.3 30.15 L62.3 34.4 63.8 36.9 M103.0 22.8 L95.6 22.8 M112.35 55.95 Q112.6 57.05 113.6 58.05 115.15 59.25 116.85 58.95 L119.4 58.5 119.2 58.35 118.4 57.45 117.4 55.95 M119.7 58.8 L119.55 59.05 119.05 59.75 119.05 59.8 119.25 60.05 119.55 60.5 120.95 61.85 Q121.8 62.55 122.7 62.85 L124.5 63.15 124.6 63.15 125.7 63.05 120.6 59.45 119.7 58.8 119.4 58.5 M110.8 63.15 L109.0 62.85 107.25 61.85 Q106.35 61.15 105.55 60.05 L105.35 59.8 Q104.35 58.3 103.8 56.6 L103.65 55.95 99.25 55.95 Q99.65 57.55 100.35 59.0 L100.95 60.05 101.25 60.55 102.05 61.6 Q102.85 62.55 103.8 63.15 L105.55 64.0 107.3 64.2 107.35 64.2 108.5 64.1 Q109.7 63.9 110.8 63.15 L110.9 63.15 112.3 63.0 113.25 62.7 114.25 62.1 113.25 62.0 112.45 61.7 110.75 60.55 110.25 60.05 109.45 59.05 109.05 58.3 108.0 55.95 103.65 55.95 M114.15 66.35 L113.8 66.35 112.35 66.2 110.55 65.6 Q109.65 65.1 108.8 64.4 L108.65 64.25 108.5 64.1 M110.7 67.35 L110.2 67.35 108.9 67.25 108.65 67.2 107.1 66.7 Q106.2 66.35 105.35 65.7 L104.75 65.2 103.95 65.25 Q102.5 66.1 100.95 66.3 102.2 67.35 103.6 67.9 L105.45 68.35 106.6 68.4 107.25 68.4 108.65 68.2 110.7 67.35 Q112.55 67.25 114.15 66.35 116.0 66.25 117.6 65.25 L117.4 65.25 115.8 65.1 114.0 64.35 112.3 63.05 112.3 63.0 M103.95 65.25 L103.7 65.25 102.1 65.1 100.3 64.35 98.6 63.05 97.15 61.3 96.9 60.9 96.4 60.05 Q95.65 58.6 95.15 56.95 L94.9 55.95 90.6 55.95 90.5 55.85 90.55 55.95 Q91.0 58.15 91.9 60.05 L92.05 60.4 93.0 62.0 93.4 62.55 94.95 64.25 95.1 64.4 96.85 65.6 98.65 66.2 100.1 66.35 100.45 66.35 100.95 66.3 M103.8 69.45 L103.0 69.45 102.0 69.45 100.4 69.1 Q98.7 68.55 97.2 67.35 L97.0 67.35 Q96.0 67.95 94.95 68.2 L93.55 68.4 93.45 68.45 Q96.1 70.5 99.4 70.5 L100.3 70.5 100.65 70.45 Q102.3 70.25 103.8 69.45 105.6 69.3 107.25 68.4 M107.35 64.2 Q106.1 65.0 104.75 65.2 M121.0 64.2 Q119.45 65.2 117.6 65.25 M121.0 64.2 L119.25 64.0 117.5 63.15 Q116.7 62.65 116.05 61.9 L114.5 62.1 114.25 62.1 M108.0 55.95 L112.25 55.95 M119.05 59.75 Q117.7 61.4 116.05 61.9 M94.9 55.95 L99.25 55.95 M97.0 67.35 L96.5 67.35 95.2 67.25 94.95 67.2 93.4 66.7 91.65 65.7 Q90.2 64.6 88.95 62.75 L87.6 60.4 87.45 60.05 Q85.8 56.35 85.8 51.6 L85.85 51.5 81.65 48.55 Q81.5 50.0 81.5 51.6 81.5 55.1 82.35 58.1 L83.1 60.4 Q83.8 62.05 84.8 63.5 L86.7 65.8 Q88.2 67.25 89.9 67.9 L91.75 68.35 92.9 68.4 93.4 68.4 93.55 68.4 M85.85 51.5 Q88.35 53.5 90.5 55.85 M84.0 71.4 L83.9 71.45 82.05 71.6 79.35 71.25 76.65 71.6 75.65 71.55 76.25 73.2 87.25 73.2 90.3 75.75 85.9 81.85 80.85 81.85 73.95 86.3 58.45 86.3 37.55 86.3 34.7 83.05 32.2 83.05 28.4 79.25 26.85 79.25 21.3 73.45 21.3 71.15 22.3 70.45 16.5 67.75 16.5 66.2 17.3 66.4 17.3 65.2 15.05 64.55 15.05 62.7 16.0 62.85 16.0 61.55 Q13.75 60.65 11.1 59.9 7.1 58.75 2.3 57.95 L0.0 46.7 8.25 36.95 10.15 36.95 11.65 32.5 14.1 32.5 14.1 29.95 12.95 29.95 12.15 26.05 10.65 26.05 9.3 22.75 7.9 19.5 Q9.5 15.9 13.3 13.45 L7.1 2.45 7.1 0.35 8.3 0.0 9.95 0.0 19.8 10.65 24.15 9.6 27.25 9.1 27.3 9.1 25.15 2.45 25.5 0.35 26.65 0.0 28.05 0.0 33.8 9.1 49.7 9.1 61.25 9.1 66.35 9.1 70.3 9.1 M90.1 69.45 L89.8 69.6 Q91.3 70.75 93.05 71.25 L95.75 71.6 Q98.2 71.6 100.3 70.5 M90.1 69.45 L89.6 69.45 89.3 69.45 88.3 69.45 86.7 69.1 Q83.3 68.05 80.7 64.25 79.5 62.45 78.7 60.4 L78.0 58.1 Q77.2 55.1 77.2 51.6 77.2 48.75 77.7 46.25 75.8 45.25 73.8 44.4 72.85 47.7 72.85 51.6 72.85 55.1 73.6 58.1 L74.3 60.4 Q75.15 62.85 76.6 65.0 80.35 70.5 85.7 70.5 L86.6 70.5 86.95 70.45 89.8 69.6 M86.6 70.5 L86.3 70.65 87.0 71.05 87.65 71.25 90.35 71.6 93.05 71.25 M87.65 71.25 L87.0 71.4 Q85.4 71.7 84.0 71.4 L86.3 70.65 M100.45 66.35 Q98.9 67.2 97.2 67.35 M93.45 68.45 L93.4 68.4 M93.45 68.45 Q91.85 69.3 90.1 69.45 M154.85 46.4 Q155.5 48.05 155.55 50.05 L155.55 50.45 Q155.5 53.7 153.75 56.05 L152.55 57.3 147.7 61.0 Q146.6 61.9 144.85 62.25 L144.75 62.3 134.25 64.95 131.35 64.95 Q128.25 64.8 125.75 63.1 L125.7 63.05 M124.5 63.15 Q122.9 64.2 121.0 64.2 M83.0 14.0 Q80.95 12.65 78.25 11.65 L78.2 11.65 Q73.3 9.85 66.35 9.1 M83.0 14.0 L77.85 14.0 Q75.8 12.65 73.15 11.65 L73.1 11.65 69.65 11.65 M69.0 11.65 L61.6 11.65 Q66.55 13.55 69.3 16.5 M61.25 19.8 L66.85 19.8 M66.35 22.8 L62.7 22.8 61.4 22.8 57.2 27.7 57.2 34.15 57.85 35.25 M62.7 22.8 L61.25 19.8 22.4 19.8 23.55 22.8 26.15 22.8 31.2 22.8 36.25 22.8 41.25 22.8 46.3 22.8 51.35 22.8 56.35 22.8 61.4 22.8 M78.45 22.8 L77.75 22.8 76.95 22.8 72.6 22.8 66.35 22.8 62.3 27.55 62.3 30.15 M73.1 11.65 Q68.2 9.85 61.25 9.1 M61.6 11.65 L47.55 11.65 44.65 15.35 30.55 15.35 M56.35 22.8 L52.05 27.9 52.05 33.9 52.85 35.25 M51.35 22.8 L46.85 28.05 46.85 33.7 47.8 35.25 M46.3 22.8 L41.7 28.2 41.7 33.45 42.75 35.25 M49.6 38.2 L49.75 38.25 52.2 38.6 55.1 39.05 53.05 35.55 M44.2 37.65 L44.45 37.7 46.25 37.85 49.6 38.2 48.0 35.55 M19.0 40.35 L26.4 40.35 28.4 42.35 46.95 42.35 49.2 39.0 M46.95 42.35 L49.85 42.35 51.05 40.4 M41.0 40.1 L44.75 40.1 46.25 37.85 M44.95 44.5 L45.15 43.8 Q45.4 43.45 45.75 43.45 46.1 43.45 46.35 43.8 L46.6 44.6 46.6 44.7 47.4 44.8 47.4 44.6 Q47.4 44.15 47.65 43.8 47.9 43.45 48.25 43.45 48.6 43.45 48.85 43.8 L49.1 44.6 49.0 45.1 50.0 45.25 49.85 44.6 Q49.85 44.15 50.1 43.8 50.35 43.45 50.7 43.45 51.05 43.45 51.3 43.8 L51.55 44.6 51.3 45.45 51.3 45.5 52.85 45.85 Q53.55 42.15 55.3 39.05 L55.2 39.05 55.1 39.05 M47.4 44.8 L49.0 45.1 M44.95 44.5 L46.6 44.7 M51.25 40.1 L52.2 38.6 M55.3 39.05 L60.15 40.05 60.8 40.2 58.05 35.55 M58.0 47.3 Q58.55 43.35 60.15 40.05 M52.85 45.85 L58.0 47.3 Q60.8 48.25 63.2 49.4 63.5 45.0 65.0 41.3 L61.15 40.25 60.8 40.2 M49.85 42.35 L52.75 42.35 M50.0 45.25 L51.3 45.5 M42.95 35.55 L44.2 37.65 39.3 37.3 38.95 37.3 34.25 37.1 33.8 37.1 29.25 37.05 28.75 37.05 27.4 37.05 29.95 40.1 40.5 40.1 M66.7 41.8 L69.85 42.85 Q71.85 43.55 73.8 44.4 M64.0 37.2 L66.7 41.8 65.0 41.3 M61.6 11.65 Q56.7 9.85 49.7 9.1 M33.8 9.1 L31.45 9.1 27.3 9.1 M19.0 26.05 L21.8 22.8 23.55 22.8 M26.65 0.0 L31.45 9.1 M19.8 10.65 L18.5 11.0 17.45 11.4 Q15.15 12.3 13.3 13.45 M9.3 22.75 L13.05 22.75 19.5 15.35 29.7 15.35 M8.3 0.0 L17.45 11.4 M16.5 29.95 L16.5 29.0 19.0 26.05 14.85 26.05 12.15 26.05 M14.1 29.95 L14.5 29.95 M14.1 32.5 L14.5 32.5 M12.05 36.95 L10.15 36.95 M16.5 29.95 L16.5 32.3 16.65 32.5 19.5 37.3 23.8 37.15 22.85 35.55 M14.85 29.95 L16.5 29.95 M14.85 32.5 L16.65 32.5 M12.05 36.95 L17.0 36.95 19.0 40.35 21.05 43.75 24.35 43.75 25.75 43.75 27.45 43.8 29.05 43.75 44.95 44.5 M12.05 36.95 L16.2 43.9 21.05 43.75 M36.25 22.8 L31.35 28.55 31.35 33.0 32.7 35.25 M41.25 22.8 L36.55 28.4 36.55 33.2 37.75 35.25 M32.9 35.55 L33.8 37.1 M31.2 22.8 L26.2 28.7 26.2 32.75 27.65 35.25 M26.15 22.8 L21.0 28.85 21.0 32.5 22.65 35.25 M23.8 37.15 L24.35 37.15 24.6 37.1 27.4 37.05 M27.85 35.55 L28.75 37.05 M27.3 38.65 L27.05 39.5 Q26.8 39.85 26.45 39.85 26.1 39.85 25.85 39.5 25.6 39.15 25.6 38.65 L25.85 37.85 Q26.1 37.5 26.45 37.5 26.8 37.5 27.05 37.85 L27.3 38.65 M24.85 38.65 L24.6 39.5 Q24.35 39.85 23.95 39.85 23.65 39.85 23.4 39.5 L23.15 38.65 Q23.15 38.2 23.4 37.85 23.65 37.5 23.95 37.5 24.35 37.5 24.6 37.85 L24.85 38.65 M22.35 38.65 L22.1 39.5 21.5 39.85 Q21.15 39.85 20.9 39.5 20.65 39.15 20.65 38.65 20.65 38.2 20.9 37.85 21.15 37.5 21.5 37.5 L22.1 37.85 22.35 38.65 M24.35 43.75 L24.45 43.9 27.45 43.8 Q48.4 44.45 59.05 51.8 L62.55 51.8 M37.95 35.55 L38.95 37.3 M14.85 26.05 L20.15 19.8 22.4 19.8 M33.75 73.8 L31.85 73.8 Q26.9 73.4 24.2 70.8 L23.3 69.75 22.3 70.45 M21.9 67.45 L21.5 66.4 17.3 65.2 M49.1 67.45 L25.75 67.45 Q23.8 65.55 21.1 63.95 21.15 65.25 21.5 66.4 M23.3 69.75 Q22.4 68.65 21.9 67.45 L17.3 66.4 M38.15 73.8 L38.35 73.2 Q38.15 72.15 37.15 71.95 36.05 71.8 35.25 72.95 L34.65 73.8 34.3 74.6 Q33.9 75.8 34.1 77.3 34.5 80.2 37.15 81.75 39.2 82.95 40.75 82.95 L41.6 82.85 Q42.5 82.65 42.55 82.05 42.6 80.8 41.45 80.55 L40.7 80.55 38.45 80.0 Q36.15 78.85 36.2 76.4 36.25 74.95 37.8 74.1 L38.15 73.8 41.25 73.8 41.85 72.95 Q42.65 71.8 43.75 71.95 44.75 72.15 44.95 73.2 L44.75 73.8 47.85 73.8 48.45 72.95 Q49.25 71.8 50.35 71.95 51.35 72.15 51.55 73.2 L51.35 73.8 59.1 73.8 Q54.1 73.4 51.45 70.8 49.9 69.25 49.1 67.45 L55.25 67.45 64.85 57.25 Q62.5 54.2 59.05 51.8 L46.4 51.8 M34.65 73.8 L33.75 73.8 31.85 77.25 31.85 79.8 34.7 83.05 M16.0 62.85 L17.6 63.0 M17.85 63.05 L19.8 63.25 Q18.05 62.35 16.0 61.55 M11.1 59.9 L34.35 59.9 44.05 51.8 45.7 51.8 M21.1 63.95 L19.8 63.25 M63.2 49.4 Q65.4 50.5 67.3 51.8 L68.55 52.7 68.5 51.6 Q68.5 46.85 69.85 42.85 M63.2 51.8 L67.3 51.8 M73.95 71.25 L73.3 71.05 Q69.8 69.75 67.05 65.75 L66.3 64.5 63.45 67.45 62.95 67.45 Q65.45 70.35 68.55 71.25 L70.55 71.55 71.25 71.6 73.3 71.4 73.95 71.25 75.65 71.55 M68.55 71.25 L65.85 71.6 64.75 71.55 64.1 71.45 Q62.55 73.45 59.35 73.8 L59.1 73.8 59.5 74.85 61.25 74.85 63.45 73.2 69.4 73.2 76.25 73.2 M79.35 71.25 Q76.0 70.25 73.3 66.9 L72.45 65.75 Q70.9 63.35 69.9 60.65 L66.3 64.5 M73.1 57.25 L69.9 60.65 M68.55 52.7 Q71.2 54.75 73.1 57.25 L64.85 57.25 M47.3 80.55 L45.05 80.0 Q42.75 78.85 42.8 76.4 42.85 74.95 44.4 74.1 L44.75 73.8 M57.55 67.45 L55.25 67.45 M53.9 80.55 Q52.7 80.5 51.65 80.0 49.35 78.85 49.4 76.4 49.45 74.95 51.0 74.1 L51.35 73.8 M59.5 74.85 L55.75 74.85 59.0 81.85 64.35 81.85 68.9 81.85 71.65 75.75 69.4 73.2 M53.9 80.55 Q53.95 79.95 54.75 79.9 55.75 79.85 56.3 80.9 56.7 81.8 56.3 82.7 56.0 83.45 54.85 83.5 54.05 83.4 53.95 82.95 52.4 82.95 50.35 81.75 L49.85 81.45 49.7 82.7 Q49.4 83.45 48.25 83.5 47.45 83.4 47.35 82.95 45.8 82.95 43.75 81.75 L43.25 81.45 43.1 82.7 Q42.8 83.45 41.65 83.5 40.85 83.4 40.75 82.95 M53.9 80.55 L54.65 80.55 Q55.8 80.8 55.75 82.05 55.7 82.65 54.8 82.85 L53.95 82.95 M47.85 73.8 L47.5 74.6 Q47.1 75.8 47.3 77.3 47.5 78.8 48.3 79.9 48.9 80.8 49.85 81.45 M47.3 80.55 Q47.35 79.95 48.15 79.9 L48.3 79.9 M40.7 80.55 Q40.75 79.95 41.55 79.9 L41.7 79.9 Q40.9 78.8 40.7 77.3 40.5 75.8 40.9 74.6 L41.25 73.8 M47.3 80.55 L48.05 80.55 Q49.2 80.8 49.15 82.05 49.1 82.65 48.2 82.85 L47.35 82.95 M41.7 79.9 Q42.3 80.8 43.25 81.45 M68.9 81.85 L80.85 81.85 M58.45 86.3 L64.35 81.85 M64.1 71.45 Q60.4 70.8 57.55 67.45 L62.95 67.45 M71.65 75.75 L90.3 75.75 M77.7 46.25 L81.65 48.55" ffdec:has-small-stroke="true" ffdec:original-stroke-width="0.1" fill="none" stroke="#000000" stroke-linecap="round" stroke-linejoin="round" stroke-opacity="0.3019608" stroke-width="1.0"/>
    </g>
    <linearGradient gradientTransform="matrix(0.0, 0.0077, -0.0118, 0.0, 121.9, 49.7)" gradientUnits="userSpaceOnUse" id="gradient0" spreadMethod="pad" x1="-819.2" x2="819.2">
      <stop offset="0.0" stop-color="#4c4c4c"/>
      <stop offset="1.0" stop-color="#8c8c8c"/>
    </linearGradient>
    <linearGradient gradientTransform="matrix(0.0, -0.0152, 0.0197, 0.0, 133.55, 52.55)" gradientUnits="userSpaceOnUse" id="gradient1" spreadMethod="pad" x1="-819.2" x2="819.2">
      <stop offset="0.0" stop-color="#333333"/>
      <stop offset="0.7686274509803922" stop-color="#8e8e8e"/>
      <stop offset="1.0" stop-color="#666666"/>
    </linearGradient>
    <radialGradient cx="0" cy="0" gradientTransform="matrix(0.03, 0.0, 0.0, 0.03, 132.35, 44.4)" gradientUnits="userSpaceOnUse" id="gradient2" r="819.2" spreadMethod="pad">
      <stop offset="0.0" stop-color="#999999"/>
      <stop offset="1.0" stop-color="#333333"/>
    </radialGradient>
    <radialGradient cx="0" cy="0" gradientTransform="matrix(0.0212, 0.0, 0.0, 0.0212, 146.55, 57.45)" gradientUnits="userSpaceOnUse" id="gradient3" r="819.2" spreadMethod="pad">
      <stop offset="0.0" stop-color="#999999"/>
      <stop offset="1.0" stop-color="#333333"/>
    </radialGradient>
    <radialGradient cx="0" cy="0" gradientTransform="matrix(0.0166, 0.0, 0.0, 0.0166, 137.8, 50.85)" gradientUnits="userSpaceOnUse" id="gradient4" r="819.2" spreadMethod="pad">
      <stop offset="0.0" stop-color="#ff6600"/>
      <stop offset="1.0" stop-color="#cc0000"/>
    </radialGradient>
    <linearGradient gradientTransform="matrix(0.0, 0.0081, -0.0491, 0.0, 117.95, 29.4)" gradientUnits="userSpaceOnUse" id="gradient5" spreadMethod="pad" x1="-819.2" x2="819.2">
      <stop offset="0.0" stop-color="#b2b2b2"/>
      <stop offset="1.0" stop-color="#7a7a7a"/>
    </linearGradient>
    <radialGradient cx="0" cy="0" gradientTransform="matrix(0.0464, 0.0, 0.0, 0.0464, 132.2, 30.2)" gradientUnits="userSpaceOnUse" id="gradient6" r="819.2" spreadMethod="pad">
      <stop offset="0.0" stop-color="#ff6600"/>
      <stop offset="1.0" stop-color="#cc0000"/>
    </radialGradient>
    <linearGradient gradientTransform="matrix(0.0, 0.0045, -0.0281, 0.0, 72.7, 12.8)" gradientUnits="userSpaceOnUse" id="gradient7" spreadMethod="pad" x1="-819.2" x2="819.2">
      <stop offset="0.0" stop-color="#b2b2b2"/>
      <stop offset="1.0" stop-color="#7a7a7a"/>
    </linearGradient>
    <radialGradient cx="0" cy="0" gradientTransform="matrix(0.0113, 0.0, 0.0, 0.0113, 110.75, 56.6)" gradientUnits="userSpaceOnUse" id="gradient8" r="819.2" spreadMethod="pad">
      <stop offset="0.0" stop-color="#919191"/>
      <stop offset="0.27450980392156865" stop-color="#666666"/>
      <stop offset="1.0" stop-color="#212121"/>
    </radialGradient>
    <linearGradient gradientTransform="matrix(0.0, -0.0019, 0.0043, 0.0, 115.85, 57.5)" gradientUnits="userSpaceOnUse" id="gradient9" spreadMethod="pad" x1="-819.2" x2="819.2">
      <stop offset="0.0" stop-color="#333333"/>
      <stop offset="1.0" stop-color="#666666"/>
    </linearGradient>
    <radialGradient cx="0" cy="0" gradientTransform="matrix(0.0083, 0.0, 0.0, 0.0083, 117.9, 61.45)" gradientUnits="userSpaceOnUse" id="gradient10" r="819.2" spreadMethod="pad">
      <stop offset="0.0" stop-color="#666666"/>
      <stop offset="1.0" stop-color="#212121"/>
    </radialGradient>
    <radialGradient cx="0" cy="0" gradientTransform="matrix(0.0068, 0.0, 0.0, 0.0068, 120.8, 60.4)" gradientUnits="userSpaceOnUse" id="gradient11" r="819.2" spreadMethod="pad">
      <stop offset="0.0" stop-color="#666666"/>
      <stop offset="1.0" stop-color="#212121"/>
    </radialGradient>
    <radialGradient cx="0" cy="0" gradientTransform="matrix(0.0133, 0.0, 0.0, 0.0133, 101.65, 57.25)" gradientUnits="userSpaceOnUse" id="gradient12" r="819.2" spreadMethod="pad">
      <stop offset="0.0" stop-color="#919191"/>
      <stop offset="0.27450980392156865" stop-color="#666666"/>
      <stop offset="1.0" stop-color="#212121"/>
    </radialGradient>
    <radialGradient cx="0" cy="0" gradientTransform="matrix(0.0116, 0.0, 0.0, 0.0116, 106.25, 56.95)" gradientUnits="userSpaceOnUse" id="gradient13" r="819.2" spreadMethod="pad">
      <stop offset="0.0" stop-color="#919191"/>
      <stop offset="0.27450980392156865" stop-color="#666666"/>
      <stop offset="1.0" stop-color="#212121"/>
    </radialGradient>
    <radialGradient cx="0" cy="0" gradientTransform="matrix(0.0145, 0.0, 0.0, 0.0145, 97.55, 57.45)" gradientUnits="userSpaceOnUse" id="gradient14" r="819.2" spreadMethod="pad">
      <stop offset="0.0" stop-color="#919191"/>
      <stop offset="0.27450980392156865" stop-color="#666666"/>
      <stop offset="1.0" stop-color="#212121"/>
    </radialGradient>
    <radialGradient cx="0" cy="0" gradientTransform="matrix(0.0084, 0.0, 0.0, 0.0084, 110.85, 64.25)" gradientUnits="userSpaceOnUse" id="gradient15" r="819.2" spreadMethod="pad">
      <stop offset="0.0" stop-color="#666666"/>
      <stop offset="1.0" stop-color="#212121"/>
    </radialGradient>
    <radialGradient cx="0" cy="0" gradientTransform="matrix(0.0094, 0.0, 0.0, 0.0094, 106.55, 65.0)" gradientUnits="userSpaceOnUse" id="gradient16" r="819.2" spreadMethod="pad">
      <stop offset="0.0" stop-color="#666666"/>
      <stop offset="1.0" stop-color="#212121"/>
    </radialGradient>
    <radialGradient cx="0" cy="0" gradientTransform="matrix(0.0092, 0.0, 0.0, 0.0092, 103.25, 66.2)" gradientUnits="userSpaceOnUse" id="gradient17" r="819.2" spreadMethod="pad">
      <stop offset="0.0" stop-color="#666666"/>
      <stop offset="1.0" stop-color="#212121"/>
    </radialGradient>
    <radialGradient cx="0" cy="0" gradientTransform="matrix(0.0157, 0.0, 0.0, 0.0157, 93.25, 58.1)" gradientUnits="userSpaceOnUse" id="gradient18" r="819.2" spreadMethod="pad">
      <stop offset="0.0" stop-color="#919191"/>
      <stop offset="0.27450980392156865" stop-color="#666666"/>
      <stop offset="1.0" stop-color="#212121"/>
    </radialGradient>
    <radialGradient cx="0" cy="0" gradientTransform="matrix(0.0095, 0.0, 0.0, 0.0095, 96.05, 68.65)" gradientUnits="userSpaceOnUse" id="gradient19" r="819.2" spreadMethod="pad">
      <stop offset="0.0" stop-color="#666666"/>
      <stop offset="1.0" stop-color="#212121"/>
    </radialGradient>
    <radialGradient cx="0" cy="0" gradientTransform="matrix(0.0094, 0.0, 0.0, 0.0094, 99.6, 67.4)" gradientUnits="userSpaceOnUse" id="gradient20" r="819.2" spreadMethod="pad">
      <stop offset="0.0" stop-color="#666666"/>
      <stop offset="1.0" stop-color="#212121"/>
    </radialGradient>
    <radialGradient cx="0" cy="0" gradientTransform="matrix(0.0082, 0.0, 0.0, 0.0082, 114.35, 63.1)" gradientUnits="userSpaceOnUse" id="gradient21" r="819.2" spreadMethod="pad">
      <stop offset="0.0" stop-color="#666666"/>
      <stop offset="1.0" stop-color="#212121"/>
    </radialGradient>
    <radialGradient cx="0" cy="0" gradientTransform="matrix(0.0189, 0.0, 0.0, 0.0189, 88.1, 56.95)" gradientUnits="userSpaceOnUse" id="gradient22" r="819.2" spreadMethod="pad">
      <stop offset="0.0" stop-color="#919191"/>
      <stop offset="0.27450980392156865" stop-color="#666666"/>
      <stop offset="1.0" stop-color="#212121"/>
    </radialGradient>
    <radialGradient cx="0" cy="0" gradientTransform="matrix(0.0217, 0.0, 0.0, 0.0217, 84.0, 55.3)" gradientUnits="userSpaceOnUse" id="gradient23" r="819.2" spreadMethod="pad">
      <stop offset="0.0" stop-color="#919191"/>
      <stop offset="0.27450980392156865" stop-color="#666666"/>
      <stop offset="1.0" stop-color="#212121"/>
    </radialGradient>
    <radialGradient cx="0" cy="0" gradientTransform="matrix(0.0254, 0.0, 0.0, 0.0254, 78.7, 53.8)" gradientUnits="userSpaceOnUse" id="gradient24" r="819.2" spreadMethod="pad">
      <stop offset="0.0" stop-color="#919191"/>
      <stop offset="0.27450980392156865" stop-color="#666666"/>
      <stop offset="1.0" stop-color="#212121"/>
    </radialGradient>
    <radialGradient cx="0" cy="0" gradientTransform="matrix(0.0297, 0.0, 0.0, 0.0297, 70.95, 51.8)" gradientUnits="userSpaceOnUse" id="gradient25" r="819.2" spreadMethod="pad">
      <stop offset="0.0" stop-color="#919191"/>
      <stop offset="0.27450980392156865" stop-color="#666666"/>
      <stop offset="1.0" stop-color="#212121"/>
    </radialGradient>
    <radialGradient cx="0" cy="0" gradientTransform="matrix(0.0089, 0.0, 0.0, 0.0089, 93.1, 69.5)" gradientUnits="userSpaceOnUse" id="gradient26" r="819.2" spreadMethod="pad">
      <stop offset="0.0" stop-color="#666666"/>
      <stop offset="1.0" stop-color="#212121"/>
    </radialGradient>
    <radialGradient cx="0" cy="0" gradientTransform="matrix(0.0275, 0.0, 0.0, 0.0275, 74.6, 53.15)" gradientUnits="userSpaceOnUse" id="gradient27" r="819.2" spreadMethod="pad">
      <stop offset="0.0" stop-color="#919191"/>
      <stop offset="0.27450980392156865" stop-color="#666666"/>
      <stop offset="1.0" stop-color="#212121"/>
    </radialGradient>
    <radialGradient cx="0" cy="0" gradientTransform="matrix(0.0027, 0.0, 0.0, 0.0027, 85.9, 70.95)" gradientUnits="userSpaceOnUse" id="gradient28" r="819.2" spreadMethod="pad">
      <stop offset="0.0" stop-color="#666666"/>
      <stop offset="1.0" stop-color="#212121"/>
    </radialGradient>
    <radialGradient cx="0" cy="0" gradientTransform="matrix(0.0051, 0.0, 0.0, 0.0051, 88.95, 70.2)" gradientUnits="userSpaceOnUse" id="gradient29" r="819.2" spreadMethod="pad">
      <stop offset="0.0" stop-color="#666666"/>
      <stop offset="1.0" stop-color="#212121"/>
    </radialGradient>
    <radialGradient cx="0" cy="0" gradientTransform="matrix(0.0191, 0.0, 0.0, 0.0191, 76.55, 12.25)" gradientUnits="userSpaceOnUse" id="gradient30" r="819.2" spreadMethod="pad">
      <stop offset="0.0" stop-color="#ff6600"/>
      <stop offset="1.0" stop-color="#cc0000"/>
    </radialGradient>
    <linearGradient gradientTransform="matrix(0.0, 0.0083, -0.0279, 0.0, 50.25, 50.5)" gradientUnits="userSpaceOnUse" id="gradient31" spreadMethod="pad" x1="-819.2" x2="819.2">
      <stop offset="0.0" stop-color="#b2b2b2"/>
      <stop offset="1.0" stop-color="#7a7a7a"/>
    </linearGradient>
    <radialGradient cx="0" cy="0" gradientTransform="matrix(0.0329, 0.0, 0.0, 0.0329, 55.45, 47.7)" gradientUnits="userSpaceOnUse" id="gradient32" r="819.2" spreadMethod="pad">
      <stop offset="0.0" stop-color="#919191"/>
      <stop offset="0.27450980392156865" stop-color="#666666"/>
      <stop offset="1.0" stop-color="#212121"/>
    </radialGradient>
    <radialGradient cx="0" cy="0" gradientTransform="matrix(0.0313, 0.0, 0.0, 0.0313, 61.05, 49.0)" gradientUnits="userSpaceOnUse" id="gradient33" r="819.2" spreadMethod="pad">
      <stop offset="0.0" stop-color="#919191"/>
      <stop offset="0.27450980392156865" stop-color="#666666"/>
      <stop offset="1.0" stop-color="#212121"/>
    </radialGradient>
    <radialGradient cx="0" cy="0" gradientTransform="matrix(0.0298, 0.0, 0.0, 0.0298, 66.0, 50.85)" gradientUnits="userSpaceOnUse" id="gradient34" r="819.2" spreadMethod="pad">
      <stop offset="0.0" stop-color="#919191"/>
      <stop offset="0.27450980392156865" stop-color="#666666"/>
      <stop offset="1.0" stop-color="#212121"/>
    </radialGradient>
    <linearGradient gradientTransform="matrix(0.0, -0.006, 0.0232, 0.0, 40.1, 68.9)" gradientUnits="userSpaceOnUse" id="gradient35" spreadMethod="pad" x1="-819.2" x2="819.2">
      <stop offset="0.0" stop-color="#333333"/>
      <stop offset="1.0" stop-color="#666666"/>
    </linearGradient>
    <radialGradient cx="0" cy="0" gradientTransform="matrix(0.0121, 0.0, 0.0, 0.0121, 58.4, 69.95)" gradientUnits="userSpaceOnUse" id="gradient36" r="819.2" spreadMethod="pad">
      <stop offset="0.0" stop-color="#999999"/>
      <stop offset="1.0" stop-color="#333333"/>
    </radialGradient>
    <g id="shape1">
      <path d="M20.15 39.1 L17.7 32.9 20.35 37.4 25.45 37.35 28.25 37.3 29.55 37.3 30.05 37.3 33.95 37.35 34.6 37.35 35.0 37.35 39.65 37.55 40.0 37.55 44.85 37.9 45.1 37.9 46.9 38.1 50.2 38.45 50.35 38.5 52.8 38.8 55.85 39.3 56.0 39.35 57.15 39.55 60.6 40.25 60.7 40.3 60.75 40.3 61.3 40.4 61.6 40.5 61.7 40.55 65.5 41.5 65.65 41.55 67.05 42.0 67.15 42.0 70.25 43.05 70.45 43.1 72.25 43.8 74.15 44.55 74.3 44.6 76.3 45.55 78.05 46.4 78.2 46.5 80.2 47.6 81.95 48.65 82.1 48.75 83.85 49.95 86.1 51.6 86.25 51.75 87.15 52.45 88.15 53.35 90.8 56.0 118.9 56.0 Q120.0 52.75 121.6 50.35 L122.25 49.45 Q125.05 45.7 129.25 44.25 121.3 50.5 120.2 56.7 L109.9 57.05 109.9 57.65 109.95 58.05 110.05 58.3 110.05 58.35 110.45 59.65 110.65 60.1 111.2 60.95 110.85 60.65 110.0 59.7 109.6 59.15 109.2 58.45 109.15 58.3 108.85 57.8 108.55 57.1 105.4 57.2 105.6 58.45 105.7 58.95 105.7 59.2 105.9 59.85 Q106.2 60.65 106.65 61.3 L105.7 60.2 105.55 59.9 105.55 59.85 104.7 58.5 104.2 57.25 101.15 57.35 101.15 57.9 101.3 58.6 101.5 59.65 101.65 60.0 101.85 60.75 102.35 61.8 102.25 61.7 101.45 60.65 101.1 60.05 100.55 59.1 100.35 58.65 99.85 57.4 96.7 57.5 96.9 58.8 97.2 60.15 97.25 60.2 97.35 60.6 98.3 62.5 98.4 62.65 97.4 61.4 97.15 61.0 96.7 60.2 96.05 58.85 95.55 57.55 92.6 57.65 92.65 59.0 92.85 60.35 92.85 60.4 93.0 61.0 93.55 62.5 93.3 62.1 92.35 60.4 91.75 59.0 91.3 57.7 90.2 57.7 87.85 55.3 87.7 57.2 87.8 58.95 88.05 60.7 87.15 58.3 86.6 56.15 86.3 53.95 85.5 53.3 83.45 51.75 83.2 53.4 83.05 54.9 83.05 57.8 83.4 60.1 82.75 58.25 Q82.2 56.35 82.0 54.2 L81.9 52.5 81.9 51.8 81.9 51.15 81.95 50.75 81.35 50.35 79.7 49.35 79.4 50.55 79.3 50.9 79.15 51.55 79.0 52.3 Q78.4 55.3 78.6 57.95 L78.7 59.2 78.45 58.25 Q77.65 55.3 77.65 51.8 L77.65 51.5 77.7 50.15 77.7 50.0 77.85 48.35 77.45 48.1 75.65 47.2 75.15 48.65 74.9 49.45 74.75 50.05 74.4 51.55 Q73.8 54.45 73.8 56.95 73.35 54.55 73.35 51.8 L73.45 49.4 73.5 49.1 73.6 47.95 73.85 46.4 73.55 46.25 71.35 45.4 70.7 46.75 70.15 48.05 70.05 48.25 69.05 51.4 Q69.05 49.65 69.3 48.05 L69.35 47.75 69.55 46.35 69.9 44.85 69.65 44.75 66.55 43.7 66.05 43.55 65.3 44.9 64.7 46.2 64.4 46.85 63.95 48.0 64.15 46.8 64.25 46.1 64.6 44.7 65.0 43.25 64.9 43.2 61.0 42.2 60.8 42.15 60.15 43.5 59.55 44.85 59.3 45.6 58.7 47.3 59.0 45.55 59.2 44.8 59.6 43.4 60.1 42.0 60.0 41.95 56.1 41.15 55.3 42.5 54.65 43.85 54.4 44.4 53.55 46.1 54.0 44.3 54.15 43.75 54.6 42.4 55.15 41.0 52.2 40.5 49.75 40.2 49.6 40.15 46.3 39.8 44.5 39.6 44.25 39.6 39.4 39.25 39.05 39.25 34.4 39.05 34.0 39.05 33.35 39.05 29.45 39.0 28.95 39.0 27.65 39.0 24.85 39.05 20.15 39.1 M80.35 21.95 L80.8 22.85 21.6 22.85 16.9 28.4 18.6 24.85 20.9 21.95 80.35 21.95" fill="#ff0000" fill-opacity="0.6" fill-rule="evenodd" stroke="none"/>
      <path d="M20.9 40.5 L20.15 39.1 24.85 39.05 27.65 39.0 28.95 39.0 29.45 39.0 33.35 39.05 34.0 39.05 34.4 39.05 39.05 39.25 39.4 39.25 44.25 39.6 44.5 39.6 46.3 39.8 49.6 40.15 49.75 40.2 52.2 40.5 55.15 41.0 54.6 42.4 51.6 41.9 49.15 41.6 49.0 41.55 45.7 41.2 43.9 41.0 43.65 41.0 39.35 40.7 38.8 40.65 38.45 40.65 33.8 40.45 33.4 40.45 32.75 40.45 28.85 40.4 28.35 40.4 27.05 40.4 24.25 40.45 20.9 40.5 M129.25 44.25 Q123.35 50.4 122.75 54.95 L121.1 57.3 119.55 57.9 110.05 58.3 109.95 58.05 109.9 57.65 109.9 57.05 120.2 56.7 Q121.3 50.5 129.25 44.25 M101.3 58.6 L101.15 57.9 101.15 57.35 104.2 57.25 104.7 58.5 101.3 58.6 M105.6 58.45 L105.4 57.2 108.55 57.1 108.85 57.8 109.15 58.3 105.6 58.45 M91.75 59.0 L89.6 59.1 87.7 57.2 87.85 55.3 90.2 57.7 91.3 57.7 91.75 59.0 M92.65 59.0 L92.6 57.65 95.55 57.55 96.05 58.85 92.65 59.0 M96.9 58.8 L96.7 57.5 99.85 57.4 100.35 58.65 96.9 58.8 M79.3 50.9 L79.4 50.55 79.7 49.35 81.35 50.35 81.95 50.75 81.9 51.15 81.9 51.8 81.9 52.5 80.75 51.75 79.3 50.9 M83.2 53.4 L83.45 51.75 85.5 53.3 86.3 53.95 86.6 56.15 84.9 54.7 83.2 53.4 M79.9 20.95 L80.35 21.95 20.9 21.95 18.6 24.85 16.9 28.4 17.85 24.05 20.4 20.95 79.9 20.95 M55.3 42.5 L56.1 41.15 60.0 41.95 60.1 42.0 59.6 43.4 59.5 43.4 59.4 43.35 55.3 42.5 M64.6 44.7 L64.3 44.6 60.4 43.6 60.15 43.5 60.8 42.15 61.0 42.2 64.9 43.2 65.0 43.25 64.6 44.7 M65.3 44.9 L66.05 43.55 66.55 43.7 69.65 44.75 69.9 44.85 69.55 46.35 69.05 46.15 65.95 45.1 65.3 44.9 M70.7 46.75 L71.35 45.4 73.55 46.25 73.85 46.4 73.6 47.95 72.95 47.65 70.7 46.75 M75.15 48.65 L75.65 47.2 77.45 48.1 77.85 48.35 77.7 50.0 76.85 49.5 75.15 48.65" fill="#ff0000" fill-opacity="0.34901962" fill-rule="evenodd" stroke="none"/>
      <path d="M129.25 44.25 Q124.5 51.35 125.0 55.3 L123.0 58.1 118.75 59.35 110.45 59.65 110.05 58.35 110.05 58.3 119.55 57.9 121.1 57.3 122.75 54.95 Q123.35 50.4 129.25 44.25 M110.0 59.7 L105.9 59.85 105.7 59.2 105.7 58.95 105.6 58.45 109.15 58.3 109.2 58.45 109.6 59.15 110.0 59.7 M105.55 59.85 L101.65 60.0 101.5 59.65 101.3 58.6 104.7 58.5 105.55 59.85 M101.1 60.05 L97.25 60.2 97.2 60.15 96.9 58.8 100.35 58.65 100.55 59.1 101.1 60.05 M96.7 60.2 L92.85 60.35 92.65 59.0 96.05 58.85 96.7 60.2 M92.35 60.4 L89.3 60.5 87.8 58.95 87.7 57.2 89.6 59.1 91.75 59.0 92.35 60.4 M87.15 58.3 L84.6 56.1 83.05 54.9 83.2 53.4 84.9 54.7 86.6 56.15 87.15 58.3 M82.0 54.2 L80.45 53.15 79.0 52.3 79.15 51.55 79.3 50.9 80.75 51.75 81.9 52.5 82.0 54.2 M77.65 51.5 L76.55 50.9 74.75 50.05 74.9 49.45 75.15 48.65 76.85 49.5 77.7 50.0 77.7 50.15 77.65 51.5 M73.45 49.4 L72.65 49.05 71.6 48.6 70.15 48.05 70.7 46.75 72.95 47.65 73.6 47.95 73.5 49.1 73.45 49.4 M69.35 47.75 L68.75 47.55 65.65 46.5 64.7 46.2 65.3 44.9 65.95 45.1 69.05 46.15 69.55 46.35 69.35 47.75 M64.25 46.1 L64.0 46.0 60.1 45.0 59.8 44.9 59.55 44.85 60.15 43.5 60.4 43.6 64.3 44.6 64.6 44.7 64.25 46.1 M59.2 44.8 L59.1 44.75 54.65 43.85 55.3 42.5 59.4 43.35 59.5 43.4 59.6 43.4 59.2 44.8 M54.15 43.75 L51.3 43.3 48.85 43.0 48.7 42.95 48.4 42.95 45.4 42.6 43.6 42.4 43.35 42.4 38.5 42.05 38.15 42.05 33.5 41.85 33.1 41.85 32.45 41.85 28.55 41.8 28.05 41.8 26.75 41.8 23.95 41.85 21.65 41.9 20.9 40.5 24.25 40.45 27.05 40.4 28.35 40.4 28.85 40.4 32.75 40.45 33.4 40.45 33.8 40.45 38.45 40.65 38.8 40.65 39.35 40.7 43.65 41.0 43.9 41.0 45.7 41.2 49.0 41.55 49.15 41.6 51.6 41.9 54.6 42.4 54.15 43.75 M16.9 28.4 L16.7 23.8 19.95 19.9 79.35 19.9 79.9 20.95 20.4 20.95 17.85 24.05 16.9 28.4" fill="#ff0000" fill-opacity="0.2" fill-rule="evenodd" stroke="none"/>
      <path d="M55.2 39.05 L60.0 40.0 60.05 40.05 60.7 40.2 61.05 40.25 64.9 41.25 66.6 41.8 69.75 42.8 73.7 44.35 77.6 46.25 Q79.7 47.3 81.55 48.5 L85.75 51.45 90.5 55.9 112.15 55.9 112.35 59.1 80.45 70.4 66.2 64.65 73.15 57.35 Q71.2 54.85 68.55 52.8 L67.35 51.9 Q65.45 50.55 63.2 49.5 L60.1 48.1 58.0 47.35 52.85 45.9 51.3 45.55 50.0 45.3 49.05 45.15 47.4 44.9 46.65 44.75 44.95 44.55 29.1 43.85 27.45 43.85 23.65 43.85 24.25 37.1 24.5 37.1 27.3 37.05 28.65 37.05 29.15 37.05 33.7 37.05 34.15 37.1 38.85 37.25 39.2 37.3 44.1 37.6 44.35 37.65 46.15 37.8 49.5 38.2 49.65 38.2 52.1 38.55 55.2 39.05" fill="url(#gradient37)" fill-rule="evenodd" stroke="none"/>
    </g>
    <radialGradient cx="0" cy="0" gradientTransform="matrix(0.1402, 0.0, 0.0, 0.055, 69.5, 51.45)" gradientUnits="userSpaceOnUse" id="gradient37" r="819.2" spreadMethod="pad">
      <stop offset="0.0" stop-color="#ff0000" stop-opacity="0.3019608"/>
      <stop offset="0.39215686274509803" stop-color="#ff0000" stop-opacity="0.0"/>
    </radialGradient>
    <g id="sprite2">
      <use ffdec:characterId="1766" height="58.35" transform="matrix(1.0, 0.0, 0.0, 1.0, 0.0, 0.0)" width="161.05" xlink:href="#shape2"/>
    </g>
    <g id="shape2">
      <path d="M130.15 31.05 L131.55 34.3 Q125.75 35.4 122.2 40.15 L121.6 41.05 Q119.95 43.5 118.85 46.85 L90.6 46.85 90.5 46.75 Q88.35 44.4 85.85 42.4 L81.65 39.45 77.7 37.15 Q75.8 36.15 73.8 35.3 71.85 34.45 69.85 33.75 L66.7 32.7 65.0 32.2 61.15 31.15 60.8 31.1 60.15 30.95 55.3 29.95 55.2 29.95 55.1 29.95 52.2 29.5 49.75 29.15 49.6 29.1 46.25 28.75 44.45 28.6 44.2 28.55 39.3 28.2 38.95 28.2 34.25 28.0 33.8 28.0 29.25 27.95 28.75 27.95 27.4 27.95 24.6 28.0 24.35 28.05 23.8 28.05 19.5 28.2 16.65 23.4 16.5 23.2 16.5 19.9 21.8 13.7 72.6 13.7 76.95 13.7 77.75 13.7 95.6 13.7 96.35 13.75 Q119.1 14.6 135.2 24.4 L146.75 24.4 Q130.65 14.6 107.9 13.75 L107.25 13.7 111.7 13.7 Q132.2 13.3 147.4 20.45 L151.55 22.6 154.8 24.55 Q156.5 25.65 158.1 26.9 L161.05 34.3 Q157.5 35.0 154.85 37.3 L153.75 35.4 153.6 35.2 Q152.15 33.4 150.3 33.05 L149.7 33.0 138.5 31.05 137.35 31.05 137.2 31.05 130.15 31.05 M86.95 4.9 Q84.9 3.55 82.2 2.55 77.3 0.75 70.3 0.0 L76.1 0.0 Q83.05 0.75 87.95 2.55 92.95 4.4 95.7 7.4 L93.25 10.7 20.15 10.7 14.85 16.95 10.65 16.95 7.9 10.4 Q9.5 6.8 13.3 4.35 15.15 3.2 17.45 2.3 L18.5 1.9 19.8 1.55 24.15 0.5 27.25 0.0 61.25 0.0 Q68.2 0.75 73.1 2.55 L73.15 2.55 Q75.8 3.55 77.85 4.9 L86.95 4.9 M49.0 36.0 L50.0 36.15 51.3 36.4 52.85 36.75 58.0 38.2 Q60.8 39.15 63.2 40.3 65.4 41.4 67.3 42.7 L68.55 43.6 Q71.2 45.65 73.1 48.15 L63.45 58.35 25.75 58.35 Q23.8 56.45 21.1 54.85 L19.8 54.15 Q18.05 53.25 16.0 52.45 13.75 51.55 11.1 50.8 7.1 49.65 2.3 48.85 L0.0 37.6 8.25 27.85 17.0 27.85 21.05 34.65 24.35 34.65 24.45 34.8 27.45 34.7 29.05 34.65 44.95 35.4 46.6 35.6 47.4 35.7 49.0 36.0" fill="#ffffff" fill-opacity="0.0" fill-rule="evenodd" stroke="none"/>
    </g>
  </defs>
</svg>
